<?xml version="1.0" encoding="utf-8" ?>
<svg baseProfile="full" height="98mm" version="1.1" viewBox="0,0,200,98" width="200mm" xmlns="http://www.w3.org/2000/svg" xmlns:ev="http://www.w3.org/2001/xml-events" xmlns:xlink="http://www.w3.org/1999/xlink"><defs /><rect fill="#222222" height="98" width="200" x="0" y="0" /><text fill="#FFFFFF" style="font-size:12px; font-family:Arial; font-weight:bold;" x="10" y="20">MRLE's Sports</text><text fill="#FFFFFF" style="font-size:4px; font-family:Arial" x="10" y="78">Runner</text><text fill="#FFFFFF" style="font-size:9px; font-family:Arial" x="10" y="88">MRLE</text><text fill="#FFFFFF" style="font-size:3px; font-family:Arial" x="65" y="85.6">Less</text><rect fill="#ebedf0" height="2.6" width="2.6" x="73" y="83" /><rect fill="#9be9a8" height="2.6" width="2.6" x="76.6" y="83" /><rect fill="#40c463" height="2.6" width="2.6" x="80.19999999999999" y="83" /><rect fill="#30a14e" height="2.6" width="2.6" x="83.79999999999998" y="83" /><rect fill="#216e39" height="2.6" width="2.6" x="87.39999999999998" y="83" /><text fill="#FFFFFF" style="font-size:3px; font-family:Arial" x="92.99999999999997" y="85.6">More</text><text fill="#FFFFFF" style="font-size:4px; font-family:Arial" x="120" y="78">STATISTICS</text><text fill="#FFFFFF" style="font-size:3px; font-family:Arial" x="120" y="83">Number: 1507</text><text fill="#FFFFFF" style="font-size:3px; font-family:Arial" x="120" y="88">Weekly: 7.3</text><text fill="#FFFFFF" style="font-size:3px; font-family:Arial" x="141" y="83">Total: 17134.6 km</text><text fill="#FFFFFF" style="font-size:3px; font-family:Arial" x="141" y="88">Avg: 11.4 km</text><text fill="#FFFFFF" style="font-size:3px; font-family:Arial" x="167" y="83">Min: 0.6 km</text><text fill="#FFFFFF" style="font-size:3px; font-family:Arial" x="167" y="88">Max: 878.6 km</text><text dominant-baseline="hanging" fill="#FFFFFF" style="font-size:10.0px; font-family:Arial;" x="10" y="30">2024</text><text dominant-baseline="hanging" fill="#FFFFFF" style="font-size:4.125px; font-family:Arial;" x="175" y="35">6672.9 km</text><text fill="#FFFFFF" style="font-size:2.5px; font-family:Arial" x="10.0" y="44">Jan</text><text fill="#FFFFFF" style="font-size:2.5px; font-family:Arial" x="25.5" y="44">Feb</text><text fill="#FFFFFF" style="font-size:2.5px; font-family:Arial" x="41.0" y="44">Mar</text><text fill="#FFFFFF" style="font-size:2.5px; font-family:Arial" x="56.5" y="44">Apr</text><text fill="#FFFFFF" style="font-size:2.5px; font-family:Arial" x="72.0" y="44">May</text><text fill="#FFFFFF" style="font-size:2.5px; font-family:Arial" x="87.5" y="44">Jun</text><text fill="#FFFFFF" style="font-size:2.5px; font-family:Arial" x="103.0" y="44">Jul</text><text fill="#FFFFFF" style="font-size:2.5px; font-family:Arial" x="118.5" y="44">Aug</text><text fill="#FFFFFF" style="font-size:2.5px; font-family:Arial" x="134.0" y="44">Sep</text><text fill="#FFFFFF" style="font-size:2.5px; font-family:Arial" x="149.5" y="44">Oct</text><text fill="#FFFFFF" style="font-size:2.5px; font-family:Arial" x="165.0" y="44">Nov</text><text fill="#FFFFFF" style="font-size:2.5px; font-family:Arial" x="180.5" y="44">Dec</text><rect fill="#ebedf0" height="2.6" width="2.6" x="10.0" y="45.5"><title>2024-01-01</title></rect><rect fill="#ebedf0" height="2.6" width="2.6" x="10.0" y="49.0"><title>2024-01-02</title></rect><rect fill="#ebedf0" height="2.6" width="2.6" x="10.0" y="52.5"><title>2024-01-03</title></rect><rect fill="#ebedf0" height="2.6" width="2.6" x="10.0" y="56.0"><title>2024-01-04</title></rect><rect fill="#30a14e" height="2.6" width="2.6" x="10.0" y="59.5"><title>2024-01-05 1h 58m</title></rect><rect fill="#30a14e" height="2.6" width="2.6" x="10.0" y="63.0"><title>2024-01-06 1h 59m</title></rect><rect fill="#216e39" height="2.6" width="2.6" x="10.0" y="66.5"><title>2024-01-07 2h 1m</title></rect><rect fill="#ebedf0" height="2.6" width="2.6" x="13.5" y="45.5"><title>2024-01-08</title></rect><rect fill="#30a14e" height="2.6" width="2.6" x="13.5" y="49.0"><title>2024-01-09 1h 59m</title></rect><rect fill="#216e39" height="2.6" width="2.6" x="13.5" y="52.5"><title>2024-01-10 2h 0m</title></rect><rect fill="#30a14e" height="2.6" width="2.6" x="13.5" y="56.0"><title>2024-01-11 1h 3m</title></rect><rect fill="#ebedf0" height="2.6" width="2.6" x="13.5" y="59.5"><title>2024-01-12</title></rect><rect fill="#30a14e" height="2.6" width="2.6" x="13.5" y="63.0"><title>2024-01-13 1h 43m</title></rect><rect fill="#216e39" height="2.6" width="2.6" x="13.5" y="66.5"><title>2024-01-14 2h 32m</title></rect><rect fill="#ebedf0" height="2.6" width="2.6" x="17.0" y="45.5"><title>2024-01-15</title></rect><rect fill="#ebedf0" height="2.6" width="2.6" x="17.0" y="49.0"><title>2024-01-16</title></rect><rect fill="#ebedf0" height="2.6" width="2.6" x="17.0" y="52.5"><title>2024-01-17</title></rect><rect fill="#9be9a8" height="2.6" width="2.6" x="17.0" y="56.0"><title>2024-01-18 23m</title></rect><rect fill="#216e39" height="2.6" width="2.6" x="17.0" y="59.5"><title>2024-01-19 38h 29m</title></rect><rect fill="#216e39" height="2.6" width="2.6" x="17.0" y="63.0"><title>2024-01-20 7h 4m</title></rect><rect fill="#40c463" height="2.6" width="2.6" x="17.0" y="66.5"><title>2024-01-21 36m</title></rect><rect fill="#40c463" height="2.6" width="2.6" x="20.5" y="45.5"><title>2024-01-22 55m</title></rect><rect fill="#216e39" height="2.6" width="2.6" x="20.5" y="49.0"><title>2024-01-23 4h 34m</title></rect><rect fill="#ebedf0" height="2.6" width="2.6" x="20.5" y="52.5"><title>2024-01-24</title></rect><rect fill="#ebedf0" height="2.6" width="2.6" x="20.5" y="56.0"><title>2024-01-25</title></rect><rect fill="#ebedf0" height="2.6" width="2.6" x="20.5" y="59.5"><title>2024-01-26</title></rect><rect fill="#216e39" height="2.6" width="2.6" x="20.5" y="63.0"><title>2024-01-27 2h 16m</title></rect><rect fill="#216e39" height="2.6" width="2.6" x="20.5" y="66.5"><title>2024-01-28 3h 16m</title></rect><rect fill="#216e39" height="2.6" width="2.6" x="24.0" y="45.5"><title>2024-01-29 3h 32m</title></rect><rect fill="#216e39" height="2.6" width="2.6" x="24.0" y="49.0"><title>2024-01-30 3h 18m</title></rect><rect fill="#216e39" height="2.6" width="2.6" x="24.0" y="52.5"><title>2024-01-31 4h 42m</title></rect><rect fill="#40c463" height="2.6" width="2.6" x="24.0" y="56.0"><title>2024-02-01 54m</title></rect><rect fill="#ebedf0" height="2.6" width="2.6" x="24.0" y="59.5"><title>2024-02-02</title></rect><rect fill="#216e39" height="2.6" width="2.6" x="24.0" y="63.0"><title>2024-02-03 2h 0m</title></rect><rect fill="#216e39" height="2.6" width="2.6" x="24.0" y="66.5"><title>2024-02-04 2h 9m</title></rect><rect fill="#ebedf0" height="2.6" width="2.6" x="27.5" y="45.5"><title>2024-02-05</title></rect><rect fill="#ebedf0" height="2.6" width="2.6" x="27.5" y="49.0"><title>2024-02-06</title></rect><rect fill="#ebedf0" height="2.6" width="2.6" x="27.5" y="52.5"><title>2024-02-07</title></rect><rect fill="#ebedf0" height="2.6" width="2.6" x="27.5" y="56.0"><title>2024-02-08</title></rect><rect fill="#ebedf0" height="2.6" width="2.6" x="27.5" y="59.5"><title>2024-02-09</title></rect><rect fill="#ebedf0" height="2.6" width="2.6" x="27.5" y="63.0"><title>2024-02-10</title></rect><rect fill="#ebedf0" height="2.6" width="2.6" x="27.5" y="66.5"><title>2024-02-11</title></rect><rect fill="#30a14e" height="2.6" width="2.6" x="31.0" y="45.5"><title>2024-02-12 1h 15m</title></rect><rect fill="#216e39" height="2.6" width="2.6" x="31.0" y="49.0"><title>2024-02-13 3h 0m</title></rect><rect fill="#216e39" height="2.6" width="2.6" x="31.0" y="52.5"><title>2024-02-14 2h 58m</title></rect><rect fill="#ebedf0" height="2.6" width="2.6" x="31.0" y="56.0"><title>2024-02-15</title></rect><rect fill="#ebedf0" height="2.6" width="2.6" x="31.0" y="59.5"><title>2024-02-16</title></rect><rect fill="#ebedf0" height="2.6" width="2.6" x="31.0" y="63.0"><title>2024-02-17</title></rect><rect fill="#ebedf0" height="2.6" width="2.6" x="31.0" y="66.5"><title>2024-02-18</title></rect><rect fill="#40c463" height="2.6" width="2.6" x="34.5" y="45.5"><title>2024-02-19 33m</title></rect><rect fill="#40c463" height="2.6" width="2.6" x="34.5" y="49.0"><title>2024-02-20 32m</title></rect><rect fill="#ebedf0" height="2.6" width="2.6" x="34.5" y="52.5"><title>2024-02-21</title></rect><rect fill="#30a14e" height="2.6" width="2.6" x="34.5" y="56.0"><title>2024-02-22 1h 38m</title></rect><rect fill="#30a14e" height="2.6" width="2.6" x="34.5" y="59.5"><title>2024-02-23 1h 27m</title></rect><rect fill="#30a14e" height="2.6" width="2.6" x="34.5" y="63.0"><title>2024-02-24 1h 34m</title></rect><rect fill="#ebedf0" height="2.6" width="2.6" x="34.5" y="66.5"><title>2024-02-25</title></rect><rect fill="#ebedf0" height="2.6" width="2.6" x="38.0" y="45.5"><title>2024-02-26</title></rect><rect fill="#40c463" height="2.6" width="2.6" x="38.0" y="49.0"><title>2024-02-27 57m</title></rect><rect fill="#30a14e" height="2.6" width="2.6" x="38.0" y="52.5"><title>2024-02-28 1h 59m</title></rect><rect fill="#216e39" height="2.6" width="2.6" x="38.0" y="56.0"><title>2024-02-29 2h 17m</title></rect><rect fill="#ebedf0" height="2.6" width="2.6" x="38.0" y="59.5"><title>2024-03-01</title></rect><rect fill="#216e39" height="2.6" width="2.6" x="38.0" y="63.0"><title>2024-03-02 4h 17m</title></rect><rect fill="#ebedf0" height="2.6" width="2.6" x="38.0" y="66.5"><title>2024-03-03</title></rect><rect fill="#40c463" height="2.6" width="2.6" x="41.5" y="45.5"><title>2024-03-04 33m</title></rect><rect fill="#ebedf0" height="2.6" width="2.6" x="41.5" y="49.0"><title>2024-03-05</title></rect><rect fill="#216e39" height="2.6" width="2.6" x="41.5" y="52.5"><title>2024-03-06 2h 53m</title></rect><rect fill="#30a14e" height="2.6" width="2.6" x="41.5" y="56.0"><title>2024-03-07 1h 43m</title></rect><rect fill="#ebedf0" height="2.6" width="2.6" x="41.5" y="59.5"><title>2024-03-08</title></rect><rect fill="#216e39" height="2.6" width="2.6" x="41.5" y="63.0"><title>2024-03-09 4h 17m</title></rect><rect fill="#ebedf0" height="2.6" width="2.6" x="41.5" y="66.5"><title>2024-03-10</title></rect><rect fill="#216e39" height="2.6" width="2.6" x="45.0" y="45.5"><title>2024-03-11 2h 6m</title></rect><rect fill="#40c463" height="2.6" width="2.6" x="45.0" y="49.0"><title>2024-03-12 59m</title></rect><rect fill="#30a14e" height="2.6" width="2.6" x="45.0" y="52.5"><title>2024-03-13 1h 17m</title></rect><rect fill="#216e39" height="2.6" width="2.6" x="45.0" y="56.0"><title>2024-03-14 2h 33m</title></rect><rect fill="#ebedf0" height="2.6" width="2.6" x="45.0" y="59.5"><title>2024-03-15</title></rect><rect fill="#9be9a8" height="2.6" width="2.6" x="45.0" y="63.0"><title>2024-03-16 28m</title></rect><rect fill="#216e39" height="2.6" width="2.6" x="45.0" y="66.5"><title>2024-03-17 2h 25m</title></rect><rect fill="#30a14e" height="2.6" width="2.6" x="48.5" y="45.5"><title>2024-03-18 1h 52m</title></rect><rect fill="#30a14e" height="2.6" width="2.6" x="48.5" y="49.0"><title>2024-03-19 1h 30m</title></rect><rect fill="#ebedf0" height="2.6" width="2.6" x="48.5" y="52.5"><title>2024-03-20</title></rect><rect fill="#30a14e" height="2.6" width="2.6" x="48.5" y="56.0"><title>2024-03-21 1h 50m</title></rect><rect fill="#40c463" height="2.6" width="2.6" x="48.5" y="59.5"><title>2024-03-22 53m</title></rect><rect fill="#ebedf0" height="2.6" width="2.6" x="48.5" y="63.0"><title>2024-03-23</title></rect><rect fill="#216e39" height="2.6" width="2.6" x="48.5" y="66.5"><title>2024-03-24 4h 15m</title></rect><rect fill="#9be9a8" height="2.6" width="2.6" x="52.0" y="45.5"><title>2024-03-25 25m</title></rect><rect fill="#30a14e" height="2.6" width="2.6" x="52.0" y="49.0"><title>2024-03-26 1h 46m</title></rect><rect fill="#ebedf0" height="2.6" width="2.6" x="52.0" y="52.5"><title>2024-03-27</title></rect><rect fill="#30a14e" height="2.6" width="2.6" x="52.0" y="56.0"><title>2024-03-28 1h 48m</title></rect><rect fill="#216e39" height="2.6" width="2.6" x="52.0" y="59.5"><title>2024-03-29 2h 16m</title></rect><rect fill="#ebedf0" height="2.6" width="2.6" x="52.0" y="63.0"><title>2024-03-30</title></rect><rect fill="#ebedf0" height="2.6" width="2.6" x="52.0" y="66.5"><title>2024-03-31</title></rect><rect fill="#216e39" height="2.6" width="2.6" x="55.5" y="45.5"><title>2024-04-01 2h 8m</title></rect><rect fill="#30a14e" height="2.6" width="2.6" x="55.5" y="49.0"><title>2024-04-02 1h 18m</title></rect><rect fill="#ebedf0" height="2.6" width="2.6" x="55.5" y="52.5"><title>2024-04-03</title></rect><rect fill="#ebedf0" height="2.6" width="2.6" x="55.5" y="56.0"><title>2024-04-04</title></rect><rect fill="#ebedf0" height="2.6" width="2.6" x="55.5" y="59.5"><title>2024-04-05</title></rect><rect fill="#30a14e" height="2.6" width="2.6" x="55.5" y="63.0"><title>2024-04-06 1h 31m</title></rect><rect fill="#216e39" height="2.6" width="2.6" x="55.5" y="66.5"><title>2024-04-07 2h 56m</title></rect><rect fill="#40c463" height="2.6" width="2.6" x="59.0" y="45.5"><title>2024-04-08 56m</title></rect><rect fill="#ebedf0" height="2.6" width="2.6" x="59.0" y="49.0"><title>2024-04-09</title></rect><rect fill="#30a14e" height="2.6" width="2.6" x="59.0" y="52.5"><title>2024-04-10 1h 6m</title></rect><rect fill="#30a14e" height="2.6" width="2.6" x="59.0" y="56.0"><title>2024-04-11 1h 10m</title></rect><rect fill="#ebedf0" height="2.6" width="2.6" x="59.0" y="59.5"><title>2024-04-12</title></rect><rect fill="#9be9a8" height="2.6" width="2.6" x="59.0" y="63.0"><title>2024-04-13 17m</title></rect><rect fill="#216e39" height="2.6" width="2.6" x="59.0" y="66.5"><title>2024-04-14 3h 44m</title></rect><rect fill="#ebedf0" height="2.6" width="2.6" x="62.5" y="45.5"><title>2024-04-15</title></rect><rect fill="#ebedf0" height="2.6" width="2.6" x="62.5" y="49.0"><title>2024-04-16</title></rect><rect fill="#40c463" height="2.6" width="2.6" x="62.5" y="52.5"><title>2024-04-17 56m</title></rect><rect fill="#30a14e" height="2.6" width="2.6" x="62.5" y="56.0"><title>2024-04-18 1h 4m</title></rect><rect fill="#ebedf0" height="2.6" width="2.6" x="62.5" y="59.5"><title>2024-04-19</title></rect><rect fill="#30a14e" height="2.6" width="2.6" x="62.5" y="63.0"><title>2024-04-20 1h 24m</title></rect><rect fill="#216e39" height="2.6" width="2.6" x="62.5" y="66.5"><title>2024-04-21 3h 14m</title></rect><rect fill="#30a14e" height="2.6" width="2.6" x="66.0" y="45.5"><title>2024-04-22 1h 1m</title></rect><rect fill="#ebedf0" height="2.6" width="2.6" x="66.0" y="49.0"><title>2024-04-23</title></rect><rect fill="#30a14e" height="2.6" width="2.6" x="66.0" y="52.5"><title>2024-04-24 1h 9m</title></rect><rect fill="#216e39" height="2.6" width="2.6" x="66.0" y="56.0"><title>2024-04-25 3h 32m</title></rect><rect fill="#ebedf0" height="2.6" width="2.6" x="66.0" y="59.5"><title>2024-04-26</title></rect><rect fill="#30a14e" height="2.6" width="2.6" x="66.0" y="63.0"><title>2024-04-27 1h 16m</title></rect><rect fill="#30a14e" height="2.6" width="2.6" x="66.0" y="66.5"><title>2024-04-28 1h 50m</title></rect><rect fill="#ebedf0" height="2.6" width="2.6" x="69.5" y="45.5"><title>2024-04-29</title></rect><rect fill="#ebedf0" height="2.6" width="2.6" x="69.5" y="49.0"><title>2024-04-30</title></rect><rect fill="#ebedf0" height="2.6" width="2.6" x="69.5" y="52.5"><title>2024-05-01</title></rect><rect fill="#216e39" height="2.6" width="2.6" x="69.5" y="56.0"><title>2024-05-02 2h 22m</title></rect><rect fill="#9be9a8" height="2.6" width="2.6" x="69.5" y="59.5"><title>2024-05-03 23m</title></rect><rect fill="#ebedf0" height="2.6" width="2.6" x="69.5" y="63.0"><title>2024-05-04</title></rect><rect fill="#ebedf0" height="2.6" width="2.6" x="69.5" y="66.5"><title>2024-05-05</title></rect><rect fill="#9be9a8" height="2.6" width="2.6" x="73.0" y="45.5"><title>2024-05-06 21m</title></rect><rect fill="#40c463" height="2.6" width="2.6" x="73.0" y="49.0"><title>2024-05-07 58m</title></rect><rect fill="#30a14e" height="2.6" width="2.6" x="73.0" y="52.5"><title>2024-05-08 1h 34m</title></rect><rect fill="#40c463" height="2.6" width="2.6" x="73.0" y="56.0"><title>2024-05-09 43m</title></rect><rect fill="#ebedf0" height="2.6" width="2.6" x="73.0" y="59.5"><title>2024-05-10</title></rect><rect fill="#40c463" height="2.6" width="2.6" x="73.0" y="63.0"><title>2024-05-11 33m</title></rect><rect fill="#216e39" height="2.6" width="2.6" x="73.0" y="66.5"><title>2024-05-12 8h 1m</title></rect><rect fill="#ebedf0" height="2.6" width="2.6" x="76.5" y="45.5"><title>2024-05-13</title></rect><rect fill="#9be9a8" height="2.6" width="2.6" x="76.5" y="49.0"><title>2024-05-14 13m</title></rect><rect fill="#ebedf0" height="2.6" width="2.6" x="76.5" y="52.5"><title>2024-05-15</title></rect><rect fill="#216e39" height="2.6" width="2.6" x="76.5" y="56.0"><title>2024-05-16 2h 19m</title></rect><rect fill="#30a14e" height="2.6" width="2.6" x="76.5" y="59.5"><title>2024-05-17 1h 12m</title></rect><rect fill="#ebedf0" height="2.6" width="2.6" x="76.5" y="63.0"><title>2024-05-18</title></rect><rect fill="#40c463" height="2.6" width="2.6" x="76.5" y="66.5"><title>2024-05-19 34m</title></rect><rect fill="#40c463" height="2.6" width="2.6" x="80.0" y="45.5"><title>2024-05-20 55m</title></rect><rect fill="#ebedf0" height="2.6" width="2.6" x="80.0" y="49.0"><title>2024-05-21</title></rect><rect fill="#30a14e" height="2.6" width="2.6" x="80.0" y="52.5"><title>2024-05-22 1h 15m</title></rect><rect fill="#ebedf0" height="2.6" width="2.6" x="80.0" y="56.0"><title>2024-05-23</title></rect><rect fill="#30a14e" height="2.6" width="2.6" x="80.0" y="59.5"><title>2024-05-24 1h 41m</title></rect><rect fill="#ebedf0" height="2.6" width="2.6" x="80.0" y="63.0"><title>2024-05-25</title></rect><rect fill="#216e39" height="2.6" width="2.6" x="80.0" y="66.5"><title>2024-05-26 2h 48m</title></rect><rect fill="#ebedf0" height="2.6" width="2.6" x="83.5" y="45.5"><title>2024-05-27</title></rect><rect fill="#30a14e" height="2.6" width="2.6" x="83.5" y="49.0"><title>2024-05-28 1h 29m</title></rect><rect fill="#30a14e" height="2.6" width="2.6" x="83.5" y="52.5"><title>2024-05-29 1h 15m</title></rect><rect fill="#ebedf0" height="2.6" width="2.6" x="83.5" y="56.0"><title>2024-05-30</title></rect><rect fill="#ebedf0" height="2.6" width="2.6" x="83.5" y="59.5"><title>2024-05-31</title></rect><rect fill="#216e39" height="2.6" width="2.6" x="83.5" y="63.0"><title>2024-06-01 2h 47m</title></rect><rect fill="#216e39" height="2.6" width="2.6" x="83.5" y="66.5"><title>2024-06-02 2h 4m</title></rect><rect fill="#ebedf0" height="2.6" width="2.6" x="87.0" y="45.5"><title>2024-06-03</title></rect><rect fill="#30a14e" height="2.6" width="2.6" x="87.0" y="49.0"><title>2024-06-04 1h 20m</title></rect><rect fill="#ebedf0" height="2.6" width="2.6" x="87.0" y="52.5"><title>2024-06-05</title></rect><rect fill="#30a14e" height="2.6" width="2.6" x="87.0" y="56.0"><title>2024-06-06 1h 20m</title></rect><rect fill="#ebedf0" height="2.6" width="2.6" x="87.0" y="59.5"><title>2024-06-07</title></rect><rect fill="#30a14e" height="2.6" width="2.6" x="87.0" y="63.0"><title>2024-06-08 1h 37m</title></rect><rect fill="#ebedf0" height="2.6" width="2.6" x="87.0" y="66.5"><title>2024-06-09</title></rect><rect fill="#ebedf0" height="2.6" width="2.6" x="90.5" y="45.5"><title>2024-06-10</title></rect><rect fill="#ebedf0" height="2.6" width="2.6" x="90.5" y="49.0"><title>2024-06-11</title></rect><rect fill="#30a14e" height="2.6" width="2.6" x="90.5" y="52.5"><title>2024-06-12 1h 26m</title></rect><rect fill="#30a14e" height="2.6" width="2.6" x="90.5" y="56.0"><title>2024-06-13 1h 34m</title></rect><rect fill="#30a14e" height="2.6" width="2.6" x="90.5" y="59.5"><title>2024-06-14 1h 35m</title></rect><rect fill="#ebedf0" height="2.6" width="2.6" x="90.5" y="63.0"><title>2024-06-15</title></rect><rect fill="#ebedf0" height="2.6" width="2.6" x="90.5" y="66.5"><title>2024-06-16</title></rect><rect fill="#ebedf0" height="2.6" width="2.6" x="94.0" y="45.5"><title>2024-06-17</title></rect><rect fill="#ebedf0" height="2.6" width="2.6" x="94.0" y="49.0"><title>2024-06-18</title></rect><rect fill="#216e39" height="2.6" width="2.6" x="94.0" y="52.5"><title>2024-06-19 2h 3m</title></rect><rect fill="#ebedf0" height="2.6" width="2.6" x="94.0" y="56.0"><title>2024-06-20</title></rect><rect fill="#ebedf0" height="2.6" width="2.6" x="94.0" y="59.5"><title>2024-06-21</title></rect><rect fill="#ebedf0" height="2.6" width="2.6" x="94.0" y="63.0"><title>2024-06-22</title></rect><rect fill="#216e39" height="2.6" width="2.6" x="94.0" y="66.5"><title>2024-06-23 2h 33m</title></rect><rect fill="#ebedf0" height="2.6" width="2.6" x="97.5" y="45.5"><title>2024-06-24</title></rect><rect fill="#40c463" height="2.6" width="2.6" x="97.5" y="49.0"><title>2024-06-25 52m</title></rect><rect fill="#ebedf0" height="2.6" width="2.6" x="97.5" y="52.5"><title>2024-06-26</title></rect><rect fill="#216e39" height="2.6" width="2.6" x="97.5" y="56.0"><title>2024-06-27 6h 55m</title></rect><rect fill="#ebedf0" height="2.6" width="2.6" x="97.5" y="59.5"><title>2024-06-28</title></rect><rect fill="#216e39" height="2.6" width="2.6" x="97.5" y="63.0"><title>2024-06-29 2h 52m</title></rect><rect fill="#ebedf0" height="2.6" width="2.6" x="97.5" y="66.5"><title>2024-06-30</title></rect><rect fill="#ebedf0" height="2.6" width="2.6" x="101.0" y="45.5"><title>2024-07-01</title></rect><rect fill="#30a14e" height="2.6" width="2.6" x="101.0" y="49.0"><title>2024-07-02 1h 40m</title></rect><rect fill="#ebedf0" height="2.6" width="2.6" x="101.0" y="52.5"><title>2024-07-03</title></rect><rect fill="#30a14e" height="2.6" width="2.6" x="101.0" y="56.0"><title>2024-07-04 1h 25m</title></rect><rect fill="#30a14e" height="2.6" width="2.6" x="101.0" y="59.5"><title>2024-07-05 1h 7m</title></rect><rect fill="#216e39" height="2.6" width="2.6" x="101.0" y="63.0"><title>2024-07-06 3h 53m</title></rect><rect fill="#ebedf0" height="2.6" width="2.6" x="101.0" y="66.5"><title>2024-07-07</title></rect><rect fill="#ebedf0" height="2.6" width="2.6" x="104.5" y="45.5"><title>2024-07-08</title></rect><rect fill="#216e39" height="2.6" width="2.6" x="104.5" y="49.0"><title>2024-07-09 2h 17m</title></rect><rect fill="#30a14e" height="2.6" width="2.6" x="104.5" y="52.5"><title>2024-07-10 1h 48m</title></rect><rect fill="#ebedf0" height="2.6" width="2.6" x="104.5" y="56.0"><title>2024-07-11</title></rect><rect fill="#30a14e" height="2.6" width="2.6" x="104.5" y="59.5"><title>2024-07-12 1h 38m</title></rect><rect fill="#ebedf0" height="2.6" width="2.6" x="104.5" y="63.0"><title>2024-07-13</title></rect><rect fill="#216e39" height="2.6" width="2.6" x="104.5" y="66.5"><title>2024-07-14 2h 47m</title></rect><rect fill="#216e39" height="2.6" width="2.6" x="108.0" y="45.5"><title>2024-07-15 2h 13m</title></rect><rect fill="#30a14e" height="2.6" width="2.6" x="108.0" y="49.0"><title>2024-07-16 1h 39m</title></rect><rect fill="#30a14e" height="2.6" width="2.6" x="108.0" y="52.5"><title>2024-07-17 1h 16m</title></rect><rect fill="#30a14e" height="2.6" width="2.6" x="108.0" y="56.0"><title>2024-07-18 1h 42m</title></rect><rect fill="#ebedf0" height="2.6" width="2.6" x="108.0" y="59.5"><title>2024-07-19</title></rect><rect fill="#216e39" height="2.6" width="2.6" x="108.0" y="63.0"><title>2024-07-20 5h 57m</title></rect><rect fill="#ebedf0" height="2.6" width="2.6" x="108.0" y="66.5"><title>2024-07-21</title></rect><rect fill="#40c463" height="2.6" width="2.6" x="111.5" y="45.5"><title>2024-07-22 53m</title></rect><rect fill="#216e39" height="2.6" width="2.6" x="111.5" y="49.0"><title>2024-07-23 2h 15m</title></rect><rect fill="#ebedf0" height="2.6" width="2.6" x="111.5" y="52.5"><title>2024-07-24</title></rect><rect fill="#40c463" height="2.6" width="2.6" x="111.5" y="56.0"><title>2024-07-25 58m</title></rect><rect fill="#ebedf0" height="2.6" width="2.6" x="111.5" y="59.5"><title>2024-07-26</title></rect><rect fill="#ebedf0" height="2.6" width="2.6" x="111.5" y="63.0"><title>2024-07-27</title></rect><rect fill="#216e39" height="2.6" width="2.6" x="111.5" y="66.5"><title>2024-07-28 2h 12m</title></rect><rect fill="#ebedf0" height="2.6" width="2.6" x="115.0" y="45.5"><title>2024-07-29</title></rect><rect fill="#216e39" height="2.6" width="2.6" x="115.0" y="49.0"><title>2024-07-30 3h 11m</title></rect><rect fill="#30a14e" height="2.6" width="2.6" x="115.0" y="52.5"><title>2024-07-31 1h 33m</title></rect><rect fill="#216e39" height="2.6" width="2.6" x="115.0" y="56.0"><title>2024-08-01 3h 57m</title></rect><rect fill="#ebedf0" height="2.6" width="2.6" x="115.0" y="59.5"><title>2024-08-02</title></rect><rect fill="#30a14e" height="2.6" width="2.6" x="115.0" y="63.0"><title>2024-08-03 1h 43m</title></rect><rect fill="#216e39" height="2.6" width="2.6" x="115.0" y="66.5"><title>2024-08-04 2h 2m</title></rect><rect fill="#ebedf0" height="2.6" width="2.6" x="118.5" y="45.5"><title>2024-08-05</title></rect><rect fill="#30a14e" height="2.6" width="2.6" x="118.5" y="49.0"><title>2024-08-06 1h 11m</title></rect><rect fill="#ebedf0" height="2.6" width="2.6" x="118.5" y="52.5"><title>2024-08-07</title></rect><rect fill="#ebedf0" height="2.6" width="2.6" x="118.5" y="56.0"><title>2024-08-08</title></rect><rect fill="#ebedf0" height="2.6" width="2.6" x="118.5" y="59.5"><title>2024-08-09</title></rect><rect fill="#216e39" height="2.6" width="2.6" x="118.5" y="63.0"><title>2024-08-10 3h 0m</title></rect><rect fill="#ebedf0" height="2.6" width="2.6" x="118.5" y="66.5"><title>2024-08-11</title></rect><rect fill="#30a14e" height="2.6" width="2.6" x="122.0" y="45.5"><title>2024-08-12 1h 50m</title></rect><rect fill="#ebedf0" height="2.6" width="2.6" x="122.0" y="49.0"><title>2024-08-13</title></rect><rect fill="#ebedf0" height="2.6" width="2.6" x="122.0" y="52.5"><title>2024-08-14</title></rect><rect fill="#ebedf0" height="2.6" width="2.6" x="122.0" y="56.0"><title>2024-08-15</title></rect><rect fill="#ebedf0" height="2.6" width="2.6" x="122.0" y="59.5"><title>2024-08-16</title></rect><rect fill="#30a14e" height="2.6" width="2.6" x="122.0" y="63.0"><title>2024-08-17 1h 21m</title></rect><rect fill="#ebedf0" height="2.6" width="2.6" x="122.0" y="66.5"><title>2024-08-18</title></rect><rect fill="#216e39" height="2.6" width="2.6" x="125.5" y="45.5"><title>2024-08-19 2h 34m</title></rect><rect fill="#30a14e" height="2.6" width="2.6" x="125.5" y="49.0"><title>2024-08-20 1h 47m</title></rect><rect fill="#ebedf0" height="2.6" width="2.6" x="125.5" y="52.5"><title>2024-08-21</title></rect><rect fill="#216e39" height="2.6" width="2.6" x="125.5" y="56.0"><title>2024-08-22 2h 25m</title></rect><rect fill="#216e39" height="2.6" width="2.6" x="125.5" y="59.5"><title>2024-08-23 2h 44m</title></rect><rect fill="#ebedf0" height="2.6" width="2.6" x="125.5" y="63.0"><title>2024-08-24</title></rect><rect fill="#30a14e" height="2.6" width="2.6" x="125.5" y="66.5"><title>2024-08-25 1h 51m</title></rect><rect fill="#30a14e" height="2.6" width="2.6" x="129.0" y="45.5"><title>2024-08-26 1h 6m</title></rect><rect fill="#ebedf0" height="2.6" width="2.6" x="129.0" y="49.0"><title>2024-08-27</title></rect><rect fill="#216e39" height="2.6" width="2.6" x="129.0" y="52.5"><title>2024-08-28 2h 58m</title></rect><rect fill="#ebedf0" height="2.6" width="2.6" x="129.0" y="56.0"><title>2024-08-29</title></rect><rect fill="#216e39" height="2.6" width="2.6" x="129.0" y="59.5"><title>2024-08-30 3h 11m</title></rect><rect fill="#ebedf0" height="2.6" width="2.6" x="129.0" y="63.0"><title>2024-08-31</title></rect><rect fill="#ebedf0" height="2.6" width="2.6" x="129.0" y="66.5"><title>2024-09-01</title></rect><rect fill="#216e39" height="2.6" width="2.6" x="132.5" y="45.5"><title>2024-09-02 2h 22m</title></rect><rect fill="#30a14e" height="2.6" width="2.6" x="132.5" y="49.0"><title>2024-09-03 1h 42m</title></rect><rect fill="#ebedf0" height="2.6" width="2.6" x="132.5" y="52.5"><title>2024-09-04</title></rect><rect fill="#30a14e" height="2.6" width="2.6" x="132.5" y="56.0"><title>2024-09-05 1h 58m</title></rect><rect fill="#ebedf0" height="2.6" width="2.6" x="132.5" y="59.5"><title>2024-09-06</title></rect><rect fill="#ebedf0" height="2.6" width="2.6" x="132.5" y="63.0"><title>2024-09-07</title></rect><rect fill="#ebedf0" height="2.6" width="2.6" x="132.5" y="66.5"><title>2024-09-08</title></rect><rect fill="#216e39" height="2.6" width="2.6" x="136.0" y="45.5"><title>2024-09-09 2h 2m</title></rect><rect fill="#30a14e" height="2.6" width="2.6" x="136.0" y="49.0"><title>2024-09-10 1h 44m</title></rect><rect fill="#216e39" height="2.6" width="2.6" x="136.0" y="52.5"><title>2024-09-11 3h 55m</title></rect><rect fill="#ebedf0" height="2.6" width="2.6" x="136.0" y="56.0"><title>2024-09-12</title></rect><rect fill="#ebedf0" height="2.6" width="2.6" x="136.0" y="59.5"><title>2024-09-13</title></rect><rect fill="#216e39" height="2.6" width="2.6" x="136.0" y="63.0"><title>2024-09-14 6h 31m</title></rect><rect fill="#216e39" height="2.6" width="2.6" x="136.0" y="66.5"><title>2024-09-15 2h 2m</title></rect><rect fill="#30a14e" height="2.6" width="2.6" x="139.5" y="45.5"><title>2024-09-16 1h 35m</title></rect><rect fill="#ebedf0" height="2.6" width="2.6" x="139.5" y="49.0"><title>2024-09-17</title></rect><rect fill="#30a14e" height="2.6" width="2.6" x="139.5" y="52.5"><title>2024-09-18 1h 42m</title></rect><rect fill="#ebedf0" height="2.6" width="2.6" x="139.5" y="56.0"><title>2024-09-19</title></rect><rect fill="#ebedf0" height="2.6" width="2.6" x="139.5" y="59.5"><title>2024-09-20</title></rect><rect fill="#ebedf0" height="2.6" width="2.6" x="139.5" y="63.0"><title>2024-09-21</title></rect><rect fill="#30a14e" height="2.6" width="2.6" x="139.5" y="66.5"><title>2024-09-22 1h 42m</title></rect><rect fill="#30a14e" height="2.6" width="2.6" x="143.0" y="45.5"><title>2024-09-23 1h 42m</title></rect><rect fill="#30a14e" height="2.6" width="2.6" x="143.0" y="49.0"><title>2024-09-24 1h 48m</title></rect><rect fill="#40c463" height="2.6" width="2.6" x="143.0" y="52.5"><title>2024-09-25 56m</title></rect><rect fill="#9be9a8" height="2.6" width="2.6" x="143.0" y="56.0"><title>2024-09-26 6m</title></rect><rect fill="#216e39" height="2.6" width="2.6" x="143.0" y="59.5"><title>2024-09-27 2h 47m</title></rect><rect fill="#216e39" height="2.6" width="2.6" x="143.0" y="63.0"><title>2024-09-28 2h 2m</title></rect><rect fill="#ebedf0" height="2.6" width="2.6" x="143.0" y="66.5"><title>2024-09-29</title></rect><rect fill="#216e39" height="2.6" width="2.6" x="146.5" y="45.5"><title>2024-09-30 3h 25m</title></rect><rect fill="#30a14e" height="2.6" width="2.6" x="146.5" y="49.0"><title>2024-10-01 1h 12m</title></rect><rect fill="#30a14e" height="2.6" width="2.6" x="146.5" y="52.5"><title>2024-10-02 1h 20m</title></rect><rect fill="#ebedf0" height="2.6" width="2.6" x="146.5" y="56.0"><title>2024-10-03</title></rect><rect fill="#216e39" height="2.6" width="2.6" x="146.5" y="59.5"><title>2024-10-04 2h 52m</title></rect><rect fill="#216e39" height="2.6" width="2.6" x="146.5" y="63.0"><title>2024-10-05 12h 25m</title></rect><rect fill="#216e39" height="2.6" width="2.6" x="146.5" y="66.5"><title>2024-10-06 5h 0m</title></rect><rect fill="#40c463" height="2.6" width="2.6" x="150.0" y="45.5"><title>2024-10-07 41m</title></rect><rect fill="#30a14e" height="2.6" width="2.6" x="150.0" y="49.0"><title>2024-10-08 1h 48m</title></rect><rect fill="#ebedf0" height="2.6" width="2.6" x="150.0" y="52.5"><title>2024-10-09</title></rect><rect fill="#30a14e" height="2.6" width="2.6" x="150.0" y="56.0"><title>2024-10-10 1h 40m</title></rect><rect fill="#9be9a8" height="2.6" width="2.6" x="150.0" y="59.5"><title>2024-10-11 27m</title></rect><rect fill="#216e39" height="2.6" width="2.6" x="150.0" y="63.0"><title>2024-10-12 4h 0m</title></rect><rect fill="#ebedf0" height="2.6" width="2.6" x="150.0" y="66.5"><title>2024-10-13</title></rect><rect fill="#30a14e" height="2.6" width="2.6" x="153.5" y="45.5"><title>2024-10-14 1h 50m</title></rect><rect fill="#30a14e" height="2.6" width="2.6" x="153.5" y="49.0"><title>2024-10-15 1h 33m</title></rect><rect fill="#ebedf0" height="2.6" width="2.6" x="153.5" y="52.5"><title>2024-10-16</title></rect><rect fill="#ebedf0" height="2.6" width="2.6" x="153.5" y="56.0"><title>2024-10-17</title></rect><rect fill="#30a14e" height="2.6" width="2.6" x="153.5" y="59.5"><title>2024-10-18 1h 14m</title></rect><rect fill="#30a14e" height="2.6" width="2.6" x="153.5" y="63.0"><title>2024-10-19 1h 1m</title></rect><rect fill="#216e39" height="2.6" width="2.6" x="153.5" y="66.5"><title>2024-10-20 6h 59m</title></rect><rect fill="#ebedf0" height="2.6" width="2.6" x="157.0" y="45.5"><title>2024-10-21</title></rect><rect fill="#30a14e" height="2.6" width="2.6" x="157.0" y="49.0"><title>2024-10-22 1h 30m</title></rect><rect fill="#ebedf0" height="2.6" width="2.6" x="157.0" y="52.5"><title>2024-10-23</title></rect><rect fill="#30a14e" height="2.6" width="2.6" x="157.0" y="56.0"><title>2024-10-24 1h 49m</title></rect><rect fill="#ebedf0" height="2.6" width="2.6" x="157.0" y="59.5"><title>2024-10-25</title></rect><rect fill="#ebedf0" height="2.6" width="2.6" x="157.0" y="63.0"><title>2024-10-26</title></rect><rect fill="#30a14e" height="2.6" width="2.6" x="157.0" y="66.5"><title>2024-10-27 1h 57m</title></rect><rect fill="#ebedf0" height="2.6" width="2.6" x="160.5" y="45.5"><title>2024-10-28</title></rect><rect fill="#30a14e" height="2.6" width="2.6" x="160.5" y="49.0"><title>2024-10-29 1h 32m</title></rect><rect fill="#30a14e" height="2.6" width="2.6" x="160.5" y="52.5"><title>2024-10-30 1h 50m</title></rect><rect fill="#ebedf0" height="2.6" width="2.6" x="160.5" y="56.0"><title>2024-10-31</title></rect><rect fill="#ebedf0" height="2.6" width="2.6" x="160.5" y="59.5"><title>2024-11-01</title></rect><rect fill="#30a14e" height="2.6" width="2.6" x="160.5" y="63.0"><title>2024-11-02 1h 26m</title></rect><rect fill="#216e39" height="2.6" width="2.6" x="160.5" y="66.5"><title>2024-11-03 7h 0m</title></rect><rect fill="#ebedf0" height="2.6" width="2.6" x="164.0" y="45.5"><title>2024-11-04</title></rect><rect fill="#ebedf0" height="2.6" width="2.6" x="164.0" y="49.0"><title>2024-11-05</title></rect><rect fill="#30a14e" height="2.6" width="2.6" x="164.0" y="52.5"><title>2024-11-06 1h 38m</title></rect><rect fill="#ebedf0" height="2.6" width="2.6" x="164.0" y="56.0"><title>2024-11-07</title></rect><rect fill="#ebedf0" height="2.6" width="2.6" x="164.0" y="59.5"><title>2024-11-08</title></rect><rect fill="#ebedf0" height="2.6" width="2.6" x="164.0" y="63.0"><title>2024-11-09</title></rect><rect fill="#30a14e" height="2.6" width="2.6" x="164.0" y="66.5"><title>2024-11-10 1h 52m</title></rect><rect fill="#30a14e" height="2.6" width="2.6" x="167.5" y="45.5"><title>2024-11-11 1h 44m</title></rect><rect fill="#ebedf0" height="2.6" width="2.6" x="167.5" y="49.0"><title>2024-11-12</title></rect><rect fill="#ebedf0" height="2.6" width="2.6" x="167.5" y="52.5"><title>2024-11-13</title></rect><rect fill="#30a14e" height="2.6" width="2.6" x="167.5" y="56.0"><title>2024-11-14 1h 29m</title></rect><rect fill="#ebedf0" height="2.6" width="2.6" x="167.5" y="59.5"><title>2024-11-15</title></rect><rect fill="#30a14e" height="2.6" width="2.6" x="167.5" y="63.0"><title>2024-11-16 1h 51m</title></rect><rect fill="#ebedf0" height="2.6" width="2.6" x="167.5" y="66.5"><title>2024-11-17</title></rect><rect fill="#ebedf0" height="2.6" width="2.6" x="171.0" y="45.5"><title>2024-11-18</title></rect><rect fill="#30a14e" height="2.6" width="2.6" x="171.0" y="49.0"><title>2024-11-19 1h 29m</title></rect><rect fill="#30a14e" height="2.6" width="2.6" x="171.0" y="52.5"><title>2024-11-20 1h 57m</title></rect><rect fill="#ebedf0" height="2.6" width="2.6" x="171.0" y="56.0"><title>2024-11-21</title></rect><rect fill="#ebedf0" height="2.6" width="2.6" x="171.0" y="59.5"><title>2024-11-22</title></rect><rect fill="#216e39" height="2.6" width="2.6" x="171.0" y="63.0"><title>2024-11-23 2h 53m</title></rect><rect fill="#ebedf0" height="2.6" width="2.6" x="171.0" y="66.5"><title>2024-11-24</title></rect><rect fill="#216e39" height="2.6" width="2.6" x="174.5" y="45.5"><title>2024-11-25 2h 0m</title></rect><rect fill="#30a14e" height="2.6" width="2.6" x="174.5" y="49.0"><title>2024-11-26 1h 30m</title></rect><rect fill="#ebedf0" height="2.6" width="2.6" x="174.5" y="52.5"><title>2024-11-27</title></rect><rect fill="#ebedf0" height="2.6" width="2.6" x="174.5" y="56.0"><title>2024-11-28</title></rect><rect fill="#30a14e" height="2.6" width="2.6" x="174.5" y="59.5"><title>2024-11-29 1h 24m</title></rect><rect fill="#30a14e" height="2.6" width="2.6" x="174.5" y="63.0"><title>2024-11-30 1h 23m</title></rect><rect fill="#ebedf0" height="2.6" width="2.6" x="174.5" y="66.5"><title>2024-12-01</title></rect><rect fill="#ebedf0" height="2.6" width="2.6" x="178.0" y="45.5"><title>2024-12-02</title></rect><rect fill="#30a14e" height="2.6" width="2.6" x="178.0" y="49.0"><title>2024-12-03 1h 29m</title></rect><rect fill="#ebedf0" height="2.6" width="2.6" x="178.0" y="52.5"><title>2024-12-04</title></rect><rect fill="#ebedf0" height="2.6" width="2.6" x="178.0" y="56.0"><title>2024-12-05</title></rect><rect fill="#30a14e" height="2.6" width="2.6" x="178.0" y="59.5"><title>2024-12-06 1h 58m</title></rect><rect fill="#30a14e" height="2.6" width="2.6" x="178.0" y="63.0"><title>2024-12-07 1h 54m</title></rect><rect fill="#ebedf0" height="2.6" width="2.6" x="178.0" y="66.5"><title>2024-12-08</title></rect><rect fill="#30a14e" height="2.6" width="2.6" x="181.5" y="45.5"><title>2024-12-09 1h 30m</title></rect><rect fill="#ebedf0" height="2.6" width="2.6" x="181.5" y="49.0"><title>2024-12-10</title></rect><rect fill="#30a14e" height="2.6" width="2.6" x="181.5" y="52.5"><title>2024-12-11 1h 51m</title></rect><rect fill="#ebedf0" height="2.6" width="2.6" x="181.5" y="56.0"><title>2024-12-12</title></rect><rect fill="#30a14e" height="2.6" width="2.6" x="181.5" y="59.5"><title>2024-12-13 1h 30m</title></rect><rect fill="#ebedf0" height="2.6" width="2.6" x="181.5" y="63.0"><title>2024-12-14</title></rect><rect fill="#ebedf0" height="2.6" width="2.6" x="181.5" y="66.5"><title>2024-12-15</title></rect><rect fill="#ebedf0" height="2.6" width="2.6" x="185.0" y="45.5"><title>2024-12-16</title></rect><rect fill="#ebedf0" height="2.6" width="2.6" x="185.0" y="49.0"><title>2024-12-17</title></rect><rect fill="#30a14e" height="2.6" width="2.6" x="185.0" y="52.5"><title>2024-12-18 1h 39m</title></rect><rect fill="#30a14e" height="2.6" width="2.6" x="185.0" y="56.0"><title>2024-12-19 1h 2m</title></rect><rect fill="#ebedf0" height="2.6" width="2.6" x="185.0" y="59.5"><title>2024-12-20</title></rect><rect fill="#216e39" height="2.6" width="2.6" x="185.0" y="63.0"><title>2024-12-21 3h 2m</title></rect><rect fill="#30a14e" height="2.6" width="2.6" x="185.0" y="66.5"><title>2024-12-22 1h 22m</title></rect><rect fill="#ebedf0" height="2.6" width="2.6" x="188.5" y="45.5"><title>2024-12-23</title></rect><rect fill="#30a14e" height="2.6" width="2.6" x="188.5" y="49.0"><title>2024-12-24 1h 41m</title></rect><rect fill="#ebedf0" height="2.6" width="2.6" x="188.5" y="52.5"><title>2024-12-25</title></rect><rect fill="#ebedf0" height="2.6" width="2.6" x="188.5" y="56.0"><title>2024-12-26</title></rect><rect fill="#ebedf0" height="2.6" width="2.6" x="188.5" y="59.5"><title>2024-12-27</title></rect><rect fill="#216e39" height="2.6" width="2.6" x="188.5" y="63.0"><title>2024-12-28 2h 57m</title></rect><rect fill="#30a14e" height="2.6" width="2.6" x="188.5" y="66.5"><title>2024-12-29 1h 0m</title></rect><rect fill="#ebedf0" height="2.6" width="2.6" x="192.0" y="45.5"><title>2024-12-30</title></rect><rect fill="#216e39" height="2.6" width="2.6" x="192.0" y="49.0"><title>2024-12-31 3h 56m</title></rect></svg>