<?xml version="1.0" encoding="utf-8" ?>
<svg baseProfile="full" height="98mm" version="1.1" viewBox="0,0,200,98" width="200mm" xmlns="http://www.w3.org/2000/svg" xmlns:ev="http://www.w3.org/2001/xml-events" xmlns:xlink="http://www.w3.org/1999/xlink"><defs /><rect fill="#222222" height="98" width="200" x="0" y="0" /><text fill="#FFFFFF" style="font-size:12px; font-family:Arial; font-weight:bold;" x="10" y="20">MRLE's Sports</text><text fill="#FFFFFF" style="font-size:4px; font-family:Arial" x="10" y="78">Runner</text><text fill="#FFFFFF" style="font-size:9px; font-family:Arial" x="10" y="88">MRLE</text><text fill="#FFFFFF" style="font-size:3px; font-family:Arial" x="65" y="85.6">Less</text><rect fill="#ebedf0" height="2.6" width="2.6" x="73" y="83" /><rect fill="#9be9a8" height="2.6" width="2.6" x="76.6" y="83" /><rect fill="#40c463" height="2.6" width="2.6" x="80.19999999999999" y="83" /><rect fill="#30a14e" height="2.6" width="2.6" x="83.79999999999998" y="83" /><rect fill="#216e39" height="2.6" width="2.6" x="87.39999999999998" y="83" /><text fill="#FFFFFF" style="font-size:3px; font-family:Arial" x="92.99999999999997" y="85.6">More</text><text fill="#FFFFFF" style="font-size:4px; font-family:Arial" x="120" y="78">STATISTICS</text><text fill="#FFFFFF" style="font-size:3px; font-family:Arial" x="120" y="83">Number: 1510</text><text fill="#FFFFFF" style="font-size:3px; font-family:Arial" x="120" y="88">Weekly: 7.3</text><text fill="#FFFFFF" style="font-size:3px; font-family:Arial" x="141" y="83">Total: 17143.0 km</text><text fill="#FFFFFF" style="font-size:3px; font-family:Arial" x="141" y="88">Avg: 11.4 km</text><text fill="#FFFFFF" style="font-size:3px; font-family:Arial" x="167" y="83">Min: 0.6 km</text><text fill="#FFFFFF" style="font-size:3px; font-family:Arial" x="167" y="88">Max: 878.6 km</text><text dominant-baseline="hanging" fill="#FFFFFF" style="font-size:10.0px; font-family:Arial;" x="10" y="30">2025</text><text dominant-baseline="hanging" fill="#FFFFFF" style="font-size:4.125px; font-family:Arial;" x="175" y="35">4525.9 km</text><text fill="#FFFFFF" style="font-size:2.5px; font-family:Arial" x="10.0" y="44">Jan</text><text fill="#FFFFFF" style="font-size:2.5px; font-family:Arial" x="25.5" y="44">Feb</text><text fill="#FFFFFF" style="font-size:2.5px; font-family:Arial" x="41.0" y="44">Mar</text><text fill="#FFFFFF" style="font-size:2.5px; font-family:Arial" x="56.5" y="44">Apr</text><text fill="#FFFFFF" style="font-size:2.5px; font-family:Arial" x="72.0" y="44">May</text><text fill="#FFFFFF" style="font-size:2.5px; font-family:Arial" x="87.5" y="44">Jun</text><text fill="#FFFFFF" style="font-size:2.5px; font-family:Arial" x="103.0" y="44">Jul</text><text fill="#FFFFFF" style="font-size:2.5px; font-family:Arial" x="118.5" y="44">Aug</text><text fill="#FFFFFF" style="font-size:2.5px; font-family:Arial" x="134.0" y="44">Sep</text><text fill="#FFFFFF" style="font-size:2.5px; font-family:Arial" x="149.5" y="44">Oct</text><text fill="#FFFFFF" style="font-size:2.5px; font-family:Arial" x="165.0" y="44">Nov</text><text fill="#FFFFFF" style="font-size:2.5px; font-family:Arial" x="180.5" y="44">Dec</text><rect fill="#ebedf0" height="2.6" width="2.6" x="10.0" y="52.5"><title>2025-01-01</title></rect><rect fill="#216e39" height="2.6" width="2.6" x="10.0" y="56.0"><title>2025-01-02 2h 0m</title></rect><rect fill="#30a14e" height="2.6" width="2.6" x="10.0" y="59.5"><title>2025-01-03 1h 47m</title></rect><rect fill="#30a14e" height="2.6" width="2.6" x="10.0" y="63.0"><title>2025-01-04 1h 32m</title></rect><rect fill="#ebedf0" height="2.6" width="2.6" x="10.0" y="66.5"><title>2025-01-05</title></rect><rect fill="#216e39" height="2.6" width="2.6" x="13.5" y="45.5"><title>2025-01-06 3h 54m</title></rect><rect fill="#30a14e" height="2.6" width="2.6" x="13.5" y="49.0"><title>2025-01-07 1h 41m</title></rect><rect fill="#ebedf0" height="2.6" width="2.6" x="13.5" y="52.5"><title>2025-01-08</title></rect><rect fill="#30a14e" height="2.6" width="2.6" x="13.5" y="56.0"><title>2025-01-09 1h 48m</title></rect><rect fill="#30a14e" height="2.6" width="2.6" x="13.5" y="59.5"><title>2025-01-10 1h 45m</title></rect><rect fill="#ebedf0" height="2.6" width="2.6" x="13.5" y="63.0"><title>2025-01-11</title></rect><rect fill="#ebedf0" height="2.6" width="2.6" x="13.5" y="66.5"><title>2025-01-12</title></rect><rect fill="#30a14e" height="2.6" width="2.6" x="17.0" y="45.5"><title>2025-01-13 1h 49m</title></rect><rect fill="#ebedf0" height="2.6" width="2.6" x="17.0" y="49.0"><title>2025-01-14</title></rect><rect fill="#216e39" height="2.6" width="2.6" x="17.0" y="52.5"><title>2025-01-15 2h 45m</title></rect><rect fill="#ebedf0" height="2.6" width="2.6" x="17.0" y="56.0"><title>2025-01-16</title></rect><rect fill="#30a14e" height="2.6" width="2.6" x="17.0" y="59.5"><title>2025-01-17 1h 50m</title></rect><rect fill="#30a14e" height="2.6" width="2.6" x="17.0" y="63.0"><title>2025-01-18 1h 31m</title></rect><rect fill="#216e39" height="2.6" width="2.6" x="17.0" y="66.5"><title>2025-01-19 4h 4m</title></rect><rect fill="#ebedf0" height="2.6" width="2.6" x="20.5" y="45.5"><title>2025-01-20</title></rect><rect fill="#40c463" height="2.6" width="2.6" x="20.5" y="49.0"><title>2025-01-21 32m</title></rect><rect fill="#216e39" height="2.6" width="2.6" x="20.5" y="52.5"><title>2025-01-22 6h 22m</title></rect><rect fill="#216e39" height="2.6" width="2.6" x="20.5" y="56.0"><title>2025-01-23 2h 17m</title></rect><rect fill="#216e39" height="2.6" width="2.6" x="20.5" y="59.5"><title>2025-01-24 2h 40m</title></rect><rect fill="#ebedf0" height="2.6" width="2.6" x="20.5" y="63.0"><title>2025-01-25</title></rect><rect fill="#216e39" height="2.6" width="2.6" x="20.5" y="66.5"><title>2025-01-26 4h 46m</title></rect><rect fill="#ebedf0" height="2.6" width="2.6" x="24.0" y="45.5"><title>2025-01-27</title></rect><rect fill="#ebedf0" height="2.6" width="2.6" x="24.0" y="49.0"><title>2025-01-28</title></rect><rect fill="#30a14e" height="2.6" width="2.6" x="24.0" y="52.5"><title>2025-01-29 1h 53m</title></rect><rect fill="#216e39" height="2.6" width="2.6" x="24.0" y="56.0"><title>2025-01-30 2h 38m</title></rect><rect fill="#30a14e" height="2.6" width="2.6" x="24.0" y="59.5"><title>2025-01-31 1h 43m</title></rect><rect fill="#ebedf0" height="2.6" width="2.6" x="24.0" y="63.0"><title>2025-02-01</title></rect><rect fill="#216e39" height="2.6" width="2.6" x="24.0" y="66.5"><title>2025-02-02 4h 25m</title></rect><rect fill="#30a14e" height="2.6" width="2.6" x="27.5" y="45.5"><title>2025-02-03 1h 5m</title></rect><rect fill="#ebedf0" height="2.6" width="2.6" x="27.5" y="49.0"><title>2025-02-04</title></rect><rect fill="#216e39" height="2.6" width="2.6" x="27.5" y="52.5"><title>2025-02-05 3h 43m</title></rect><rect fill="#30a14e" height="2.6" width="2.6" x="27.5" y="56.0"><title>2025-02-06 1h 33m</title></rect><rect fill="#40c463" height="2.6" width="2.6" x="27.5" y="59.5"><title>2025-02-07 38m</title></rect><rect fill="#216e39" height="2.6" width="2.6" x="27.5" y="63.0"><title>2025-02-08 4h 17m</title></rect><rect fill="#ebedf0" height="2.6" width="2.6" x="27.5" y="66.5"><title>2025-02-09</title></rect><rect fill="#30a14e" height="2.6" width="2.6" x="31.0" y="45.5"><title>2025-02-10 1h 41m</title></rect><rect fill="#30a14e" height="2.6" width="2.6" x="31.0" y="49.0"><title>2025-02-11 1h 52m</title></rect><rect fill="#216e39" height="2.6" width="2.6" x="31.0" y="52.5"><title>2025-02-12 2h 7m</title></rect><rect fill="#ebedf0" height="2.6" width="2.6" x="31.0" y="56.0"><title>2025-02-13</title></rect><rect fill="#ebedf0" height="2.6" width="2.6" x="31.0" y="59.5"><title>2025-02-14</title></rect><rect fill="#30a14e" height="2.6" width="2.6" x="31.0" y="63.0"><title>2025-02-15 1h 30m</title></rect><rect fill="#216e39" height="2.6" width="2.6" x="31.0" y="66.5"><title>2025-02-16 3h 8m</title></rect><rect fill="#ebedf0" height="2.6" width="2.6" x="34.5" y="45.5"><title>2025-02-17</title></rect><rect fill="#216e39" height="2.6" width="2.6" x="34.5" y="49.0"><title>2025-02-18 2h 0m</title></rect><rect fill="#40c463" height="2.6" width="2.6" x="34.5" y="52.5"><title>2025-02-19 49m</title></rect><rect fill="#9be9a8" height="2.6" width="2.6" x="34.5" y="56.0"><title>2025-02-20 17m</title></rect><rect fill="#30a14e" height="2.6" width="2.6" x="34.5" y="59.5"><title>2025-02-21 1h 17m</title></rect><rect fill="#ebedf0" height="2.6" width="2.6" x="34.5" y="63.0"><title>2025-02-22</title></rect><rect fill="#ebedf0" height="2.6" width="2.6" x="34.5" y="66.5"><title>2025-02-23</title></rect><rect fill="#30a14e" height="2.6" width="2.6" x="38.0" y="45.5"><title>2025-02-24 1h 30m</title></rect><rect fill="#30a14e" height="2.6" width="2.6" x="38.0" y="49.0"><title>2025-02-25 1h 44m</title></rect><rect fill="#ebedf0" height="2.6" width="2.6" x="38.0" y="52.5"><title>2025-02-26</title></rect><rect fill="#216e39" height="2.6" width="2.6" x="38.0" y="56.0"><title>2025-02-27 2h 30m</title></rect><rect fill="#ebedf0" height="2.6" width="2.6" x="38.0" y="59.5"><title>2025-02-28</title></rect><rect fill="#ebedf0" height="2.6" width="2.6" x="38.0" y="63.0"><title>2025-03-01</title></rect><rect fill="#ebedf0" height="2.6" width="2.6" x="38.0" y="66.5"><title>2025-03-02</title></rect><rect fill="#9be9a8" height="2.6" width="2.6" x="41.5" y="45.5"><title>2025-03-03 28m</title></rect><rect fill="#30a14e" height="2.6" width="2.6" x="41.5" y="49.0"><title>2025-03-04 1h 44m</title></rect><rect fill="#40c463" height="2.6" width="2.6" x="41.5" y="52.5"><title>2025-03-05 59m</title></rect><rect fill="#ebedf0" height="2.6" width="2.6" x="41.5" y="56.0"><title>2025-03-06</title></rect><rect fill="#ebedf0" height="2.6" width="2.6" x="41.5" y="59.5"><title>2025-03-07</title></rect><rect fill="#ebedf0" height="2.6" width="2.6" x="41.5" y="63.0"><title>2025-03-08</title></rect><rect fill="#30a14e" height="2.6" width="2.6" x="41.5" y="66.5"><title>2025-03-09 1h 30m</title></rect><rect fill="#30a14e" height="2.6" width="2.6" x="45.0" y="45.5"><title>2025-03-10 1h 5m</title></rect><rect fill="#ebedf0" height="2.6" width="2.6" x="45.0" y="49.0"><title>2025-03-11</title></rect><rect fill="#30a14e" height="2.6" width="2.6" x="45.0" y="52.5"><title>2025-03-12 1h 50m</title></rect><rect fill="#ebedf0" height="2.6" width="2.6" x="45.0" y="56.0"><title>2025-03-13</title></rect><rect fill="#ebedf0" height="2.6" width="2.6" x="45.0" y="59.5"><title>2025-03-14</title></rect><rect fill="#216e39" height="2.6" width="2.6" x="45.0" y="63.0"><title>2025-03-15 3h 12m</title></rect><rect fill="#ebedf0" height="2.6" width="2.6" x="45.0" y="66.5"><title>2025-03-16</title></rect><rect fill="#30a14e" height="2.6" width="2.6" x="48.5" y="45.5"><title>2025-03-17 1h 35m</title></rect><rect fill="#ebedf0" height="2.6" width="2.6" x="48.5" y="49.0"><title>2025-03-18</title></rect><rect fill="#40c463" height="2.6" width="2.6" x="48.5" y="52.5"><title>2025-03-19 50m</title></rect><rect fill="#40c463" height="2.6" width="2.6" x="48.5" y="56.0"><title>2025-03-20 39m</title></rect><rect fill="#ebedf0" height="2.6" width="2.6" x="48.5" y="59.5"><title>2025-03-21</title></rect><rect fill="#30a14e" height="2.6" width="2.6" x="48.5" y="63.0"><title>2025-03-22 1h 30m</title></rect><rect fill="#216e39" height="2.6" width="2.6" x="48.5" y="66.5"><title>2025-03-23 7h 52m</title></rect><rect fill="#ebedf0" height="2.6" width="2.6" x="52.0" y="45.5"><title>2025-03-24</title></rect><rect fill="#ebedf0" height="2.6" width="2.6" x="52.0" y="49.0"><title>2025-03-25</title></rect><rect fill="#ebedf0" height="2.6" width="2.6" x="52.0" y="52.5"><title>2025-03-26</title></rect><rect fill="#ebedf0" height="2.6" width="2.6" x="52.0" y="56.0"><title>2025-03-27</title></rect><rect fill="#40c463" height="2.6" width="2.6" x="52.0" y="59.5"><title>2025-03-28 57m</title></rect><rect fill="#216e39" height="2.6" width="2.6" x="52.0" y="63.0"><title>2025-03-29 3h 4m</title></rect><rect fill="#ebedf0" height="2.6" width="2.6" x="52.0" y="66.5"><title>2025-03-30</title></rect><rect fill="#ebedf0" height="2.6" width="2.6" x="55.5" y="45.5"><title>2025-03-31</title></rect><rect fill="#ebedf0" height="2.6" width="2.6" x="55.5" y="49.0"><title>2025-04-01</title></rect><rect fill="#ebedf0" height="2.6" width="2.6" x="55.5" y="52.5"><title>2025-04-02</title></rect><rect fill="#ebedf0" height="2.6" width="2.6" x="55.5" y="56.0"><title>2025-04-03</title></rect><rect fill="#ebedf0" height="2.6" width="2.6" x="55.5" y="59.5"><title>2025-04-04</title></rect><rect fill="#ebedf0" height="2.6" width="2.6" x="55.5" y="63.0"><title>2025-04-05</title></rect><rect fill="#ebedf0" height="2.6" width="2.6" x="55.5" y="66.5"><title>2025-04-06</title></rect><rect fill="#30a14e" height="2.6" width="2.6" x="59.0" y="45.5"><title>2025-04-07 1h 46m</title></rect><rect fill="#30a14e" height="2.6" width="2.6" x="59.0" y="49.0"><title>2025-04-08 1h 9m</title></rect><rect fill="#216e39" height="2.6" width="2.6" x="59.0" y="52.5"><title>2025-04-09 3h 28m</title></rect><rect fill="#30a14e" height="2.6" width="2.6" x="59.0" y="56.0"><title>2025-04-10 1h 31m</title></rect><rect fill="#216e39" height="2.6" width="2.6" x="59.0" y="59.5"><title>2025-04-11 2h 40m</title></rect><rect fill="#ebedf0" height="2.6" width="2.6" x="59.0" y="63.0"><title>2025-04-12</title></rect><rect fill="#ebedf0" height="2.6" width="2.6" x="59.0" y="66.5"><title>2025-04-13</title></rect><rect fill="#30a14e" height="2.6" width="2.6" x="62.5" y="45.5"><title>2025-04-14 1h 30m</title></rect><rect fill="#30a14e" height="2.6" width="2.6" x="62.5" y="49.0"><title>2025-04-15 1h 6m</title></rect><rect fill="#ebedf0" height="2.6" width="2.6" x="62.5" y="52.5"><title>2025-04-16</title></rect><rect fill="#30a14e" height="2.6" width="2.6" x="62.5" y="56.0"><title>2025-04-17 1h 43m</title></rect><rect fill="#ebedf0" height="2.6" width="2.6" x="62.5" y="59.5"><title>2025-04-18</title></rect><rect fill="#216e39" height="2.6" width="2.6" x="62.5" y="63.0"><title>2025-04-19 7h 40m</title></rect><rect fill="#ebedf0" height="2.6" width="2.6" x="62.5" y="66.5"><title>2025-04-20</title></rect><rect fill="#ebedf0" height="2.6" width="2.6" x="66.0" y="45.5"><title>2025-04-21</title></rect><rect fill="#30a14e" height="2.6" width="2.6" x="66.0" y="49.0"><title>2025-04-22 1h 44m</title></rect><rect fill="#40c463" height="2.6" width="2.6" x="66.0" y="52.5"><title>2025-04-23 47m</title></rect><rect fill="#30a14e" height="2.6" width="2.6" x="66.0" y="56.0"><title>2025-04-24 1h 30m</title></rect><rect fill="#ebedf0" height="2.6" width="2.6" x="66.0" y="59.5"><title>2025-04-25</title></rect><rect fill="#216e39" height="2.6" width="2.6" x="66.0" y="63.0"><title>2025-04-26 11h 5m</title></rect><rect fill="#ebedf0" height="2.6" width="2.6" x="66.0" y="66.5"><title>2025-04-27</title></rect><rect fill="#ebedf0" height="2.6" width="2.6" x="69.5" y="45.5"><title>2025-04-28</title></rect><rect fill="#30a14e" height="2.6" width="2.6" x="69.5" y="49.0"><title>2025-04-29 1h 31m</title></rect><rect fill="#216e39" height="2.6" width="2.6" x="69.5" y="52.5"><title>2025-04-30 2h 10m</title></rect><rect fill="#ebedf0" height="2.6" width="2.6" x="69.5" y="56.0"><title>2025-05-01</title></rect><rect fill="#216e39" height="2.6" width="2.6" x="69.5" y="59.5"><title>2025-05-02 4h 34m</title></rect><rect fill="#ebedf0" height="2.6" width="2.6" x="69.5" y="63.0"><title>2025-05-03</title></rect><rect fill="#ebedf0" height="2.6" width="2.6" x="69.5" y="66.5"><title>2025-05-04</title></rect><rect fill="#30a14e" height="2.6" width="2.6" x="73.0" y="45.5"><title>2025-05-05 1h 29m</title></rect><rect fill="#216e39" height="2.6" width="2.6" x="73.0" y="49.0"><title>2025-05-06 2h 37m</title></rect><rect fill="#216e39" height="2.6" width="2.6" x="73.0" y="52.5"><title>2025-05-07 3h 20m</title></rect><rect fill="#30a14e" height="2.6" width="2.6" x="73.0" y="56.0"><title>2025-05-08 1h 12m</title></rect><rect fill="#ebedf0" height="2.6" width="2.6" x="73.0" y="59.5"><title>2025-05-09</title></rect><rect fill="#ebedf0" height="2.6" width="2.6" x="73.0" y="63.0"><title>2025-05-10</title></rect><rect fill="#30a14e" height="2.6" width="2.6" x="73.0" y="66.5"><title>2025-05-11 1h 21m</title></rect><rect fill="#ebedf0" height="2.6" width="2.6" x="76.5" y="45.5"><title>2025-05-12</title></rect><rect fill="#ebedf0" height="2.6" width="2.6" x="76.5" y="49.0"><title>2025-05-13</title></rect><rect fill="#30a14e" height="2.6" width="2.6" x="76.5" y="52.5"><title>2025-05-14 1h 40m</title></rect><rect fill="#ebedf0" height="2.6" width="2.6" x="76.5" y="56.0"><title>2025-05-15</title></rect><rect fill="#30a14e" height="2.6" width="2.6" x="76.5" y="59.5"><title>2025-05-16 1h 22m</title></rect><rect fill="#216e39" height="2.6" width="2.6" x="76.5" y="63.0"><title>2025-05-17 8h 49m</title></rect><rect fill="#30a14e" height="2.6" width="2.6" x="76.5" y="66.5"><title>2025-05-18 1h 29m</title></rect><rect fill="#ebedf0" height="2.6" width="2.6" x="80.0" y="45.5"><title>2025-05-19</title></rect><rect fill="#30a14e" height="2.6" width="2.6" x="80.0" y="49.0"><title>2025-05-20 1h 42m</title></rect><rect fill="#216e39" height="2.6" width="2.6" x="80.0" y="52.5"><title>2025-05-21 2h 13m</title></rect><rect fill="#ebedf0" height="2.6" width="2.6" x="80.0" y="56.0"><title>2025-05-22</title></rect><rect fill="#ebedf0" height="2.6" width="2.6" x="80.0" y="59.5"><title>2025-05-23</title></rect><rect fill="#30a14e" height="2.6" width="2.6" x="80.0" y="63.0"><title>2025-05-24 1h 37m</title></rect><rect fill="#30a14e" height="2.6" width="2.6" x="80.0" y="66.5"><title>2025-05-25 1h 13m</title></rect><rect fill="#40c463" height="2.6" width="2.6" x="83.5" y="45.5"><title>2025-05-26 59m</title></rect><rect fill="#ebedf0" height="2.6" width="2.6" x="83.5" y="49.0"><title>2025-05-27</title></rect><rect fill="#ebedf0" height="2.6" width="2.6" x="83.5" y="52.5"><title>2025-05-28</title></rect><rect fill="#30a14e" height="2.6" width="2.6" x="83.5" y="56.0"><title>2025-05-29 1h 31m</title></rect><rect fill="#40c463" height="2.6" width="2.6" x="83.5" y="59.5"><title>2025-05-30 38m</title></rect><rect fill="#ebedf0" height="2.6" width="2.6" x="83.5" y="63.0"><title>2025-05-31</title></rect><rect fill="#216e39" height="2.6" width="2.6" x="83.5" y="66.5"><title>2025-06-01 7h 4m</title></rect><rect fill="#ebedf0" height="2.6" width="2.6" x="87.0" y="45.5"><title>2025-06-02</title></rect><rect fill="#30a14e" height="2.6" width="2.6" x="87.0" y="49.0"><title>2025-06-03 1h 19m</title></rect><rect fill="#ebedf0" height="2.6" width="2.6" x="87.0" y="52.5"><title>2025-06-04</title></rect><rect fill="#ebedf0" height="2.6" width="2.6" x="87.0" y="56.0"><title>2025-06-05</title></rect><rect fill="#ebedf0" height="2.6" width="2.6" x="87.0" y="59.5"><title>2025-06-06</title></rect><rect fill="#ebedf0" height="2.6" width="2.6" x="87.0" y="63.0"><title>2025-06-07</title></rect><rect fill="#9be9a8" height="2.6" width="2.6" x="87.0" y="66.5"><title>2025-06-08 16m</title></rect><rect fill="#ebedf0" height="2.6" width="2.6" x="90.5" y="45.5"><title>2025-06-09</title></rect><rect fill="#ebedf0" height="2.6" width="2.6" x="90.5" y="49.0"><title>2025-06-10</title></rect><rect fill="#ebedf0" height="2.6" width="2.6" x="90.5" y="52.5"><title>2025-06-11</title></rect><rect fill="#ebedf0" height="2.6" width="2.6" x="90.5" y="56.0"><title>2025-06-12</title></rect><rect fill="#ebedf0" height="2.6" width="2.6" x="90.5" y="59.5"><title>2025-06-13</title></rect><rect fill="#ebedf0" height="2.6" width="2.6" x="90.5" y="63.0"><title>2025-06-14</title></rect><rect fill="#30a14e" height="2.6" width="2.6" x="90.5" y="66.5"><title>2025-06-15 1h 31m</title></rect><rect fill="#40c463" height="2.6" width="2.6" x="94.0" y="45.5"><title>2025-06-16 56m</title></rect><rect fill="#30a14e" height="2.6" width="2.6" x="94.0" y="49.0"><title>2025-06-17 1h 23m</title></rect><rect fill="#ebedf0" height="2.6" width="2.6" x="94.0" y="52.5"><title>2025-06-18</title></rect><rect fill="#ebedf0" height="2.6" width="2.6" x="94.0" y="56.0"><title>2025-06-19</title></rect><rect fill="#ebedf0" height="2.6" width="2.6" x="94.0" y="59.5"><title>2025-06-20</title></rect><rect fill="#216e39" height="2.6" width="2.6" x="94.0" y="63.0"><title>2025-06-21 14h 3m</title></rect><rect fill="#216e39" height="2.6" width="2.6" x="94.0" y="66.5"><title>2025-06-22 5h 6m</title></rect><rect fill="#ebedf0" height="2.6" width="2.6" x="97.5" y="45.5"><title>2025-06-23</title></rect><rect fill="#ebedf0" height="2.6" width="2.6" x="97.5" y="49.0"><title>2025-06-24</title></rect><rect fill="#ebedf0" height="2.6" width="2.6" x="97.5" y="52.5"><title>2025-06-25</title></rect><rect fill="#30a14e" height="2.6" width="2.6" x="97.5" y="56.0"><title>2025-06-26 1h 11m</title></rect><rect fill="#ebedf0" height="2.6" width="2.6" x="97.5" y="59.5"><title>2025-06-27</title></rect><rect fill="#30a14e" height="2.6" width="2.6" x="97.5" y="63.0"><title>2025-06-28 1h 58m</title></rect><rect fill="#216e39" height="2.6" width="2.6" x="97.5" y="66.5"><title>2025-06-29 2h 7m</title></rect><rect fill="#ebedf0" height="2.6" width="2.6" x="101.0" y="45.5"><title>2025-06-30</title></rect><rect fill="#ebedf0" height="2.6" width="2.6" x="101.0" y="49.0"><title>2025-07-01</title></rect><rect fill="#ebedf0" height="2.6" width="2.6" x="101.0" y="52.5"><title>2025-07-02</title></rect><rect fill="#ebedf0" height="2.6" width="2.6" x="101.0" y="56.0"><title>2025-07-03</title></rect><rect fill="#ebedf0" height="2.6" width="2.6" x="101.0" y="59.5"><title>2025-07-04</title></rect><rect fill="#ebedf0" height="2.6" width="2.6" x="101.0" y="63.0"><title>2025-07-05</title></rect><rect fill="#30a14e" height="2.6" width="2.6" x="101.0" y="66.5"><title>2025-07-06 1h 22m</title></rect><rect fill="#ebedf0" height="2.6" width="2.6" x="104.5" y="45.5"><title>2025-07-07</title></rect><rect fill="#ebedf0" height="2.6" width="2.6" x="104.5" y="49.0"><title>2025-07-08</title></rect><rect fill="#ebedf0" height="2.6" width="2.6" x="104.5" y="52.5"><title>2025-07-09</title></rect><rect fill="#ebedf0" height="2.6" width="2.6" x="104.5" y="56.0"><title>2025-07-10</title></rect><rect fill="#ebedf0" height="2.6" width="2.6" x="104.5" y="59.5"><title>2025-07-11</title></rect><rect fill="#30a14e" height="2.6" width="2.6" x="104.5" y="63.0"><title>2025-07-12 1h 29m</title></rect><rect fill="#30a14e" height="2.6" width="2.6" x="104.5" y="66.5"><title>2025-07-13 1h 25m</title></rect><rect fill="#30a14e" height="2.6" width="2.6" x="108.0" y="45.5"><title>2025-07-14 1h 41m</title></rect><rect fill="#ebedf0" height="2.6" width="2.6" x="108.0" y="49.0"><title>2025-07-15</title></rect><rect fill="#30a14e" height="2.6" width="2.6" x="108.0" y="52.5"><title>2025-07-16 1h 58m</title></rect><rect fill="#30a14e" height="2.6" width="2.6" x="108.0" y="56.0"><title>2025-07-17 1h 3m</title></rect><rect fill="#ebedf0" height="2.6" width="2.6" x="108.0" y="59.5"><title>2025-07-18</title></rect><rect fill="#30a14e" height="2.6" width="2.6" x="108.0" y="63.0"><title>2025-07-19 1h 59m</title></rect><rect fill="#216e39" height="2.6" width="2.6" x="108.0" y="66.5"><title>2025-07-20 8h 27m</title></rect><rect fill="#ebedf0" height="2.6" width="2.6" x="111.5" y="45.5"><title>2025-07-21</title></rect><rect fill="#30a14e" height="2.6" width="2.6" x="111.5" y="49.0"><title>2025-07-22 1h 30m</title></rect><rect fill="#30a14e" height="2.6" width="2.6" x="111.5" y="52.5"><title>2025-07-23 1h 13m</title></rect><rect fill="#ebedf0" height="2.6" width="2.6" x="111.5" y="56.0"><title>2025-07-24</title></rect><rect fill="#30a14e" height="2.6" width="2.6" x="111.5" y="59.5"><title>2025-07-25 1h 33m</title></rect><rect fill="#30a14e" height="2.6" width="2.6" x="111.5" y="63.0"><title>2025-07-26 1h 42m</title></rect><rect fill="#ebedf0" height="2.6" width="2.6" x="111.5" y="66.5"><title>2025-07-27</title></rect><rect fill="#30a14e" height="2.6" width="2.6" x="115.0" y="45.5"><title>2025-07-28 1h 8m</title></rect><rect fill="#30a14e" height="2.6" width="2.6" x="115.0" y="49.0"><title>2025-07-29 1h 14m</title></rect><rect fill="#ebedf0" height="2.6" width="2.6" x="115.0" y="52.5"><title>2025-07-30</title></rect><rect fill="#ebedf0" height="2.6" width="2.6" x="115.0" y="56.0"><title>2025-07-31</title></rect><rect fill="#ebedf0" height="2.6" width="2.6" x="115.0" y="59.5"><title>2025-08-01</title></rect><rect fill="#216e39" height="2.6" width="2.6" x="115.0" y="63.0"><title>2025-08-02 5h 40m</title></rect><rect fill="#ebedf0" height="2.6" width="2.6" x="115.0" y="66.5"><title>2025-08-03</title></rect><rect fill="#30a14e" height="2.6" width="2.6" x="118.5" y="45.5"><title>2025-08-04 1h 18m</title></rect><rect fill="#30a14e" height="2.6" width="2.6" x="118.5" y="49.0"><title>2025-08-05 1h 10m</title></rect><rect fill="#ebedf0" height="2.6" width="2.6" x="118.5" y="52.5"><title>2025-08-06</title></rect><rect fill="#ebedf0" height="2.6" width="2.6" x="118.5" y="56.0"><title>2025-08-07</title></rect><rect fill="#216e39" height="2.6" width="2.6" x="118.5" y="59.5"><title>2025-08-08 2h 6m</title></rect><rect fill="#ebedf0" height="2.6" width="2.6" x="118.5" y="63.0"><title>2025-08-09</title></rect><rect fill="#30a14e" height="2.6" width="2.6" x="118.5" y="66.5"><title>2025-08-10 1h 25m</title></rect><rect fill="#ebedf0" height="2.6" width="2.6" x="122.0" y="45.5"><title>2025-08-11</title></rect><rect fill="#ebedf0" height="2.6" width="2.6" x="122.0" y="49.0"><title>2025-08-12</title></rect><rect fill="#30a14e" height="2.6" width="2.6" x="122.0" y="52.5"><title>2025-08-13 1h 42m</title></rect><rect fill="#30a14e" height="2.6" width="2.6" x="122.0" y="56.0"><title>2025-08-14 1h 7m</title></rect><rect fill="#ebedf0" height="2.6" width="2.6" x="122.0" y="59.5"><title>2025-08-15</title></rect><rect fill="#216e39" height="2.6" width="2.6" x="122.0" y="63.0"><title>2025-08-16 2h 56m</title></rect><rect fill="#30a14e" height="2.6" width="2.6" x="122.0" y="66.5"><title>2025-08-17 1h 25m</title></rect><rect fill="#ebedf0" height="2.6" width="2.6" x="125.5" y="45.5"><title>2025-08-18</title></rect><rect fill="#30a14e" height="2.6" width="2.6" x="125.5" y="49.0"><title>2025-08-19 1h 40m</title></rect><rect fill="#30a14e" height="2.6" width="2.6" x="125.5" y="52.5"><title>2025-08-20 1h 7m</title></rect><rect fill="#ebedf0" height="2.6" width="2.6" x="125.5" y="56.0"><title>2025-08-21</title></rect><rect fill="#ebedf0" height="2.6" width="2.6" x="125.5" y="59.5"><title>2025-08-22</title></rect><rect fill="#ebedf0" height="2.6" width="2.6" x="125.5" y="63.0"><title>2025-08-23</title></rect><rect fill="#ebedf0" height="2.6" width="2.6" x="125.5" y="66.5"><title>2025-08-24</title></rect><rect fill="#ebedf0" height="2.6" width="2.6" x="129.0" y="45.5"><title>2025-08-25</title></rect><rect fill="#40c463" height="2.6" width="2.6" x="129.0" y="49.0"><title>2025-08-26 52m</title></rect><rect fill="#ebedf0" height="2.6" width="2.6" x="129.0" y="52.5"><title>2025-08-27</title></rect><rect fill="#30a14e" height="2.6" width="2.6" x="129.0" y="56.0"><title>2025-08-28 1h 59m</title></rect><rect fill="#ebedf0" height="2.6" width="2.6" x="129.0" y="59.5"><title>2025-08-29</title></rect><rect fill="#30a14e" height="2.6" width="2.6" x="129.0" y="63.0"><title>2025-08-30 1h 19m</title></rect><rect fill="#ebedf0" height="2.6" width="2.6" x="129.0" y="66.5"><title>2025-08-31</title></rect><rect fill="#30a14e" height="2.6" width="2.6" x="132.5" y="45.5"><title>2025-09-01 1h 38m</title></rect><rect fill="#ebedf0" height="2.6" width="2.6" x="132.5" y="49.0"><title>2025-09-02</title></rect><rect fill="#30a14e" height="2.6" width="2.6" x="132.5" y="52.5"><title>2025-09-03 1h 24m</title></rect><rect fill="#30a14e" height="2.6" width="2.6" x="132.5" y="56.0"><title>2025-09-04 1h 42m</title></rect><rect fill="#ebedf0" height="2.6" width="2.6" x="132.5" y="59.5"><title>2025-09-05</title></rect><rect fill="#ebedf0" height="2.6" width="2.6" x="132.5" y="63.0"><title>2025-09-06</title></rect><rect fill="#216e39" height="2.6" width="2.6" x="132.5" y="66.5"><title>2025-09-07 2h 30m</title></rect><rect fill="#30a14e" height="2.6" width="2.6" x="136.0" y="45.5"><title>2025-09-08 1h 12m</title></rect><rect fill="#ebedf0" height="2.6" width="2.6" x="136.0" y="49.0"><title>2025-09-09</title></rect><rect fill="#ebedf0" height="2.6" width="2.6" x="136.0" y="52.5"><title>2025-09-10</title></rect><rect fill="#30a14e" height="2.6" width="2.6" x="136.0" y="56.0"><title>2025-09-11 1h 47m</title></rect><rect fill="#ebedf0" height="2.6" width="2.6" x="136.0" y="59.5"><title>2025-09-12</title></rect><rect fill="#216e39" height="2.6" width="2.6" x="136.0" y="63.0"><title>2025-09-13 3h 46m</title></rect><rect fill="#30a14e" height="2.6" width="2.6" x="136.0" y="66.5"><title>2025-09-14 1h 15m</title></rect><rect fill="#ebedf0" height="2.6" width="2.6" x="139.5" y="45.5"><title>2025-09-15</title></rect><rect fill="#216e39" height="2.6" width="2.6" x="139.5" y="49.0"><title>2025-09-16 2h 42m</title></rect><rect fill="#ebedf0" height="2.6" width="2.6" x="139.5" y="52.5"><title>2025-09-17</title></rect><rect fill="#30a14e" height="2.6" width="2.6" x="139.5" y="56.0"><title>2025-09-18 1h 46m</title></rect><rect fill="#30a14e" height="2.6" width="2.6" x="139.5" y="59.5"><title>2025-09-19 1h 31m</title></rect><rect fill="#216e39" height="2.6" width="2.6" x="139.5" y="63.0"><title>2025-09-20 4h 17m</title></rect><rect fill="#30a14e" height="2.6" width="2.6" x="139.5" y="66.5"><title>2025-09-21 1h 4m</title></rect><rect fill="#ebedf0" height="2.6" width="2.6" x="143.0" y="45.5"><title>2025-09-22</title></rect><rect fill="#216e39" height="2.6" width="2.6" x="143.0" y="49.0"><title>2025-09-23 2h 35m</title></rect><rect fill="#30a14e" height="2.6" width="2.6" x="143.0" y="52.5"><title>2025-09-24 1h 7m</title></rect><rect fill="#ebedf0" height="2.6" width="2.6" x="143.0" y="56.0"><title>2025-09-25</title></rect><rect fill="#30a14e" height="2.6" width="2.6" x="143.0" y="59.5"><title>2025-09-26 1h 49m</title></rect><rect fill="#216e39" height="2.6" width="2.6" x="143.0" y="63.0"><title>2025-09-27 3h 39m</title></rect><rect fill="#30a14e" height="2.6" width="2.6" x="143.0" y="66.5"><title>2025-09-28 1h 17m</title></rect><rect fill="#ebedf0" height="2.6" width="2.6" x="146.5" y="45.5"><title>2025-09-29</title></rect><rect fill="#216e39" height="2.6" width="2.6" x="146.5" y="49.0"><title>2025-09-30 2h 54m</title></rect><rect fill="#216e39" height="2.6" width="2.6" x="146.5" y="52.5"><title>2025-10-01 2h 4m</title></rect><rect fill="#30a14e" height="2.6" width="2.6" x="146.5" y="56.0"><title>2025-10-02 1h 50m</title></rect><rect fill="#ebedf0" height="2.6" width="2.6" x="146.5" y="59.5"><title>2025-10-03</title></rect><rect fill="#216e39" height="2.6" width="2.6" x="146.5" y="63.0"><title>2025-10-04 4h 4m</title></rect><rect fill="#ebedf0" height="2.6" width="2.6" x="146.5" y="66.5"><title>2025-10-05</title></rect><rect fill="#30a14e" height="2.6" width="2.6" x="150.0" y="45.5"><title>2025-10-06 1h 34m</title></rect><rect fill="#216e39" height="2.6" width="2.6" x="150.0" y="49.0"><title>2025-10-07 3h 6m</title></rect><rect fill="#ebedf0" height="2.6" width="2.6" x="150.0" y="52.5"><title>2025-10-08</title></rect><rect fill="#216e39" height="2.6" width="2.6" x="150.0" y="56.0"><title>2025-10-09 7h 8m</title></rect><rect fill="#216e39" height="2.6" width="2.6" x="150.0" y="59.5"><title>2025-10-10 11h 11m</title></rect><rect fill="#216e39" height="2.6" width="2.6" x="150.0" y="63.0"><title>2025-10-11 9h 50m</title></rect><rect fill="#216e39" height="2.6" width="2.6" x="150.0" y="66.5"><title>2025-10-12 10h 28m</title></rect><rect fill="#216e39" height="2.6" width="2.6" x="153.5" y="45.5"><title>2025-10-13 4h 1m</title></rect><rect fill="#ebedf0" height="2.6" width="2.6" x="153.5" y="49.0"><title>2025-10-14</title></rect><rect fill="#ebedf0" height="2.6" width="2.6" x="153.5" y="52.5"><title>2025-10-15</title></rect><rect fill="#30a14e" height="2.6" width="2.6" x="153.5" y="56.0"><title>2025-10-16 1h 58m</title></rect><rect fill="#30a14e" height="2.6" width="2.6" x="153.5" y="59.5"><title>2025-10-17 1h 49m</title></rect><rect fill="#ebedf0" height="2.6" width="2.6" x="153.5" y="63.0"><title>2025-10-18</title></rect><rect fill="#216e39" height="2.6" width="2.6" x="153.5" y="66.5"><title>2025-10-19 4h 10m</title></rect><rect fill="#ebedf0" height="2.6" width="2.6" x="157.0" y="45.5"><title>2025-10-20</title></rect><rect fill="#30a14e" height="2.6" width="2.6" x="157.0" y="49.0"><title>2025-10-21 1h 11m</title></rect><rect fill="#30a14e" height="2.6" width="2.6" x="157.0" y="52.5"><title>2025-10-22 1h 23m</title></rect><rect fill="#40c463" height="2.6" width="2.6" x="157.0" y="56.0"><title>2025-10-23 35m</title></rect><rect fill="#ebedf0" height="2.6" width="2.6" x="157.0" y="59.5"><title>2025-10-24</title></rect><rect fill="#30a14e" height="2.6" width="2.6" x="157.0" y="63.0"><title>2025-10-25 1h 15m</title></rect><rect fill="#216e39" height="2.6" width="2.6" x="157.0" y="66.5"><title>2025-10-26 7h 26m</title></rect><rect fill="#ebedf0" height="2.6" width="2.6" x="160.5" y="45.5"><title>2025-10-27</title></rect><rect fill="#30a14e" height="2.6" width="2.6" x="160.5" y="49.0"><title>2025-10-28 1h 36m</title></rect><rect fill="#ebedf0" height="2.6" width="2.6" x="160.5" y="52.5"><title>2025-10-29</title></rect><rect fill="#ebedf0" height="2.6" width="2.6" x="160.5" y="56.0"><title>2025-10-30</title></rect><rect fill="#30a14e" height="2.6" width="2.6" x="160.5" y="59.5"><title>2025-10-31 1h 28m</title></rect><rect fill="#216e39" height="2.6" width="2.6" x="160.5" y="63.0"><title>2025-11-01 2h 0m</title></rect><rect fill="#216e39" height="2.6" width="2.6" x="160.5" y="66.5"><title>2025-11-02 3h 26m</title></rect><rect fill="#ebedf0" height="2.6" width="2.6" x="164.0" y="45.5"><title>2025-11-03</title></rect><rect fill="#30a14e" height="2.6" width="2.6" x="164.0" y="49.0"><title>2025-11-04 1h 42m</title></rect><rect fill="#ebedf0" height="2.6" width="2.6" x="164.0" y="52.5"><title>2025-11-05</title></rect><rect fill="#30a14e" height="2.6" width="2.6" x="164.0" y="56.0"><title>2025-11-06 1h 33m</title></rect><rect fill="#ebedf0" height="2.6" width="2.6" x="164.0" y="59.5"><title>2025-11-07</title></rect><rect fill="#216e39" height="2.6" width="2.6" x="164.0" y="63.0"><title>2025-11-08 2h 46m</title></rect><rect fill="#30a14e" height="2.6" width="2.6" x="164.0" y="66.5"><title>2025-11-09 1h 46m</title></rect><rect fill="#ebedf0" height="2.6" width="2.6" x="167.5" y="45.5"><title>2025-11-10</title></rect><rect fill="#30a14e" height="2.6" width="2.6" x="167.5" y="49.0"><title>2025-11-11 1h 10m</title></rect><rect fill="#30a14e" height="2.6" width="2.6" x="167.5" y="52.5"><title>2025-11-12 1h 53m</title></rect><rect fill="#40c463" height="2.6" width="2.6" x="167.5" y="56.0"><title>2025-11-13 45m</title></rect><rect fill="#ebedf0" height="2.6" width="2.6" x="167.5" y="59.5"><title>2025-11-14</title></rect><rect fill="#30a14e" height="2.6" width="2.6" x="167.5" y="63.0"><title>2025-11-15 1h 10m</title></rect><rect fill="#216e39" height="2.6" width="2.6" x="167.5" y="66.5"><title>2025-11-16 6h 55m</title></rect><rect fill="#ebedf0" height="2.6" width="2.6" x="171.0" y="45.5"><title>2025-11-17</title></rect><rect fill="#ebedf0" height="2.6" width="2.6" x="171.0" y="49.0"><title>2025-11-18</title></rect><rect fill="#ebedf0" height="2.6" width="2.6" x="171.0" y="52.5"><title>2025-11-19</title></rect><rect fill="#30a14e" height="2.6" width="2.6" x="171.0" y="56.0"><title>2025-11-20 1h 30m</title></rect><rect fill="#30a14e" height="2.6" width="2.6" x="171.0" y="59.5"><title>2025-11-21 1h 28m</title></rect><rect fill="#ebedf0" height="2.6" width="2.6" x="171.0" y="63.0"><title>2025-11-22</title></rect><rect fill="#216e39" height="2.6" width="2.6" x="171.0" y="66.5"><title>2025-11-23 3h 2m</title></rect><rect fill="#ebedf0" height="2.6" width="2.6" x="174.5" y="45.5"><title>2025-11-24</title></rect><rect fill="#30a14e" height="2.6" width="2.6" x="174.5" y="49.0"><title>2025-11-25 1h 52m</title></rect><rect fill="#ebedf0" height="2.6" width="2.6" x="174.5" y="52.5"><title>2025-11-26</title></rect><rect fill="#30a14e" height="2.6" width="2.6" x="174.5" y="56.0"><title>2025-11-27 1h 55m</title></rect><rect fill="#30a14e" height="2.6" width="2.6" x="174.5" y="59.5"><title>2025-11-28 1h 47m</title></rect><rect fill="#ebedf0" height="2.6" width="2.6" x="174.5" y="63.0"><title>2025-11-29</title></rect><rect fill="#216e39" height="2.6" width="2.6" x="174.5" y="66.5"><title>2025-11-30 2h 22m</title></rect><rect fill="#ebedf0" height="2.6" width="2.6" x="178.0" y="45.5"><title>2025-12-01</title></rect><rect fill="#40c463" height="2.6" width="2.6" x="178.0" y="49.0"><title>2025-12-02 44m</title></rect><rect fill="#9be9a8" height="2.6" width="2.6" x="178.0" y="52.5"><title>2025-12-03 18m</title></rect><rect fill="#ebedf0" height="2.6" width="2.6" x="178.0" y="56.0"><title>2025-12-04</title></rect><rect fill="#ebedf0" height="2.6" width="2.6" x="178.0" y="59.5"><title>2025-12-05</title></rect><rect fill="#ebedf0" height="2.6" width="2.6" x="178.0" y="63.0"><title>2025-12-06</title></rect><rect fill="#30a14e" height="2.6" width="2.6" x="178.0" y="66.5"><title>2025-12-07 1h 3m</title></rect><rect fill="#30a14e" height="2.6" width="2.6" x="181.5" y="45.5"><title>2025-12-08 1h 44m</title></rect><rect fill="#ebedf0" height="2.6" width="2.6" x="181.5" y="49.0"><title>2025-12-09</title></rect><rect fill="#30a14e" height="2.6" width="2.6" x="181.5" y="52.5"><title>2025-12-10 1h 27m</title></rect><rect fill="#30a14e" height="2.6" width="2.6" x="181.5" y="56.0"><title>2025-12-11 1h 26m</title></rect><rect fill="#ebedf0" height="2.6" width="2.6" x="181.5" y="59.5"><title>2025-12-12</title></rect><rect fill="#9be9a8" height="2.6" width="2.6" x="181.5" y="63.0"><title>2025-12-13 24m</title></rect><rect fill="#ebedf0" height="2.6" width="2.6" x="181.5" y="66.5"><title>2025-12-14</title></rect><rect fill="#30a14e" height="2.6" width="2.6" x="185.0" y="45.5"><title>2025-12-15 1h 49m</title></rect><rect fill="#30a14e" height="2.6" width="2.6" x="185.0" y="49.0"><title>2025-12-16 1h 52m</title></rect><rect fill="#ebedf0" height="2.6" width="2.6" x="185.0" y="52.5"><title>2025-12-17</title></rect><rect fill="#30a14e" height="2.6" width="2.6" x="185.0" y="56.0"><title>2025-12-18 1h 57m</title></rect><rect fill="#30a14e" height="2.6" width="2.6" x="185.0" y="59.5"><title>2025-12-19 1h 19m</title></rect><rect fill="#216e39" height="2.6" width="2.6" x="185.0" y="63.0"><title>2025-12-20 2h 22m</title></rect><rect fill="#ebedf0" height="2.6" width="2.6" x="185.0" y="66.5"><title>2025-12-21</title></rect><rect fill="#30a14e" height="2.6" width="2.6" x="188.5" y="45.5"><title>2025-12-22 1h 36m</title></rect><rect fill="#30a14e" height="2.6" width="2.6" x="188.5" y="49.0"><title>2025-12-23 1h 42m</title></rect><rect fill="#ebedf0" height="2.6" width="2.6" x="188.5" y="52.5"><title>2025-12-24</title></rect><rect fill="#30a14e" height="2.6" width="2.6" x="188.5" y="56.0"><title>2025-12-25 1h 44m</title></rect><rect fill="#30a14e" height="2.6" width="2.6" x="188.5" y="59.5"><title>2025-12-26 1h 31m</title></rect><rect fill="#216e39" height="2.6" width="2.6" x="188.5" y="63.0"><title>2025-12-27 2h 53m</title></rect><rect fill="#ebedf0" height="2.6" width="2.6" x="188.5" y="66.5"><title>2025-12-28</title></rect><rect fill="#30a14e" height="2.6" width="2.6" x="192.0" y="45.5"><title>2025-12-29 1h 30m</title></rect><rect fill="#216e39" height="2.6" width="2.6" x="192.0" y="49.0"><title>2025-12-30 3h 53m</title></rect><rect fill="#ebedf0" height="2.6" width="2.6" x="192.0" y="52.5"><title>2025-12-31</title></rect></svg>