<?xml version="1.0" encoding="utf-8" ?>
<svg baseProfile="full" height="200mm" version="1.1" viewBox="0,0,200,200" width="200mm" xmlns="http://www.w3.org/2000/svg" xmlns:ev="http://www.w3.org/2001/xml-events" xmlns:xlink="http://www.w3.org/1999/xlink"><defs /><rect fill="#1a1a1a" height="200" width="200" x="0" y="0" /><rect fill="#1a1a1a" height="200" width="180" x="10" y="0" /><text alignment-baseline="middle" fill="#e1ed5e" style="dominant-baseline: central; font-size:9.0px; font-family:Arial;" text-anchor="middle" x="100.0" y="100.0">2026</text><line stroke="#e1ed5e" stroke-width="0.3" x1="100.0" x2="100.0" y1="15.0" y2="10.0" /><path d="M 100.0 14.0 a86.0,86.0 0 0,1 42.46469731375804,11.215312516191453" fill="none" id="id37" stroke="none" /><text fill="#e1ed5e" style="font-size:6.75px; font-family:Arial;" text-anchor="middle"><textPath startOffset="22.20632615414155" xlink:href="#id37">January</textPath></text><path d="M 100.36148047927253 79.00311137660856 l 0.571443356453228 -33.19275368388409 a54.19767227726419,54.19767227726419 0 0,0 0.9326473902590853,0.024087530512570433 l -1.1427173819071812 33.17799936122916" fill="red" stroke="none" /><path d="M 100.72285384407766 79.0124445844662 l 1.3534953968444885 -39.29779149502832 a60.321093145740484,60.321093145740484 0 0,0 1.0374055138038683,0.04467286366486079 l -2.0297417430376883 39.26867090483926" fill="red" stroke="none" /><path d="M 101.08401301168833 79.027996857942 l 1.2601978506106126 -24.380586762015014 a45.413133954550474,45.413133954550474 0 0,0 0.7803229624729641,0.04707121206594601 l -1.6796828619231887 24.355282280568762" fill="red" stroke="none" /><path d="M 101.80526077348638 79.07773832637324 l 2.852434932995255 -33.058597933120794 a54.18142978159184,54.18142978159184 0 0,0 0.9285016741294867,0.0881724219130956 l -3.4210617342149856 33.00459996669252" fill="red" stroke="none" /><path d="M 102.16513564639614 79.11191278185805 l 3.4222237215973625 -33.01581020833713 a54.192700084711426,54.192700084711426 0 0,0 0.9270391570066513,0.10416365084633651 l -3.990029582113739 32.95201060402019" fill="red" stroke="none" /><path d="M 102.52436894288641 79.15227682838746 l 3.1176302445115205 -25.747223864474403 a46.93528783470222,46.93528783470222 0 0,0 0.8012194953326482,0.10402128564766366 l -3.560364468352015 25.6897442556626" fill="red" stroke="none" /><path d="M 103.2404852339499 79.25152402106235 l 9.234147639155246 -59.12524719127862 a80.84199476999005,80.84199476999005 0 0,0 1.373046592949012,0.22656445255377297 l -10.250523438243134 58.95753647578522" fill="red" stroke="none" /><path d="M 103.59715602781102 79.31037775812273 l 6.895213065805859 -39.65892847177716 a61.25387646863836,61.25387646863836 0 0,0 1.0372465392194292,0.18955017512932323 l -7.576854726128189 39.5343628152971" fill="red" stroke="none" /><path d="M 104.307194497241 79.44645832069477 l 5.827178159668348 -27.8067659248263 a49.4107767669699,49.4107767669699 0 0,0 0.8309416819276796,0.18161166738134465 l -6.3049625657495545 27.702340759349084" fill="red" stroke="none" /><path d="M 104.66035177308747 79.52364482259891 l 6.810483604985003 -29.923466728596743 a51.68870391514125,51.68870391514125 0 0,0 0.8658505566168635,0.20491885224170459 l -7.324557848564391 29.80180196421417" fill="red" stroke="none" /><path d="M 105.01212808612495 79.60689891045804 l 6.5815876629337735 -26.778841289281566 a48.575779897609664,48.575779897609664 0 0,0 0.8102697106345386,0.2065557906484325 l -7.041566262253337 26.661582502464267" fill="red" stroke="none" /><path d="M 105.71112130821622 79.79150937346287 l 10.36708382924383 -36.68335955084689 a59.12014290449707,59.12014290449707 0 0,0 0.976917519878543,0.28518901289479087 l -10.9969915668458 36.49947220903339" fill="red" stroke="none" /><path d="M 106.0581310904928 79.89281104454417 l 14.403572676213754 -47.80605653924736 a70.92876873779971,70.92876873779971 0 0,0 1.1659832601860567,0.36227667465548996 l -15.22434130911053 47.551039729709345" fill="red" stroke="none" /><path d="M 107.08798089147638 80.2323363322302 l 9.4364570470405 -26.317326750354475 a48.95797576516518,48.95797576516518 0 0,0 0.7908290797115191,0.2912690241388994 l -9.888068452524596 26.15099445840925" fill="red" stroke="none" /><path d="M 107.4271985657038 80.35727306442388 l 10.725253480558674 -28.365099380305566 a51.325070899782695,51.325070899782695 0 0,0 0.8236863309910694,0.3195774996895983 l -11.211922976549412 28.176279176725423" fill="red" stroke="none" /><path d="M 107.76421540070413 80.48803036053334 l 9.118051872811634 -22.914247239617797 a45.6617435821885,45.6617435821885 0 0,0 0.7277962914132103,0.2968863811440311 l -9.511132033813233 22.75389997229019" fill="red" stroke="none" /><path d="M 108.09893153111575 80.62456947434976 l 8.94876600985129 -21.40852697025918 a44.203565246215604,44.203565246215604 0 0,0 0.6995029854710947,0.29949067280757763 l -9.3159527531127 21.251316769488813" fill="red" stroke="none" /><path d="M 108.43124777332544 80.76684994638697 l 23.955972504629315 -54.647761072740494 a80.66796803064344,80.66796803064344 0 0,0 1.2669399201645866,0.5684390117656019 l -24.89309454326068 54.227301730458365" fill="red" stroke="none" /><path d="M 109.08828744355905 81.06846463323043 l 13.048492546308387 -27.180918259637252 a51.15071268093256,51.15071268093256 0 0,0 0.7904702846598325,0.387880335707825 l -13.51443409797865 26.952282763794596" fill="red" stroke="none" /><path d="M 109.41281617654863 81.2277094730956 l 11.004640338407695 -21.946918085085546 a45.55136090751722,45.55136090751722 0 0,0 0.6978891737168196,0.35748594094032365 l -11.38078999971327 21.75423961883272" fill="red" stroke="none" /><path d="M 110.05341064243156 81.56283822128135 l 14.370848972170862 -26.355002975722787 a51.018452359029126,51.018452359029126 0 0,0 0.7674047672877764,0.427059922144135 l -14.822377828530673 26.103727656018474" fill="red" stroke="none" /><path d="M 110.36928655335952 81.73862282372117 l 11.457353195123037 -20.177574133120874 a44.203565246215604,44.203565246215604 0 0,0 0.658429506938014,0.38140486910247423 l -11.80297943452638 19.977365106628348" fill="red" stroke="none" /><line stroke="#e1ed5e" stroke-width="0.3" x1="143.23703022742887" x2="145.7803849466894" y1="26.81831364943548" y2="22.513508569990506" /><path d="M 143.74570117128098 25.957352633546492 a86.0,86.0 0 0,1 28.547481713284135,27.462654790039103" fill="none" id="id38" stroke="none" /><text fill="#e1ed5e" style="font-size:6.75px; font-family:Arial;" text-anchor="middle"><textPath startOffset="19.985693538727396" xlink:href="#id38">February</textPath></text><path d="M 110.68208982089419 81.91981866633111 l 32.04626946268258 -54.24054400100664 a84.0,84.0 0 0,0 1.23855173512945,0.7462135621655417 l -32.97518326402967 53.68088382938249" fill="red" stroke="none" /><path d="M 111.2981086023043 82.29822771554956 l 19.757319008742904 -30.95558507666321 a57.72328827667489,57.72328827667489 0 0,0 0.8329552251424851,0.5417772485896345 l -20.28724125966967 30.610908903914044" fill="red" stroke="none" /><path d="M 111.60114157652 82.49532879139004 l 20.78459785040553 -31.361357774556822 a58.62358660822806,58.62358660822806 0 0,0 0.8363500640417451,0.564707296627226 l -21.321352608853815 30.998938565630926" fill="red" stroke="none" /><path d="M 112.19680574252982 82.90503203632743 l 23.403720407232864 -32.80251067681688 a61.29564288608154,61.29564288608154 0 0,0 0.8536284690066723,0.6201973858494498 l -23.964894192593327 32.39479405615076" fill="red" stroke="none" /><line stroke="#e1ed5e" stroke-width="0.3" x1="172.23445277983987" x2="176.4835382374775" y1="55.19839476539836" y2="52.563006222186495" /><path d="M 173.08426987136738 54.67131705675599 a86.0,86.0 0 0,1 12.851231095245387,41.99856678651699" fill="none" id="id39" stroke="none" /><text fill="#e1ed5e" style="font-size:6.75px; font-family:Arial;" text-anchor="middle"><textPath startOffset="22.20632615414155" xlink:href="#id39">March</textPath></text><line stroke="#e1ed5e" stroke-width="0.3" x1="184.98032266829074" x2="189.97916517819016" y1="98.17113171792111" y2="98.06355123074" /><path d="M 185.9800911702706 98.14961562048488 a86.0,86.0 0 0,1 -9.607161424134198,41.387399972396054" fill="none" id="id40" stroke="none" /><text fill="#e1ed5e" style="font-size:6.75px; font-family:Arial;" text-anchor="middle"><textPath startOffset="21.466115282336823" xlink:href="#id40">April</textPath></text><line stroke="#e1ed5e" stroke-width="0.3" x1="174.80103733775053" x2="179.2010983576182" y1="140.37084112569926" y2="142.7455964860345" /><path d="M 175.68104954172406 140.8457921977663 a86.0,86.0 0 0,1 -30.038265399797805,32.042727171017184" fill="none" id="id41" stroke="none" /><text fill="#e1ed5e" style="font-size:6.75px; font-family:Arial;" text-anchor="middle"><textPath startOffset="22.206326154141568" xlink:href="#id41">May</textPath></text><line stroke="#e1ed5e" stroke-width="0.3" x1="143.8653032363475" x2="146.44561519142675" y1="172.8068346515853" y2="177.08958963109032" /><path d="M 144.38136562736335 173.6633856474863 a86.0,86.0 0 0,1 -40.68145358897372,12.25698825130547" fill="none" id="id42" stroke="none" /><text fill="#e1ed5e" style="font-size:6.75px; font-family:Arial;" text-anchor="middle"><textPath startOffset="21.466115282336833" xlink:href="#id42">June</textPath></text><line stroke="#e1ed5e" stroke-width="0.3" x1="102.19456741930631" x2="102.32365962044197" y1="184.97166512339345" y2="189.96999836594603" /><path d="M 102.22038585953345 185.97133177190398 a86.0,86.0 0 0,1 -42.740103519485714,-10.115201625700543" fill="none" id="id43" stroke="none" /><text fill="#e1ed5e" style="font-size:6.75px; font-family:Arial;" text-anchor="middle"><textPath startOffset="22.20632615414155" xlink:href="#id43">July</textPath></text><line stroke="#e1ed5e" stroke-width="0.3" x1="58.666819895761336" x2="56.23545636021788" y1="174.27360380694188" y2="178.64263932499728" /><path d="M 58.180547188652646 175.14741091055294 a86.0,86.0 0 0,1 -31.652253787137756,-30.449443065178592" fill="none" id="id44" stroke="none" /><text fill="#e1ed5e" style="font-size:6.75px; font-family:Arial;" text-anchor="middle"><textPath startOffset="22.20632615414155" xlink:href="#id44">August</textPath></text><line stroke="#e1ed5e" stroke-width="0.3" x1="26.63291911575756" x2="22.317208475507996" y1="142.92168965132927" y2="145.44649492493687" /><path d="M 25.769776987707644 143.4266507060508 a86.0,86.0 0 0,1 -11.730757126820373,-40.83630448921669" fill="none" id="id45" stroke="none" /><text fill="#e1ed5e" style="font-size:6.75px; font-family:Arial;" text-anchor="middle"><textPath startOffset="21.46611528233685" xlink:href="#id45">September</textPath></text><line stroke="#e1ed5e" stroke-width="0.3" x1="15.007084014347285" x2="10.007500721073583" y1="101.09737516637583" y2="101.16192664675087" /><path d="M 14.007167355692545 101.11028546245083 a86.0,86.0 0 0,1 10.666146001902534,-42.60595125391555" fill="none" id="id46" stroke="none" /><text fill="#e1ed5e" style="font-size:6.75px; font-family:Arial;" text-anchor="middle"><textPath startOffset="22.20632615414155" xlink:href="#id46">October</textPath></text><line stroke="#e1ed5e" stroke-width="0.3" x1="26.266209847984257" x2="21.92892807433627" y1="57.711370442889674" y2="55.22380399835377" /><path d="M 25.39875349325466 57.213857153982495 a86.0,86.0 0 0,1 29.58750427330802,-30.492523968695096" fill="none" id="id47" stroke="none" /><text fill="#e1ed5e" style="font-size:6.75px; font-family:Arial;" text-anchor="middle"><textPath startOffset="21.46611528233685" xlink:href="#id47">November</textPath></text><line stroke="#e1ed5e" stroke-width="0.3" x1="56.762969772571076" x2="54.21961505331055" y1="26.818313649435495" y2="22.513508569990535" /><path d="M 56.25429882871897 25.957352633546506 a86.0,86.0 0 0,1 42.265352541879196,-11.944610805530505" fill="none" id="id48" stroke="none" /><text fill="#e1ed5e" style="font-size:6.75px; font-family:Arial;" text-anchor="middle"><textPath startOffset="22.20632615414155" xlink:href="#id48">December</textPath></text></svg>