<?xml version="1.0" encoding="utf-8" ?>
<svg baseProfile="full" height="200mm" version="1.1" viewBox="0,0,200,200" width="200mm" xmlns="http://www.w3.org/2000/svg" xmlns:ev="http://www.w3.org/2001/xml-events" xmlns:xlink="http://www.w3.org/1999/xlink"><defs /><rect fill="#1a1a1a" height="200" width="200" x="0" y="0" /><rect fill="#1a1a1a" height="200" width="180" x="10" y="0" /><text alignment-baseline="middle" fill="#e1ed5e" style="dominant-baseline: central; font-size:9.0px; font-family:Arial;" text-anchor="middle" x="100.0" y="100.0">2024</text><line stroke="#e1ed5e" stroke-width="0.3" x1="100.0" x2="100.0" y1="15.0" y2="10.0" /><path d="M 100.0 14.0 a86.0,86.0 0 0,1 42.35913384403234,11.155469271406648" fill="none" id="id25" stroke="none" /><text fill="#e1ed5e" style="font-size:6.75px; font-family:Arial;" text-anchor="middle"><textPath startOffset="22.145653131862478" xlink:href="#id25">January</textPath></text><path d="M 101.44090949804482 79.04949213459386 l 0.08595555775642057 -1.249774945126534 a22.25272733321152,22.25272733321152 0 0,0 0.3808723883032788,0.02948193166000711 l -0.10739694083493284 1.2481152464714733" fill="#ff1001" stroke="none" /><path d="M 101.80034050326958 79.07731436759882 l 0.1082228966339116 -1.257714104852378 a22.262361661688303,22.262361661688303 0 0,0 0.3804748247838419,0.03603136148521366 l -0.12979728480276648 1.2556709878619805" fill="#ff1001" stroke="none" /><path d="M 102.15924093988457 79.11130261209362 l 0.13309840034104342 -1.287606286164202 a22.29446712292855,22.29446712292855 0 0,0 0.38034796014698463,0.042618782264395624 l -0.1551822620888247 1.2851317433928355" fill="#ff1101" stroke="none" /><path d="M 102.87502721639298 79.19773525538626 l 0.1750945773607462 -1.266897138516211 a22.27893958833156,22.27893958833156 0 0,0 0.37839706784957106,0.055611338155208516 l -0.19681675081799926 1.26370472706212" fill="#ff1101" stroke="none" /><path d="M 103.23170211078529 79.25015418208739 l 0.1932971356221521 -1.2411062727031987 a22.25606869349688,22.25606869349688 0 0,0 0.37699925370824267,0.062035083732650216 l -0.21457389238346528 1.2376051904748802" fill="#ff1001" stroke="none" /><path d="M 103.58742460773223 79.30868818359171 l 0.11691323404660803 -0.6743244654979113 a21.68438453303993,21.68438453303993 0 0,0 0.3662237151520008,0.066738160454515 l -0.1284716827496625 0.6722181311120303" fill="#ff0801" stroke="none" /><path d="M 104.29559338865022 79.4440306129975 l 0.23209459322321224 -1.1106566477616024 a22.134648002430925,22.134648002430925 0 0,0 0.3712692819696371,0.08091641199381032 l -0.2511262918119835 1.1065087776340734" fill="#ff0e01" stroke="none" /><path d="M 104.64783097203109 79.52079915486377 l 0.35099116809883385 -1.546531848860213 a22.585861141343205,22.585861141343205 0 0,0 0.3773644025996721,0.0890569715035255 l -0.37748772443839096 1.5402787337104602" fill="#ff1502" stroke="none" /><path d="M 106.04205211174951 79.88797359093562 l 4.9424188351037746 -16.4517048674514 a38.178070234671665,38.178070234671665 0 0,0 0.6260464811520947,0.19395080017106048 l -5.2241059491275 16.364437479473693" fill="#ffe315" stroke="none" /><path d="M 106.38641147887787 79.99465700312896 l 19.15923443663363 -60.016028990613094 a84.0,84.0 0 0,0 1.3699090494090305,0.4503163143919138 l -20.186666223690402 59.67829175481916" fill="#4dd2ff" stroke="none" /><path d="M 106.72888874123014 80.10723608172694 l 3.680280323017119 -10.880094832042248 a32.4856835586838,32.4856835586838 0 0,0 0.5267232258525659,0.18322167998910857 l -3.866509320914703 10.81531471948455" fill="#ff9c0e" stroke="none" /><path d="M 107.06938296918511 80.22567764915836 l 0.26213026403310113 -0.7332250016014152 a21.77867270293459,21.77867270293459 0 0,0 0.3509590050117739,0.12887700792907644 l -0.2746784206989997 0.7286171446636169" fill="#ff0901" stroke="none" /><path d="M 107.40779381753099 80.34994680014964 l 0.6843534939323984 -1.8153289487418764 a22.94004095235069,22.94004095235069 0 0,0 0.3672894317959397,0.14207544249431972 l -0.715415188221864 1.8033136181095184" fill="#ff1a02" stroke="none" /><path d="M 107.74402155503746 80.48000691201159 l 2.4909393600213896 -6.278794389277826 a27.754852913138116,27.754852913138116 0 0,0 0.44136234812657155,0.17949822463673676 l -2.598356169338401 6.235108908061797" fill="#ff5d08" stroke="none" /><path d="M 109.06512990194946 81.05736502329252 l 1.3351672910825212 -2.789986122799695 a24.093007316608144,24.093007316608144 0 0,0 0.371536832568456,0.18173728275733853 l -1.382864372913044 2.7666550899451354" fill="#ff2a04" stroke="none" /><path d="M 109.3889696526874 81.21577127319529 l 2.1294179144550984 -4.2602622694206955 a25.762799099127726,25.762799099127726 0 0,0 0.3938920706281832,0.20112409785486993 l -2.2022372067968603 4.223080219892991" fill="#ff4106" stroke="none" /><path d="M 109.71004243097381 81.37971332152246 l 2.408182587703328 -4.618007642697476 a26.208199109455187,26.208199109455187 0 0,0 0.39713057498673193,0.2114496627118413 l -2.4871019784766193 4.575987512263062" fill="#ff4806" stroke="none" /><path d="M 110.02825361518725 81.54914285379988 l 2.5057648406330544 -4.610325076588929 a26.247280700360665,26.247280700360665 0 0,0 0.39402894218509155,0.21856121208952012 l -2.5845379709742464 4.566630949066264" fill="#ff4806" stroke="none" /><path d="M 110.34350942703115 81.72400993836675 l 4.027463205837674 -7.116141580644327 a29.17679221150638,29.17679221150638 0 0,0 0.4337721091478279,0.25043844398345017 l -4.1490277828458995 7.045956239384705" fill="#ff700a" stroke="none" /><line stroke="#e1ed5e" stroke-width="0.3" x1="143.13028292997686" x2="145.6673583964461" y1="26.7553504044142" y2="22.446841604673864" /><path d="M 143.63769802327073 25.89364864446614 a86.0,86.0 0 0,1 29.32050498858742,28.57503671076993" fill="none" id="id26" stroke="none" /><text fill="#e1ed5e" style="font-size:6.75px; font-family:Arial;" text-anchor="middle"><textPath startOffset="20.669276256404974" xlink:href="#id26">February</textPath></text><path d="M 110.65571695917076 81.90426304109057 l 0.28841428473373776 -0.4897905088631298 a21.568399104688666,21.568399104688666 0 0,0 0.31743265032167756,0.1906091859373234 l -0.29677969161284956 0.48476732238988535" fill="#ff0601" stroke="none" /><path d="M 111.27062007382361 82.28071324371311 l 0.6721802136620065 -1.05677894204259 a22.2524408057802,22.2524408057802 0 0,0 0.320556336242808,0.20778074430080617 l -0.6902221821618217 1.045084356037889" fill="#ff1001" stroke="none" /><path d="M 111.5731344415666 82.4767994020092 l 0.7375056416380856 -1.1166775401966813 a22.338238880106132,22.338238880106132 0 0,0 0.3181642936388398,0.21407513598149047 l -0.7565662233739264 1.103852730158072" fill="#ff1101" stroke="none" /><path d="M 113.86319453409587 84.22622945171908 l 0.5106030141289537 -0.5809724999762497 a21.773462658288185,21.773462658288185 0 0,0 0.27863290016368136,0.24915525746208586 l -0.5205009411160106 0.5721217126307768" fill="#ff0901" stroke="none" /><path d="M 114.13192950727249 84.46653392183569 l 1.2871008327133202 -1.414749282031207 a22.912627534199782,22.912627534199782 0 0,0 0.2886666241200562,0.2671855177430594 l -1.3111972281473412 1.3924460181557727" fill="#ff1a02" stroke="none" /><path d="M 114.39649973595853 84.71141617570332 l 1.2874474296506278 -1.3672245551761129 a22.87798399045107,22.87798399045107 0 0,0 0.28360803336415785,0.27169008048960164 l -1.3107279488800976 1.344922344380931" fill="#ff1902" stroke="none" /><path d="M 115.6541949942343 86.00192230759917 l 0.2702107709482383 -0.2416241375842128 a21.362485978487108,21.362485978487108 0 0,0 0.24209691948665152,0.27546185325726724 l -0.27431875439348 0.2369500065156477" fill="#ff0300" stroke="none" /><path d="M 115.8921839302757 86.27271002978787 l 0.2783832374358325 -0.24046081016265877 a21.36785680381004,21.36785680381004 0 0,0 0.2373922456443059,0.2796474684546831 l -0.28247004658725056 0.23564655925842368" fill="#ff0300" stroke="none" /><path d="M 116.35404254752997 86.82634096563983 l 0.7990446720217563 -0.6436538263761955 a22.02604221945058,22.02604221945058 0 0,0 0.2346650021236852,0.29649156428247403 l -0.8099761047870008 0.6298423181790432" fill="#ff0d01" stroke="none" /><path d="M 116.57777611688842 87.10902102172516 l 0.8079023682549575 -0.6282297681088431 a22.023415300926295,22.023415300926295 0 0,0 0.22951337573869643,0.30044037632029297 l -0.8185677213479607 0.6142684785476682" fill="#ff0d01" stroke="none" /><path d="M 116.7966241395341 87.39550010848427 l 0.8373106058391281 -0.62833348849092 a22.04684861532595,22.04684861532595 0 0,0 0.22456078063615945,0.3046598270796109 l -0.8479734060591133 0.613867352142434" fill="#ff0d01" stroke="none" /><path d="M 117.42321728460499 88.27688183743584 l 0.5233484462253589 -0.35213219091948733 a21.63078576081603,21.63078576081603 0 0,0 0.20464326179122527,0.3098559811519254 l -0.5293161469373086 0.3430963314285032" fill="#ff0701" stroke="none" /><path d="M 117.62189284568427 88.57770195909679 l 1.0845962304747916 -0.7030221728738568 a22.292512730580402,22.292512730580402 0 0,0 0.20539080107485388,0.3229084537949608 l -1.0965047231755354 0.6843000444002241" fill="#ff1101" stroke="none" /><path d="M 117.81537515405839 88.88188828441811 l 1.3076840671387886 -0.8160915737900435 a22.541441882219292,22.541441882219292 0 0,0 0.20204864236192305,0.3300312727532328 l -1.3215006739561141 0.7935231849122559" fill="#ff1402" stroke="none" /><line stroke="#e1ed5e" stroke-width="0.3" x1="172.87174338648825" x2="177.1583165268699" y1="56.24261187166439" y2="53.66864786411523" /><path d="M 173.72905801456457 55.72781907015455 a86.0,86.0 0 0,1 12.242430191666344,42.057860355516425" fill="none" id="id27" stroke="none" /><text fill="#e1ed5e" style="font-size:6.75px; font-family:Arial;" text-anchor="middle"><textPath startOffset="22.145653131862474" xlink:href="#id27">March</textPath></text><path d="M 118.18653347947321 89.5 l 2.4929605272815376 -1.4393114315051074 a23.878622863010214,23.878622863010214 0 0,0 0.20190698617658862,0.3567502982202795 l -2.517300878479502 1.39630436318571" fill="#ff2703" stroke="none" /><path d="M 118.53625476483649 90.13048839642627 l 0.34023911296997644 -0.18115816361226164 a21.38546197508699,21.38546197508699 0 0,0 0.16975161678524506,0.325521107775355 l -0.3432987987301661 0.17529081273240846" fill="#ff0400" stroke="none" /><path d="M 118.8641267826498 90.77261029715802 l 1.6246717577376542 -0.7947083700494919 a22.80862370708146,22.80862370708146 0 0,0 0.16902356886710285,0.35319425117354203 l -1.6380745845646691 0.7667016168108464" fill="#ff1802" stroke="none" /><path d="M 119.0197475246899 91.09779779509293 l 1.0918487644625197 -0.5110403524445198 a22.205527256549992,22.205527256549992 0 0,0 0.15862733593176614,0.3466293566871059 l -1.1004605652493373 0.4922220135427297" fill="#ff0f01" stroke="none" /><path d="M 119.31412917781788 91.75594674310238 l 2.553772018809807 -1.0900534181589026 a23.77668290924546,23.77668290924546 0 0,0 0.15701006772206894,0.3767670050247652 l -2.5721079310683588 1.0460539036928596" fill="#ff2603" stroke="none" /><path d="M 119.58574465831526 92.42381321644754 l 1.3782193107050846 -0.5331248369036383 a22.47773832599819,22.47773832599819 0 0,0 0.13611802915786334,0.36106924413593633 l -1.3871680236773887 0.5093873125735442" fill="#ff1302" stroke="none" /><path d="M 119.71291397450082 92.76114493625339 l 0.6722716689040085 -0.24686746875444604 a21.716165304898393,21.716165304898393 0 0,0 0.12549857755714708,0.3510418572603121 l -0.6764104165050987 0.23529065511321712" fill="#ff0801" stroke="none" /><path d="M 119.94978838288452 93.4421083053983 l 1.7554321639649708 -0.5770454196085087 a22.847842931250895,22.847842931250895 0 0,0 0.11928236922115606,0.37365032266413845 l -1.765079248963384 0.5468260632529833" fill="#ff1902" stroke="none" /><path d="M 120.16314734710363 94.1308016681162 l 0.28071658070091643 -0.08171250543475356 a21.292367460954257,21.292367460954257 0 0,0 0.09914284750639095,0.3518229900141165 l -0.28207792028188944 0.07688159151762392" fill="#ff0200" stroke="none" /><path d="M 120.26092885502905 94.47779374421319 l 1.4504726906924703 -0.39533278181378834 a22.503382531101543,22.503382531101543 0 0,0 0.0983832016109617,0.37357704132850456 l -1.4570453731081623 0.37037523611248524" fill="#ff1402" stroke="none" /><path d="M 120.35273937422433 94.82641323984039 l 1.2308097545582706 -0.31286702656460724 a22.269952136195364,22.269952136195364 0 0,0 0.09100188938908232,0.3713187631783486 l -1.2359991704636442 0.2916924387781637" fill="#ff1001" stroke="none" /><path d="M 120.43855184770803 95.1765574152323 l 1.165840997371876 -0.27513530095930755 a22.197866714199463,22.197866714199463 0 0,0 0.08434041239922523,0.3716194188814406 l -1.1703922713287676 0.2550815481388407" fill="#ff0f01" stroke="none" /><path d="M 120.592083275326 95.88100663000786 l 1.2986438508948743 -0.2597651408212053 a22.324369200734044,22.324369200734044 0 0,0 0.07194156363217591,0.3764286605347238 l -1.302911706809207 0.23743391525316696" fill="#ff1101" stroke="none" /><path d="M 120.65975698304385 96.23510406497455 l 0.6185537690845272 -0.11272110183737033 a21.62874065563482,21.62874065563482 0 0,0 0.06342904479478105,0.365841874763577 l -0.6203976313715426 0.10208619415320067" fill="#ff0701" stroke="none" /><path d="M 120.77682067341334 96.94652285012252 l 2.972294344502778 -0.4368249120647715 a24.00422197484866,24.00422197484866 0 0,0 0.05641618953736412,0.40819944379899464 l -2.9793550505953545 0.3857371600656912" fill="#ff2904" stroke="none" /><path d="M 120.82617615685814 97.30363454192243 l 0.2492486434502387 -0.03227022702631863 a21.25132897527765,21.25132897527765 0 0,0 0.04373514773909809,0.36218976257297897 l -0.24976587744900045 0.027986787529926695" fill="#ff0200" stroke="none" /><path d="M 120.86939407059847 97.66154086499901 l 1.2487641071808404 -0.13992662288228297 a22.256579187784997,22.256579187784997 0 0,0 0.039285625811120654,0.380052792675787 l -1.2509821254736273 0.11846930792356454" fill="#ff1001" stroke="none" /><path d="M 120.93736805541906 98.37931529534042 l 1.2446929154727153 -0.09634710364575431 a22.248416284021037,22.248416284021037 0 0,0 0.026206556629396215,0.3810375818428552 l -1.2461634332671776 0.07496609764856496" fill="#ff1001" stroke="none" /><path d="M 120.96210409425399 98.7389718711861 l 3.512506509644107 -0.21130366929707894 a24.51885652179094,24.51885652179094 0 0,0 0.02166814311365652,0.42035618771398303 l -3.515616242214336 0.15097568820636525" fill="#ff3004" stroke="none" /><line stroke="#e1ed5e" stroke-width="0.3" x1="184.99686870605535" x2="189.99668451229388" y1="99.2704041080226" y2="99.22748670261217" /><path d="M 185.99683186730306 99.26182062694052 a86.0,86.0 0 0,1 -10.086455211305974,41.156179273409016" fill="none" id="id28" stroke="none" /><text fill="#e1ed5e" style="font-size:6.75px; font-family:Arial;" text-anchor="middle"><textPath startOffset="21.40746469413373" xlink:href="#id28">April</textPath></text><path d="M 120.99922638620191 99.81974689727618 l 1.5617922306382532 -0.013406107930123201 a22.561849767234943,22.561849767234943 0 0,0 0.0,0.38731842130789995 l -1.5617922306382532 -0.01340610793012301" fill="#ff1502" stroke="none" /><path d="M 120.99922638620191 100.18025310272382 l 0.92374729898693 0.007929259569512341 a21.923781329938514,21.923781329938514 0 0,0 -0.006460800970293431,0.37630926638076373 l -0.9234750664179682 -0.023785441919347124" fill="#ff0b01" stroke="none" /><path d="M 120.93736805541906 101.62068470465957 l 1.0508925646450769 0.08134573081261409 a22.054036199733076,22.054036199733076 0 0,0 -0.032457636372696816,0.3772069344456888 l -1.0493413055746392 -0.09937371263396023" fill="#ff0d01" stroke="none" /><path d="M 120.9064616781168 101.97986365728391 l 1.8708366747354808 0.17717017819900688 a22.879207049683025,22.879207049683025 0 0,0 -0.04038464129754044,0.39068477056041945 l -1.8675196409562742 -0.2092594710423577" fill="#ff1902" stroke="none" /><path d="M 120.86939407059847 102.33845913500097 l 0.6247569476731204 0.07000531910506218 a21.62866683415688,21.62866683415688 0 0,0 -0.044511707502717414,0.3686207914124624 l -0.6234631539107394 -0.08071978744093317" fill="#ff0701" stroke="none" /><path d="M 120.77682067341334 103.0534771498775 l 0.8823492934553386 0.1296749607712621 a21.89182726528861,21.89182726528861 0 0,0 -0.057834567192619216,0.3713394090957665 l -0.8799932341244519 -0.14480255179847917" fill="#ff0b01" stroke="none" /><path d="M 120.7213421655516 103.40968896794604 l 0.7863685399099342 0.12939664399385487 a21.79694351872448,21.79694351872448 0 0,0 -0.06392232117676701,0.36868696185177946 l -0.7840314012409328 -0.14287663876622234" fill="#ff0a01" stroke="none" /><path d="M 120.592083275326 104.11899336999214 l 0.17627527855587266 0.03525999258827595 a21.17976718529052,21.17976718529052 0 0,0 -0.07437354840239664,0.35590435263305525 l -0.17564401932911153 -0.03828079650674032" fill="#ff0100" stroke="none" /><path d="M 120.51834098615036 104.47187691870673 l 2.7801173940700936 0.6059136464409487 a23.845379424919365,23.845379424919365 0 0,0 -0.09060010857832952,0.39920079523803037 l -2.7693064239341 -0.6535487756179961" fill="#ff2703" stroke="none" /><path d="M 120.26092885502905 105.52220625578681 l 0.6071856477404235 0.1654911483262953 a21.62933435548706,21.62933435548706 0 0,0 -0.10071185374774397,0.3573908396479257 l -0.6042553019180998 -0.17588991187722947" fill="#ff0701" stroke="none" /><path d="M 120.16314734710363 105.8691983318838 l 0.7234232701748194 0.21057797066418213 a21.753448279286292,21.753448279286292 0 0,0 -0.10744512895896592,0.357649889670078 l -0.7197018212122238 -0.22296546392498362" fill="#ff0901" stroke="none" /><path d="M 119.94978838288452 106.5578916946017 l 0.833494576709366 0.27398622267027695 a21.877372018938974,21.877372018938974 0 0,0 -0.12034073361296543,0.3557659957796912 l -0.8286684215240356 -0.28825389292412856" fill="#ff0b01" stroke="none" /><path d="M 119.83427380445688 106.89939002012753 l 1.9050298992451191 0.6626682884625144 a23.01699483825609,23.01699483825609 0 0,0 -0.13301612284143788,0.3720697693689861 l -1.893373606359738 -0.6952730142124219" fill="#ff1b02" stroke="none" /><path d="M 119.71291397450082 107.23885506374661 l 0.8297731190076392 0.3047041828549026 a21.88395026335023,21.88395026335023 0 0,0 -0.13252223763947812,0.3515309799276868 l -0.8244201975537204 -0.3189034429767483" fill="#ff0b01" stroke="none" /><path d="M 119.4528033332814 107.91128576633889 l 0.8767310527862733 0.3565588866540676 a21.946462666232385,21.946462666232385 0 0,0 -0.14492415122149171,0.3477652051468016 l -0.870481057028296 -0.37155660124214707" fill="#ff0c01" stroke="none" /><path d="M 119.31412917781788 108.2440532568976 l 4.620637047446496 1.9722751954922344 a26.023958217480416,26.023958217480416 0 0,0 -0.1789037058290635,0.40936669018106564 l -4.586099459600467 -2.0513039554491446" fill="#ff4506" stroke="none" /><path d="M 119.0197475246899 108.90220220490707 l 0.7676415686832339 0.35929501463882474 a21.847565033206756,21.847565033206756 0 0,0 -0.16190163248746264,0.33831214329135423 l -0.7613606782358592 -0.3724196599952825" fill="#ff0a01" stroke="none" /><path d="M 118.8641267826498 109.22738970284198 l 1.1409055438745757 0.5580740730149389 a22.270083513401865,22.270083513401865 0 0,0 -0.17092828540343247,0.34197107112595554 l -1.1311573452594108 -0.5775770003046402" fill="#ff1001" stroke="none" /><line stroke="#e1ed5e" stroke-width="0.3" x1="174.33088141563837" x2="178.70328620479359" y1="141.23008692659167" y2="143.65538615756765" /><path d="M 175.20536237346943 141.71514677278685 a86.0,86.0 0 0,1 -30.301960400862466,31.631185727798858" fill="none" id="id29" stroke="none" /><text fill="#e1ed5e" style="font-size:6.75px; font-family:Arial;" text-anchor="middle"><textPath startOffset="22.145653131862474" xlink:href="#id29">May</textPath></text><path d="M 118.18653347947321 110.5 l 1.4096011833109896 0.8138336226346145 a22.62766724526923,22.62766724526923 0 0,0 -0.1971045341712063,0.33472659018977163 l -1.395422939010018 -0.8379113811179355" fill="#ff1602" stroke="none" /><path d="M 118.00360718960297 110.81064883170644 l 0.2159625133271411 0.12967928414594182 a21.251905783774767,21.251905783774767 0 0,0 -0.19048997547056587,0.31115105905374263 l -0.21370457340117055 -0.13336745932424152" fill="#ff0200" stroke="none" /><path d="M 117.423217284605 111.72311816256416 l 0.2086153027547493 0.14036568589854823 a21.251441584311795,21.251441584311795 0 0,0 -0.20625056677868725,0.3009257408029695 l -0.2061749991607417 -0.14392616177156178" fill="#ff0200" stroke="none" /><path d="M 117.21940702142032 112.02048342749411 l 0.6186096390247816 0.4318375716849833 a21.754427977883346,21.754427977883346 0 0,0 -0.21638912117605857,0.30437839808619244 l -0.6111054193187624 -0.44239319648067976" fill="#ff0901" stroke="none" /><path d="M 117.01052211995028 112.31430620078461 l 0.9132436056486856 0.6611179431510226 a22.127426635313558,22.127426635313558 0 0,0 -0.2253815175762181,0.3057733143658947 l -0.9017600684886393 -0.6766975667857946" fill="#ff0e01" stroke="none" /><path d="M 116.79662413953412 112.60449989151573 l 0.17202402226319 0.1290900333270552 a21.215073245523442,21.215073245523442 0 0,0 -0.22108937286030497,0.2894130861383549 l -0.16978267204858058 -0.1320240327062874" fill="#ff0100" stroke="none" /><path d="M 116.35404254752997 113.17365903436017 l 0.29371144167595536 0.23659314667209244 a21.377150802761403,21.377150802761403 0 0,0 -0.23265789578984022,0.28380480321891 l -0.2896067266474876 -0.24160023158949534" fill="#ff0400" stroke="none" /><path d="M 116.1254893667686 113.45245675266167 l 4.254402881122691 3.549174196514387 a26.54044956227458,26.54044956227458 0 0,0 -0.294858627135423,0.3473427213540561 l -4.192849690480154 -3.6216837003179996" fill="#ff4c07" stroke="none" /><path d="M 115.6541949942343 113.99807769240083 l 0.1129033848678111 0.10095890294561619 a21.15145915092391,21.15145915092391 0 0,0 -0.24435202955062857,0.2685856846513447 l -0.11115365447530266 -0.10288216315463267" fill="#ff0000" stroke="none" /><path d="M 115.16444852881244 114.52719865689866 l 1.2046531512704721 1.1540304685603768 a22.668225265733486,22.668225265733486 0 0,0 -0.2716011748259666,0.27868673212900813 l -1.1846651752936983 -1.1745398927571222" fill="#ff1602" stroke="none" /><path d="M 114.91283532996324 114.78537596483092 l 0.5598266393648986 0.5550418250449654 a21.788338311698627,21.788338311698627 0 0,0 -0.265618602606509,0.2633483717814192 l -0.5502161166284247 -0.5645702070550462" fill="#ff0a01" stroke="none" /><path d="M 114.39649973595853 115.28858382429668 l 0.3622993675905562 0.38474937328431813 a21.528481704507538,21.528481704507538 0 0,0 -0.2712283489440301,0.25104491057845885 l -0.3556412473325589 -0.39091202999515656" fill="#ff0600" stroke="none" /><path d="M 114.13192950727249 115.5334660781643 l 0.4384971470093635 0.4819851779572307 a21.65160529441205,21.65160529441205 0 0,0 -0.27707350323926816,0.2477608351165591 l -0.4301586169467175 -0.4894415429571768" fill="#ff0801" stroke="none" /><path d="M 113.59037401385872 116.0094264158162 l 0.5614713687124041 0.6614118605435371 a21.867591924323552,21.867591924323552 0 0,0 -0.28826241403461117,0.24047875819570022 l -0.5500346205158979 -0.6709528026511075" fill="#ff0b01" stroke="none" /><path d="M 113.03279911837588 116.46651593811092 l 0.7780368464215295 0.9830241389951101 a22.25366574182939,22.25366574182939 0 0,0 -0.3015796174064903,0.23451013458329648 l -0.7610472843798085 -0.9962353251991998" fill="#ff1001" stroke="none" /><path d="M 112.45986205192187 116.90419585922612 l 1.1478195560119433 1.5572376728587487 a22.93454875951318,22.93454875951318 0 0,0 -0.3189201788705718,0.2308736150794114 l -1.1209183667674036 -1.5767120593112371" fill="#ff1a02" stroke="none" /><path d="M 111.8722381534696 117.32195027204791 l 0.5662102089546965 0.8261176162620034 a22.001530986351863,22.001530986351863 0 0,0 -0.31336855169364963,0.2108483467736029 l -0.5519453691640437 -0.8357156370927274" fill="#ff0d01" stroke="none" /><path d="M 111.5731344415666 117.5232005979908 l 0.5246700836056041 0.7944173783866514 a21.952038690239757,21.952038690239757 0 0,0 -0.3162289097641687,0.2049757587398372 l -0.5109555415844258 -0.8033069788303833" fill="#ff0c01" stroke="none" /><line stroke="#e1ed5e" stroke-width="0.3" x1="143.1302829299769" x2="145.66735839644613" y1="173.24464959558577" y2="177.55315839532614" /><path d="M 143.63769802327073 174.10635135553383 a86.0,86.0 0 0,1 -40.68552437913181,11.842963189579606" fill="none" id="id30" stroke="none" /><text fill="#e1ed5e" style="font-size:6.75px; font-family:Arial;" text-anchor="middle"><textPath startOffset="21.407464694133747" xlink:href="#id30">June</textPath></text><path d="M 110.65571695917076 118.09573695890943 l 0.9600877970430163 1.630438974619805 a22.892115173024674,22.892115173024674 0 0,0 -0.34033765636312185,0.1964940375166155 l -0.9319576728194958 -1.6466799094125921" fill="#ff1902" stroke="none" /><path d="M 110.34350942703117 118.27599006163325 l 0.6157736778969658 1.0880130865497206 a22.250179866616882,22.250179866616882 0 0,0 -0.3340237389296775,0.18527733735064084 l -0.5970057508111939 -1.0984233393335052" fill="#ff1001" stroke="none" /><path d="M 109.71004243097381 118.62028667847754 l 0.463107941821581 0.8880705415138671 a22.001567897090833,22.001567897090833 0 0,0 -0.3363859300655338,0.17176105273610667 l -0.44779479004246486 -0.89588954592281" fill="#ff0d01" stroke="none" /><path d="M 109.06512990194946 118.94263497670748 l 0.4068835644774518 0.8502301592236976 a21.94257390091994,21.94257390091994 0 0,0 -0.34116657263613764,0.15968318250384012 l -0.3922282779698079 -0.8570895732980713" fill="#ff0c01" stroke="none" /><path d="M 108.4095320186766 119.2426549942271 l 0.3969142717619557 0.9082175294460856 a21.991160945518676,21.991160945518676 0 0,0 -0.3472141726578976,0.14820508367671262 l -0.38126502393362693 -0.9148972627822022" fill="#ff0c01" stroke="none" /><path d="M 107.06938296918513 119.77432235084164 l 0.35800860909097326 1.0014137968475898 a22.063484723303517,22.063484723303517 0 0,0 -0.357737580802747,0.1244397006489061 l -0.3407652562432044 -1.0074119300650863" fill="#ff0d01" stroke="none" /><path d="M 106.72888874123015 119.89276391827305 l 0.3247429980057925 0.9600449705548932 a22.013481307297543,22.013481307297543 0 0,0 -0.35900556252219235,0.11801225915759193 l -0.3082146978358659 -0.9654781511145044" fill="#ff0d01" stroke="none" /><path d="M 106.38641147887787 120.00534299687104 l 0.3390584275698516 1.062095695203535 a22.11490263389949,22.11490263389949 0 0,0 -0.36264161310072746,0.11234729872896312 l -0.3207761815974998 -1.0677595817391423" fill="#ff0e01" stroke="none" /><path d="M 104.64783097203109 120.47920084513623 l 0.2998457995987841 1.3211759182951857 a22.354774265558717,22.354774265558717 0 0,0 -0.3749615078250064,0.08172111543413385 l -0.2771218751546418 -1.3261284918630383" fill="#ff1202" stroke="none" /><path d="M 103.2317021107853 120.74984581791261 l 0.2607106000573192 1.6739490735333569 a22.694129722826865,22.694129722826865 0 0,0 -0.385448872486417,0.056647710594595974 l -0.2319366219632167 -1.6781778574268351" fill="#ff1602" stroke="none" /><path d="M 102.51750503828377 120.84855314841334 l 0.07320815173282659 0.6062685154900196 a21.61067253610639,21.61067253610639 0 0,0 -0.3686822910451678,0.041311619709280115 l -0.06278995908685951 -0.6074358957062705" fill="#ff0701" stroke="none" /><path d="M 101.80034050326958 120.92268563240118 l 0.7685475266365454 8.931687235927342 a29.964691973577594,29.964691973577594 0 0,0 -0.5128685408244484,0.039699268667158165 l -0.6151099910368611 -8.943564271589553" fill="#ff7a0b" stroke="none" /><path d="M 101.08105385017728 120.97215588758144 l 0.09681743359605394 1.8782323467781294 a22.880726020432483,22.880726020432483 0 0,0 -0.3924308614909561,0.01685266971849283 l -0.06456081150426829 -1.8796175849224532" fill="#ff1902" stroke="none" /><line stroke="#e1ed5e" stroke-width="0.3" x1="101.45913802915013" x2="101.54496967792366" y1="184.9874750549273" y2="189.98673829345242" /><path d="M 101.47630435890484 185.9873277026323 a86.0,86.0 0 0,1 -42.54439059252881,-10.42667462771756" fill="none" id="id31" stroke="none" /><text fill="#e1ed5e" style="font-size:6.75px; font-family:Arial;" text-anchor="middle"><textPath startOffset="22.145653131862474" xlink:href="#id31">July</textPath></text><path d="M 100.0 121.0 l 1.4765550200429612e-16 1.2056986725241892 a22.20569867252419,22.20569867252419 0 0,0 -0.3811903458462152,-0.0032720606608773596 l 0.02069742099736287 -1.2055210100577467" fill="#ff0f01" stroke="none" /><path d="M 99.27912038922189 120.98762331915562 l -0.0488277634688226 1.421567057631643 a22.42240537464847,22.42240537464847 0 0,0 -0.3845701333958894,-0.016515096231462308 l 0.07322365746555078 -1.420519392974352" fill="#ff1302" stroke="none" /><path d="M 98.91894614982273 120.97215588758144 l -0.03880812461729086 0.7528672499016142 a21.75386680952986,21.75386680952986 0 0,0 -0.37277389687465906,-0.022425151956733558 l 0.05172637362439626 -0.7520901201201889" fill="#ff0901" stroke="none" /><path d="M 98.55909050195518 120.95050786540614 l -0.17218317907037206 2.503505634669814 a23.509419755636408,23.509419755636408 0 0,0 -0.40238163690568174,-0.031146883535828812 l 0.21513381075128993 -2.500180984138932" fill="#ff2203" stroke="none" /><path d="M 97.48249496171623 120.84855314841334 l -0.18536895305842852 1.5351208482740535 a22.54627218417833,22.54627218417833 0 0,0 -0.38384725426335436,-0.049696711954143005 l 0.2116940292125769 -1.5317125401195135" fill="#ff1402" stroke="none" /><path d="M 97.12497278360702 120.80226474461374 l -0.1742386847413025 1.2607043258843493 a22.272687910119323,22.272687910119323 0 0,0 -0.37829088610356204,-0.05559573309511489 l 0.19585467645254942 -1.2575275194903521" fill="#ff1001" stroke="none" /><path d="M 96.41257539226777 120.69131181640829 l -0.2139371485974323 1.2339326215251183 a22.252341334466706,22.252341334466706 0 0,0 -0.37581583659530754,-0.06848616451186325 l 0.235087718743797 -1.230078283081889" fill="#ff1001" stroke="none" /><path d="M 95.70440661134978 120.55596938700252 l -0.38535647555144426 1.8440702361281396 a22.883904097618327,22.883904097618327 0 0,0 -0.3838367179840248,-0.08365542618009415 l 0.41695561015460547 -1.8371833518143266" fill="#ff1902" stroke="none" /><path d="M 95.35216902796893 120.47920084513623 l -0.8498971162525234 3.7448035107506388 a24.840036255342476,24.840036255342476 0 0,0 -0.4150271439016721,-0.09794527590047046 l 0.9140564138940834 -3.7296620912039407" fill="#ff3505" stroke="none" /><path d="M 95.00130118170881 120.39639698878247 l -0.25849556705854926 1.0547501254274365 a22.085963988941675,22.085963988941675 0 0,0 -0.367462805321482,-0.09340760816059927 l 0.27656366560540996 -1.0501572854315742" fill="#ff0e01" stroke="none" /><path d="M 94.6519064749342 120.30758222061772 l -0.22362995421120663 0.8491593613410441 a21.878112736141343,21.878112736141343 0 0,0 -0.3623625962894041,-0.0987635369735667 l 0.23817395143530584 -0.845195330223333" fill="#ff0b01" stroke="none" /><path d="M 94.30408787586889 120.21278271476187 l -0.339805550191816 1.2058500204381282 a22.252813666804364,22.252813666804364 0 0,0 -0.36678993557628925,-0.10676720459246151 l 0.36045549814971206 -1.1998391215431508" fill="#ff1001" stroke="none" /><path d="M 93.61358852112213 120.00534299687104 l -0.5187025057394032 1.624828211425627 a22.705613967492333,22.705613967492333 0 0,0 -0.37029316721971095,-0.1217227190219846 l 0.5465184106068577 -1.6156845710016208" fill="#ff1702" stroke="none" /><path d="M 92.93061703081489 119.77432235084164 l -0.2113582810552032 0.5912067289780942 a21.62785166987083,21.62785166987083 0 0,0 -0.34852855388094617,-0.1279845126085807 l 0.22147598659026824 -0.587491367360794" fill="#ff0701" stroke="none" /><path d="M 92.59220618246901 119.65005319985036 l -0.5578487514050662 1.4797600895205794 a22.581418714946217,22.581418714946217 0 0,0 -0.3615475868672698,-0.1398543735270309 l 0.5831686007658642 -1.469965827855508" fill="#ff1502" stroke="none" /><path d="M 91.92203290615298 119.3841803445677 l -0.24103493752976998 0.578396104383432 a21.626609842466515,21.626609842466515 0 0,0 -0.3414583460350392,-0.1457482635540218 l 0.25092835873524033 -0.5741731911700063" fill="#ff0701" stroke="none" /><path d="M 90.93487009805054 118.94263497670748 l -0.6135862851913098 1.2821593460666674 a22.421415040753747,22.421415040753747 0 0,0 -0.34575930752330386,-0.16912820352950297 l 0.635505841976683 -1.2714373924399434" fill="#ff1302" stroke="none" /><path d="M 90.28995756902619 118.62028667847754 l -0.9436050270209446 1.8094870582991298 a23.04074345795135,23.04074345795135 0 0,0 -0.3491343933767965,-0.1858943994002324 l 0.974528236184303 -1.7930221911763242" fill="#ff1b02" stroke="none" /><path d="M 89.97174638481275 118.45085714620012 l -1.352794905799955 2.488990258206204 a23.832865433197224,23.832865433197224 0 0,0 -0.3577833019385214,-0.198456366437014 l 1.395322395894579 -2.4654009763360416" fill="#ff2703" stroke="none" /><line stroke="#e1ed5e" stroke-width="0.3" x1="58.13341422392154" x2="55.67067388415222" y1="173.97424548756322" y2="178.32567169271397" /><path d="M 57.64086615596768 174.84453072859336 a86.0,86.0 0 0,1 -31.369924170532247,-30.572349798747897" fill="none" id="id32" stroke="none" /><text fill="#e1ed5e" style="font-size:6.75px; font-family:Arial;" text-anchor="middle"><textPath startOffset="22.145653131862474" xlink:href="#id32">August</textPath></text><path d="M 89.65649057296885 118.27599006163327 l -1.2238210308392115 2.162374497226612 a23.484673294777483,23.484673294777483 0 0,0 -0.3491472329746311,-0.2015802489447178 l 1.2607607316742422 -2.1410473510057226" fill="#ff2203" stroke="none" /><path d="M 89.03521579738668 117.91015095944536 l -0.653872207546314 1.0680511106227797 a22.25231067978519,22.25231067978519 0 0,0 -0.32407403919971844,-0.20224616887292945 l 0.672110375535745 -1.0566691449083025" fill="#ff1001" stroke="none" /><path d="M 88.72937992617639 117.7192867562869 l -2.0721918905702212 3.257829833900999 a24.861014692797788,24.861014692797788 0 0,0 -0.3581340067257579,-0.2321381363073213 l 2.1278115295529885 -3.221777855889783" fill="#ff3505" stroke="none" /><path d="M 88.1277618465304 117.32195027204791 l -0.5580408418829435 0.8141982655598232 a21.987080744848186,21.987080744848186 0 0,0 -0.30949947613980505,-0.21605467128622136 l 0.571935409196514 -0.8044987784684728" fill="#ff0c01" stroke="none" /><path d="M 86.96720088162412 116.46651593811092 l -0.9753625703345975 1.2323387450364498 a22.571620477764185,22.571620477764185 0 0,0 -0.30176024099836624,-0.2430766896616173 l 0.9963735816882255 -1.215413761581422" fill="#ff1502" stroke="none" /><path d="M 86.40962598614128 116.0094264158162 l -0.8446356503569155 0.9949786723143133 a22.30514058254818,22.30514058254818 0 0,0 -0.2897761932234896,-0.250301774022701 l 0.8615913233432676 -0.98033276582689" fill="#ff1101" stroke="none" /><path d="M 85.08716467003676 114.78537596483092 l -0.6558357618134508 0.6502303616341931 a21.92353671809212,21.92353671809212 0 0,0 -0.26267862874889725,-0.2695314138205303 l 0.6669011917131575 -0.6388762557459254" fill="#ff0b01" stroke="none" /><path d="M 84.58840730492382 114.26474011684316 l -1.3555709267756597 1.2546962123246936 a22.847115351769173,22.847115351769173 0 0,0 -0.2639410815938088,-0.290117484343631 l 1.3769097092113485 -1.2312411524233884" fill="#ff1902" stroke="none" /><path d="M 84.3458050057657 113.99807769240083 l -0.9727216539372595 0.8698137010500679 a22.304899724336263,22.304899724336263 0 0,0 -0.2527771120907176,-0.2876139519047798 l 0.9875098299865697 -0.852987471333988" fill="#ff1101" stroke="none" /><path d="M 83.8745106332314 113.45245675266167 l -1.1568401770369816 0.965077220130903 a22.50653683526907,22.50653683526907 0 0,0 -0.24494955150588982,-0.298798624597228 l 1.1732365477815012 -0.9450763138351799" fill="#ff1402" stroke="none" /><path d="M 83.64595745247003 113.17365903436017 l -1.4777940178101006 1.1904062531980995 a22.897614873131126,22.897614873131126 0 0,0 -0.2439507193028806,-0.30822376459794054 l 1.498011167754543 -1.1648625446854783" fill="#ff1902" stroke="none" /><path d="M 83.20337586046588 112.60449989151573 l -1.001861392662333 0.7518154666212844 a22.252578439044154,22.252578439044154 0 0,0 -0.2266562660554259,-0.307502755500475 l 1.0146196783015893 -0.7345064018519297" fill="#ff1001" stroke="none" /><path d="M 82.98947788004972 112.3143062007846 l -0.6271812465049443 0.4540308556310338 a21.774274068939768,21.774274068939768 0 0,0 -0.21658652826057698,-0.30465607587253407 l 0.6348828732954819 -0.4431975530489957" fill="#ff0901" stroke="none" /><path d="M 82.576782715395 111.72311816256416 l -1.5584824460901254 1.0486165425911336 a22.878420663261252,22.878420663261252 0 0,0 -0.21644681247052713,-0.32772806130154236 l 1.5762536974813792 -1.0217086029505302" fill="#ff1902" stroke="none" /><path d="M 82.18462484594161 111.11811171558189 l -0.8050806145852365 0.5024298470059968 a21.948994492683394,21.948994492683394 0 0,0 -0.1967382815007099,-0.32135719737555485 l 0.8135868605413511 -0.48853553350588497" fill="#ff0c01" stroke="none" /><line stroke="#e1ed5e" stroke-width="0.3" x1="26.387840678322732" x2="22.057713659400548" y1="142.50000000000003" y2="145.00000000000006" /><path d="M 25.521815274538298 143.00000000000003 a86.0,86.0 0 0,1 -11.493303480769221,-40.785679425670985" fill="none" id="id33" stroke="none" /><text fill="#e1ed5e" style="font-size:6.75px; font-family:Arial;" text-anchor="middle"><textPath startOffset="21.40746469413373" xlink:href="#id33">September</textPath></text><path d="M 81.63589988554817 110.18625677009913 l -1.4612148571730117 0.8105112495947817 a22.670951029965522,22.670951029965522 0 0,0 -0.18585284040246178,-0.341948293298853 l 1.474913047190803 -0.7853081228213417" fill="#ff1602" stroke="none" /><path d="M 81.4637452351635 109.86951160357371 l -1.1051285477671422 0.5884187050730034 a22.25201664508492,22.25201664508492 0 0,0 -0.17663007732241795,-0.33871146281440623 l 1.1150666940645095 -0.5693609991540943" fill="#ff1001" stroke="none" /><path d="M 81.1358732173502 109.22738970284198 l -1.124602606170071 0.5500994892330394 a22.251934690732295,22.251934690732295 0 0,0 -0.1648982184952065,-0.3445738555376159 l 1.1338800826251896 -0.5307131316303189" fill="#ff1001" stroke="none" /><path d="M 80.5471966667186 107.91128576633889 l -1.2425687140370636 0.505341878629954 a22.34139756351388,22.34139756351388 0 0,0 -0.14143309500962545,-0.3565037903600396 l 1.2510604840128134 -0.4839370710563491" fill="#ff1101" stroke="none" /><path d="M 80.41425534168474 107.57618678355246 l -1.193892283179157 0.4618231828610622 a22.28010133820048,22.28010133820048 0 0,0 -0.13492120246304884,-0.35789451913637627 l 1.2016441694566418 -0.44126038353054103" fill="#ff1101" stroke="none" /><path d="M 80.28708602549918 107.23885506374661 l -2.5278913444658895 0.9282767166314635 a23.692941201004146,23.692941201004146 0 0,0 -0.13692244358631975,-0.38299644372681596 l 2.5434539580961526 -0.8847453165237261" fill="#ff2503" stroke="none" /><path d="M 79.94057633289273 106.21446072829308 l -1.6354982611994617 0.5066815420067038 a22.712185955846138,22.712185955846138 0 0,0 -0.11218054800486864,-0.373412559562312 l 1.64395512920796 -0.4785313788536683" fill="#ff1702" stroke="none" /><path d="M 79.83685265289637 105.86919833188381 l -1.20996423800718 0.3522029554761405 a22.260182676877612,22.260182676877612 0 0,0 -0.10364924899240549,-0.36781461911182545 l 1.2158319790741605 -0.3313804124613194" fill="#ff1001" stroke="none" /><path d="M 79.73907114497094 105.5222062557868 l -1.2114010376450137 0.33017273967128413 a22.255590105101763,22.255590105101763 0 0,0 -0.09729987059744993,-0.36946345701553435 l 1.2168903890471963 -0.30932877828294714" fill="#ff1001" stroke="none" /><path d="M 79.56144815229197 104.8234425847677 l -1.1091963022024218 0.26176730713482477 a22.13966598611354,22.13966598611354 0 0,0 -0.08411927973490653,-0.3706450675607377 l 1.1135264434949947 -0.24268790563506082" fill="#ff0f01" stroke="none" /><path d="M 79.2786578344484 103.40968896794605 l -1.1403438000600246 0.1876431383481685 a22.15567899076884,22.15567899076884 0 0,0 -0.0585316195748281,-0.3758149854211879 l 1.1433969117731202 -0.1680399709955306" fill="#ff0f01" stroke="none" /><path d="M 79.22317932658666 103.0534771498775 l -1.0914837447526553 0.16041052317160992 a22.10320818570362,22.10320818570362 0 0,0 -0.05194831074696122,-0.3758720985429683 l 1.0940765720548289 -0.14165011642855596" fill="#ff0e01" stroke="none" /><path d="M 79.17382384314188 102.69636545807758 l -1.4128081211803682 0.18291629669077628 a22.42459999960279,22.42459999960279 0 0,0 -0.0461497346878301,-0.38218600630101796 l 1.4157399421278598 -0.15863661346635904" fill="#ff1302" stroke="none" /><path d="M 79.13060592940153 102.33845913500099 l -0.6220984947749016 0.06970743391281468 a21.625991743990213,21.625991743990213 0 0,0 -0.03817256067433139,-0.3692848971686453 l 0.6232034479308991 -0.05901801446123796" fill="#ff0701" stroke="none" /><path d="M 79.0935383218832 101.97986365728391 l -0.12584684118790287 0.011917826702961857 a21.126409896884283,21.126409896884283 0 0,0 -0.031092418824537553,-0.3613410371178736 l 0.1260328827101812 -0.009755742209426268" fill="#ff0000" stroke="none" /><path d="M 79.06263194458094 101.62068470465958 l -1.9974028819939693 0.15461161552503397 a23.003377903605077,23.003377903605077 0 0,0 -0.027095830912296948,-0.39396743474734486 l 1.9997626740713323 -0.12030075662334577" fill="#ff1b02" stroke="none" /><path d="M 79.03789590574601 101.26102812881392 l -1.250384896420303 0.07522005038903966 a22.252645378858894,22.252645378858894 0 0,0 -0.019665415648484015,-0.38150380992257843 l 1.2514919015253598 -0.05374444708973045" fill="#ff1001" stroke="none" /><path d="M 79.00696218219943 100.54070618675478 l -2.2768258096884253 0.05864295640041145 a23.277580901746134,23.277580901746134 0 0,0 -0.006859757220382917,-0.39954646784829906 l 2.2774969985074742 -0.019549572583059987" fill="#ff1f03" stroke="none" /><line stroke="#e1ed5e" stroke-width="0.3" x1="15.003131293944662" x2="10.003315487706104" y1="100.72959589197737" y2="100.7725132973878" /><path d="M 14.003168132696942 100.73817937305945 a86.0,86.0 0 0,1 10.791469493833604,-42.45332614584628" fill="none" id="id34" stroke="none" /><text fill="#e1ed5e" style="font-size:6.75px; font-family:Arial;" text-anchor="middle"><textPath startOffset="22.145653131862435" xlink:href="#id34">October</textPath></text><path d="M 79.00077361379809 100.18025310272382 l -0.7038875106905864 0.00604202771269201 a21.70391344198351,21.70391344198351 0 0,0 0.0,-0.37259026087301883 l 0.7038875106905864 0.006042027712691751" fill="#ff0801" stroke="none" /><path d="M 79.00077361379809 99.81974689727619 l -1.0639797934779287 -0.009132986876881187 a22.064018990609956,22.064018990609956 0 0,0 0.006502128130081973,-0.37871636625155974 l 1.0636662337491807 0.027396269097493302" fill="#ff0d01" stroke="none" /><path d="M 79.01933749520258 99.09900007780938 l -2.159801264038969 -0.09275115933071004 a23.161791913598883,23.161791913598883 0 0,0 0.020468859202574158,-0.3970904002302276 l 2.1578908153798246 0.12981335293764965" fill="#ff1d02" stroke="none" /><path d="M 79.03789590574601 98.7389718711861 l -20.490568117162223 -1.2326616953591953 a41.527611566357905,41.527611566357905 0 0,0 0.04891564821083699,-0.711222789476454 l 20.466388507786323 1.5842279089899742" fill="#f2ff19" stroke="none" /><path d="M 79.06263194458094 98.37931529534042 l -3.3497925985524426 -0.2592951326970009 a24.35981315241742,24.35981315241742 0 0,0 0.03585112268100439,-0.416644389248067 l 3.344847853173695 0.31676056932074853" fill="#ff2e04" stroke="none" /><path d="M 79.0935383218832 98.0201363427161 l -0.44741024634398907 -0.04237021549945484 a21.449412019971717,21.449412019971717 0 0,0 0.037860875535971235,-0.366269626192971 l 0.4466169783263541 0.05004436397533861" fill="#ff0500" stroke="none" /><path d="M 79.13060592940154 97.66154086499901 l -1.4373196661917496 -0.16105466655871567 a22.44631477502026,22.44631477502026 0 0,0 0.0461944236064361,-0.3825560946546022 l 1.4343431563256452 0.18570443813675416" fill="#ff1302" stroke="none" /><path d="M 79.22317932658666 96.9465228501225 l -1.2484871561423538 -0.18348461793648965 a22.261898087831074,22.261898087831074 0 0,0 0.05881223276584873,-0.37761672340586117 l 1.2451534312382375 0.20488952327380078" fill="#ff1001" stroke="none" /><path d="M 79.2786578344484 96.59031103205396 l -0.2928368230497299 -0.04818618779535271 a21.29677485342951,21.29677485342951 0 0,0 0.06245551267501196,-0.3602268002028422 l 0.2919664928824836 0.05320602091878758" fill="#ff0200" stroke="none" /><path d="M 79.34024301695615 96.23510406497455 l -3.01507318766198 -0.5494467721643246 a24.064728060105818,24.064728060105818 0 0,0 0.07754997014518678,-0.40577421329782337 l 3.005196925234634 0.6011235504954624" fill="#ff2a04" stroke="none" /><path d="M 79.48165901384962 95.52812308129327 l -1.223065489031379 -0.2665614307783437 a22.251776412478748,22.251776412478748 0 0,0 0.08454524136967732,-0.37252193311873133 l 1.21830938610404 0.2875176978360832" fill="#ff1001" stroke="none" /><path d="M 79.56144815229197 95.17655741523228 l -0.9753760944325622 -0.23018610247467292 a22.00216972981776,22.00216972981776 0 0,0 0.08990764792970918,-0.36685388461329876 l 0.9712809199865549 0.24689581169608935" fill="#ff0d01" stroke="none" /><path d="M 79.83685265289637 94.1308016681162 l -0.9169344147975961 -0.2669062446022325 a21.95499092375157,21.95499092375157 0 0,0 0.108440592995163,-0.3609634656894468 l 0.9122175017988035 0.2826073138824028" fill="#ff0c01" stroke="none" /><path d="M 79.94057633289273 93.78553927170692 l -0.6178314600530539 -0.1914057656352079 a21.64680126789431,21.64680126789431 0 0,0 0.1130120575961344,-0.35400866080587384 l 0.6144546866796623 0.20198346013247342" fill="#ff0701" stroke="none" /><path d="M 80.05021161711548 93.44210830539832 l -5.075058257558504 -1.668272452725157 a26.34222325386485,26.34222325386485 0 0,0 0.14490051495318296,-0.428372625324888 l 5.0456723210329555 1.7551467525242066" fill="#ff4906" stroke="none" /><path d="M 80.28708602549916 92.7611449362534 l -0.8827271647700454 -0.3241496419488194 a21.94036175900475,21.94036175900475 0 0,0 0.13286384770269205,-0.3524371412060804 l 0.8770326332529174 0.33925506334904476" fill="#ff0c01" stroke="none" /><path d="M 80.5471966667186 92.08871423366112 l -1.1871509878312823 -0.48280397182941565 a22.281572137307553,22.281572137307553 0 0,0 0.14713705707336455,-0.3530753736112043 l 1.178688086221439 0.5031118548818838" fill="#ff1101" stroke="none" /><path d="M 80.9802524753101 91.09779779509293 l -1.3608220033017264 -0.6369334094762752 a22.502504806240964,22.502504806240964 0 0,0 0.1667550712241916,-0.3484539635814214 l 1.3496876741176298 0.6601998751227838" fill="#ff1402" stroke="none" /><path d="M 81.29705330413844 90.45014215332179 l -0.9673741397919575 -0.4939481285914156 a22.086184827769745,22.086184827769745 0 0,0 0.17531375228177729,-0.3361872359850137 l 0.9587523185352403 0.5104816076809159" fill="#ff0e01" stroke="none" /><path d="M 81.46374523516351 90.13048839642627 l -1.0354972108528235 -0.5513439401667785 a22.17313026303246,22.17313026303246 0 0,0 0.18177178516026865,-0.3344396113120556 l 1.0258800760772042 0.5690383849534537" fill="#ff0f01" stroke="none" /><line stroke="#e1ed5e" stroke-width="0.3" x1="26.387840678322718" x2="22.05771365940052" y1="57.49999999999999" y2="54.99999999999999" /><path d="M 25.521815274538284 56.99999999999999 a86.0,86.0 0 0,1 29.574782752854787,-30.34633250058573" fill="none" id="id35" stroke="none" /><text fill="#e1ed5e" style="font-size:6.75px; font-family:Arial;" text-anchor="middle"><textPath startOffset="21.40746469413373" xlink:href="#id35">November</textPath></text><path d="M 81.99639281039701 89.18935116829357 l -0.8010085924223028 -0.48098264490339254 a21.9343227867459,21.9343227867459 0 0,0 0.196606772687697,-0.321142387612764 l 0.7926338552792128 0.4946621486406996" fill="#ff0c01" stroke="none" /><path d="M 82.18462484594161 88.88188828441811 l -4.532915278542213 -2.828874386774822 a26.34320608049063,26.34320608049063 0 0,0 0.2427116344013438,-0.3815830026098529 l 4.483685952514979 2.906271064063347" fill="#ff4906" stroke="none" /><path d="M 82.78059297857968 87.97951657250589 l -0.9341810105609708 -0.652130897525043 a22.13928436660894,22.13928436660894 0 0,0 0.22021724921600158,-0.30976313958398094 l 0.9228486628149969 0.6680712638185443" fill="#ff0f01" stroke="none" /><path d="M 83.64595745247003 86.82634096563983 l -0.8948377766258764 -0.7208179706071928 a22.14904882108073,22.14904882108073 0 0,0 0.24105883613794643,-0.2940525844698092 l 0.8823321212493 0.736072836775495" fill="#ff0f01" stroke="none" /><path d="M 83.8745106332314 86.54754324733833 l -1.0599276551392758 -0.8842293475505545 a22.380329009040498,22.380329009040498 0 0,0 0.24864059182421813,-0.29289799197105354 l 1.0445924998079432 0.9022941219711647" fill="#ff1202" stroke="none" /><path d="M 84.58840730492382 85.73525988315684 l -0.7882148514858727 -0.7295598991708576 a22.074029933745372,22.074029933745372 0 0,0 0.25978417733600395,-0.27588179378818906 l 0.7755748404135971 0.7429831529035578" fill="#ff0e01" stroke="none" /><path d="M 85.08716467003674 85.21462403516908 l -0.8915851872694597 -0.8839648468434893 a22.255515032412337,22.255515032412337 0 0,0 0.27131388904601556,-0.2689949808515478 l 0.8762793780934676 0.8991398379237105" fill="#ff1001" stroke="none" /><path d="M 85.86807049272753 84.46653392183569 l -0.753382993242811 -0.8280998828490304 a22.119524609145362,22.119524609145362 0 0,0 0.28306142154847624,-0.2531152685919881 l 0.7390565448709429 0.8409106813244194" fill="#ff0e01" stroke="none" /><path d="M 86.13680546590413 84.22622945171909 l -0.8538476678539978 -0.9715219073633313 a22.29341047482483,22.29341047482483 0 0,0 0.2896238020762891,-0.25017014217929295 l 0.8370443860148601 0.9860361820073349" fill="#ff1101" stroke="none" /><path d="M 86.96720088162412 83.53348406188908 l -1.1652582227678872 -1.4722656984843758 a22.877602996552216,22.877602996552216 0 0,0 0.31003515730484227,-0.24108521355113 l 1.1398131208278002 1.4920519636563105" fill="#ff1902" stroke="none" /><path d="M 87.54013794807813 83.09580414077388 l -0.827546496955104 -1.1227257580261738 a22.39475672873735,22.39475672873735 0 0,0 0.3114140110879364,-0.2254397284639341 l 0.8081514754931997 1.1367662578631874" fill="#ff1202" stroke="none" /><path d="M 87.83215693770416 82.88440491214696 l -0.6109066196431595 -0.8593166664600709 a22.054339618519517,22.054339618519517 0 0,0 0.31044624057882264,-0.21671558639408986 l 0.5960652878905714 0.8696770686592874" fill="#ff0d01" stroke="none" /><path d="M 88.72937992617638 82.28071324371311 l -0.5391604075477407 -0.8476497128284294 a22.004591449657603,22.004591449657603 0 0,0 0.3204663522206087,-0.19999470537459277 l 0.5245299265374335 0.8567802150445581" fill="#ff0d01" stroke="none" /><path d="M 89.03521579738668 82.08984904055464 l -0.4934388078558592 -0.8059952092664865 a21.945045043613657,21.945045043613657 0 0,0 0.3229759323263149,-0.1939377675096772 l 0.47953011897211006 0.8143469773120872" fill="#ff0c01" stroke="none" /><line stroke="#e1ed5e" stroke-width="0.3" x1="56.869717070023135" x2="54.33264160355391" y1="26.7553504044142" y2="22.446841604673864" /><path d="M 56.362301976729285 25.89364864446614 a86.0,86.0 0 0,1 42.16139366436587,-11.88097634709845" fill="none" id="id36" stroke="none" /><text fill="#e1ed5e" style="font-size:6.75px; font-family:Arial;" text-anchor="middle"><textPath startOffset="22.145653131862474" xlink:href="#id36">December</textPath></text><path d="M 89.97174638481275 81.54914285379989 l -0.5388766263660459 -0.9914722975741679 a22.12845262873576,22.12845262873576 0 0,0 0.33531052932385597,-0.17853397042427835 l 0.5217772812556281 1.0005767357210218" fill="#ff0e01" stroke="none" /><path d="M 90.93487009805054 81.0573650232925 l -0.5587476972347296 -1.1675677885782128 a22.29437766130698,22.29437766130698 0 0,0 0.34663647255368285,-0.1622433718566876 l 0.5386225108095242 1.1769873920054432" fill="#ff1101" stroke="none" /><path d="M 91.26138138417902 80.90454125486306 l -0.5308336975230454 -1.1599674293174895 a22.275660163014983,22.275660163014983 0 0,0 0.3490772001043454,-0.15613779152394203 l 0.5108430945630813 1.1689089717512773" fill="#ff1001" stroke="none" /><path d="M 91.92203290615298 80.6158196554323 l -0.3714703813425874 -0.8913936861781439 a21.965698166081445,21.965698166081445 0 0,0 0.34930223378096253,-0.14205817757555958 l 0.356113686371184 0.8976391203329948" fill="#ff0c01" stroke="none" /><path d="M 92.592206182469 80.34994680014964 l -0.5302500438820958 -1.406551238892196 a22.50318046044583,22.50318046044583 0 0,0 0.36263430429046406,-0.1331643395439582 l 0.5060265879375048 1.415446427444876" fill="#ff1402" stroke="none" /><path d="M 93.27111125876988 80.10723608172694 l -0.31915481247776195 -0.9435244929967692 a21.996041295937335,21.996041295937335 0 0,0 0.35872114312473397,-0.11791876485235976 l 0.30291093170526695 0.9488641792511575" fill="#ff0c01" stroke="none" /><path d="M 95.00130118170881 79.60360301121753 l -0.268357313070834 -1.0949894144866372 a22.127394103814805,22.127394103814805 0 0,0 0.3697043386930383,-0.0872492172788329 l 0.24952082063788975 1.0994347754117022" fill="#ff0e01" stroke="none" /><path d="M 95.35216902796891 79.52079915486377 l -0.1730167614798421 -0.7623437748150995 a21.781730663817346,21.781730663817346 0 0,0 0.36534972242267943,-0.0796262715421631 l 0.1599046224380443 0.7652015044909767" fill="#ff0901" stroke="none" /><path d="M 96.05791012581881 79.37332000966035 l -0.3939188377280674 -2.0611498132500277 a23.098454336738747,23.098454336738747 0 0,0 0.3901056886618389,-0.07109025157840439 l 0.35847841551518994 2.0676082387597936" fill="#ff1c02" stroke="none" /><path d="M 96.41257539226777 79.30868818359171 l -0.15345343560877395 -0.8850786379277895 a21.8982828909738,21.8982828909738 0 0,0 0.3709386604203512,-0.06103781541345429 l 0.13823727213534992 0.8875824518369122" fill="#ff0b01" stroke="none" /><path d="M 97.12497278360702 79.19773525538626 l -0.17219423794593436 -1.2459117273130942 a22.257754700980314,22.257754700980314 0 0,0 0.37893528288166195,-0.04906075891769238 l 0.1507811331734784 1.2486840824311813" fill="#ff1001" stroke="none" /><path d="M 98.5590905019552 79.04949213459386 l -0.14775519405909449 -2.1483280938116236 a23.153403166160885,23.153403166160885 0 0,0 0.39675632841412506,-0.023867875484516632 l 0.11085451351248564 2.150547947120834" fill="#ff1d02" stroke="none" /><path d="M 98.9189461498227 79.02784411241856 l -0.031843448198508276 -0.6177543880054783 a21.618574562274585,21.618574562274585 0 0,0 0.3707835071362718,-0.015923039179671656 l 0.02123418046141641 0.6182099956109787" fill="#ff0701" stroke="none" /><path d="M 99.63950707515114 79.00309439819443 l -0.040902979557741706 -2.3823934990307136 a23.38274460191614,23.38274460191614 0 0,0 0.4013959044065933,-0.003445501079861998 l 5.836041099844472e-16 2.3827446019161407" fill="#ff2003" stroke="none" /></svg>