<?xml version="1.0" encoding="utf-8" ?>
<svg baseProfile="full" height="200mm" version="1.1" viewBox="0,0,200,200" width="200mm" xmlns="http://www.w3.org/2000/svg" xmlns:ev="http://www.w3.org/2001/xml-events" xmlns:xlink="http://www.w3.org/1999/xlink"><defs /><rect fill="#1a1a1a" height="200" width="200" x="0" y="0" /><rect fill="#1a1a1a" height="200" width="180" x="10" y="0" /><text alignment-baseline="middle" fill="#e1ed5e" style="dominant-baseline: central; font-size:9.0px; font-family:Arial;" text-anchor="middle" x="100.0" y="100.0">2025</text><line stroke="#e1ed5e" stroke-width="0.3" x1="100.0" x2="100.0" y1="15.0" y2="10.0" /><path d="M 100.0 14.0 a86.0,86.0 0 0,1 42.46469731375804,11.215312516191453" fill="none" id="id37" stroke="none" /><text fill="#e1ed5e" style="font-size:6.75px; font-family:Arial;" text-anchor="middle"><textPath startOffset="22.20632615414155" xlink:href="#id37">January</textPath></text><path d="M 100.36148047927253 79.00311137660856 l 0.30524878199447886 -17.73062459932136 a38.73325197195847,38.73325197195847 0 0,0 0.6665316949976978,0.017214547221745077 l -0.6104071121870444 17.722743259957255" fill="#ffd714" stroke="none" /><path d="M 100.72285384407766 79.0124445844662 l 0.47672976296800806 -13.841514990201011 a34.84972232540634,34.84972232540634 0 0,0 0.599347462214604,0.025809162483837834 l -0.7149180575719436 13.831258101192978" fill="#ffa40f" stroke="none" /><path d="M 101.08401301168833 79.027996857942 l 0.5321281658886937 -10.294888941982425 a31.30863224257632,31.30863224257632 0 0,0 0.537968700573586,0.03245174114739451 l -0.7092589153018917 10.284203931454726" fill="#ff740a" stroke="none" /><path d="M 101.80526077348638 79.07773832637324 l 2.7134790009926886 -31.44815338507593 a52.56500149881338,52.56500149881338 0 0,0 0.9008011063755518,0.08554191922765658 l -3.2544052344584844 31.396785921333098" fill="#83ff25" stroke="none" /><path d="M 102.16513564639614 79.11191278185805 l 1.3721085144576664 -13.237379547305814 a34.30830188472134,34.30830188472134 0 0,0 0.586889732525331,0.06594389969616979 l -1.5997649504927227 13.211799694139044" fill="#ff9d0e" stroke="none" /><path d="M 102.88285421437855 79.19881850522331 l 2.100675452510529 -15.157385042695628 a36.3022599209827,36.3022599209827 0 0,0 0.6182292489659519,0.09111092072657027 l -2.3612736819051365 15.118979637808089" fill="#ffb711" stroke="none" /><path d="M 103.2404852339499 79.25152402106235 l 2.3149336858977474 -14.8222696624161 a36.00195307003341,36.00195307003341 0 0,0 0.6114688181923703,0.10089759426874852 l -2.569731710228993 14.780225805207726" fill="#ffb310" stroke="none" /><path d="M 104.307194497241 79.44645832069477 l 3.017848430723819 -14.400899133401081 a35.71371146248336,35.71371146248336 0 0,0 0.6005979547836927,0.13126745037154772 l -3.26528910966104 14.346818184933664" fill="#ffb010" stroke="none" /><path d="M 105.01212808612495 79.60689891045804 l 5.081823689590846 -20.67667514482423 a42.29201322225493,42.29201322225493 0 0,0 0.7054531576843474,0.17983571746352334 l -5.436985735960218 20.58613643119184" fill="#faff18" stroke="none" /><path d="M 105.71112130821622 79.79150937346287 l 4.001513859825423 -14.159138103388894 a35.71371146248336,35.71371146248336 0 0,0 0.5901432018516521,0.1722789834126104 l -4.244647279400503 14.08816079105758" fill="#ffb010" stroke="none" /><path d="M 106.0581310904928 79.89281104454417 l 3.1789861334342144 -10.551187142854669 a32.01968706271229,32.01968706271229 0 0,0 0.5263649683463648,0.1635441578785915 l -3.3601364744912976 10.494902850093558" fill="#ff7e0b" stroke="none" /><path d="M 106.40334571778207 80.00007090966166 l 10.79726381211114 -33.72370009825049 a56.41001064875673,56.41001064875673 0 0,0 0.9222155072955399,0.3040399533252191 l -11.376162141649097 33.53284642066604" fill="#5aff2a" stroke="none" /><path d="M 107.08798089147638 80.2323363322302 l 1.4898643669825578 -4.1550814213568605 a25.41411343874501,25.41411343874501 0 0,0 0.4105198311068091,0.15119791831600807 l -1.5611665238619434 4.128820235234528" fill="#ff2003" stroke="none" /><path d="M 107.4271985657038 80.35727306442388 l 8.566495396396213 -22.65582754758832 a45.22129982561917,45.22129982561917 0 0,0 0.7257304448491086,0.28157213770251666 l -8.955209006244989 22.505012705995256" fill="#d7ff1c" stroke="none" /><path d="M 107.76421540070413 80.48803036053334 l 7.62970183345372 -19.17392844601285 a41.63617896123766,41.63617896123766 0 0,0 0.6636333670014697,0.2707127132413948 l -7.958619070043578 19.03975484658788" fill="#fffc17" stroke="none" /><path d="M 108.09893153111575 80.62456947434976 l 7.997779071143295 -19.13343904156803 a41.737718284040255,41.737718284040255 0 0,0 0.6604819856456529,0.28278391710520495 l -8.325944814579262 18.992935596500036" fill="#fffd17" stroke="none" /><path d="M 108.76106565485865 80.91482961587045 l 15.700956806872018 -34.20308072760879 a58.634701751317024,58.634701751317024 0 0,0 0.9136453327133596,0.4289687343553258 l -16.287380350884977 33.927747010613466" fill="#43ff2d" stroke="none" /><path d="M 109.73455568895987 81.39251694778311 l 6.83747011667531 -13.069739737620175 a35.75022353747752,35.75022353747752 0 0,0 0.5428159934592794,0.2899535047976255 l -7.0614311566629 12.950107506320794" fill="#ffb010" stroke="none" /><path d="M 110.05341064243156 81.56283822128135 l 11.273583894851104 -20.674863236766665 a44.54875078838052,44.54875078838052 0 0,0 0.6700893921896471,0.37290402126314715 l -11.627797376112786 20.477743817943338" fill="#dfff1b" stroke="none" /><path d="M 110.36928655335952 81.73862282372117 l 6.1914058004116965 -10.903700653936244 a33.53890719863662,33.53890719863662 0 0,0 0.4995752267274123,0.28938621667018555 l -6.378177759604437 10.79551027987601" fill="#ff930d" stroke="none" /><line stroke="#e1ed5e" stroke-width="0.3" x1="143.23703022742887" x2="145.7803849466894" y1="26.81831364943548" y2="22.513508569990506" /><path d="M 143.74570117128098 25.957352633546492 a86.0,86.0 0 0,1 28.547481713284135,27.462654790039103" fill="none" id="id38" stroke="none" /><text fill="#e1ed5e" style="font-size:6.75px; font-family:Arial;" text-anchor="middle"><textPath startOffset="19.985693538727396" xlink:href="#id38">February</textPath></text><path d="M 110.99172775467656 82.1063720568725 l 19.35444227978928 -31.507438769481837 a57.97719748404876,57.97719748404876 0 0,0 0.8458620432496927,0.5296787338834246 l -19.893923475411235 31.169615694275468" fill="#4aff2c" stroke="none" /><path d="M 111.2981086023043 82.29822771554956 l 4.36081894731092 -6.832490879338044 a29.105533511587222,29.105533511587222 0 0,0 0.4199969707691229,0.2731777127640358 l -4.477782943864322 6.75641424241448" fill="#ff5507" stroke="none" /><path d="M 111.90073688211348 82.69761687909136 l 12.281386592398773 -17.855806592703733 a42.67169318968858,42.67169318968858 0 0,0 0.6016075987955801,0.4214645691651598 l -12.586925330778003 17.64175718077464" fill="#f6ff19" stroke="none" /><path d="M 112.19680574252982 82.90503203632743 l 8.54572764093066 -11.977639337041666 a35.71371146248336,35.71371146248336 0 0,0 0.4973639136948877,0.36135603519452164 l -8.750636870979337 11.828764067030468" fill="#ffb010" stroke="none" /><path d="M 112.48926042617603 83.11751280151076 l 3.937786591940703 -5.322943830163713 a27.621170158117515,27.621170158117515 0 0,0 0.3797961486119336,0.2860545851346053 l -4.02882889431102 5.254372655523261" fill="#ff4006" stroke="none" /><path d="M 112.77801427241765 83.33499621200491 l 22.411372408305173 -29.228767327703856 a57.831921653923935,57.831921653923935 0 0,0 0.7847721401875579,0.6125271032658127 l -22.91117710365216 28.83866183521482" fill="#4bff2c" stroke="none" /><path d="M 113.34407831869373 83.78471172551755 l 7.894036205855429 -9.592575048651094 a33.423095575715415,33.423095575715415 0 0,0 0.4410932871573618,0.36940294283044306 l -8.057987029971908 9.455270948426831" fill="#ff910d" stroke="none" /><path d="M 113.6212207817346 84.01681056812373 l 10.95848003820862 -12.858719871202192 a37.89482055169178,37.89482055169178 0 0,0 0.4928243091350035,0.4273723845104905 l -11.178198145990388 12.668182493272031" fill="#ffcc13" stroke="none" /><path d="M 113.89432698308785 84.25364557470407 l 11.690298524416436 -13.24854266975556 a38.66881327260852,38.66881327260852 0 0,0 0.49530885204923986,0.4446931778595193 l -11.916618364061666 13.045350483126743" fill="#ffd614" stroke="none" /><path d="M 114.68862486808459 84.99185889309783 l 8.24017721092226 -8.41942274638045 a32.78079792924363,32.78079792924363 0 0,0 0.399869851020066,0.3981526828015656 l -8.38388286210965 8.276334212928765" fill="#ff880c" stroke="none" /><path d="M 114.94478906791727 85.2469230424477 l 18.989248402166428 -18.745653871064004 a47.68316124324322,47.68316124324322 0 0,0 0.5715978906919622,0.5890818712311626 l -19.3091105565615 18.416007804282728" fill="#baff1f" stroke="none" /><path d="M 115.4437574822437 85.77008943001954 l 13.459074442401203 -12.401219450012647 a39.30128215982337,39.30128215982337 0 0,0 0.454128859429747,0.5014604291170319 l -13.670546942446986 12.167706233626065" fill="#ffde14" stroke="none" /><path d="M 115.68641384162765 86.03803664274999 l 4.516536808475977 -4.020021533173404 a27.046459945248642,27.046459945248642 0 0,0 0.30653702516119063,0.35042481004201087 l -4.5850656972150166 3.9416811669284457" fill="#ff3805" stroke="none" /><path d="M 115.9244219780498 86.31012108654704 l 1.6925860890680524 -1.4550794146171095 a23.232062672002996,23.232062672002996 0 0,0 0.2580854118181154,0.30549172326330154 l -1.717382114373285 1.4257287417247013" fill="#ff0000" stroke="none" /><path d="M 116.15771136456269 86.58626213691792 l 6.978951078045444 -5.79375495749297 a30.070466066152612,30.070466066152612 0 0,0 0.3271974685752881,0.4011054082091316 l -7.077647038697141 5.672765379675738" fill="#ff6309" stroke="none" /><path d="M 116.82858285166822 87.43820079747576 l 9.179549654523063 -6.852131314092721 a32.454948075195475,32.454948075195475 0 0,0 0.3303255148856281,0.4505636310767166 l -9.296137781922317 6.6931052393445105" fill="#ff840c" stroke="none" /><path d="M 117.04232023915458 87.72973835380427 l 11.978926137490172 -8.624679966391053 a35.76075119802893,35.76075119802893 0 0,0 0.3553722610172292,0.5026488610422009 l -12.125611018311284 8.41720460501706" fill="#ffb010" stroke="none" /><path d="M 117.45458315368197 88.32363383020206 l 18.84924524366334 -12.609335184433101 a43.67794920289636,43.67794920289636 0 0,0 0.41265962297715614,0.6285089167436206 l -19.06350150199842 12.283008203711807" fill="#e9ff1a" stroke="none" /><line stroke="#e1ed5e" stroke-width="0.3" x1="172.23445277983987" x2="176.4835382374775" y1="55.19839476539836" y2="52.563006222186495" /><path d="M 173.08426987136738 54.67131705675599 a86.0,86.0 0 0,1 12.851231095245387,41.99856678651699" fill="none" id="id39" stroke="none" /><text fill="#e1ed5e" style="font-size:6.75px; font-family:Arial;" text-anchor="middle"><textPath startOffset="22.20632615414155" xlink:href="#id39">March</textPath></text><path d="M 118.21658344932153 89.55222093294921 l 2.6736729787455613 -1.533434886799127 a24.08219884973809,24.08219884973809 0 0,0 0.20314178605272679,0.36136657021818147 l -2.6996724060907207 1.4871848066461517" fill="#ff0d01" stroke="none" /><path d="M 118.3937258080291 89.86733742301442 l 11.612961537393492 -6.397302102141561 a34.258444473430714,34.258444473430714 0 0,0 0.28009035473628563,0.518964888973683 l -11.721359991348242 6.1964562298354195" fill="#ff9c0e" stroke="none" /><path d="M 118.56541770881063 90.18545643968196 l 6.509667601689193 -3.4413131577238647 a28.36331505057371,28.36331505057371 0 0,0 0.224462638367288,0.43359037230275566 l -6.567939673216597 3.3287500631607645" fill="#ff4b07" stroke="none" /><path d="M 119.196687751892 91.48605970444005 l 9.531757463470184 -4.227438347938159 a31.42715854526235,31.42715854526235 0 0,0 0.21506545934291346,0.49640073203218943 l -9.603113632655779 4.062738471319367" fill="#ff760a" stroke="none" /><path d="M 119.34039704204932 91.81776055985345 l 6.782892343627346 -2.8696023732931057 a28.364933558834586,28.364933558834586 0 0,0 0.1863688420968136,0.45130693378138687 l -6.831282872610356 2.7524208690584158" fill="#ff4b07" stroke="none" /><path d="M 119.61058180528143 92.48833698450437 l 15.123163829107718 -5.792796539151916 a37.194646521182314,37.194646521182314 0 0,0 0.22386822155149672,0.5998555334808023 l -15.22063663916084 5.5316178686417805" fill="#ffc312" stroke="none" /><path d="M 119.97218684219823 93.5106431181261 l 23.36531765895149 -7.591851916131882 a45.5677488757148,45.5677488757148 0 0,0 0.23596394320292727,0.7480701829154953 l -23.492537085922624 7.188531566789967" fill="#d3ff1c" stroke="none" /><path d="M 120.18372546131832 94.20196356495316 l 11.315444258867124 -3.2505078518526402 a32.773065873870095,32.773065873870095 0 0,0 0.15108887360431816,0.5435470664845259 l -11.369719903037806 3.0552494819491622" fill="#ff880c" stroke="none" /><path d="M 120.37134235888165 94.90015583598534 l 7.367846821613912 -1.8444965458144886 a28.595217856933914,28.595217856933914 0 0,0 0.11542554969829047,0.4785134218496783 l -7.398505171573022 1.7173978923054043" fill="#ff4e07" stroke="none" /><path d="M 120.45610955862082 95.25157060432595 l 4.315018332461648 -1.001635224626493 a25.4297467571739,25.4297467571739 0 0,0 0.09530780032887232,0.4272461808927126 l -4.331620519792558 0.9272108741838165" fill="#ff2003" stroke="none" /><path d="M 120.6074358757038 95.95851677861258 l 9.89526147453947 -1.940636062720583 a31.083762590295187,31.083762590295187 0 0,0 0.09845304604053721,0.5259401087276645 l -9.927200244489867 1.7700178765303558" fill="#ff710a" stroke="none" /><path d="M 120.67395015179393 96.31383870115 l 61.86812559455594 -11.031074783705703 a83.84385073710439,83.84385073710439 0 0,0 0.2411035270947624,1.4230066650014104 l -62.048840983170926 9.964482330388455" fill="#4dd3ff" stroke="none" /><path d="M 120.91429891909075 98.10471618934814 l 6.310183094847437 -0.5718378563957793 a27.336040500541777,27.336040500541777 0 0,0 0.038433843148080626,0.4689902357614277 l -6.3190914218150125 0.46313370342658294" fill="#ff3c05" stroke="none" /><path d="M 120.94382443527127 98.46500227214037 l 22.092178070943547 -1.6191619275254652 a43.15143375192285,43.15143375192285 0 0,0 0.04791742535271228,0.7412613614519908 l -22.116776087300675 1.238641501820439" fill="#f0ff19" stroke="none" /><line stroke="#e1ed5e" stroke-width="0.3" x1="184.98032266829074" x2="189.97916517819016" y1="98.17113171792111" y2="98.06355123074" /><path d="M 185.9800911702706 98.14961562048488 a86.0,86.0 0 0,1 -9.607161424134198,41.387399972396054" fill="none" id="id40" stroke="none" /><text fill="#e1ed5e" style="font-size:6.75px; font-family:Arial;" text-anchor="middle"><textPath startOffset="21.466115282336823" xlink:href="#id40">April</textPath></text><path d="M 120.92983693683757 101.71520430193887 l 13.307772536954078 1.090574607604012 a34.35238416426294,34.35238416426294 0 0,0 -0.05336954296209916,0.5889284593744771 l -13.287028397714904 -1.3194844555270597" fill="#ff9d0e" stroke="none" /><path d="M 120.89721153311464 102.0752229133903 l 8.053113853431505 0.7997242295365257 a29.092725225759132,29.092725225759132 0 0,0 -0.05377679220601239,0.4979063072634735 l -8.03815475972444 -0.9382268586847906" fill="#ff5507" stroke="none" /><path d="M 120.8583938346157 102.4346265915055 l 50.08879107411613 5.8464474135601 a71.42884034583761,71.42884034583761 0 0,0 -0.15305666722907313,1.2200122316139126 l -49.98073289764021 -6.707777399461408" fill="#3dffae" stroke="none" /><path d="M 120.81339534386255 102.79330883721812 l 11.783875342685175 1.5814816654172377 a32.88952490009565,32.88952490009565 0 0,0 -0.0801344644345959,0.5604602576148716 l -11.754906827233977 -1.7840873950125187" fill="#ff8a0c" stroke="none" /><path d="M 120.76222939487914 103.15116336523771 l 51.20471643308932 7.7715366438988 a72.79111667844737,72.79111667844737 0 0,0 -0.1986790050519696,1.2371743541125348 l -51.063355673676064 -8.65179022770454" fill="#3fffbc" stroke="none" /><path d="M 120.5718875245553 104.21870165774334 l 11.317015982795715 2.3207940462604775 a32.552529409614664,32.552529409614664 0 0,0 -0.1172913537966348,0.5479461566355961 l -11.275390590274636 -2.5152540223122424" fill="#ff850c" stroke="none" /><path d="M 120.49622156327973 104.57218783832717 l 8.09569350800001 1.8059441485750038 a29.294678272437444,29.294678272437444 0 0,0 -0.11402525824931271,0.4912178282197724 l -8.063407683820145 -1.9450306341433412" fill="#ff5808" stroke="none" /><path d="M 120.32669344350535 105.2749913415812 l 14.651021870252693 3.8020947049601483 a36.136326039964544,36.136326039964544 0 0,0 -0.16142944094046674,0.6007390029655313 l -14.58340435297045 -4.053724641101228" fill="#ffb510" stroke="none" /><path d="M 120.13307415673323 105.97154293290107 l 24.272360216768487 7.19927021521444 a46.3175228275643,46.3175228275643 0 0,0 -0.2332930418567786,0.7624151590330168 l -24.144840402405574 -7.616012346799514" fill="#caff1d" stroke="none" /><path d="M 119.79798401119884 107.00284435728193 l 12.289725728775954 4.347060611000551 a34.03588487384919,34.03588487384919 0 0,0 -0.20012409700664543,0.5506555650826649 l -12.213077370764083 -4.557963973089348" fill="#ff990e" stroke="none" /><path d="M 119.67450827220406 107.3425965602758 l 6.880990425480648 2.5680101342509847 a28.344569782170506,28.344569782170506 0 0,0 -0.17452928644265125,0.4556408936530558 l -6.83576685944449 -2.6860745947371845" fill="#ff4a06" stroke="none" /><path d="M 119.54520255179757 107.68017299344265 l 10.267241984513962 4.034452669274201 a32.03145803188227,32.03145803188227 0 0,0 -0.2060650591253021,0.5114365774765007 l -10.196274311131267 -4.210588614593515" fill="#ff7e0b" stroke="none" /><path d="M 119.26925614724726 108.34839909993367 l 29.131663991484782 12.621284163105834 a52.74823870451142,52.74823870451142 0 0,0 -0.36812974508900387,0.8300353917612665 l -28.910093161664506 -13.120867891359788" fill="#81ff25" stroke="none" /><path d="M 118.81262510543309 109.33194174019688 l 11.550972082906062 5.729822282441026 a33.89402262478366,33.89402262478366 0 0,0 -0.26376220303030656,0.5204278497054801 l -11.450631210089487 -5.9278043438492" fill="#ff970e" stroke="none" /><path d="M 118.64920377521936 109.65438752849418 l 14.384113355370312 7.44642003274482 a37.1972802755341,37.1972802755341 0 0,0 -0.2992565334955783,0.5660805836044475 l -14.25380431364984 -7.692915631435402" fill="#ffc312" stroke="none" /><line stroke="#e1ed5e" stroke-width="0.3" x1="174.80103733775053" x2="179.2010983576182" y1="140.37084112569926" y2="142.7455964860345" /><path d="M 175.68104954172406 140.8457921977663 a86.0,86.0 0 0,1 -30.038265399797805,32.042727171017184" fill="none" id="id41" stroke="none" /><text fill="#e1ed5e" style="font-size:6.75px; font-family:Arial;" text-anchor="middle"><textPath startOffset="22.206326154141568" xlink:href="#id41">May</textPath></text><path d="M 118.30583269289576 110.29060199501025 l 9.378807410496472 5.272285389493779 a31.759136660134637,31.759136660134637 0 0,0 -0.2719913015356666,0.4742397604424693 l -9.286664112808428 -5.432944995794562" fill="#ff7a0b" stroke="none" /><path d="M 117.75023020441432 111.22182372390056 l 10.432058454680483 6.595222693322438 a33.34199359813421,33.34199359813421 0 0,0 -0.3108666758013429,0.4824719842871515 l -10.31698691550209 -6.773816277531043" fill="#ff900d" stroke="none" /><path d="M 117.55443506779139 111.5257021239791 l 43.11171414945465 28.30582547497873 a72.5736333093204,72.5736333093204 0 0,0 -0.6946226154397359,1.0383665624483165 l -42.61808842860419 -29.04372895163285" fill="#3fffba" stroke="none" /><path d="M 117.35343817320211 111.8261652097733 l 22.919189311556316 15.619159532956175 a48.73530932250248,48.73530932250248 0 0,0 -0.4783929739482547,0.6891607592064531 l -22.646935430445925 -16.011361554349648" fill="#aeff20" stroke="none" /><path d="M 117.14729908036423 112.12312394758627 l 7.424125816271623 5.248849807267965 a30.0921982179827,30.0921982179827 0 0,0 -0.30267049311794386,0.4203828426314038 l -7.332675530778077 -5.3758662553505" fill="#ff6309" stroke="none" /><path d="M 116.498646956653 112.99209946851258 l 7.605596304654907 5.989137410300332 a30.680643680501795,30.680643680501795 0 0,0 -0.3303020944185189,0.41210264905585264 l -7.501376298181534 -6.119167892934435" fill="#ff6b09" stroke="none" /><path d="M 115.80600337817218 113.82643327865902 l 11.58795400385614 10.136659409534724 a36.395861196451285,36.395861196451285 0 0,0 -0.4165439594283099,0.46799155416990185 l -11.411751194779493 -10.334625133445492" fill="#ffb911" stroke="none" /><path d="M 115.32070863581623 114.36230785411682 l 6.807969768289797 6.38209106366764 a30.331641801467423,30.331641801467423 0 0,0 -0.36035932930409836,0.37783531607773435 l -6.697103887606734 -6.498333496327881" fill="#ff6609" stroke="none" /><path d="M 115.07121518719521 114.62390073753431 l 23.38518552646446 22.691112005247962 a53.58455870718324,53.58455870718324 0 0,0 -0.6480143350452959,0.6564351001559064 l -22.99113056636363 -23.090287599384535" fill="#78ff26" stroke="none" /><path d="M 114.81725581225074 114.88116024355365 l 6.63902245189637 6.667655483516499 a30.409263986287755,30.409263986287755 0 0,0 -0.374106419003547,0.36614186995872366 l -6.523266080517029 -6.7809474563977945" fill="#ff6809" stroke="none" /><path d="M 114.29624159901734 115.38237550388516 l 22.848010575083656 24.583851339420107 a54.56184342252139,54.56184342252139 0 0,0 -0.6934562186375898,0.6334558140371898 l -22.421454806979202 -24.97349992004388" fill="#6dff28" stroke="none" /><path d="M 114.0293411484842 115.62618273729858 l 12.36053186234515 13.767426963744153 a39.50202132530603,39.50202132530603 0 0,0 -0.50987261694625,0.4499033025824164 l -12.121716892492312 -13.978153408098859" fill="#ffe115" stroke="none" /><path d="M 113.20401910651253 116.32954008644616 l 7.182439165416694 8.882593044134923 a32.423129674157856,32.423129674157856 0 0,0 -0.4370059008059093,0.347183917406292 l -7.028475771893434 -9.00491087554634" fill="#ff830c" stroke="none" /><path d="M 112.92097659922987 116.55440617244103 l 4.5758904868527575 5.862648936651154 a28.437030745000754,28.437030745000754 0 0,0 -0.388465103223237,0.2978584761497924 l -4.474296655136027 -5.9405467546283175" fill="#ff4c07" stroke="none" /><path d="M 112.63410532772338 116.77436683061366 l 3.222062075028983 4.277948441584165 a26.355607050950663,26.355607050950663 0 0,0 -0.3647302629880344,0.26981872908944704 l -3.1479468416223844 -4.332777119413381" fill="#ff2e04" stroke="none" /><path d="M 111.7513745106137 117.40417183066458 l 5.862249276941006 8.682183827765877 a31.4759859967506,31.4759859967506 0 0,0 -0.45164337918702596,0.2993246043644307 l -5.711931199014017 -8.781806453221627" fill="#ff760a" stroke="none" /><path d="M 111.45004920935366 117.60387380957326 l 2.4093083167006912 3.7041901567467996 a25.41879975584581,25.41879975584581 0 0,0 -0.36883670741577423,0.23540903757756668 l -2.3451898072379866 -3.745113623148175" fill="#ff2003" stroke="none" /><line stroke="#e1ed5e" stroke-width="0.3" x1="143.8653032363475" x2="146.44561519142675" y1="172.8068346515853" y2="177.08958963109032" /><path d="M 144.38136562736335 173.6633856474863 a86.0,86.0 0 0,1 -40.68145358897372,12.25698825130547" fill="none" id="id42" stroke="none" /><text fill="#e1ed5e" style="font-size:6.75px; font-family:Arial;" text-anchor="middle"><textPath startOffset="21.466115282336833" xlink:href="#id42">June</textPath></text><path d="M 110.8373102113329 117.98757091392108 l 18.718656149483998 31.068885944599735 a57.2720796464879,57.2720796464879 0 0,0 -0.8488052990004046,0.5014891320524898 l -18.181082979455212 -31.386493648945976" fill="#51ff2b" stroke="none" /><path d="M 110.21172684928248 118.3499491758327 l 3.589232965826906 6.449667473016543 a28.381111284587586,28.381111284587586 0 0,0 -0.42892939502597005,0.23388650577353098 l -3.477680758932287 -6.510494630549844" fill="#ff4b07" stroke="none" /><path d="M 108.59647513512805 119.15986991738527 l 2.3842741780020735 5.314083084033718 a26.824452109846966,26.824452109846966 0 0,0 -0.4229057860573108,0.18538946855210242 l -2.2924477172870086 -5.3543371058802744" fill="#ff3505" stroke="none" /><path d="M 106.2309692047433 120.05430185196036 l 3.4960092791401154 11.251865168545397 a32.78246793549462,32.78246793549462 0 0,0 -0.5403253596230904,0.16279559849792585 l -3.3018089450767794 -11.310376136149047" fill="#ff880c" stroke="none" /><path d="M 105.88484417918355 120.15858648285463 l 2.3782459186984886 8.14670271120601 a29.486743705012977,29.486743705012977 0 0,0 -0.48845328995532067,0.13804177876941207 l -2.2376614606385625 -8.186433283313942" fill="#ff5b08" stroke="none" /><path d="M 105.53697534728816 120.25689768951611 l 2.7185931267981887 9.945910786101722 a31.310765730738378,31.310765730738378 0 0,0 -0.5211148507515863,0.13763116842266868 l -2.546987833235105 -9.991233303827974" fill="#ff740a" stroke="none" /><path d="M 104.13013068566511 120.58985236759428 l 10.296740669043201 51.33212151829575 a73.35465182746047,73.35465182746047 0 0,0 -1.2401560485983512,0.23767885831014632 l -9.411617005873145 -51.50175757495437" fill="#40ffc2" stroke="none" /><path d="M 103.7750983002368 120.6578951692458 l 3.1677227446261775 17.33424646971928 a38.621310055151895,38.621310055151895 0 0,0 -0.6550009190113908,0.11388030561885536 l -2.868872854142737 -17.38620535385914" fill="#ffd513" stroke="none" /><path d="M 102.34483914955558 120.86867818915974 l 0.9201501370146694 8.189183082647586 a29.240715735648788,29.240715735648788 0 0,0 -0.5006670585933776,0.051896187727298725 l -0.7790504818156891 -8.203808638830644" fill="#ff5708" stroke="none" /><path d="M 101.62511606390274 120.93702456842531 l 1.13892926440493 14.673284278095615 a35.71741931777191,35.71741931777191 0 0,0 -0.6133824521363126,0.042302445144714484 l -0.886184051489687 -14.690715067756615" fill="#ffb010" stroke="none" /><path d="M 101.26447882468166 120.96189622390904 l 2.661291545229795 44.11755745037307 a65.19775274915773,65.19775274915773 0 0,0 -1.1208174597654192,0.057933460236641234 l -1.9014860170508963 -44.15683071737191" fill="#35ff67" stroke="none" /><line stroke="#e1ed5e" stroke-width="0.3" x1="102.19456741930631" x2="102.32365962044197" y1="184.97166512339345" y2="189.96999836594603" /><path d="M 102.22038585953345 185.97133177190398 a86.0,86.0 0 0,1 -42.740103519485714,-10.115201625700543" fill="none" id="id43" stroke="none" /><text fill="#e1ed5e" style="font-size:6.75px; font-family:Arial;" text-anchor="middle"><textPath startOffset="22.20632615414155" xlink:href="#id43">July</textPath></text><path d="M 98.73552117531835 120.96189622390904 l -0.604386060234126 10.01920920027634 a31.037421756044097,31.037421756044097 0 0,0 -0.5330119092685579,-0.03675962195328973 l 0.776760730281614 -10.007321233806763" fill="#ff700a" stroke="none" /><path d="M 96.58105272829116 120.7198165907248 l -1.7499070032964832 10.604946282487058 a31.748351509632634,31.748351509632634 0 0,0 -0.5384384782963123,-0.09361443119481963 l 1.9321944530648454 -10.573253272771233" fill="#ff7a0b" stroke="none" /><path d="M 96.22490169976321 120.6578951692458 l -1.8531925873208257 10.14094340136671 a31.308882375671182,31.308882375671182 0 0,0 -0.5293174854727979,-0.1014449558770922 l 2.0274776873653186 -10.107541247141151" fill="#ff740a" stroke="none" /><path d="M 95.86986931433489 120.58985236759428 l -6.841810820925499 34.10833347690535 a55.787767791008314,55.787767791008314 0 0,0 -0.9399137424882562,-0.19696806334856026 l 7.4279160248431415 -33.98550943283025" fill="#60ff29" stroke="none" /><path d="M 95.16358092515715 120.4354850818985 l -3.396311225939339 14.350548684291374 a35.74697180724431,35.74697180724431 0 0,0 -0.5975646206338178,-0.1468668450768041 l 3.6428291313163674 -14.289960580900539" fill="#ffb010" stroke="none" /><path d="M 94.81253420990036 120.34920634021253 l -1.823810684336731 7.154379699598847 a28.383185917903795,28.383185917903795 0 0,0 -0.47239022579836804,-0.12476255212129914 l 1.9466913529465883 -7.121925798173966" fill="#ff4b07" stroke="none" /><path d="M 94.11515582081647 120.15858648285463 l -4.126181409626097 14.134271402481694 a35.72423176617904,35.72423176617904 0 0,0 -0.588811934912919,-0.17740420589130926 l 4.3688683189792625 -14.06115182748466" fill="#ffb010" stroke="none" /><path d="M 93.76903079525671 120.05430185196036 l -10.617980839840486 34.173847731167754 a56.78537949873187,56.78537949873187 0 0,0 -0.9309520986820904,-0.29806146349968915 l 11.204654283613518 -33.98601342100836" fill="#56ff2b" stroke="none" /><path d="M 93.08242187328487 119.8279376855182 l -3.3974279010287347 9.738088602495772 a31.31372318674234,31.31372318674234 0 0,0 -0.5074022611573238,-0.18193639834326295 l 3.5645497228157854 -9.678164663112552" fill="#ff740a" stroke="none" /><path d="M 92.7421414339146 119.70592522655815 l -7.247590619295305 19.67804656374962 a41.970290564272005,41.970290564272005 0 0,0 -0.6757811944344796,-0.255522623436916 l 7.585242034490067 -19.55037569020607" fill="#feff18" stroke="none" /><path d="M 92.06813273071674 119.44442032107085 l -4.450654323185624 10.910469177786982 a32.78332133075945,32.78332133075945 0 0,0 -0.5206749198225672,-0.2176421587138202 l 4.637800702505654 -10.832241976053188" fill="#ff880c" stroke="none" /><path d="M 91.7346041902142 119.30500536409082 l -4.91096168224771 11.470248225304712 a33.4773450298776,33.4773450298776 0 0,0 -0.5277931812734202,-0.23136902025843023 l 5.107675538178873 -11.38401465175183" fill="#ff920d" stroke="none" /><path d="M 91.07499286063937 119.00905698771935 l -3.75512296378231 7.99790356465139 a29.83557637636553,29.83557637636553 0 0,0 -0.46300173256994137,-0.22226896820252715 l 3.8922373643524932 -7.9320803199493" fill="#ff6008" stroke="none" /><path d="M 90.7491055286396 118.85261126421891 l -3.894146215073937 7.935970410872314 a29.83990956439123,29.83990956439123 0 0,0 -0.459173817658707,-0.23023928446616562 l 4.030173940415405 -7.867763285496847" fill="#ff6008" stroke="none" /><line stroke="#e1ed5e" stroke-width="0.3" x1="58.666819895761336" x2="56.23545636021788" y1="174.27360380694188" y2="178.64263932499728" /><path d="M 58.180547188652646 175.14741091055294 a86.0,86.0 0 0,1 -31.652253787137756,-30.449443065178592" fill="none" id="id44" stroke="none" /><text fill="#e1ed5e" style="font-size:6.75px; font-family:Arial;" text-anchor="middle"><textPath startOffset="22.20632615414155" xlink:href="#id44">August</textPath></text><path d="M 89.4739219176387 118.17145234162733 l -13.512424509140317 23.32686268014068 a47.95789566367071,47.95789566367071 0 0,0 -0.7107637127810932,-0.41993172973443665 l 13.911956092949792 -23.090812378112496" fill="#b7ff1f" stroke="none" /><path d="M 88.8546689885994 117.79835938074946 l -4.688579637949156 7.487352802363875 a29.83420800119952,29.83420800119952 0 0,0 -0.43290600473727503,-0.27630109446203427 l 4.8167674447333555 -7.405537279078037" fill="#ff6008" stroke="none" /><path d="M 88.54995079064634 117.60387380957326 l -4.816538803184378 7.405185754215372 a29.833788660422837,29.833788660422837 0 0,0 -0.42807977884905823,-0.2837079349442774 l 4.943293280773398 -7.321179798179777" fill="#ff6008" stroke="none" /><path d="M 87.65650970185807 116.9893568818739 l -9.517274960478852 13.0994051877561 a37.19175527687993,37.19175527687993 0 0,0 -0.5146896695226656,-0.380755113020689 l 9.741349600420081 -12.933640125995643" fill="#ffc312" stroke="none" /><path d="M 87.07902340077011 116.55440617244103 l -6.339999570161067 8.122832450900297 a31.304173988003186,31.304173988003186 0 0,0 -0.42192437590364196,-0.3352022419040322 l 6.478881438782068 -8.012496294991136" fill="#ff740a" stroke="none" /><path d="M 86.24171649860922 115.8653595955263 l -8.679895529797921 10.009218360555272 a34.24858628675085,34.24858628675085 0 0,0 -0.4420638673886853,-0.3900699650859877 l 8.850901750093195 -9.858325253696995" fill="#ff9c0e" stroke="none" /><path d="M 85.97065885151581 115.62618273729859 l -5.901515328729895 6.573235049150246 a29.83375923299991,29.83375923299991 0 0,0 -0.3791735133516696,-0.3463660143295192 l 6.0137883915484185 -6.4706762682341505" fill="#ff6008" stroke="none" /><path d="M 85.44109423537348 115.13401014063109 l -14.288951682869405 14.853392360911453 a41.610613887571596,41.610613887571596 0 0,0 -0.5119097180726934,-0.5010114018476748 l 14.542511353317893 -14.605230856141208" fill="#fffb17" stroke="none" /><path d="M 85.18274418774928 114.88116024355367 l -7.275065780249147 7.30644196402225 a31.310706875892528,31.310706875892528 0 0,0 -0.37864988320338494,-0.38357033257182466 l 7.3997562885080646 -7.180131137469761" fill="#ff740a" stroke="none" /><path d="M 84.67929136418377 114.36230785411682 l -9.664795751765096 9.06020571460437 a34.24747540153543,34.24747540153543 0 0,0 -0.3994781960325723,-0.43355468389142987 l 9.819320355793398 -8.892499775911597" fill="#ff9c0e" stroke="none" /><path d="M 84.43433777217949 114.09645910891817 l -5.457327694211707 4.942224465588546 a28.362608792423515,28.362608792423515 0 0,0 -0.32460485829262964,-0.3646969994042489 l 5.541591402152675 -4.847553296443433" fill="#ff4b07" stroke="none" /><path d="M 83.06392112726016 112.41649034213515 l -4.8306396535121925 3.5415275905872057 a26.989782728695157,26.989782728695157 0 0,0 -0.2714660719853445,-0.37704263089402096 l 4.890885517873144 -3.4578513542420466" fill="#ff3705" stroke="none" /><path d="M 82.6465618267979 111.8261652097733 l -12.174415937513745 8.29672211192531 a35.732684793414236,35.732684793414236 0 0,0 -0.34200755613397515,-0.5112548922257134 l 12.315426599058451 -8.085930305493775" fill="#ffb010" stroke="none" /><path d="M 82.24976979558568 111.22182372390057 l -7.847925511626196 4.961515184623893 a30.28474920303649,30.28474920303649 0 0,0 -0.2747769334269592,-0.4430279075645572 l 7.932167084721111 -4.825690945694071" fill="#ff6609" stroke="none" /><line stroke="#e1ed5e" stroke-width="0.3" x1="26.63291911575756" x2="22.317208475507996" y1="142.92168965132927" y2="145.44649492493687" /><path d="M 25.769776987707644 143.4266507060508 a86.0,86.0 0 0,1 -11.730757126820373,-40.83630448921669" fill="none" id="id45" stroke="none" /><text fill="#e1ed5e" style="font-size:6.75px; font-family:Arial;" text-anchor="middle"><textPath startOffset="21.46611528233685" xlink:href="#id45">September</textPath></text><path d="M 81.87401531095188 110.60418214915194 l -11.016877312910005 6.445165641762009 a33.76368856864898,33.76368856864898 0 0,0 -0.28915866626687237,-0.5041725078928126 l 11.126187975329254 -6.2545732880108895" fill="#ff960d" stroke="none" /><path d="M 81.51974371655577 109.97397251340807 l -8.472949981900184 4.572932806276189 a30.62821872656097,30.62821872656097 0 0,0 -0.2464076538758119,-0.46611041998413405 l 8.550410144000882 -4.426407371205928" fill="#ff6b09" stroke="none" /><path d="M 81.35079622478065 109.6543875284942 l -11.77200470949342 6.094174143977439 a34.25590635820344,34.25590635820344 0 0,0 -0.2665783707016519,-0.5259844156909482 l 11.875161749981338 -5.890635516583806" fill="#ff9c0e" stroke="none" /><path d="M 80.87730276802145 108.67885076344099 l -17.68507628868271 8.02638539885859 a40.42124573521322,40.42124573521322 0 0,0 -0.28209971089348707,-0.6360603759161301 l 17.820617084307475 -7.720776686449764" fill="#ffec16" stroke="none" /><path d="M 80.73074385275274 108.34839909993369 l -8.107535471948438 3.512587165766855 a29.83574558404735,29.83574558404735 0 0,0 -0.20011121385281144,-0.4730037976510843 l 8.166797666993556 -3.3725088424496117" fill="#ff6008" stroke="none" /><path d="M 80.32549172779594 107.34259656027581 l -13.817651580746643 5.156796783135767 a35.74856088808225,35.74856088808225 0 0,0 -0.21019428445979466,-0.5783643959803287 l 13.904370126211662 -4.9181845901493215" fill="#ffb010" stroke="none" /><path d="M 80.0844068197444 106.66101706037122 l -27.136639101796646 9.076185398153651 a49.61423287671393,49.61423287671393 0 0,0 -0.2639187748673005,-0.8122584685605562 l 27.2888501276802 -8.607728029615291" fill="#a4ff21" stroke="none" /><path d="M 79.97269907076064 106.31721596034903 l -8.4322148029616 2.659775379746266 a29.84175613517977,29.84175613517977 0 0,0 -0.15030756478585475,-0.4912138184576711 l 8.476749140253585 -2.5142345887365476" fill="#ff6008" stroke="none" /><path d="M 79.76711848015287 105.62410040840567 l -19.263473269581 5.35463561018178 a40.99383717363149,40.99383717363149 0 0,0 -0.18312908206621084,-0.6814914400590664 l 19.352790427988985 -5.022253236947175" fill="#fff417" stroke="none" /><path d="M 79.58551787078972 104.9243191809786 l -14.579809628358484 3.5168972572276336 a35.997980367938545,35.997980367938545 0 0,0 -0.1401168829961087,-0.6036198647477079 l 14.638187077285147 -3.265408735131351" fill="#ffb310" stroke="none" /><path d="M 79.50377843672027 104.57218783832718 l -10.4487506306582 2.3308515870456015 a31.705571393555466,31.705571393555466 0 0,0 -0.11423964463258318,-0.5336895873874314 l 10.487324314015224 -2.1506481802420065" fill="#ff7a0b" stroke="none" /><path d="M 79.4281124754447 104.21870165774334 l -31.039923834491937 6.365394423846332 a52.68588199533342,52.68588199533342 0 0,0 -0.17454096865007018,-0.8899806388172438 l 31.144894736117674 -5.830150057961133" fill="#81ff25" stroke="none" /><path d="M 79.35854240842038 103.8639653848113 l -7.245031597607493 1.3562293835508688 a28.370877898265427,28.370877898265427 0 0,0 -0.08572538745740103,-0.4807934985347694 l 7.267303427404083 -1.2313171342828857" fill="#ff4b07" stroke="none" /><path d="M 79.23777060512086 103.15116336523772 l -23.068090453075776 3.501132761766482 a44.332267951633,44.332267951633 0 0,0 -0.10801440763484366,-0.7554525154223829 l 23.12493891172722 -3.1035347743636983" fill="#e1ff1b" stroke="none" /><path d="M 79.18660465613746 102.79330883721812 l -7.293991452219091 0.9789066341876332 a28.35938648961323,28.35938648961323 0 0,0 -0.060768075748472435,-0.4843813539583713 l 7.309761037214411 -0.8532075259418533" fill="#ff4b06" stroke="none" /><path d="M 79.10278846688536 102.07522291339032 l -15.063168180389326 1.4958661688742891 a36.137260360642415,36.137260360642415 0 0,0 -0.05614250993840004,-0.6195279188903535 l 15.086685286604801 -1.2363568614353695" fill="#ffb510" stroke="none" /><path d="M 79.07016306316243 101.71520430193888 l -26.40175790976442 2.163629314563553 a47.490264485970066,47.490264485970066 0 0,0 -0.05975505798382041,-0.8153102905745745 l 26.435089526412575 -1.7088458874922174" fill="#bcff1f" stroke="none" /><path d="M 79.04373962182676 101.35467743843564 l -10.298533053890152 0.6657290053343392 a31.32002801210401,31.32002801210401 0 0,0 -0.03014724078235003,-0.5382992359397484 l 10.308466645560033 -0.4883580530591532" fill="#ff740a" stroke="none" /><path d="M 79.0095281055655 100.63252640178507 l -23.913117732882085 0.7205973448864326 a44.92397250124103,44.92397250124103 0 0,0 -0.016638849621671503,-0.7731419608148908 l 23.921978645188766 -0.3088655682814128" fill="#daff1b" stroke="none" /><line stroke="#e1ed5e" stroke-width="0.3" x1="15.007084014347285" x2="10.007500721073583" y1="101.09737516637583" y2="101.16192664675087" /><path d="M 14.007167355692545 101.11028546245083 a86.0,86.0 0 0,1 10.666146001902534,-42.60595125391555" fill="none" id="id46" stroke="none" /><text fill="#e1ed5e" style="font-size:6.75px; font-family:Arial;" text-anchor="middle"><textPath startOffset="22.20632615414155" xlink:href="#id46">October</textPath></text><path d="M 79.00175016825051 100.2711162175752 l -14.720687412476385 0.19006427313494836 a35.7219143566237,35.7219143566237 0 0,0 -0.002646318047082891,-0.6149111171590248 l 14.72177802781297 0.06335632222775181" fill="#ffb010" stroke="none" /><path d="M 79.00019446554 99.90962569577889 l -14.74136179641699 -0.06344060250638159 a35.74149830658026,35.74149830658026 0 0,0 0.007943110390428179,-0.6152026533534193 l 14.738085678908845 0.3171795139202729" fill="#ffb010" stroke="none" /><path d="M 79.01574976396665 99.18683210126434 l -32.363082737365325 -1.2541129509102775 a53.38737290301877,53.38737290301877 0 0,0 0.043488824583968064,-0.9179803524693237 l 32.33670030454786 1.8110044100026104" fill="#7aff26" stroke="none" /><path d="M 79.05617556472873 98.46500227214037 l -11.739481510913905 -0.8604005205064458 a32.77096916998669,32.77096916998669 0 0,0 0.046075227641866875,-0.5622344815028175 l 11.72293179945254 1.0623489192170417" fill="#ff880c" stroke="none" /><path d="M 79.08570108090925 98.10471618934814 l -21.986424531364612 -1.9924413737042321 a43.07651889001162,43.07651889001162 0 0,0 0.0732770033502375,-0.7378894236576197 l 21.948870402332144 2.370606328066282" fill="#f1ff19" stroke="none" /><path d="M 79.16333360222342 97.38593545837743 l -23.60621142614492 -2.9615178874157873 a44.79125482384943,44.79125482384943 0 0,0 0.10255917805479903,-0.7641850018710998 l 23.551736249032288 3.3674212313515466" fill="#dcff1b" stroke="none" /><path d="M 79.21141760316559 97.0276538004421 l -36.50218375764241 -5.219072907256729 a57.8734069633924,57.8734069633924 0 0,0 0.1494900597310898,-0.9849527151242916 l 36.40693780447202 5.846624734773113" fill="#4bff2c" stroke="none" /><path d="M 79.26566170972629 96.67025291283419 l -25.983613529545966 -4.172733185540483 a47.316532337876794,47.316532337876794 0 0,0 0.13606463367631186,-0.8030611701349043 l 25.90793703434943 4.619380143991214" fill="#beff1f" stroke="none" /><path d="M 79.32604984820605 96.31383870115002 l -21.434735514060637 -3.8218091812589345 a42.77278374429157,42.77278374429157 0 0,0 0.13547622605293297,-0.7237194167761571 l 21.365773564097843 4.190206675497664" fill="#f4ff19" stroke="none" /><path d="M 79.3925641242962 95.95851677861259 l -17.02246573267377 -3.338407071126874 a38.34673748555049,38.34673748555049 0 0,0 0.13260795597921654,-0.6466434881116584 l 16.962478480779556 3.6309262154019346" fill="#ffd213" stroke="none" /><path d="M 79.62865764111835 94.90015583598534 l -14.349573937264433 -3.5923303241795925 a35.792400391384724,35.792400391384724 0 0,0 0.1547657736525895,-0.5963756588157981 l 14.285611831741537 3.8388024085442543" fill="#ffb110" stroke="none" /><path d="M 79.71946130924805 94.55025226153421 l -15.100384268376557 -4.057746506214636 a36.63607724978779,36.63607724978779 0 0,0 0.16889795011105885,-0.6076157901510247 l 15.028299547699136 4.317073599784604" fill="#ffbc11" stroke="none" /><path d="M 79.91906864156998 93.8553929516997 l -31.78688768449362 -9.726537610401959 a54.24171720223214,54.24171720223214 0 0,0 0.2808804427018395,-0.8904677608673819 l 31.61475175802358 10.272255537695756" fill="#71ff27" stroke="none" /><path d="M 80.14247586403 93.16781622104843 l -8.371021495300946 -2.8801353523147215 a29.852636924806276,29.852636924806276 0 0,0 0.1713639719518437,-0.4844690248285035 l 8.320204442539293 3.023802003569836" fill="#ff6008" stroke="none" /><path d="M 80.2630227832202 92.82701384747504 l -11.095445149909153 -4.032404432667409 a32.805472823366216,32.805472823366216 0 0,0 0.19745053509085933,-0.5290692678136601 l 11.024390026316667 4.222796837510411" fill="#ff890c" stroke="none" /><path d="M 80.38941819471856 92.48833698450439 l -4.133797602000976 -1.5834152636987289 a25.42667894833397,25.42667894833397 0 0,0 0.16007480771700808,-0.40737292544585274 l 4.105929244402276 1.654337194040345" fill="#ff2003" stroke="none" /><path d="M 80.65960295795068 91.81776055985345 l -7.877663247166222 -3.332761306658595 a29.553646951032885,29.553646951032885 0 0,0 0.20224445832823612,-0.46680809401158335 l 7.819128078995305 3.4678685452567777" fill="#ff5c08" stroke="none" /><path d="M 80.803312248108 91.48605970444005 l -57.59006325567602 -25.54182088667983 a84.0,84.0 0 0,0 0.5975907321465934,-1.3167119646317162 l 57.141870206566075 26.529354860153617" fill="#4dd2ff" stroke="none" /><path d="M 81.10775173730289 90.83032412892265 l -10.591228173856356 -5.140633771081954 a32.77285988190962,32.77285988190962 0 0,0 0.250696751757599,-0.505389353820166 l 10.501171409145345 5.322182713401082" fill="#ff880c" stroke="none" /><path d="M 81.6062741919709 89.86733742301443 l -11.774720472484757 -6.486411221479231 a34.44312362285207,34.44312362285207 0 0,0 0.2905398171337341,-0.5168379153769262 l 11.661323014058592 6.688132646790942" fill="#ff9f0e" stroke="none" /><line stroke="#e1ed5e" stroke-width="0.3" x1="26.266209847984243" x2="21.928928074336255" y1="57.711370442889674" y2="55.22380399835377" /><path d="M 25.398753493254645 57.213857153982495 a86.0,86.0 0 0,1 29.58750427330803,-30.492523968695096" fill="none" id="id47" stroke="none" /><text fill="#e1ed5e" style="font-size:6.75px; font-family:Arial;" text-anchor="middle"><textPath startOffset="21.46611528233685" xlink:href="#id47">November</textPath></text><path d="M 81.78341655067845 89.55222093294921 l -12.770790469721994 -7.324446854177942 a35.72211299172844,35.72211299172844 0 0,0 0.3105107682913306,-0.5307635565542753 l 12.642820026960338 7.543189823086109" fill="#ffb010" stroke="none" /><path d="M 81.96595687620814 89.24020034530311 l -26.878775051296426 -16.036904898717186 a52.299374865781175,52.299374865781175 0 0,0 0.46791553794224694,-0.7691301142703411 l 26.59874371506796 16.497202786194602" fill="#86ff25" stroke="none" /><path d="M 82.34701348167596 88.62581576622439 l -12.762575664440803 -8.223191399039967 a36.18236524313065,36.18236524313065 0 0,0 0.3418430002355125,-0.5206503418588757 l 12.61913602884737 8.44165980487651" fill="#ffb610" stroke="none" /><path d="M 82.7489923806493 88.02491185347247 l -8.463416548426425 -5.8750283707776125 a31.302687903145475,31.302687903145475 0 0,0 0.3110702824573458,-0.4399868541615863 l 8.361033646165202 6.019841725270985" fill="#ff740a" stroke="none" /><path d="M 83.17141714833178 87.43820079747576 l -17.713866539812074 -13.22262465798621 a43.1047250748852,43.1047250748852 0 0,0 0.4489543078048831,-0.5907712432388008 l 17.483636291783082 13.525580677106037" fill="#f0ff19" stroke="none" /><path d="M 83.39014120810768 87.1503855733568 l -12.821817022956978 -9.919133392897267 a37.21074332152227,37.21074332152227 0 0,0 0.39628718580588573,-0.5032444823796742 l 12.64917575655712 10.13837026922999" fill="#ffc312" stroke="none" /><path d="M 83.84228863543731 86.58626213691792 l -6.930599310172193 -5.753614499179624 a30.007623804496347,30.007623804496347 0 0,0 0.33335524514572,-0.39458746459561744 l 6.830533451539348 5.872060913404357" fill="#ff6209" stroke="none" /><path d="M 84.07557802195018 86.31012108654704 l -12.306898730137746 -10.579972927616847 a37.22946651935828,37.22946651935828 0 0,0 0.4219483783935016,-0.48235993765622615 l 12.1229584881664 10.790248421476017" fill="#ffc412" stroke="none" /><path d="M 84.31358615837235 86.03803664274999 l -4.462440426709474 -3.971872114982016 a26.974039057430304,26.974039057430304 0 0,0 0.3116867674074594,-0.344172313405742 l 4.3934100186859695 4.0480972156573145" fill="#ff3705" stroke="none" /><path d="M 84.80347519578584 85.50635884689758 l -6.709760451747878 -6.399414436117917 a30.27218369344753,30.27218369344753 0 0,0 0.36288525958973655,-0.37398515852209474 l 6.598610928455023 6.513963790190135" fill="#ff6609" stroke="none" /><path d="M 85.05521093208273 85.24692304244772 l -44.80456118856576 -44.229807209744024 a83.95811742032204,83.95811742032204 0 0,0 1.024145903258836,-1.0197478952777463 l 44.03657948513962 44.99449095567188" fill="#4dd2ff" stroke="none" /><path d="M 86.10567301691215 84.25364557470407 l -7.583351521905227 -8.594165153941816 a32.461539817930664,32.461539817930664 0 0,0 0.4221641823691215,-0.3660966188755671 l 7.434293540889332 8.723426766237063" fill="#ff840c" stroke="none" /><path d="M 86.37877921826538 84.01681056812374 l -7.009133873885073 -8.224542884578321 a31.806066042844225,31.806066042844225 0 0,0 0.4197529277502405,-0.35153100554286243 l 6.866523409175722 8.343975047514995" fill="#ff7b0b" stroke="none" /><path d="M 86.93701828274178 83.55741782278169 l -14.019982336063515 -17.647174027604628 a43.53847057508775,43.53847057508775 0 0,0 0.5908117481928232,-0.46113794076516096 l 13.714138032711267 17.885890357593013" fill="#ebff1a" stroke="none" /><path d="M 87.51073957382395 83.11751280151077 l -8.807349748540164 -11.905426286948883 a35.80907102647171,35.80907102647171 0 0,0 0.49869193041484505,-0.36232089581947613 l 8.601112501771537 12.055266417585027" fill="#ffb110" stroke="none" /><path d="M 88.09926311788651 82.69761687909137 l -8.387244374346821 -12.194145365212217 a35.80010301933534,35.80010301933534 0 0,0 0.5107401335407209,-0.3448540180615295 l 8.176099546399561 12.336711295572412" fill="#ffb110" stroke="none" /><path d="M 88.39885842347998 82.49532879139004 l -7.422709028219688 -11.199939261075881 a34.43634060186787,34.43634060186787 0 0,0 0.49692127208044434,-0.3232114181255639 l 7.228820730354956 11.32604960336098" fill="#ff9f0e" stroke="none" /><path d="M 89.00827224532344 82.1063720568725 l -9.45122588656432 -15.385817716298932 a39.056828557585675,39.056828557585675 0 0,0 0.5758797949839211,-0.3469611329148111 l 9.184984025362748 15.546225458672362" fill="#ffdb14" stroke="none" /><line stroke="#e1ed5e" stroke-width="0.3" x1="56.762969772571076" x2="54.21961505331055" y1="26.818313649435495" y2="22.513508569990535" /><path d="M 56.25429882871897 25.957352633546506 a86.0,86.0 0 0,1 42.265352541879196,-11.944610805530505" fill="none" id="id48" stroke="none" /><text fill="#e1ed5e" style="font-size:6.75px; font-family:Arial;" text-anchor="middle"><textPath startOffset="22.20632615414155" xlink:href="#id48">December</textPath></text><path d="M 89.63071344664047 81.73862282372117 l -2.9978978223769768 -5.279605553251295 a27.07137761561036,27.07137761561036 0 0,0 0.4071998125907408,-0.22660625484086597 l 2.9065739207141905 5.330427205652345" fill="#ff3805" stroke="none" /><path d="M 89.94658935756843 81.56283822128135 l -1.4460316902185806 -2.6519080099234493 a24.02053368499882,24.02053368499882 0 0,0 0.36471743573788445,-0.19481942320650592 l 1.4001692079523909 2.676406159631705" fill="#ff0c01" stroke="none" /><path d="M 91.23893434514133 80.91482961587045 l -3.4063699921506907 -7.420461648467201 a29.16496219218419,29.16496219218419 0 0,0 0.45805362120108617,-0.20551530789034983 l 3.2781342524828303 7.47799728687408" fill="#ff5608" stroke="none" /><path d="M 91.56875222667455 80.76684994638697 l -5.401455771738317 -12.321664854219097 a34.453592428557634,34.453592428557634 0 0,0 0.5452137317372648,-0.23343206638633127 l 5.188558282210744 12.412816448568215" fill="#ff9f0e" stroke="none" /><path d="M 92.23578459929587 80.48803036053334 l -4.047834743761464 -10.17246747413643 a31.9482446367062,31.9482446367062 0 0,0 0.5127188710132756,-0.19892695638756636 l 3.872132707748512 10.24063713441455" fill="#ff7d0b" stroke="none" /><path d="M 92.57280143429618 80.3572730644239 l -3.941019180613922 -10.422821327294278 a32.14301739219083,32.14301739219083 0 0,0 0.5192133144014677,-0.1912306455154699 l 3.761023540439885 10.48911524061607" fill="#ff800b" stroke="none" /><path d="M 93.25333710446033 80.11325718540243 l -1.14664751604116 -3.379905681308488 a24.56911234631032,24.56911234631032 0 0,0 0.40166658622592555,-0.13242315832073054 l 1.088298107572825 3.3991425638884523" fill="#ff1402" stroke="none" /><path d="M 93.94186890950719 79.89281104454417 l -3.9473585509222238 -13.101447141493095 a34.683185182218224,34.683185182218224 0 0,0 0.5731145018447527,-0.16730783892290138 l 3.72125383135405 13.167453309334695" fill="#ffa20f" stroke="none" /><path d="M 94.28887869178378 79.79150937346287 l -3.789947819785673 -13.41052323315557 a34.935775466894675,34.935775466894675 0 0,0 0.5801037450910602,-0.15856426707931223 l 3.55854618547089 13.473774041061178" fill="#ffa50f" stroke="none" /><path d="M 94.98787191387505 79.60689891045804 l -3.6873503236125735 -15.002910262838775 a36.44939703560753,36.44939703560753 0 0,0 0.610573071505941,-0.1445029192007022 l 3.4285535651440986 15.064159094180349" fill="#ffb911" stroke="none" /><path d="M 95.33964822691252 79.52364482259891 l -2.3887500031299704 -10.495536791142793 a31.763940686927135,31.763940686927135 0 0,0 0.5341746077687775,-0.1167498794435348 l 2.207732671207672 10.535100168682197" fill="#ff7a0b" stroke="none" /><path d="M 95.692805502759 79.44645832069477 l -3.3774416694109317 -16.116845470091054 a37.466931108651295,37.466931108651295 0 0,0 0.6323589961469868,-0.12684526570251403 l 3.099516263796809 16.172594691870778" fill="#ffc712" stroke="none" /><path d="M 96.40284397218896 79.31037775812273 l -2.1245041864780503 -12.219427995250337 a33.40273915590707,33.40273915590707 0 0,0 0.5673229281844335,-0.09361314416085621 l 1.913852052154731 12.254187402350821" fill="#ff910d" stroke="none" /><path d="M 96.75951476605007 79.25152402106235 l -2.33341292291413 -14.94059021556237 a36.12170796762656,36.12170796762656 0 0,0 0.615154440434328,-0.09065777387717122 l 2.075889502051153 14.978542473600509" fill="#ffb510" stroke="none" /><path d="M 97.47563105711357 79.15227682838746 l -1.6022880102980364 -13.232636605682645 a34.32929099412257,34.32929099412257 0 0,0 0.5872487795234668,-0.06598424280991085 l 1.3742725272648515 13.258256801963153" fill="#ff9d0e" stroke="none" /><path d="M 97.83486435360386 79.11191278185805 l -1.2786820211223768 -12.33604999572732 a33.40214325059284,33.40214325059284 0 0,0 0.5724091455819438,-0.054357145600711795 l 1.0661477484501967 12.356232685843212" fill="#ff910d" stroke="none" /><path d="M 98.19473922651362 79.07773832637324 l -1.9206911674234801 -22.260054496974803 a43.34276349892526,43.34276349892526 0 0,0 0.7438646278647993,-0.05773821166237739 l 1.5372363501963466 22.289817970825645" fill="#edff19" stroke="none" /><path d="M 98.91598698831166 79.02799685794201 l -0.5687425763302242 -11.003254545111417 a32.017943487903985,32.017943487903985 0 0,0 0.5506463723189078,-0.02371199110746832 l 0.37925537162199224 11.011414262743079" fill="#ff7e0b" stroke="none" /><path d="M 99.27714615592234 79.0124445844662 l -0.9760936551080391 -28.340196078600304 a49.35700041607106,49.35700041607106 0 0,0 0.8493478722401597,-0.021936149719658706 l 0.4881191476730004 28.352799020462324" fill="#a7ff21" stroke="none" /></svg>