<?xml version="1.0" encoding="utf-8" ?>
<svg baseProfile="full" height="200mm" version="1.1" viewBox="0,0,200,200" width="200mm" xmlns="http://www.w3.org/2000/svg" xmlns:ev="http://www.w3.org/2001/xml-events" xmlns:xlink="http://www.w3.org/1999/xlink"><defs /><rect fill="#1a1a1a" height="200" width="200" x="0" y="0" /><rect fill="#1a1a1a" height="200" width="180" x="10" y="0" /><text alignment-baseline="middle" fill="#e1ed5e" style="dominant-baseline: central; font-size:9.0px; font-family:Arial;" text-anchor="middle" x="100.0" y="100.0">2023</text><line stroke="#e1ed5e" stroke-width="0.3" x1="100.0" x2="100.0" y1="15.0" y2="10.0" /><path d="M 100.0 14.0 a86.0,86.0 0 0,1 42.46469731375804,11.215312516191453" fill="none" id="id1" stroke="none" /><text fill="#e1ed5e" style="font-size:6.75px; font-family:Arial;" text-anchor="middle"><textPath startOffset="22.20632615414155" xlink:href="#id1">January</textPath></text><line stroke="#e1ed5e" stroke-width="0.3" x1="143.23703022742887" x2="145.7803849466894" y1="26.81831364943548" y2="22.513508569990506" /><path d="M 143.74570117128098 25.957352633546492 a86.0,86.0 0 0,1 28.547481713284135,27.462654790039103" fill="none" id="id2" stroke="none" /><text fill="#e1ed5e" style="font-size:6.75px; font-family:Arial;" text-anchor="middle"><textPath startOffset="19.985693538727396" xlink:href="#id2">February</textPath></text><line stroke="#e1ed5e" stroke-width="0.3" x1="172.23445277983987" x2="176.4835382374775" y1="55.19839476539836" y2="52.563006222186495" /><path d="M 173.08426987136738 54.67131705675599 a86.0,86.0 0 0,1 12.851231095245387,41.99856678651699" fill="none" id="id3" stroke="none" /><text fill="#e1ed5e" style="font-size:6.75px; font-family:Arial;" text-anchor="middle"><textPath startOffset="22.20632615414155" xlink:href="#id3">March</textPath></text><line stroke="#e1ed5e" stroke-width="0.3" x1="184.98032266829074" x2="189.97916517819016" y1="98.17113171792111" y2="98.06355123074" /><path d="M 185.9800911702706 98.14961562048488 a86.0,86.0 0 0,1 -9.607161424134198,41.387399972396054" fill="none" id="id4" stroke="none" /><text fill="#e1ed5e" style="font-size:6.75px; font-family:Arial;" text-anchor="middle"><textPath startOffset="21.466115282336823" xlink:href="#id4">April</textPath></text><path d="M 120.99980553446 99.90962569577887 l 44.87015648313243 -0.1931022249611798 a65.87057199646642,65.87057199646642 0 0,0 -0.004879763209375701,1.1338851162868762 l -44.86683242263356 -0.5792923695293811" fill="#37ff75" stroke="none" /><path d="M 120.9764740272857 100.99374915477107 l 20.669100120105853 0.9791874815336395 a41.69228136042403,41.69228136042403 0 0,0 -0.040131102196095905,0.7165677882608794 l -20.649182667022227 -1.3348269861299422" fill="#f3ff19" stroke="none" /><path d="M 120.13307415673323 105.97154293290107 l 12.41416557306926 3.682086606278816 a33.94871687279152,33.94871687279152 0 0,0 -0.1709935882338414,0.5588169399709955 l -12.348945212329285 -3.8952305188018683" fill="#ffaa0f" stroke="none" /><path d="M 118.64920377521936 109.65438752849418 l 10.599856517671773 5.487372211784117 a32.93600485865724,32.93600485865724 0 0,0 -0.26497406714108934,0.5012310769465229 l -10.50382994230579 -5.669018303816774" fill="#ff9d0e" stroke="none" /><line stroke="#e1ed5e" stroke-width="0.3" x1="174.80103733775053" x2="179.2010983576182" y1="140.37084112569926" y2="142.7455964860345" /><path d="M 175.68104954172406 140.8457921977663 a86.0,86.0 0 0,1 -30.038265399797805,32.042727171017184" fill="none" id="id5" stroke="none" /><text fill="#e1ed5e" style="font-size:6.75px; font-family:Arial;" text-anchor="middle"><textPath startOffset="22.206326154141568" xlink:href="#id5">May</textPath></text><path d="M 118.12598468904814 110.60418214915192 l 43.67481630592495 25.550926770814783 a71.599796819788,71.599796819788 0 0,0 -0.6315072222450471,1.0584424287102556 l -43.228528207981675 -26.29893129341114" fill="#3effb3" stroke="none" /><path d="M 115.80600337817218 113.82643327865902 l 23.991334915585693 20.986620307471302 a52.875106007067146,52.875106007067146 0 0,0 -0.6051458953668846,0.6798878285522859 l -23.62653017057047 -21.396482305764454" fill="#76ff27" stroke="none" /><path d="M 115.56566222782051 114.09645910891815 l 0.6923763315603646 0.6270246972454079 a21.934101148409894,21.934101148409894 0 0,0 -0.2558493744613411,0.27767396511263676 l -0.6814805491033015 -0.6388499171593794" fill="#ff0601" stroke="none" /><path d="M 115.32070863581623 114.36230785411682 l 0.8642936868226367 0.8102270137490285 a22.184681978798586,22.184681978798586 0 0,0 -0.2635682292119713,0.2763502345968578 l -0.8502189062317009 -0.8249843649283934" fill="#ff0a01" stroke="none" /><path d="M 115.07121518719521 114.62390073753431 l 8.597349407326268 8.342179630310019 a32.97941475265018,32.97941475265018 0 0,0 -0.3988300741246327,0.40401275943207454 l -8.4524787081461 -8.48893288372276" fill="#ff9e0e" stroke="none" /><path d="M 114.81725581225074 114.88116024355365 l 25.09430548400917 25.20253317078308 a56.56531802120141,56.56531802120141 0 0,0 -0.6958882192693204,0.6810730876101314 l -24.656767312364053 -25.630756361315782" fill="#50ff2b" stroke="none" /><path d="M 114.0293411484842 115.62618273729858 l 2.221147103031217 2.4739615460942135 a24.324752650176677,24.324752650176677 0 0,0 -0.3139719152136255,0.2770437102874023 l -2.178232834911004 -2.5118283981539045" fill="#ff2803" stroke="none" /><path d="M 113.75828350139079 115.86535959552629 l 1.558775843429437 1.7975017946336 a23.379242491166078,23.379242491166078 0 0,0 -0.30630651146650595,0.2610410542496075 l -1.5276038553858837 -1.8240672391061543" fill="#ff1b02" stroke="none" /><path d="M 113.48314897796784 116.09983520530334 l 0.7714397980835095 0.9211537779677429 a22.20151722614841,22.20151722614841 0 0,0 -0.2951003166403634,0.24284747026774892 l -0.755469352898455 -0.9342963670926703" fill="#ff0a01" stroke="none" /><path d="M 113.20401910651253 116.32954008644616 l 2.1714604301379326 2.6854664366987935 a24.45354461130742,24.45354461130742 0 0,0 -0.3295901227967886,0.26184632692598775 l -2.1249128146237926 -2.7224466776299074" fill="#ff2a04" stroke="none" /><path d="M 112.92097659922987 116.55440617244103 l 16.650995449034948 21.333321032035688 a48.06226590106007,48.06226590106007 0 0,0 -0.6565563490724239,0.5034194114697645 l -16.281310371469033 -21.61677978533282" fill="#aaff21" stroke="none" /><path d="M 111.7513745106137 117.40417183066458 l 16.1397654530799 23.90352303029076 a49.84216431095406,49.84216431095406 0 0,0 -0.7151764369738305,0.4739799450471043 l -15.725914317366104 -24.177800996429184" fill="#97ff23" stroke="none" /><path d="M 111.45004920935366 117.60387380957326 l 1.2683559369318937 1.9500333536673495 a23.326232332155477,23.326232332155477 0 0,0 -0.33847273720424015,0.21602931516703786 l -1.234601397680723 -1.971577097658196" fill="#ff1a02" stroke="none" /><line stroke="#e1ed5e" stroke-width="0.3" x1="143.8653032363475" x2="146.44561519142675" y1="172.8068346515853" y2="177.08958963109032" /><path d="M 144.38136562736335 173.6633856474863 a86.0,86.0 0 0,1 -40.68145358897372,12.25698825130547" fill="none" id="id6" stroke="none" /><text fill="#e1ed5e" style="font-size:6.75px; font-family:Arial;" text-anchor="middle"><textPath startOffset="21.466115282336833" xlink:href="#id6">June</textPath></text><path d="M 110.8373102113329 117.98757091392108 l 1.2003374154566429 1.9922982696001976 a23.32595406360424,23.32595406360424 0 0,0 -0.3457041115957004,0.20424808265837918 l -1.1658654328325604 -2.0126649245523263" fill="#ff1a02" stroke="none" /><path d="M 110.5260780823613 118.17145234162733 l 18.60788832026614 32.12329921403998 a58.12357553003534,58.12357553003534 0 0,0 -0.8700579828007347,0.49404162975276705 l -18.052181570544207 -32.43884400958738" fill="#41ff2d" stroke="none" /><path d="M 109.89434966115114 118.52300852407294 l 3.2836435908366677 6.147241638518029 a27.969282243816256,27.969282243816256 0 0,0 -0.4266102644046903,0.22318232749026218 l -3.1773424239054817 -6.202853384953007" fill="#ff5b08" stroke="none" /><path d="M 108.2653958097858 119.30500536409082 l 6.3601928692845595 14.855133412101234 a37.15942579505301,37.15942579505301 0 0,0 -0.5901775738731632,0.24669427374380068 l -6.103543835913935 -14.962412728865008" fill="#ffd313" stroke="none" /><path d="M 106.57524785965236 119.94407469862006 l 0.5381886841308219 1.6324366088344906 a22.7188648409894,22.7188648409894 0 0,0 -0.3724581061198361,0.11924932374024474 l -0.5100092329200455 -1.641458779234442" fill="#ff1101" stroke="none" /><path d="M 106.2309692047433 120.05430185196036 l 4.594816871471287 14.788364613456858 a36.48573763250883,36.48573763250883 0 0,0 -0.6013631843151716,0.1811857943767391 l -4.33957871271587 -14.865265776939323" fill="#ffcb12" stroke="none" /><path d="M 105.53697534728816 120.25689768951611 l 0.6139219242725312 2.2460193208969903 a23.3284121024735,23.3284121024735 0 0,0 -0.3882620468498294,0.10254353543187003 l -0.5751694346112044 -2.256254205632444" fill="#ff1a02" stroke="none" /><path d="M 105.18746579009965 120.34920634021253 l 3.3688626386283445 13.215254565363418 a34.6378953180212,34.6378953180212 0 0,0 -0.5790247321333262,0.14231019155662966 l -3.140884621751807 -13.271286015234077" fill="#ffb310" stroke="none" /><path d="M 104.83641907484287 120.43548508189849 l 0.6692587155289405 2.8278414846766693 a23.90595848056537,23.90595848056537 0 0,0 -0.4012556511357202,0.09132447982224812 l -0.6204829150003582 -2.838942698076602" fill="#ff2203" stroke="none" /><path d="M 101.98527174616119 120.90594882070398 l 0.33832923932039416 3.562783672037199 a24.57881183745583,24.57881183745583 0 0,0 -0.42153327363910365,0.03637166456909423 l -0.27695164793974886 -3.5680795888849564" fill="#ff2c04" stroke="none" /><path d="M 101.26447882468166 120.96189622390904 l 0.619357255056696 10.2673941647794 a31.286057862190813,31.286057862190813 0 0,0 -0.5378400085979594,0.02780018501701968 l -0.44252917804525693 -10.276534156558622" fill="#ff880c" stroke="none" /><path d="M 100.90346689309514 120.98055641714683 l 0.6098720774644186 14.162616943991672 a35.17574204946996,35.17574204946996 0 0,0 -0.6051561770102691,0.02084280232539446 l -0.3659955487794972 -14.17101654474316" fill="#ffba11" stroke="none" /><line stroke="#e1ed5e" stroke-width="0.3" x1="102.19456741930631" x2="102.32365962044197" y1="184.97166512339345" y2="189.96999836594603" /><path d="M 102.22038585953345 185.97133177190398 a86.0,86.0 0 0,1 -42.740103519485714,-10.115201625700543" fill="none" id="id7" stroke="none" /><text fill="#e1ed5e" style="font-size:6.75px; font-family:Arial;" text-anchor="middle"><textPath startOffset="22.20632615414155" xlink:href="#id7">July</textPath></text><path d="M 100.54218724476979 120.99299961872073 l 0.4744485640633635 18.370219182698982 a39.37634496466431,39.37634496466431 0 0,0 -0.6777237302343596,0.011667628628870039 l -0.15816514393633596 -18.375664288607013" fill="#ffef16" stroke="none" /><path d="M 100.18074693466247 120.99922214144158 l 0.1309848446251572 15.217850607438953 a36.21841431095407,36.21841431095407 0 0,0 -0.6234635585752148,0.0 l 0.13098484462514673 -15.217850607438953" fill="#ffc712" stroke="none" /><path d="M 99.09653310690486 120.98055641714683 l -1.7395249400853139 40.395726089600885 a61.43316254416961,61.43316254416961 0 0,0 -1.0561002225494656,-0.05458831829920313 l 2.434613231048268 -40.35979796453948" fill="#31ff41" stroke="none" /><path d="M 96.93821686468263 120.77559828337769 l -5.728455598896952 38.870190032094776 a60.29003533568905,60.29003533568905 0 0,0 -1.025401828746827,-0.1601466771965495 l 6.396693291252296 -38.765825047551125" fill="#30ff34" stroke="none" /><path d="M 95.86986931433489 120.58985236759428 l -1.2312587254105014 6.138167847933854 a27.26043948763251,27.26043948763251 0 0,0 -0.45928458361485214,-0.09624755003685631 l 1.3367347704547403 -6.116064317170456" fill="#ff5107" stroke="none" /><path d="M 94.46302465271185 120.25689768951611 l -0.28774418484328107 1.0527055201678541 a22.09132287985866,22.09132287985866 0 0,0 -0.3659467945352499,-0.10342021947939219 l 0.3058221474831449 -1.0475965073499405" fill="#ff0801" stroke="none" /><path d="M 94.11515582081647 120.15858648285463 l -15.66561636238018 53.66270926345531 a76.90257508833923,76.90257508833923 0 0,0 -1.2675193222886825,-0.3818931741860324 l 16.587010659109108 -53.38510072016356" fill="#44ffe9" stroke="none" /><path d="M 92.40401165467489 119.57807347666478 l -20.316249217070308 52.36356374701778 a77.1666519434629,77.1666519434629 0 0,0 -1.2342215247725132,-0.49112221613631196 l 21.214591817884678 -52.0060946864754" fill="#45ffec" stroke="none" /><path d="M 91.07499286063937 119.00905698771935 l -7.208736939171702 15.353633800679408 a37.96172040636043,37.96172040636043 0 0,0 -0.5891068467309317,-0.28280708639497065 l 7.471956453902876 -15.227272437784874" fill="#ffdd14" stroke="none" /><line stroke="#e1ed5e" stroke-width="0.3" x1="58.666819895761336" x2="56.23545636021788" y1="174.27360380694188" y2="178.64263932499728" /><path d="M 58.180547188652646 175.14741091055294 a86.0,86.0 0 0,1 -31.652253787137756,-30.449443065178592" fill="none" id="id8" stroke="none" /><text fill="#e1ed5e" style="font-size:6.75px; font-family:Arial;" text-anchor="middle"><textPath startOffset="22.20632615414155" xlink:href="#id8">August</textPath></text><path d="M 89.4739219176387 118.17145234162733 l -1.1664233521655478 2.013628075736513 a23.327067137809188,23.327067137809188 0 0,0 -0.3457206079982961,-0.20425782902380532 l 1.200911831192226 -1.993251674418958" fill="#ff1a02" stroke="none" /><path d="M 89.1626897886671 117.98757091392108 l -7.917770433265277 13.14177174697577 a36.34266121908127,36.34266121908127 0 0,0 -0.5330616945376414,-0.3274500308952006 l 8.142811327735227 -13.003533249252193" fill="#ffc912" stroke="none" /><path d="M 88.24862548938628 117.40417183066458 l -5.906415231058991 8.747595057221659 a31.554911660777385,31.554911660777385 0 0,0 -0.44754348545216305,-0.30782449021337244 l 6.056115601134044 -8.644629777643186" fill="#ff8b0c" stroke="none" /><path d="M 87.65650970185807 116.9893568818739 l -37.030470894425804 50.968070645621694 a84.0,84.0 0 0,0 -1.1624601183257428,-0.8599602050409332 l 37.902315983170105 -50.323100491841" fill="#4dd2ff" stroke="none" /><path d="M 85.44109423537348 115.13401014063109 l -32.63825011619861 33.9275228658419 a68.07793727915194,68.07793727915194 0 0,0 -0.8375208732488856,-0.8196904492513012 l 33.21742094182329 -33.36068231366803" fill="#39ff8d" stroke="none" /><path d="M 84.19399662182784 113.82643327865904 l -1.9933785841663458 1.7437245414704592 a23.64842093639576,23.64842093639576 0 0,0 -0.2653775014516609,-0.30869398796828595 l 2.0230985951887854 -1.7091534543406428" fill="#ff1f03" stroke="none" /><path d="M 83.95833913139862 113.55231037782056 l -1.7813045681830344 1.5048811082085205 a23.331890459363958,23.331890459363958 0 0,0 -0.25654413510061774,-0.3090239372155677 l 1.8069447031771886 -1.4739959138791916" fill="#ff1a02" stroke="none" /><path d="M 83.72743513129214 113.27417163493432 l -1.8318135523139951 1.4942824129325811 a23.36398409893993,23.36398409893993 0 0,0 -0.25153230037168417,-0.31382521957290854 l 1.8572637647405403 -1.4625293597814129" fill="#ff1a02" stroke="none" /><path d="M 83.28015986056508 112.70617746262583 l -1.8493738373309592 1.4054244523810782 a23.32280035335689,23.32280035335689 0 0,0 -0.24015680026349126,-0.3217292798163453 l 1.8732919042895355 -1.373382293055425" fill="#ff1a02" stroke="none" /><path d="M 83.06392112726016 112.41649034213515 l -1.8036849193465834 1.3223507371218703 a23.236490724381625,23.236490724381625 0 0,0 -0.23371506644124562,-0.3246097859895194 l 1.8261797781634366 -1.2911073456812128" fill="#ff1902" stroke="none" /><path d="M 82.24976979558568 111.22182372390057 l -12.612581307858804 7.97376498840877 a35.92173365724381,35.92173365724381 0 0,0 -0.32592192695879363,-0.5254899220583412 l 12.747967874485553 -7.755478734985164" fill="#ffc412" stroke="none" /><path d="M 82.05923443525364 110.91462005526583 l -8.981476895354916 5.464059350988644 a31.51298586572438,31.51298586572438 0 0,0 -0.27794322124683174,-0.46584882607390726 l 9.07420099229998 -5.308648431028626" fill="#ff8b0c" stroke="none" /><line stroke="#e1ed5e" stroke-width="0.3" x1="26.63291911575756" x2="22.317208475507996" y1="142.92168965132927" y2="145.44649492493687" /><path d="M 25.769776987707644 143.4266507060508 a86.0,86.0 0 0,1 -11.730757126820373,-40.83630448921669" fill="none" id="id9" stroke="none" /><text fill="#e1ed5e" style="font-size:6.75px; font-family:Arial;" text-anchor="middle"><textPath startOffset="21.46611528233685" xlink:href="#id9">September</textPath></text><path d="M 81.69416730710424 110.29060199501025 l -39.34852482883692 22.119726258695863 a66.13965768551236,66.13965768551236 0 0,0 -0.5493484081502221,-0.9972269298242501 l 39.72344964643866 -21.439128810473793" fill="#37ff78" stroke="none" /><path d="M 81.35079622478065 109.6543875284942 l -2.7593243288970757 1.4284570381161599 a24.10714664310954,24.10714664310954 0 0,0 -0.18760104628926172,-0.3701546620445918 l 2.783504044972604 -1.3807481643688833" fill="#ff2503" stroke="none" /><path d="M 81.18737489456691 109.33194174019688 l -4.174715952338828 2.070854324197709 a25.660117049469964,25.660117049469964 0 0,0 -0.19287456719733145,-0.39737873598624396 l 4.209743776150879 -1.9986866322461803" fill="#ff3b05" stroke="none" /><path d="M 80.87730276802145 108.67885076344099 l -17.97394173858842 8.157487204217588 a40.7384695229682,40.7384695229682 0 0,0 -0.2843136144282873,-0.6410521439336406 l 18.111696437747987 -7.846886723791252" fill="#ffff18" stroke="none" /><path d="M 80.73074385275274 108.34839909993369 l -2.133448803953065 0.9243160160710601 a23.32507287985866,23.32507287985866 0 0,0 -0.1564435061307634,-0.3697862358284933 l 2.149043291276135 -0.887455254576408" fill="#ff1a02" stroke="none" /><path d="M 80.45479744820244 107.68017299344265 l -4.322347300186063 1.698441083697836 a25.64407022968198,25.64407022968198 0 0,0 -0.1579011892954131,-0.4122301790483831 l 4.350942769074986 -1.623787337816295" fill="#ff3b05" stroke="none" /><path d="M 80.20201598880116 107.00284435728193 l -37.8764991195169 13.397486733127305 a61.17613515901059,61.17613515901059 0 0,0 -0.34261306772171346,-0.9957939484213533 l 38.101503018181845 -12.743520081616655" fill="#31ff3e" stroke="none" /><path d="M 80.0844068197444 106.66101706037122 l -3.5801005699939594 1.1974090231074126 a24.77503754416961,24.77503754416961 0 0,0 -0.13178874643081417,-0.4056040552750825 l 3.600181567441023 -1.1356060678545268" fill="#ff2e04" stroke="none" /><path d="M 79.97269907076064 106.31721596034903 l -4.44559196929942 1.4022740578415225 a25.66150839222615,25.66150839222615 0 0,0 -0.12925240785746578,-0.42240434737246885 l 4.469071149663016 -1.3255427379170057" fill="#ff3b05" stroke="none" /><path d="M 79.67330655649465 105.27499134158121 l -9.477096362497228 2.459406464432938 a30.791018109540637,30.791018109540637 0 0,0 -0.12871919101683924,-0.5141691832203167 l 9.518026867809125 -2.2959094418152293" fill="#ff810b" stroke="none" /><path d="M 79.50377843672027 104.57218783832718 l -2.267168182902891 0.5057477916750333 a23.322893109540637,23.322893109540637 0 0,0 -0.0840356727076433,-0.3925866859741234 l 2.275537894334975 -0.46664728628474605" fill="#ff1a02" stroke="none" /><path d="M 79.4281124754447 104.21870165774334 l -2.2770371705900745 0.466954744665279 a23.324423586572436,23.324423586572436 0 0,0 -0.07727055772484717,-0.3940009091137615 l 2.2847376612905883 -0.42769010848356265" fill="#ff1a02" stroke="none" /><path d="M 79.29508885075956 103.50808413554451 l -2.2879201178273965 0.38764794549904924 a23.320527826855123,23.320527826855123 0 0,0 -0.06365198773352554,-0.39636098837723693 l 2.2942538599222124 -0.3482077274285986" fill="#ff1a02" stroke="none" /><path d="M 79.23777060512086 103.15116336523772 l -2.3816037870362714 0.3614651616396808 a23.408878091872793,23.408878091872793 0 0,0 -0.05703511724797221,-0.3989034771921657 l 2.3874729553008427 -0.32041621246711455" fill="#ff1b02" stroke="none" /><path d="M 79.18660465613746 102.79330883721812 l -9.715507243959406 1.3038916425815685 a30.802612632508833,30.802612632508833 0 0,0 -0.06600338474842228,-0.5261119177544431 l 9.736512137954676 -1.1364619705397168" fill="#ff810b" stroke="none" /><path d="M 79.04373962182676 101.35467743843564 l -16.858450638456283 1.0897823521358838 a37.893637367491166,37.893637367491166 0 0,0 -0.03647469949245648,-0.6512802617550435 l 16.87471168883627 -0.7994303740454028" fill="#ffdc14" stroke="none" /><path d="M 79.0235259727143 100.99374915477108 l -18.52748921505418 0.8777298188218332 a39.548268551236745,39.548268551236745 0 0,0 -0.026361495673582994,-0.6802730686622624 l 18.539852843578966 -0.558679503145574" fill="#fff116" stroke="none" /><line stroke="#e1ed5e" stroke-width="0.3" x1="15.007084014347285" x2="10.007500721073583" y1="101.09737516637583" y2="101.16192664675087" /><path d="M 14.007167355692545 101.11028546245083 a86.0,86.0 0 0,1 10.666146001902534,-42.60595125391555" fill="none" id="id10" stroke="none" /><text fill="#e1ed5e" style="font-size:6.75px; font-family:Arial;" text-anchor="middle"><textPath startOffset="22.20632615414155" xlink:href="#id10">October</textPath></text><path d="M 79.03285615573316 98.82574320788736 l -18.720538460229104 -1.0484365253658932 a39.74987411660778,39.74987411660778 0 0,0 0.044140170097536534,-0.6828288945071465 l 18.699717699127152 1.3705244841260515" fill="#fff316" stroke="none" /><path d="M 79.05617556472873 98.46500227214037 l -48.38240838485043 -3.5460040819502963 a69.51217977031803,69.51217977031803 0 0,0 0.09773252326431203,-1.1925843312284092 l 48.31420137776662 4.378302330386484" fill="#3bff9d" stroke="none" /><path d="M 79.16333360222342 97.38593545837743 l -2.324613603688344 -0.2916344619801357 a23.342835689045938,23.342835689045938 0 0,0 0.053448425393567346,-0.3982528510277913 l 2.319249179236943 0.3316056550725864" fill="#ff1a02" stroke="none" /><path d="M 79.21141760316559 97.0276538004421 l -2.3005633288934986 -0.3289339569647682 a23.32395980565371,23.32395980565371 0 0,0 0.06024701719596723,-0.39695256843199067 l 2.294560418258229 0.3684856377888509" fill="#ff1a02" stroke="none" /><path d="M 79.3925641242962 95.95851677861259 l -7.673493685280015 -1.5049080422006782 a28.81967093639576,28.81967093639576 0 0,0 0.09966213309043942,-0.4859879552351337 l 7.64645225627458 1.6367716535992145" fill="#ff6609" stroke="none" /><path d="M 79.54389044137918 95.25157060432595 l -4.521125486282108 -1.0494784015050267 a25.641333922261484,25.641333922261484 0 0,0 0.10350209876988024,-0.4290830200112176 l 4.502390587251413 1.1271466531756411" fill="#ff3b05" stroke="none" /><path d="M 79.62865764111835 94.90015583598534 l -4.504820031790679 -1.127754850138664 a25.643838339222615,25.643838339222615 0 0,0 0.11088355172029805,-0.42727955702576575 l 4.484740148200074 1.2051308327132937" fill="#ff3b05" stroke="none" /><path d="M 79.71946130924805 94.55025226153421 l -2.245460527213247 -0.6033958770323404 a23.32511925795053,23.32511925795053 0 0,0 0.1075323867755696,-0.386851208759491 l 2.2347413698713163 0.641958389210774" fill="#ff1a02" stroke="none" /><path d="M 80.02781315780177 93.51064311812611 l -3.1122295304740817 -1.0112246736487187 a24.272391784452296,24.272391784452296 0 0,0 0.13253038707795708,-0.39624898857702384 l 3.0943618496243523 1.0646467651480647" fill="#ff2703" stroke="none" /><path d="M 80.2630227832202 92.82701384747504 l -5.904311503752007 -2.1457969065597795 a27.282144434628975,27.282144434628975 0 0,0 0.16420656535109335,-0.4399919567729787 l 5.866500349899287 2.2471120003620997" fill="#ff5107" stroke="none" /><path d="M 80.52162464483688 92.15188598940014 l -4.323227130782992 -1.741889597948928 a25.660951855123674,25.660951855123674 0 0,0 0.16860261189830514,-0.40828459815095697 l 4.292602831998487 1.8160487665531961" fill="#ff3b05" stroke="none" /><path d="M 80.65960295795068 91.81776055985345 l -18.60940862557929 -7.872984038691887 a41.206285335689046,41.206285335689046 0 0,0 0.2819869531243727,-0.6508647663931775 l 18.471130962612236 8.192147949671664" fill="#f9ff18" stroke="none" /><path d="M 80.95270993114464 91.15688171328213 l -1.835825603323731 -0.8523219263890046 a23.024032685512367,23.024032685512367 0 0,0 0.1699851244099231,-0.3580320236187785 l 1.8208822850720563 0.8837963656483153" fill="#ff1602" stroke="none" /><path d="M 81.43458229118936 90.18545643968196 l -4.102637503006407 -2.168845060046342 a25.64063825088339,25.64063825088339 0 0,0 0.20963285326408226,-0.38841783938565766 l 4.064696550523853 2.239143882764472" fill="#ff3b05" stroke="none" /><path d="M 81.6062741919709 89.86733742301443 l -2.450695857492463 -1.3500295949800398 a23.797943904593637,23.797943904593637 0 0,0 0.20074399598333997,-0.357101169237354 l 2.4270942202166923 1.3920142741521784" fill="#ff2103" stroke="none" /><line stroke="#e1ed5e" stroke-width="0.3" x1="26.266209847984243" x2="21.928928074336255" y1="57.711370442889674" y2="55.22380399835377" /><path d="M 25.398753493254645 57.213857153982495 a86.0,86.0 0 0,1 29.58750427330803,-30.492523968695096" fill="none" id="id11" stroke="none" /><text fill="#e1ed5e" style="font-size:6.75px; font-family:Arial;" text-anchor="middle"><textPath startOffset="21.46611528233685" xlink:href="#id11">November</textPath></text><path d="M 81.78341655067845 89.55222093294921 l -2.2843145058579437 -1.3101256524451048 a23.633348056537102,23.633348056537102 0 0,0 0.2054304308379236,-0.35114719755455787 l 2.261424400549695 1.3492522623535546" fill="#ff1e03" stroke="none" /><path d="M 82.15384107792192 88.93136811851018 l -21.845345979640676 -13.549027218024474 a46.70593860424029,46.70593860424029 0 0,0 0.42963325856045637,-0.6795766383924309 l 21.60888512483426 13.92305150413112" fill="#b9ff1f" stroke="none" /><path d="M 82.34701348167596 88.62581576622439 l -8.234057784046184 -5.3053736901730195 a30.79523851590106,30.79523851590106 0 0,0 0.2909466160242922,-0.4431316569049762 l 8.141514532663972 5.446323411055662" fill="#ff810b" stroke="none" /><path d="M 82.7489923806493 88.02491185347247 l -2.2297917909402343 -1.5478489044872257 a23.714370583038868,23.714370583038868 0 0,0 0.23566142237973134,-0.3333263694011678 l 2.2028177487566247 1.5860017742201797" fill="#ff1f03" stroke="none" /><path d="M 82.95767976084542 87.72973835380427 l -1.7020866788323485 -1.2254815424600476 a23.09735644876325,23.09735644876325 0 0,0 0.23508422024762093,-0.3206546122247973 l 1.6807398460710943 1.2545985983563455" fill="#ff1702" stroke="none" /><path d="M 83.17141714833178 87.43820079747576 l -9.128242566692206 -6.813832822729632 a32.390923144876325,32.390923144876325 0 0,0 0.3373654385779155,-0.44393337163633445 l 9.009601187890182 6.969950970246993" fill="#ff960d" stroke="none" /><path d="M 83.6137871275137 86.86637796730984 l -0.4096553218121563 -0.3283405508172531 a21.525,21.525 0 0,0 0.23421404562169762,-0.2871187261517157 l 0.40394278411406614 0.33534344657705106" fill="#ff0000" stroke="none" /><path d="M 84.07557802195018 86.31012108654704 l -2.4683205753741744 -2.1219614654167316 a24.255046378091873,24.255046378091873 0 0,0 0.2748999232039344,-0.31425813347880693 l 2.431428788592396 2.1641351550984815" fill="#ff2703" stroke="none" /><path d="M 84.31358615837235 86.03803664274999 l -1.7334734448042495 -1.5429079559851502 a23.32066696113074,23.32066696113074 0 0,0 0.26947181634255557,-0.2975575100595207 l 1.706657987845649 1.5725182533142268" fill="#ff1a02" stroke="none" /><path d="M 84.5562425177563 85.77008943001954 l -1.8641311068728554 -1.7176143158177597 a23.53479461130742,23.53479461130742 0 0,0 0.2770747761251817,-0.29556405269025854 l 1.8342890087772177 1.7494477853860684" fill="#ff1d02" stroke="none" /><path d="M 84.80347519578584 85.50635884689758 l -1.3886294397066372 -1.324401272859465 a22.918939929328623,22.918939929328623 0 0,0 0.2747388675358829,-0.28314255322398874 l 1.3656263084676359 1.3481080216335775" fill="#ff1402" stroke="none" /><path d="M 85.31137513191541 84.99185889309783 l -3.3667379238828605 -3.4399733321109602 a25.813350265017668,25.813350265017668 0 0,0 0.32022906107327076,-0.3080601030353306 l 3.307025619197162 3.497416521908604" fill="#ff3d05" stroke="none" /><path d="M 85.57189188830299 84.74124197986013 l -24.145795803924187 -25.535908971814102 a56.14401943462897,56.14401943462897 0 0,0 0.7079282723027681,-0.6579421762951454 l 23.70265964782656 25.947755734183897" fill="#55ff2b" stroke="none" /><path d="M 85.83668400450813 84.49514656593479 l -4.762727797565314 -5.2138493888792095 a28.061713780918726,28.061713780918726 0 0,0 0.3594425083949451,-0.3227110330345077 l 4.672274301574397 5.295059430682995" fill="#ff5c08" stroke="none" /><path d="M 86.37877921826538 84.01681056812374 l -6.350232381053557 -7.45138550422118 a30.790229681978797,30.790229681978797 0 0,0 0.4063466710313482,-0.3403036510840935 l 6.2210281730630985 7.559590312699086" fill="#ff810b" stroke="none" /><path d="M 86.93701828274178 83.55741782278169 l -6.570293222608161 -8.27013223929016 a31.562378533568904,31.562378533568904 0 0,0 0.42829763637152973,-0.33429309873251445 l 6.4269630310772055 8.382003727245896" fill="#ff8b0c" stroke="none" /><path d="M 87.22198572758235 83.33499621200491 l -2.828095137642685 -3.688383435551493 a25.647826855123675,25.647826855123675 0 0,0 0.3526623167693247,-0.26561794553407786 l 2.7641866671149704 3.7365179705914255" fill="#ff3b05" stroke="none" /><path d="M 87.80319425747018 82.90503203632743 l -2.4267549093551177 -3.401324765422238 a25.178295053003534,25.178295053003534 0 0,0 0.3549766249318629,-0.2486838108264083 l 2.367847144839595 3.4425934190125886" fill="#ff3405" stroke="none" /><path d="M 88.09926311788651 82.69761687909137 l -1.3146792393555622 -1.911401294370517 a23.319878533568904,23.319878533568904 0 0,0 0.33269172074604547,-0.22463493495157408 l 1.2815828242029772 1.9337481416207565" fill="#ff1a02" stroke="none" /><path d="M 89.00827224532344 82.1063720568725 l -1.3001456422542437 -2.1165300773099944 a23.48396422261484,23.48396422261484 0 0,0 0.3462631504242433,-0.20861967376577523 l 1.2635204256123511 2.1385963605343887" fill="#ff1c02" stroke="none" /><line stroke="#e1ed5e" stroke-width="0.3" x1="56.762969772571076" x2="54.21961505331055" y1="26.818313649435495" y2="22.513508569990535" /><path d="M 56.25429882871897 25.957352633546506 a86.0,86.0 0 0,1 42.265352541879196,-11.944610805530505" fill="none" id="id12" stroke="none" /><text fill="#e1ed5e" style="font-size:6.75px; font-family:Arial;" text-anchor="middle"><textPath startOffset="22.20632615414155" xlink:href="#id12">December</textPath></text><path d="M 89.3179101791058 81.91981866633112 l -1.4083467273139179 -2.383724967441175 a23.768679328621907,23.768679328621907 0 0,0 0.3540438361417587,-0.20508504184168638 l 1.367106158706839 2.407614166672909" fill="#ff2003" stroke="none" /><path d="M 90.26544431104013 81.39251694778311 l -1.0072728305981393 -1.9253895835810932 a23.172952738515903,23.172952738515903 0 0,0 0.35503116739136803,-0.18186075342321298 l 0.9739811756180076 1.9424428623168113" fill="#ff1802" stroke="none" /><path d="M 90.58718382345135 81.22770947309562 l -1.5010614630658656 -2.9936165069936216 a24.34886925795053,24.34886925795053 0 0,0 0.376281318571975,-0.18463960885144293 l 1.4493088774834646 3.019011275979894" fill="#ff2803" stroke="none" /><path d="M 90.91171255644093 81.06846463323043 l -2.2388137065302747 -4.663604791112138 a26.17315150176678,26.17315150176678 0 0,0 0.40782978334926023,-0.1914815516828405 l 2.158205711881406 4.701451325434986" fill="#ff4206" stroke="none" /><path d="M 91.90106846888425 80.62456947434976 l -1.7906365579572894 -4.2838186854768034 a25.643003533568905,25.643003533568905 0 0,0 0.4087203292803652,-0.16672728466975728 l 1.7166323590885437 4.3140068563301375" fill="#ff3b05" stroke="none" /><path d="M 94.63758080256005 79.69619591428918 l -1.1849785832081354 -4.486701265486171 a25.640545494699644,25.640545494699644 0 0,0 0.4276978655267224,-0.10902970901298246 l 1.1075718289964136 4.5064339706680165" fill="#ff3b05" stroke="none" /><path d="M 94.98787191387505 79.60689891045804 l -0.7774443819103044 -3.1632275950176227 a24.257365282685512,24.257365282685512 0 0,0 0.40634126300695894,-0.09616784859408027 l 0.7228794319408114 3.176141355752574" fill="#ff2703" stroke="none" /><path d="M 96.04723909329186 79.375362276772 l -0.48560994637447086 -2.5338059789481613 a23.579920494699646,23.579920494699646 0 0,0 0.39929213199624153,-0.07296808491123652 l 0.44192269327533606 2.541789545210134" fill="#ff1e03" stroke="none" /><path d="M 96.40284397218896 79.31037775812273 l -0.9225815455427363 -5.306376347600909 a26.385980565371025,26.385980565371025 0 0,0 0.4481480302407056,-0.0739482648702123 l 0.831104309163145 5.321470875410748" fill="#ff4506" stroke="none" /><path d="M 96.75951476605007 79.25152402106235 l -0.7323797203770607 -4.689348026184945 a25.746194787985868,25.746194787985868 0 0,0 0.43845894724333306,-0.06461745129490322 l 0.6515517927050788 4.701259961640816" fill="#ff3c05" stroke="none" /><path d="M 97.83486435360386 79.11191278185805 l -0.2871339011273012 -2.7701164959412643 a23.784958038869256,23.784958038869256 0 0,0 0.407600416733435,-0.038706570938458855 l 0.23940835730362983 2.774648611394904" fill="#ff2003" stroke="none" /><path d="M 98.55514903715128 79.0497635885617 l -0.29570942674274764 -4.287765699471755 a25.297950530035337,25.297950530035337 0 0,0 0.43468860180069163,-0.026221603543695893 l 0.221858776102433 4.292220572395757" fill="#ff3605" stroke="none" /></svg>