<?xml version="1.0" encoding="utf-8" ?>
<svg baseProfile="full" height="200mm" version="1.1" viewBox="0,0,200,200" width="200mm" xmlns="http://www.w3.org/2000/svg" xmlns:ev="http://www.w3.org/2001/xml-events" xmlns:xlink="http://www.w3.org/1999/xlink"><defs /><rect fill="#1a1a1a" height="200" width="200" x="0" y="0" /><rect fill="#1a1a1a" height="200" width="180" x="10" y="0" /><text alignment-baseline="middle" fill="#e1ed5e" style="dominant-baseline: central; font-size:9.0px; font-family:Arial;" text-anchor="middle" x="100.0" y="100.0">2026</text><line stroke="#e1ed5e" stroke-width="0.3" x1="100.0" x2="100.0" y1="15.0" y2="10.0" /><path d="M 100.0 14.0 a86.0,86.0 0 0,1 42.46469731375804,11.215312516191453" fill="none" id="id37" stroke="none" /><text fill="#e1ed5e" style="font-size:6.75px; font-family:Arial;" text-anchor="middle"><textPath startOffset="22.20632615414155" xlink:href="#id37">January</textPath></text><path d="M 100.36148047927253 79.00311137660856 l 0.2554606824498958 -14.838642207874464 a35.84084103862013,35.84084103862013 0 0,0 0.616758348741525,0.015929048533623254 l -0.5108456663862886 14.832046367198481" fill="#ffa20e" stroke="none" /><path d="M 100.72285384407766 79.0124445844662 l 0.6050728455690535 -17.56786656231838 a38.57828344008223,38.57828344008223 0 0,0 0.6634714635746921,0.0285704768708232 l -0.9073851415330771 17.554848358923362" fill="#ffc712" stroke="none" /><path d="M 101.08401301168833 79.027996857942 l 0.5633646787618724 -10.899210328404664 a31.91376037596938,31.91376037596938 0 0,0 0.548366471804208,0.03307896310310719 l -0.7508931994056923 10.887898095921251" fill="#ff6b09" stroke="none" /><path d="M 101.80526077348638 79.07773832637324 l 1.2751657122231896 -14.778668600241184 a35.833579918191845,35.833579918191845 0 0,0 0.6140764294743271,0.05831395627505005 l -1.5293672687877609 14.754529099450956" fill="#ffa20e" stroke="none" /><path d="M 102.16513564639614 79.11191278185805 l 1.5298867290043303 -14.75954057775169 a35.83861824665229,35.83861824665229 0 0,0 0.6130678559238767,0.06888531687891654 l -1.7837212884379323 14.731019307402171" fill="#ffa20e" stroke="none" /><path d="M 102.52436894288641 79.15227682838746 l 1.3937198514872151 -11.510158102865665 a32.59423109039119,32.59423109039119 0 0,0 0.5564072276912805,0.07223762714868738 l -1.5916418076863417 11.484462152552842" fill="#ff750a" stroke="none" /><path d="M 103.2404852339499 79.25152402106235 l 4.128076092061055 -26.431624109255146 a47.75204226362548,47.75204226362548 0 0,0 0.8110361344122516,0.1338279114037783 l -4.582441432612182 26.356649934911744" fill="#c3ff1e" stroke="none" /><path d="M 103.59715602781102 79.31037775812273 l 3.082467956861051 -17.72931090758255 a38.995279213249255,38.995279213249255 0 0,0 0.6603291210564795,0.12067092615555021 l -3.3871921990204314 17.67362450007626" fill="#ffcc13" stroke="none" /><path d="M 104.307194497241 79.44645832069477 l 2.6050086900395097 -12.430865316153259 a33.70088511811375,33.70088511811375 0 0,0 0.5667482277108554,0.12386921111143501 l -2.818599641903893 12.384182606945952" fill="#ff840c" stroke="none" /><path d="M 104.66035177308747 79.52364482259891 l 3.0445901066061256 -13.377125038603456 a34.71922021164743,34.71922021164743 0 0,0 0.5815904417899794,0.13764366713814402 l -3.2744042353586287 13.322735459324443" fill="#ff920d" stroke="none" /><path d="M 105.01212808612495 79.60689891045804 l 2.942263405444792 -11.971337130309678 a33.327604253647614,33.327604253647614 0 0,0 0.5559220729274242,0.14171691451049653 l -3.147894367057241 11.918917219630314" fill="#ff7f0b" stroke="none" /><path d="M 105.71112130821622 79.79150937346287 l 4.6345491291938306 -16.399098807584558 a38.04140508678297,38.04140508678297 0 0,0 0.6286066522218796,0.18350751931293566 l -4.916145999139138 16.31689295935292" fill="#ffc011" stroke="none" /><path d="M 106.0581310904928 79.89281104454417 l 6.4390397823855094 -21.37144074008326 a43.320387824274775,43.320387824274775 0 0,0 0.7121348350849598,0.2212637597556481 l -6.805959990181188 21.25743684544509" fill="#faff18" stroke="none" /><path d="M 107.08798089147638 80.2323363322302 l 4.218517425958391 -11.765019535147447 a33.49846286290901,33.49846286290901 0 0,0 0.5411081267880816,0.19929468969538286 l -4.4204078785190495 11.69066157764574" fill="#ff810b" stroke="none" /><path d="M 107.4271985657038 80.35727306442388 l 4.79466694756455 -12.68046528780507 a34.55666002573264,34.55666002573264 0 0,0 0.5545798185740447,0.21516835369230605 l -5.012229931138261 12.596054230222219" fill="#ff900d" stroke="none" /><path d="M 107.76421540070413 80.48803036053334 l 4.07617610343618 -10.243691122757014 a32.024899974361446,32.024899974361446 0 0,0 0.5104405045827244,0.20822149821708694 l -4.2519004776072915 10.172008738356348" fill="#ff6c0a" stroke="none" /><path d="M 108.09893153111575 80.62456947434976 l 4.000497767880084 -9.570566965751478 a31.3730291832592,31.3730291832592 0 0,0 0.49646510309121294,0.21256044768720275 l -4.164646628761612 9.500286990101484" fill="#ff6309" stroke="none" /><path d="M 108.43124777332544 80.76684994638697 l 10.709388805860486 -24.429987995045973 a47.67424454475103,47.67424454475103 0 0,0 0.7487532542593546,0.33594375955268196 l -11.128324178586622 24.242023904976758" fill="#c4ff1e" stroke="none" /><path d="M 109.08828744355905 81.06846463323043 l 5.833258490415494 -12.151083479767602 a34.478714120727005,34.478714120727005 0 0,0 0.5328254004147176,0.26145510994819426 l -6.0415551578406435 12.048873209684576" fill="#ff8f0d" stroke="none" /><path d="M 109.41281617654863 81.2277094730956 l 4.919565341373218 -9.811251821153697 a31.975553992675373,31.975553992675373 0 0,0 0.48989519765156164,0.25094334786983896 l -5.0877210266135355 9.725115947971357" fill="#ff6c09" stroke="none" /><path d="M 110.05341064243156 81.56283822128135 l 6.4244108262996935 -11.781862489284606 a34.41958785438243,34.41958785438243 0 0,0 0.5177294603461031,0.2881158841488131 l -6.626264375717831 11.669531207575613" fill="#ff8e0d" stroke="none" /><path d="M 110.36928655335952 81.73862282372117 l 5.1219481917893095 -9.020276113144941 a31.3730291832592,31.3730291832592 0 0,0 0.46731362099924234,0.27069821228986746 l -5.27645854525388 8.930773743465025" fill="#ff6309" stroke="none" /><line stroke="#e1ed5e" stroke-width="0.3" x1="143.23703022742887" x2="145.7803849466894" y1="26.81831364943548" y2="22.513508569990506" /><path d="M 143.74570117128098 25.957352633546492 a86.0,86.0 0 0,1 28.547481713284135,27.462654790039103" fill="none" id="id38" stroke="none" /><text fill="#e1ed5e" style="font-size:6.75px; font-family:Arial;" text-anchor="middle"><textPath startOffset="19.985693538727396" xlink:href="#id38">February</textPath></text><path d="M 110.68208982089419 81.91981866633111 l 14.326112596218817 -24.247943790881898 a49.16381153546706,49.16381153546706 0 0,0 0.7249038581289285,0.4367464635180503 l -14.741378520565382 23.997750717905234" fill="#b2ff20" stroke="none" /><path d="M 111.2981086023043 82.29822771554956 l 8.832403317592632 -13.83852800109935 a37.41694872995077,37.41694872995077 0 0,0 0.5399318695101945,0.3511867071114799 l -9.069302212887107 13.684442369828341" fill="#ffb711" stroke="none" /><path d="M 111.60114157652 82.49532879139004 l 9.291642804750714 -14.019926505697983 a37.81942226226123,37.81942226226123 0 0,0 0.5395486366681042,0.3643056479715203 l -9.53159613582536 13.857908945427791" fill="#ffbd11" stroke="none" /><path d="M 112.19680574252982 82.90503203632743 l 10.462507472667792 -14.664186168127252 a39.01395066577912,39.01395066577912 0 0,0 0.5433244095118728,0.3947482900137736 l -10.713377198533454 14.481918643296803" fill="#ffcc13" stroke="none" /><path d="M 112.48926042617603 83.11751280151076 l 6.508859381536226 -8.798418115715188 a31.944286718994405,31.944286718994405 0 0,0 0.4392397931216495,0.33082630578333183 l -6.659345328416258 8.68507522042601" fill="#ff6b09" stroke="none" /><path d="M 112.77801427241765 83.33499621200491 l 20.45069576741055 -26.6716655002256 a54.60965185667814,54.60965185667814 0 0,0 0.7410463311062211,0.5783984157105383 l -20.9067746536762 26.31568869529184" fill="#74ff27" stroke="none" /><path d="M 113.34407831869373 83.78471172551755 l 10.653423289440607 -12.945692135691477 a37.76563069663947,37.76563069663947 0 0,0 0.49840285283614416,0.4173980559515461 l -10.874683679235869 12.76039292234611" fill="#ffbc11" stroke="none" /><path d="M 113.6212207817346 84.01681056812373 l 6.244491948743727 -7.327309300825177 a30.627208384982865,30.627208384982865 0 0,0 0.3983085971465068,0.3454092904473579 l -6.369694344536998 7.218735016958148" fill="#ff5808" stroke="none" /><path d="M 114.42810811169701 84.74124197986012 l 7.309366767705751 -7.730179031473576 a31.63872691648183,31.63872691648183 0 0,0 0.39249611964353914,0.37758095612281667 l -7.441346130961708 7.603214988588458" fill="#ff6709" stroke="none" /><path d="M 114.68862486808459 84.99185889309783 l 16.946571528143092 -17.31520404780738 a45.228136077207324,45.228136077207324 0 0,0 0.5517061565781555,0.5493369550101697 l -17.24211348488857 17.02093124214709" fill="#e2ff1b" stroke="none" /><path d="M 114.94478906791727 85.2469230424477 l 10.859606100502058 -10.720298814611427 a36.25961504536142,36.25961504536142 0 0,0 0.4346590900612325,0.44795439992078656 l -11.0425294542664 10.531780219140526" fill="#ffa70f" stroke="none" /><path d="M 115.4437574822437 85.77008943001954 l 11.343909768282945 -10.452302278262815 a36.4251389539,36.4251389539 0 0,0 0.42089483850516185,0.464762593143661 l -11.522148247404143 10.255486897849604" fill="#ffaa0f" stroke="none" /><path d="M 115.68641384162765 86.03803664274999 l 11.263131532553713 -10.024944600663739 a36.078383406916764,36.078383406916764 0 0,0 0.40890232380019725,0.46744604201751166 l -11.434025719931757 9.829583002443279" fill="#ffa50f" stroke="none" /><path d="M 115.9244219780498 86.31012108654704 l 25.88665760296954 -22.254196010828736 a55.137490855974846,55.137490855974846 0 0,0 0.6125234007452408,0.7250345066564012 l -26.265891617201895 21.80530255454323" fill="#6fff28" stroke="none" /><path d="M 116.38621287248628 86.86637796730983 l 19.23546617994352 -15.417311150287833 a45.65150385401549,45.65150385401549 0 0,0 0.4861796453190232,0.6173987772391705 l -19.497999905856503 15.083919979095624" fill="#ddff1b" stroke="none" /><path d="M 116.82858285166822 87.43820079747576 l 16.510845831361205 -12.324622448932704 a41.60350330831419,41.60350330831419 0 0,0 0.42343924320951315,0.5775706518671831 l -16.720547687084345 12.038589353394027" fill="#ffee16" stroke="none" /><line stroke="#e1ed5e" stroke-width="0.3" x1="172.23445277983987" x2="176.4835382374775" y1="55.19839476539836" y2="52.563006222186495" /><path d="M 173.08426987136738 54.67131705675599 a86.0,86.0 0 0,1 12.851231095245387,41.99856678651699" fill="none" id="id39" stroke="none" /><text fill="#e1ed5e" style="font-size:6.75px; font-family:Arial;" text-anchor="middle"><textPath startOffset="22.20632615414155" xlink:href="#id39">March</textPath></text><path d="M 117.84615892207809 88.93136811851018 l 8.156809663388206 -5.059056342915821 a30.598312089400928,30.598312089400928 0 0,0 0.27375902098600363,0.44998785041306516 l -8.242684482660433 4.917900719295675" fill="#ff5808" stroke="none" /><path d="M 118.21658344932153 89.55222093294921 l 9.192253034600165 -5.272043964836153 a31.596790241355222,31.596790241355222 0 0,0 0.26652999766389995,0.47412712562773396 l -9.281640673556499 5.113033329273626" fill="#ff6609" stroke="none" /><path d="M 118.56541770881063 90.18545643968196 l 10.480523520701489 -5.54049234130872 a32.85489049515337,32.85489049515337 0 0,0 0.2600082321358021,0.5022531455282646 l -10.574341185997406 5.359266473520111" fill="#ff780b" stroke="none" /><path d="M 118.73160827565052 90.50648371742162 l 12.143573417999423 -6.1545816181904955 a34.61415624463413,34.61415624463413 0 0,0 0.2647817909888921,0.5337839334297124 l -12.247715221941723 5.9446380962618335" fill="#ff910d" stroke="none" /><path d="M 118.89224826269711 90.83032412892265 l 9.699574017307079 -4.707854173282595 a31.781726533079613,31.781726533079613 0 0,0 0.2346426802150497,0.4942173258769249 l -9.779174891363885 4.540194431765129" fill="#ff6909" stroke="none" /><path d="M 119.04729006885535 91.15688171328212 l 21.507114959751398 -9.985145441035998 a44.712003782274586,44.712003782274586 0 0,0 0.3180890366189471,0.7008670278902495 l -21.67580631333369 9.613456404303687" fill="#e8ff1a" stroke="none" /><path d="M 119.34039704204932 91.81776055985345 l 17.541426815635404 -7.4211586254036845 a40.046659814038165,40.046659814038165 0 0,0 0.2631224079515854,0.6371717815369499 l -17.666570910473187 7.1181122734134314" fill="#ffda14" stroke="none" /><path d="M 119.61058180528143 92.48833698450437 l 13.843846260761675 -5.302765057238885 a35.82468875032048,35.82468875032048 0 0,0 0.215622679828474,0.5777615810885275 l -13.933073529091773 5.063680339121023" fill="#ffa20e" stroke="none" /><path d="M 119.7369772167798 92.82701384747503 l 14.67498417262264 -5.333312041787906 a36.6140762711665,36.6140762711665 0 0,0 0.21017686159446564,0.5941982904481197 l -14.764614115026914 5.079916124913171" fill="#ffac0f" stroke="none" /><path d="M 119.97218684219823 93.5106431181261 l 28.48658338320587 -9.255852019584609 a50.952566325054505,50.952566325054505 0 0,0 0.26384819884697336,0.8364708933671133 l -28.641687065821046 8.764130959791077" fill="#9eff22" stroke="none" /><path d="M 120.28053869075195 94.5502522615342 l 11.457900200660701 -3.078945123612111 a32.86437440754949,32.86437440754949 0 0,0 0.14210503557110674,0.5475886703477356 l -11.50920156810211 2.8812600277155247" fill="#ff780b" stroke="none" /><path d="M 120.37134235888165 94.90015583598534 l 12.48727670136259 -3.126115308847825 a33.87263284416229,33.87263284416229 0 0,0 0.13672801114252536,0.5668258773341563 l -12.539237512765936 2.910704199854263" fill="#ff870c" stroke="none" /><path d="M 120.45610955862082 95.25157060432595 l 29.44111000444615 -6.834096766336001 a51.22389513126234,51.22389513126234 0 0,0 0.19198133649758783,0.8606146877615558 l -29.554385727945775 6.326303909024481" fill="#9aff22" stroke="none" /><path d="M 120.53481517161879 95.60439243477599 l 20.852781889189593 -4.463670359924763 a42.325169767206646,42.325169767206646 0 0,0 0.1463658870958016,0.7137320462659168 l -20.92652707220039 4.104062657495435" fill="#fff817" stroke="none" /><path d="M 120.6074358757038 95.95851677861258 l 14.883619388038573 -2.9189414147925956 a36.16714689949923,36.16714689949923 0 0,0 0.11455388544123658,0.6119514366201895 l -14.931658997389668 2.6623119007098435" fill="#ffa60f" stroke="none" /><path d="M 120.73433829027371 96.67025291283417 l 9.175632723246656 -1.473523577430293 a30.29319684528192,30.29319684528192 0 0,0 0.07824892370189224,0.5155626400469112 l -9.199637540387847 1.3153618249912997" fill="#ff5407" stroke="none" /><path d="M 120.83666639777658 97.38593545837742 l 10.48084697194326 -1.3148749378860696 a31.563003803444033,31.563003803444033 0 0,0 0.06299020702612952,0.5396616263287176 l -10.50192753197298 1.1342695732324992" fill="#ff6609" stroke="none" /><path d="M 120.91429891909075 98.10471618934814 l 6.702998835253597 -0.6074353830564239 a27.730465892492138,27.730465892492138 0 0,0 0.03898839616198693,0.4757571871623603 l -6.7124617152350785 0.4919642786862948" fill="#ff2e04" stroke="none" /><path d="M 120.94382443527127 98.46500227214037 l 31.404282948885875 -2.30165713624005 a52.48851557483282,52.48851557483282 0 0,0 0.05828576963145871,0.9016550583063964 l -31.43924930952175 1.7607430136806184" fill="#8cff24" stroke="none" /><line stroke="#e1ed5e" stroke-width="0.3" x1="184.98032266829074" x2="189.97916517819016" y1="98.17113171792111" y2="98.06355123074" /><path d="M 185.9800911702706 98.14961562048488 a86.0,86.0 0 0,1 -9.607161424134198,41.387399972396054" fill="none" id="id40" stroke="none" /><text fill="#e1ed5e" style="font-size:6.75px; font-family:Arial;" text-anchor="middle"><textPath startOffset="21.466115282336823" xlink:href="#id40">April</textPath></text><path d="M 120.99513854157772 99.54816195383933 l 7.421221287700156 -0.15971269349425357 a28.422939683540285,28.422939683540285 0 0,0 0.006316650342699176,0.48923153023496374 l -7.422870945160571 0.031944905198827075" fill="#ff3805" stroke="none" /><path d="M 120.99980553446 99.90962569577887 l 17.339543198635983 -0.07462207921485171 a38.33970376886727,38.33970376886727 0 0,0 -0.0028402467177561118,0.6599733105201897 l -17.338258654628724 -0.22386070950902273" fill="#ffc412" stroke="none" /><path d="M 120.9904718944345 100.63252640178507 l 14.823294782996621 0.4466848272322206 a35.8300234510433,35.8300234510433 0 0,0 -0.023883043247903725,0.616315224311361 l -14.813409606897514 -0.7017772985575877" fill="#ffa20e" stroke="none" /><path d="M 120.9764740272857 100.99374915477107 l 20.727553524516846 0.9819566800725054 a41.750800322716465,41.750800322716465 0 0,0 -0.040187429899439006,0.7175735572428813 l -20.707579743729877 -1.33860195365081" fill="#fff016" stroke="none" /><path d="M 120.92983693683757 101.71520430193887 l 11.82384822086796 0.9689667146049574 a32.863485290762355,32.863485290762355 0 0,0 -0.051056403588262765,0.5634031591349876 l -11.805417221002623 -1.1723512622885155" fill="#ff780b" stroke="none" /><path d="M 120.8583938346157 102.4346265915055 l 5.921034201680763 0.6911130085530467 a26.961231685487874,26.961231685487874 0 0,0 -0.057772130223476735,0.4605007203870779 l -5.9082605622104385 -0.7929314832275195" fill="#ff2303" stroke="none" /><path d="M 120.76222939487914 103.15116336523771 l 7.328199012345032 1.1122289336889974 a28.412122095963454,28.412122095963454 0 0,0 -0.07754919016254752,0.48289888116866614 l -7.3079680678211965 -1.2382070445508684" fill="#ff3805" stroke="none" /><path d="M 120.70491114924044 103.5080841355445 l 62.114733447721314 10.524252406633499 a84.0,84.0 0 0,0 -0.25381423064324515,1.4235249970671267 l -61.924372774738885 -11.591896154433844" fill="#4dd2ff" stroke="none" /><path d="M 119.79798401119884 107.00284435728193 l 14.762115932206124 5.221582167099216 a36.65838392439215,36.65838392439215 0 0,0 -0.21554385930563985,0.5930841284051076 l -14.670047811895257 -5.4749140925104545" fill="#ffad10" stroke="none" /><path d="M 119.41010516605496 108.01547362559984 l 5.286791788873964 2.1831999252567593 a26.719836477780312,26.719836477780312 0 0,0 -0.1792125119332052,0.42360543968988373 l -5.24842829574845 -2.2738798906128066" fill="#ff1f03" stroke="none" /><path d="M 119.26925614724726 108.34839909993367 l 9.522200926222544 4.125490524096864 a31.377474767194883,31.377474767194883 0 0,0 -0.21898326979771132,0.49374946349896504 l -9.44977657169356 -4.288788324088517" fill="#ff6309" stroke="none" /><path d="M 118.97047184881838 109.00673069616215 l 9.56691576408417 4.542145001276898 a31.590418237714076,31.590418237714076 0 0,0 -0.2374497448096335,0.4892168045990761 l -9.487312762659823 -4.70615076184125" fill="#ff6609" stroke="none" /><path d="M 118.64920377521936 109.65438752849418 l 3.2624405370792022 1.6889120636605217 a24.67368237831684,24.67368237831684 0 0,0 -0.19850270241296597,0.37549230526875715 l -3.2328853264413433 -1.7448193840154131" fill="#ff0000" stroke="none" /><line stroke="#e1ed5e" stroke-width="0.3" x1="174.80103733775053" x2="179.2010983576182" y1="140.37084112569926" y2="142.7455964860345" /><path d="M 175.68104954172406 140.8457921977663 a86.0,86.0 0 0,1 -30.038265399797805,32.042727171017184" fill="none" id="id41" stroke="none" /><text fill="#e1ed5e" style="font-size:6.75px; font-family:Arial;" text-anchor="middle"><textPath startOffset="22.206326154141568" xlink:href="#id41">May</textPath></text><line stroke="#e1ed5e" stroke-width="0.3" x1="143.8653032363475" x2="146.44561519142675" y1="172.8068346515853" y2="177.08958963109032" /><path d="M 144.38136562736335 173.6633856474863 a86.0,86.0 0 0,1 -40.68145358897372,12.25698825130547" fill="none" id="id42" stroke="none" /><text fill="#e1ed5e" style="font-size:6.75px; font-family:Arial;" text-anchor="middle"><textPath startOffset="21.466115282336833" xlink:href="#id42">June</textPath></text><line stroke="#e1ed5e" stroke-width="0.3" x1="102.19456741930631" x2="102.32365962044197" y1="184.97166512339345" y2="189.96999836594603" /><path d="M 102.22038585953345 185.97133177190398 a86.0,86.0 0 0,1 -42.740103519485714,-10.115201625700543" fill="none" id="id43" stroke="none" /><text fill="#e1ed5e" style="font-size:6.75px; font-family:Arial;" text-anchor="middle"><textPath startOffset="22.20632615414155" xlink:href="#id43">July</textPath></text><line stroke="#e1ed5e" stroke-width="0.3" x1="58.666819895761336" x2="56.23545636021788" y1="174.27360380694188" y2="178.64263932499728" /><path d="M 58.180547188652646 175.14741091055294 a86.0,86.0 0 0,1 -31.652253787137756,-30.449443065178592" fill="none" id="id44" stroke="none" /><text fill="#e1ed5e" style="font-size:6.75px; font-family:Arial;" text-anchor="middle"><textPath startOffset="22.20632615414155" xlink:href="#id44">August</textPath></text><line stroke="#e1ed5e" stroke-width="0.3" x1="26.63291911575756" x2="22.317208475507996" y1="142.92168965132927" y2="145.44649492493687" /><path d="M 25.769776987707644 143.4266507060508 a86.0,86.0 0 0,1 -11.730757126820373,-40.83630448921669" fill="none" id="id45" stroke="none" /><text fill="#e1ed5e" style="font-size:6.75px; font-family:Arial;" text-anchor="middle"><textPath startOffset="21.46611528233685" xlink:href="#id45">September</textPath></text><line stroke="#e1ed5e" stroke-width="0.3" x1="15.007084014347285" x2="10.007500721073583" y1="101.09737516637583" y2="101.16192664675087" /><path d="M 14.007167355692545 101.11028546245083 a86.0,86.0 0 0,1 10.666146001902534,-42.60595125391555" fill="none" id="id46" stroke="none" /><text fill="#e1ed5e" style="font-size:6.75px; font-family:Arial;" text-anchor="middle"><textPath startOffset="22.20632615414155" xlink:href="#id46">October</textPath></text><line stroke="#e1ed5e" stroke-width="0.3" x1="26.266209847984243" x2="21.928928074336255" y1="57.711370442889674" y2="55.22380399835377" /><path d="M 25.398753493254645 57.213857153982495 a86.0,86.0 0 0,1 29.58750427330803,-30.492523968695096" fill="none" id="id47" stroke="none" /><text fill="#e1ed5e" style="font-size:6.75px; font-family:Arial;" text-anchor="middle"><textPath startOffset="21.46611528233685" xlink:href="#id47">November</textPath></text><line stroke="#e1ed5e" stroke-width="0.3" x1="56.762969772571076" x2="54.21961505331055" y1="26.818313649435495" y2="22.513508569990535" /><path d="M 56.25429882871897 25.957352633546506 a86.0,86.0 0 0,1 42.265352541879196,-11.944610805530505" fill="none" id="id48" stroke="none" /><text fill="#e1ed5e" style="font-size:6.75px; font-family:Arial;" text-anchor="middle"><textPath startOffset="22.20632615414155" xlink:href="#id48">December</textPath></text></svg>