<?xml version="1.0" encoding="utf-8" ?>
<svg baseProfile="full" height="200mm" version="1.1" viewBox="0,0,200,200" width="200mm" xmlns="http://www.w3.org/2000/svg" xmlns:ev="http://www.w3.org/2001/xml-events" xmlns:xlink="http://www.w3.org/1999/xlink"><defs /><rect fill="#1a1a1a" height="200" width="200" x="0" y="0" /><rect fill="#1a1a1a" height="200" width="180" x="10" y="0" /><text alignment-baseline="middle" fill="#e1ed5e" style="dominant-baseline: central; font-size:9.0px; font-family:Arial;" text-anchor="middle" x="100.0" y="100.0">2026</text><line stroke="#e1ed5e" stroke-width="0.3" x1="100.0" x2="100.0" y1="15.0" y2="10.0" /><path d="M 100.0 14.0 a86.0,86.0 0 0,1 42.46469731375804,11.215312516191453" fill="none" id="id49" stroke="none" /><text fill="#e1ed5e" style="font-size:6.75px; font-family:Arial;" text-anchor="middle"><textPath startOffset="22.20632615414155" xlink:href="#id49">January</textPath></text><path d="M 100.36148047927253 79.00311137660856 l 0.5109621773902479 -29.67965504256197 a50.684053055339284,50.684053055339284 0 0,0 0.8721841330747523,0.022525942963483495 l -1.0217729456598679 29.666462307456126" fill="#a1ff22" stroke="none" /><path d="M 100.72285384407766 79.0124445844662 l 1.2101431407353793 -35.135659075478664 a56.15649278709887,56.15649278709887 0 0,0 0.965782485282054,0.041588625393668845 l -1.8147664584067649 35.1096227235608" fill="#63ff29" stroke="none" /><path d="M 101.08401301168833 79.027996857942 l 1.126730122455623 -21.798435455666517 a42.82753557055189,42.82753557055189 0 0,0 0.7358952470726946,0.04439121094617371 l -1.5017874183679294 21.77581097534004" fill="#fffe18" stroke="none" /><path d="M 101.80526077348638 79.07773832637324 l 2.550642250945398 -29.560939557240502 a50.67077557798471,50.67077557798471 0 0,0 0.8683399486364765,0.08245934116053492 l -3.0591073266721187 29.51265467156479" fill="#a1ff22" stroke="none" /><path d="M 102.16513564639614 79.11191278185805 l 3.059970547326124 -29.520982569329245 a50.67914809439692,50.67914809439692 0 0,0 0.8669351158699539,0.09741026151202614 l -3.567672366705803 29.463936354346618" fill="#a1ff22" stroke="none" /><path d="M 102.52436894288641 79.15227682838746 l 2.7877888410106144 -23.02319959294284 a44.19136662895369,44.19136662895369 0 0,0 0.7543787649328463,0.09794001450380553 l -3.1836823344513068 22.971801255274897" fill="#efff19" stroke="none" /><path d="M 103.2404852339499 79.25152402106235 l 8.256143037551253 -52.86318965400775 a74.50402525279848,74.50402525279848 0 0,0 1.2654004682269013,0.20880191962703648 l -9.16487271191703 52.71324147144109" fill="#41ffcc" stroke="none" /><path d="M 103.59715602781102 79.31037775812273 l 6.165136441541953 -35.45977518321742 a56.991729096934904,56.991729096934904 0 0,0 0.9650731868405628,0.17636095630254398 l -6.774604749485416 35.34839874556414" fill="#5bff2a" stroke="none" /><path d="M 104.307194497241 79.44645832069477 l 5.210014340714789 -24.861716128735935 a46.401755417614396,46.401755417614396 0 0,0 0.7803389303704275,0.1705518658522211 l -5.637195995238744 24.768350764787844" fill="#d4ff1c" stroke="none" /><path d="M 104.66035177308747 79.52364482259891 l 6.089173636074164 -26.754221178998776 a48.43841078606863,48.43841078606863 0 0,0 0.8114040740818074,0.19203312892095492 l -6.548801397118495 26.645442137936953" fill="#bbff1f" stroke="none" /><path d="M 105.01212808612495 79.60689891045804 l 5.88553126191392 -23.94676112171445 a45.659416993421004,45.659416993421004 0 0,0 0.7616232343152046,0.19415472067565598 l -6.29686338491415 23.841903404869925" fill="#ddff1b" stroke="none" /><path d="M 105.71112130821622 79.79150937346287 l 9.269098258387661 -32.798197615169116 a55.082810173565946,55.082810173565946 0 0,0 0.9102035221671863,0.2657133675445748 l -9.832291998278276 32.63378591870584" fill="#6fff27" stroke="none" /><path d="M 106.0581310904928 79.89281104454417 l 12.87860965355701 -42.744640866885604 a65.64261315657629,65.64261315657629 0 0,0 1.0790852492924756,0.33527703967301203 l -13.612480275560205 42.51662369233007" fill="#35ff67" stroke="none" /><path d="M 107.08798089147638 80.2323363322302 l 8.437495001073426 -23.53132237987273 a45.99828903822496,45.99828903822496 0 0,0 0.7430206012374982,0.2736607580445706 l -8.8412979280835 23.382598354021834" fill="#d9ff1c" stroke="none" /><path d="M 107.4271985657038 80.35727306442388 l 9.590308719199152 -25.363508694782382 a48.1160763135054,48.1160763135054 0 0,0 0.7721870358005752,0.2995965732452416 l -10.025478919999394 25.194669417646594" fill="#bfff1e" stroke="none" /><path d="M 107.76421540070413 80.48803036053334 l 8.153195942836458 -20.48950260792872 a43.05208201514321,43.05208201514321 0 0,0 0.6862012522986721,0.27991872029997705 l -8.504681064723519 20.346123001445164" fill="#fdff18" stroke="none" /><path d="M 108.09893153111575 80.62456947434976 l 8.000995535760168 -19.141133931502957 a41.7460583665184,41.7460583665184 0 0,0 0.6606139639727412,0.28284042333719633 l -8.329293257523224 19.00057398020297" fill="#fff016" stroke="none" /><path d="M 108.43124777332544 80.76684994638697 l 21.419812823882985 -48.86233749000092 a74.35106752818477,74.35106752818477 0 0,0 1.1677291229466318,0.5239260189792309 l -22.257724065296397 48.486391140505155" fill="#40ffca" stroke="none" /><path d="M 109.08828744355905 81.06846463323043 l 11.66791504405897 -24.30507922255614 a47.960658699113935,47.960658699113935 0 0,0 0.7411719905223122,0.36368987687468457 l -12.084558301591715 24.100634185546625" fill="#c1ff1e" stroke="none" /><path d="M 109.41281617654863 81.2277094730956 l 9.839104114197617 -19.62245065577202 a42.95104871089826,42.95104871089826 0 0,0 0.6580499747521912,0.33707875586775815 l -10.175414576538564 19.450179374591762" fill="#ffff18" stroke="none" /><path d="M 110.05341064243156 81.56283822128135 l 12.851460684421053 -23.56856475467762 a47.8446882328451,47.8446882328451 0 0,0 0.7196659275530681,0.40049330951751494 l -13.255250701046156 23.343856047599925" fill="#c2ff1e" stroke="none" /><path d="M 110.36928655335952 81.73862282372117 l 10.243896383578619 -18.040552226289883 a41.7460583665184,41.7460583665184 0 0,0 0.621823974463813,0.36020058196978444 l -10.55291709050776 17.86154748693005" fill="#fff016" stroke="none" /><line stroke="#e1ed5e" stroke-width="0.3" x1="143.23703022742887" x2="145.7803849466894" y1="26.81831364943548" y2="22.513508569990506" /><path d="M 143.74570117128098 25.957352633546492 a86.0,86.0 0 0,1 28.547481713284135,27.462654790039103" fill="none" id="id50" stroke="none" /><text fill="#e1ed5e" style="font-size:6.75px; font-family:Arial;" text-anchor="middle"><textPath startOffset="19.985693538727396" xlink:href="#id50">February</textPath></text><path d="M 110.68208982089419 81.91981866633111 l 28.652187503448026 -48.49582379052278 a77.32754897786853,77.32754897786853 0 0,0 1.1401686899981738,0.6869388782893532 l -29.482718259663837 47.99543830277481" fill="#44ffea" stroke="none" /><path d="M 111.2981086023043 82.29822771554956 l 17.665643746687035 -27.678367580773717 a53.83545341427903,53.83545341427903 0 0,0 0.776853217446705,0.5052869422054289 l -18.13946398991802 27.370181714408762" fill="#7dff26" stroke="none" /><path d="M 111.60114157652 82.49532879139004 l 18.583842279613606 -28.040692956949687 a54.63985219021454,54.63985219021454 0 0,0 0.7795163435480338,0.5263329148496105 l -19.06376331756818 27.716648129801406" fill="#74ff27" stroke="none" /><path d="M 112.19680574252982 82.90503203632743 l 20.925057978608347 -29.32843265142511 a57.02797542462384,57.02797542462384 0 0,0 0.7941951672282037,0.577016564527616 l -21.426798462190337 28.96389685208082" fill="#5aff2a" stroke="none" /><path d="M 112.48926042617603 83.11751280151076 l 13.017745202146509 -17.596871970722702 a42.88861789382817,42.88861789382817 0 0,0 0.5897263512776154,0.44416966147287107 l -13.318717707182508 17.370185719743983" fill="#ffff18" stroke="none" /><path d="M 112.77801427241765 83.33499621200491 l 20.45073183454387 -26.67171253874822 a54.60971113113062,54.60971113113062 0 0,0 0.741047135453329,0.5783990435162143 l -20.90681152515663 26.315735106008784" fill="#74ff27" stroke="none" /><path d="M 113.34407831869373 83.78471172551755 l 10.654477906688781 -12.946973672137078 a37.76729038130878,37.76729038130878 0 0,0 0.4984247561264834,0.41741639932730035 l -10.875760199774382 12.76165611541596" fill="#ffbc11" stroke="none" /><path d="M 113.6212207817346 84.01681056812373 l 6.244443889791114 -7.327252908277415 a30.62713429191727,30.62713429191727 0 0,0 0.39830763356195004,0.34540845483632565 l -6.369645321999829 7.218679460021418" fill="#ff5808" stroke="none" /><path d="M 114.42810811169701 84.74124197986012 l 7.3093565865366 -7.7301682641577765 a31.63871209786871,31.63871209786871 0 0,0 0.39249593581034753,0.37758077927543193 l -7.441335765959366 7.603204398120043" fill="#ff6709" stroke="none" /><path d="M 114.68862486808459 84.99185889309783 l 16.946623353154802 -17.315257000149455 a45.228210170272924,45.228210170272924 0 0,0 0.5517070603872443,0.5493378549380149 l -17.242166213709368 17.02098329456132" fill="#e2ff1b" stroke="none" /><path d="M 114.94478906791727 85.2469230424477 l 10.860555219276378 -10.721235758067488 a36.260948720542125,36.260948720542125 0 0,0 0.4346750773804513,0.44797087625856663 l -11.043494560359939 10.532700686258806" fill="#ffa70f" stroke="none" /><path d="M 115.4437574822437 85.77008943001954 l 11.343953359724322 -10.452342443508424 a36.42519822835248,36.42519822835248 0 0,0 0.4208955234252972,0.4647633494495813 l -11.522192523765655 10.255526306789294" fill="#ffaa0f" stroke="none" /><path d="M 115.68641384162765 86.03803664274999 l 11.264980070646876 -10.026589923895793 a36.08085811530763,36.08085811530763 0 0,0 0.4089303714541162,0.46747810533446826 l -11.43590230567884 9.831196262358377" fill="#ffa50f" stroke="none" /><path d="M 115.9244219780498 86.31012108654704 l 25.887983573736932 -22.255335919032213 a55.139239452322876,55.139239452322876 0 0,0 0.6125428259342546,0.7250574999531736 l -26.267237013158304 21.80641946944993" fill="#6fff28" stroke="none" /><path d="M 116.38621287248628 86.86637796730983 l 19.235431491236515 -15.417283347135871 a45.65145939817614,45.65145939817614 0 0,0 0.4861791718729725,0.6173981760107653 l -19.497964743703452 15.083892777172068" fill="#ddff1b" stroke="none" /><path d="M 116.82858285166822 87.43820079747576 l 16.51082208124133 -12.324604720509607 a41.60347367108794,41.60347367108794 0 0,0 0.42343894156268885,0.5775702404212538 l -16.720523635317644 12.03857203641686" fill="#ffee16" stroke="none" /><line stroke="#e1ed5e" stroke-width="0.3" x1="172.23445277983987" x2="176.4835382374775" y1="55.19839476539836" y2="52.563006222186495" /><path d="M 173.08426987136738 54.67131705675599 a86.0,86.0 0 0,1 12.851231095245387,41.99856678651699" fill="none" id="id51" stroke="none" /><text fill="#e1ed5e" style="font-size:6.75px; font-family:Arial;" text-anchor="middle"><textPath startOffset="22.20632615414155" xlink:href="#id51">March</textPath></text><path d="M 117.84615892207809 88.93136811851018 l 8.15819490556534 -5.059915504587101 a30.599942136844014,30.599942136844014 0 0,0 0.2737736048032703,0.450011822374095 l -8.244084308654834 4.9187359090059255" fill="#ff5808" stroke="none" /><path d="M 118.21658344932153 89.55222093294921 l 9.193988392116134 -5.273039246524382 a31.598790754126277,31.598790754126277 0 0,0 0.2665468726901328,0.47415714441643614 l -9.283392906098701 5.113998592173152" fill="#ff6609" stroke="none" /><path d="M 118.56541770881063 90.18545643968196 l 10.480523520701489 -5.54049234130872 a32.85489049515337,32.85489049515337 0 0,0 0.2600082321358021,0.5022531455282646 l -10.574341185997406 5.359266473520111" fill="#ff780b" stroke="none" /><path d="M 118.73160827565052 90.50648371742162 l 12.145516453192352 -6.155566383405007 a34.61633458076262,34.61633458076262 0 0,0 0.26479845422162845,0.5338175254901046 l -12.24967492036739 5.945589269415952" fill="#ff910d" stroke="none" /><path d="M 118.89224826269711 90.83032412892265 l 9.699534023461656 -4.707834761585571 a31.781682077240255,31.781682077240255 0 0,0 0.23464235200011502,0.4942166345725672 l -9.779134569303528 4.540175711372464" fill="#ff6909" stroke="none" /><path d="M 119.04729006885535 91.15688171328212 l 21.508539672550658 -9.985806894910167 a44.7135745552652,44.7135745552652 0 0,0 0.3181002113734887,0.700891649980612 l -21.677242200887495 9.614093236087493" fill="#e8ff1a" stroke="none" /><path d="M 119.34039704204932 91.81776055985345 l 17.540976447567594 -7.420968090568283 a40.04617079980524,40.04617079980524 0 0,0 0.26311919493449265,0.6371640009612055 l -17.666117329388285 7.1179295191537735" fill="#ffda14" stroke="none" /><path d="M 119.61058180528143 92.48833698450437 l 13.843790908071234 -5.302743854871626 a35.82462947586801,35.82462947586801 0 0,0 0.21562232306567342,0.5777606251415932 l -13.933017819638533 5.0636600927007" fill="#ffa20e" stroke="none" /><path d="M 119.7369772167798 92.82701384747503 l 14.675276647252154 -5.333418335494608 a36.614387462042004,36.614387462042004 0 0,0 0.2101786479326238,0.5942033406666437 l -14.764908375994588 5.08001736840135" fill="#ffac0f" stroke="none" /><path d="M 119.97218684219823 93.5106431181261 l 28.490374491280992 -9.257083825268765 a50.956552531983505,50.956552531983505 0 0,0 0.2638688406633588,0.8365363335659401 l -28.645498815712557 8.765297325276405" fill="#9eff22" stroke="none" /><path d="M 120.28053869075195 94.5502522615342 l 11.458672990692223 -3.0791527862778225 a32.86517461265792,32.86517461265792 0 0,0 0.14210849564534966,0.5476020034252467 l -11.509977818207876 2.8814543573037255" fill="#ff780b" stroke="none" /><path d="M 120.37134235888165 94.90015583598534 l 12.487262326360634 -3.126111710151748 a33.87261802554917,33.87261802554917 0 0,0 0.13672795132669974,0.5668256293589422 l -12.539223077948154 2.9107008491333994" fill="#ff870c" stroke="none" /><path d="M 120.45610955862082 95.25157060432595 l 29.44555592832367 -6.8351287883620095 a51.228459264102966,51.228459264102966 0 0,0 0.19199844234868432,0.8606913699379009 l -29.558848757674394 6.327259248874145" fill="#9aff22" stroke="none" /><path d="M 120.53481517161879 95.60439243477599 l 20.855245249754095 -4.4641976578937355 a42.32768893143687,42.32768893143687 0 0,0 0.14637459869009226,0.713774527093538 l -20.928999144359185 4.104547474636786" fill="#fff817" stroke="none" /><path d="M 120.6074358757038 95.95851677861258 l 14.88516079773758 -2.9192437125395547 a36.168717672489834,36.168717672489834 0 0,0 0.11455886062354001,0.6119780142429938 l -14.933205382270978 2.6625876208339982" fill="#ffa60f" stroke="none" /><path d="M 120.73433829027371 96.67025291283417 l 9.181309609213871 -1.4744352339417708 a30.29894646717207,30.29894646717207 0 0,0 0.07826377527820143,0.5156604933786707 l -9.205329277931373 1.316175628171018" fill="#ff5407" stroke="none" /><path d="M 120.83666639777658 97.38593545837742 l 11.163597356531495 -1.400529405691041 a32.25110610362209,32.25110610362209 0 0,0 0.06436345104983814,0.5514267424978606 l -11.186051160584922 1.2081589248683275" fill="#ff700a" stroke="none" /><path d="M 120.91429891909075 98.10471618934814 l 6.7104812113725645 -0.6081134467284766 a27.73797892934344,27.73797892934344 0 0,0 0.03899895931870683,0.47588608442983793 l -6.719954654510766 0.49251344509086986" fill="#ff2e04" stroke="none" /><path d="M 120.94382443527127 98.46500227214037 l 31.40580518309771 -2.3017687025904867 a52.49004189198408,52.49004189198408 0 0,0 0.058287464527359056,0.901681277595796 l -31.440773238629486 1.7608283607416557" fill="#8cff24" stroke="none" /><line stroke="#e1ed5e" stroke-width="0.3" x1="184.98032266829074" x2="189.97916517819016" y1="98.17113171792111" y2="98.06355123074" /><path d="M 185.9800911702706 98.14961562048488 a86.0,86.0 0 0,1 -9.607161424134198,41.387399972396054" fill="none" id="id52" stroke="none" /><text fill="#e1ed5e" style="font-size:6.75px; font-family:Arial;" text-anchor="middle"><textPath startOffset="21.466115282336823" xlink:href="#id52">April</textPath></text><path d="M 120.99513854157772 99.54816195383933 l 7.4211916573348775 -0.1597120558168061 a28.422910046314048,28.422910046314048 0 0,0 0.006316643756188515,0.4892310201024544 l -7.422841308208782 0.03194477765388897" fill="#ff3805" stroke="none" /><path d="M 120.99980553446 99.90962569577887 l 17.339469106256512 -0.07462176035250645 a38.339629675801675,38.339629675801675 0 0,0 -0.0028402412288616842,0.6599720350944306 l -17.338184567738146 -0.2238597529456088" fill="#ffc412" stroke="none" /><path d="M 120.9904718944345 100.63252640178507 l 14.825309199986021 0.4467455296278794 a35.832038782427475,35.832038782427475 0 0,0 -0.02388438659747403,0.616349890194731 l -14.815422680537344 -0.7018726668366165" fill="#ffa20e" stroke="none" /><path d="M 120.9764740272857 100.99374915477107 l 20.73174249392915 0.9821551302413671 a41.754993990229124,41.754993990229124 0 0,0 -0.04019146653389592,0.7176456340627673 l -20.711764676507723 -1.3388724806395578" fill="#fff016" stroke="none" /><path d="M 120.92983693683757 101.71520430193887 l 11.825251285622246 0.969081696040776 a32.86489305900866,32.86489305900866 0 0,0 -0.051058590683852476,0.5634272935525724 l -11.806818098661317 -1.172490378141919" fill="#ff780b" stroke="none" /><path d="M 120.8583938346157 102.4346265915055 l 5.920960608235878 0.6911044186031541 a26.96115759242228,26.96115759242228 0 0,0 -0.05777197145794687,0.4604994548695941 l -5.908187127531082 -0.7929216277601431" fill="#ff2303" stroke="none" /><path d="M 120.76222939487914 103.15116336523771 l 7.329107363848994 1.1123667976884553 a28.41304084997683,28.41304084997683 0 0,0 -0.0775516978467485,0.48291449652057933 l -7.308873911640957 -1.2383605239022397" fill="#ff3805" stroke="none" /><path d="M 120.70491114924044 103.5080841355445 l 62.114733447721314 10.524252406633499 a84.0,84.0 0 0,0 -0.25381423064324515,1.4235249970671267 l -61.924372774738885 -11.591896154433844" fill="#4dd2ff" stroke="none" /><path d="M 119.79798401119884 107.00284435728193 l 14.762730630362608 5.221799595071383 a36.659035943369375,36.659035943369375 0 0,0 -0.21554769304492802,0.5930946772091032 l -14.670658676312453 -5.475142069286617" fill="#ffad10" stroke="none" /><path d="M 119.41010516605496 108.01547362559984 l 5.28879150804072 2.184025716570233 a26.72199999529568,26.72199999529568 0 0,0 -0.17922702285316772,0.4236397392182186 l -5.250413503995244 -2.274739981454615" fill="#ff1f03" stroke="none" /><path d="M 119.26925614724726 108.34839909993367 l 9.523846201550368 4.126203339109597 a31.379267819382278,31.379267819382278 0 0,0 -0.2189957835016925,0.49377767859792127 l -9.451409333317402 -4.289529354200206" fill="#ff6309" stroke="none" /><path d="M 118.97047184881838 109.00673069616215 l 9.570128519318589 4.543670341364361 a31.593974704862624,31.593974704862624 0 0,0 -0.2374764770361742,0.48927188090357393 l -9.4904987856677 -4.70773117823321" fill="#ff6609" stroke="none" /><path d="M 118.64920377521936 109.65438752849418 l 3.2624536968570954 1.6889188762621263 a24.67369719692996,24.67369719692996 0 0,0 -0.19850282163046684,0.37549253078334055 l -3.2328983670017353 -1.7448264221316012" fill="#ff0000" stroke="none" /><line stroke="#e1ed5e" stroke-width="0.3" x1="174.80103733775053" x2="179.2010983576182" y1="140.37084112569926" y2="142.7455964860345" /><path d="M 175.68104954172406 140.8457921977663 a86.0,86.0 0 0,1 -30.038265399797805,32.042727171017184" fill="none" id="id53" stroke="none" /><text fill="#e1ed5e" style="font-size:6.75px; font-family:Arial;" text-anchor="middle"><textPath startOffset="22.206326154141568" xlink:href="#id53">May</textPath></text><path d="M 118.12598468904814 110.60418214915192 l 28.144074421521577 16.46503054619842 a53.60653547881762,53.60653547881762 0 0,0 -0.4728074075351673,0.7924524108602101 l -27.856486138288183 -16.947045050944734" fill="#7fff26" stroke="none" /><path d="M 117.75023020441432 111.22182372390056 l 28.466431560795844 17.996683611702505 a54.678158305127006,54.678158305127006 0 0,0 -0.5097960702687434,0.7912148221430245 l -28.15243062715005 -18.48402003376698" fill="#74ff27" stroke="none" /><path d="M 117.35343817320211 111.8261652097733 l 6.1308425460362965 4.178097510180812 a28.419146118581835,28.419146118581835 0 0,0 -0.278966523814817,0.4018720838617488 l -6.0580151150593435 -4.2830108562295806" fill="#ff3805" stroke="none" /><path d="M 116.93607887273984 112.41649034213515 l 3.5917875421149197 2.6332774937329075 a25.45366007983234,25.45366007983234 0 0,0 -0.26209843874460226,0.35112369021311096 l -3.5459278366752254 -2.6947140634553333" fill="#ff0c01" stroke="none" /><path d="M 116.498646956653 112.99209946851258 l 6.98841830130829 5.503131616593482 a29.89507998522843,29.89507998522843 0 0,0 -0.3218448620165519,0.40155095127547014 l -6.892655527236884 -5.6226104014472025" fill="#ff4e07" stroke="none" /><path d="M 115.56566222782051 114.09645910891815 l 11.010067789207561 9.970855599036897 a35.85394069261727,35.85394069261727 0 0,0 -0.4182167409602358,0.4538916735028411 l -10.836804640251602 -10.158898527341073" fill="#ffa20f" stroke="none" /><path d="M 115.32070863581623 114.36230785411682 l 9.895239505000607 9.276233850488971 a34.56334322024928,34.56334322024928 0 0,0 -0.41063465218535616,0.4305487911206411 l -9.734098301436287 -9.44518975819212" fill="#ff900d" stroke="none" /><path d="M 114.55890576462653 115.13401014063108 l 7.117272519067438 7.3984182752875025 a31.26606843376668,31.26606843376668 0 0,0 -0.3910702750969159,0.36978135447996857 l -6.988866409579714 -7.519834266513393" fill="#ff6209" stroke="none" /><path d="M 114.29624159901734 115.38237550388516 l 14.688430628410359 15.804360462438344 a42.57609334314968,42.57609334314968 0 0,0 -0.541122785487024,0.4943028346449869 l -14.414208293456472 -16.054856063669916" fill="#fffb17" stroke="none" /><path d="M 113.75828350139079 115.86535959552629 l 9.720867521331554 11.20961483246127 a35.83747721344213,35.83747721344213 0 0,0 -0.4695298673238728,0.40014353916633766 l -9.526472177430634 -11.375282761850555" fill="#ffa20e" stroke="none" /><path d="M 113.20401910651253 116.32954008644616 l 20.20499942345016 24.987721190824217 a53.134533013753085,53.134533013753085 0 0,0 -0.716158640357398,0.5689597366651463 l -19.771883290375413 -25.331814841494488" fill="#85ff25" stroke="none" /><path d="M 112.92097659922987 116.55440617244103 l 20.619953731053283 26.418366034432903 a54.51287149439833,54.51287149439833 0 0,0 -0.7446750837651824,0.5709850996565609 l -20.162149918794608 -26.769390475916836" fill="#75ff27" stroke="none" /><path d="M 112.34349029814194 116.9893568818739 l 4.666391034374616 6.4227362535619985 a28.938938610954956,28.938938610954956 0 0,0 -0.4055208949648954,0.2893283913098986 l -4.555142811560836 -6.502108906716116" fill="#ff4006" stroke="none" /><path d="M 111.7513745106137 117.40417183066458 l 7.547709818872418 11.178406278942559 a34.48794611670011,34.48794611670011 0 0,0 -0.4948614644502164,0.32796719466671387 l -7.354173655682237 -11.306671494700591" fill="#ff8f0d" stroke="none" /><path d="M 111.1453310114006 117.79835938074945 l 3.937280648238202 6.287577810702215 a28.41861264850955,28.41861264850955 0 0,0 -0.4168344668956059,0.25605377475404467 l -3.828466981410288 -6.354420052284638" fill="#ff3805" stroke="none" /><line stroke="#e1ed5e" stroke-width="0.3" x1="143.8653032363475" x2="146.44561519142675" y1="172.8068346515853" y2="177.08958963109032" /><path d="M 144.38136562736335 173.6633856474863 a86.0,86.0 0 0,1 -40.68145358897372,12.25698825130547" fill="none" id="id54" stroke="none" /><text fill="#e1ed5e" style="font-size:6.75px; font-family:Arial;" text-anchor="middle"><textPath startOffset="21.466115282336833" xlink:href="#id54">June</textPath></text><path d="M 110.8373102113329 117.98757091392108 l 4.669206675293305 7.749864546256456 a30.04775615619289,30.04775615619289 0 0,0 -0.4453251009196167,0.26310591911285836 l -4.5351137033453055 -7.8290890376630635" fill="#ff5007" stroke="none" /><path d="M 109.57404056367764 118.69057910512821 l 5.156059335548553 10.065732878489804 a32.309461802084485,32.309461802084485 0 0,0 -0.497175063153177,0.24929389785000858 l -4.982030364712616 -10.152994617249115" fill="#ff710a" stroke="none" /><path d="M 108.92500713936063 119.00905698771935 l 8.276424697132613 17.62766418735126 a40.47392488609661,40.47392488609661 0 0,0 -0.6331895077137257,0.29066624700718313 l -7.971767193651467 -17.76751750469252" fill="#ffe015" stroke="none" /><path d="M 107.93186726928326 119.44442032107085 l 5.605425511097791 13.741310339158982 a35.84063357803647,35.84063357803647 0 0,0 -0.5732434971508878,0.22810541791382757 l -5.368060937905037 -13.835762601478878" fill="#ffa20e" stroke="none" /><path d="M 107.59598834532513 119.57807347666477 l 4.977717318781059 12.829682061471232 a34.761482896262656,34.761482896262656 0 0,0 -0.5597091684647036,0.21163411510360006 l -4.75613792955608 -12.913464426681463" fill="#ff930d" stroke="none" /><path d="M 107.2578585660854 119.70592522655815 l 3.0751146977664052 8.349291977173213 a29.897584330845532,29.897584330845532 0 0,0 -0.48445538724807974,0.17370846577007723 l -2.9309397498885907 -8.40098798398325" fill="#ff4e07" stroke="none" /><path d="M 106.57524785965236 119.94407469862006 l 6.965156016453407 21.126746070228613 a43.24528709298797,43.24528709298797 0 0,0 -0.7089728224538103,0.2269907091258951 l -6.600461848908656 -21.243509626014216" fill="#fbff18" stroke="none" /><path d="M 106.2309692047433 120.05430185196036 l 2.3321978925944715 7.506151768651236 a28.860118407775303,28.860118407775303 0 0,0 -0.4756766295975599,0.14331746646285248 l -2.2026462885566658 -7.545184604219814" fill="#ff3f05" stroke="none" /><path d="M 105.53697534728816 120.25689768951611 l 1.1211625880917282 4.101747689992972 a25.252215853093446,25.252215853093446 0 0,0 -0.42028051337348454,0.11099990345208106 l -1.0503916319067463 -4.120438942748637" fill="#ff0901" stroke="none" /><path d="M 105.18746579009965 120.34920634021253 l 10.020071636477741 39.306380711665284 a61.56344906748585,61.56344906748585 0 0,0 -1.0291260273818823,0.25293413901861833 l -9.341992324352649 -39.47303610899793" fill="#30ff35" stroke="none" /><path d="M 104.83641907484287 120.43548508189849 l 7.675527133988593 32.43166438123999 a54.32756473734596,54.32756473734596 0 0,0 -0.911874852498539,0.20753974761903346 l -7.116132132097192 -32.558980862436705" fill="#77ff26" stroke="none" /><path d="M 104.48393922423573 120.51570834832081 l 6.87056442129149 31.435416228147243 a53.17747735457178,53.17747735457178 0 0,0 -0.8959355022711136,0.18775199551863284 l -6.328437457590998 -31.54902420439242" fill="#84ff25" stroke="none" /><path d="M 104.13013068566511 120.58985236759428 l 2.7953741729551433 13.93571920934594 a35.2133172288723,35.2133172288723 0 0,0 -0.5953270483147539,0.11409584569983941 l -2.555079510068685 -13.981772253394249" fill="#ff990e" stroke="none" /><path d="M 103.41894727170886 120.7198165907248 l 3.401353172713364 20.61319122469991 a41.89193279406127,41.89193279406127 0 0,0 -0.7124902856267111,0.1112763295120965 l -3.0460270234781355 -20.668685861559116" fill="#fff216" stroke="none" /><path d="M 102.70371172650421 120.8252237178851 l 3.4958502110468586 26.926636451511257 a48.152619013456714,48.152619013456714 0 0,0 -0.822888308199253,0.09964031427235122 l -3.0318344797962253 -26.98282229450896" fill="#beff1e" stroke="none" /><path d="M 101.98527174616119 120.90594882070398 l 0.9830224061512193 10.351739580408085 a31.39830973724012,31.39830973724012 0 0,0 -0.5384895078656243,0.04646314058432667 l -0.8046885805440532 -10.367126973271075" fill="#ff6409" stroke="none" /><path d="M 101.62511606390274 120.93702456842531 l 0.9188864111402262 11.8383836040812 a32.873991687463686,32.873991687463686 0 0,0 -0.5645516954449189,0.03893479026786201 l -0.714971954916377 -11.852446738865346" fill="#ff790b" stroke="none" /><path d="M 101.26447882468166 120.96189622390904 l 1.964061078810418 32.55922021612945 a53.61840518792589,53.61840518792589 0 0,0 -0.9217563821658015,0.047644276281393026 l -1.403316628231137 -32.58820429917304" fill="#7fff26" stroke="none" /><path d="M 100.90346689309514 120.98055641714683 l 1.4647566526616427 34.014981427020004 a55.04650457142454,55.04650457142454 0 0,0 -0.9470086577668525,0.032616892967675504 l -0.8790276432201377 -34.03515511841377" fill="#70ff27" stroke="none" /><line stroke="#e1ed5e" stroke-width="0.3" x1="102.19456741930631" x2="102.32365962044197" y1="184.97166512339345" y2="189.96999836594603" /><path d="M 102.22038585953345 185.97133177190398 a86.0,86.0 0 0,1 -42.740103519485714,-10.115201625700543" fill="none" id="id55" stroke="none" /><text fill="#e1ed5e" style="font-size:6.75px; font-family:Arial;" text-anchor="middle"><textPath startOffset="22.20632615414155" xlink:href="#id55">July</textPath></text><path d="M 100.54218724476979 120.99299961872073 l 0.5157960742533269 19.971157371537224 a40.977817006593106,40.977817006593106 0 0,0 -0.7052873755421198,0.012142161779712538 l -0.17194900881853903 -19.977077010596098" fill="#ffe615" stroke="none" /><path d="M 99.81925306533755 120.99922214144158 l -0.18100971731647322 21.029752293098614 a42.03053128256273,42.03053128256273 0 0,0 -0.7234061076545425,-0.012454092184511297 l 0.5429755148636837 -21.023520723634945" fill="#fff417" stroke="none" /><path d="M 99.45781275523022 120.99299961872073 l -0.24463065182589466 9.47187752948527 a30.475036046864453,30.475036046864453 0 0,0 -0.5242862050339888,-0.018057476976342496 l 0.40763720853452656 -9.466263254082834" fill="#ff5608" stroke="none" /><line stroke="#e1ed5e" stroke-width="0.3" x1="58.666819895761336" x2="56.23545636021788" y1="174.27360380694188" y2="178.64263932499728" /><path d="M 58.180547188652646 175.14741091055294 a86.0,86.0 0 0,1 -31.652253787137756,-30.449443065178592" fill="none" id="id56" stroke="none" /><text fill="#e1ed5e" style="font-size:6.75px; font-family:Arial;" text-anchor="middle"><textPath startOffset="22.20632615414155" xlink:href="#id56">August</textPath></text><line stroke="#e1ed5e" stroke-width="0.3" x1="26.63291911575756" x2="22.317208475507996" y1="142.92168965132927" y2="145.44649492493687" /><path d="M 25.769776987707644 143.4266507060508 a86.0,86.0 0 0,1 -11.730757126820373,-40.83630448921669" fill="none" id="id57" stroke="none" /><text fill="#e1ed5e" style="font-size:6.75px; font-family:Arial;" text-anchor="middle"><textPath startOffset="21.46611528233685" xlink:href="#id57">September</textPath></text><line stroke="#e1ed5e" stroke-width="0.3" x1="15.007084014347285" x2="10.007500721073583" y1="101.09737516637583" y2="101.16192664675087" /><path d="M 14.007167355692545 101.11028546245083 a86.0,86.0 0 0,1 10.666146001902534,-42.60595125391555" fill="none" id="id58" stroke="none" /><text fill="#e1ed5e" style="font-size:6.75px; font-family:Arial;" text-anchor="middle"><textPath startOffset="22.20632615414155" xlink:href="#id58">October</textPath></text><line stroke="#e1ed5e" stroke-width="0.3" x1="26.266209847984243" x2="21.928928074336255" y1="57.711370442889674" y2="55.22380399835377" /><path d="M 25.398753493254645 57.213857153982495 a86.0,86.0 0 0,1 29.58750427330803,-30.492523968695096" fill="none" id="id59" stroke="none" /><text fill="#e1ed5e" style="font-size:6.75px; font-family:Arial;" text-anchor="middle"><textPath startOffset="21.46611528233685" xlink:href="#id59">November</textPath></text><line stroke="#e1ed5e" stroke-width="0.3" x1="56.762969772571076" x2="54.21961505331055" y1="26.818313649435495" y2="22.513508569990535" /><path d="M 56.25429882871897 25.957352633546506 a86.0,86.0 0 0,1 42.265352541879196,-11.944610805530505" fill="none" id="id60" stroke="none" /><text fill="#e1ed5e" style="font-size:6.75px; font-family:Arial;" text-anchor="middle"><textPath startOffset="22.20632615414155" xlink:href="#id60">December</textPath></text></svg>