<?xml version="1.0" encoding="utf-8" ?>
<svg baseProfile="full" height="200mm" version="1.1" viewBox="0,0,200,200" width="200mm" xmlns="http://www.w3.org/2000/svg" xmlns:ev="http://www.w3.org/2001/xml-events" xmlns:xlink="http://www.w3.org/1999/xlink"><defs /><rect fill="#1a1a1a" height="200" width="200" x="0" y="0" /><rect fill="#1a1a1a" height="200" width="180" x="10" y="0" /><text alignment-baseline="middle" fill="#e1ed5e" style="dominant-baseline: central; font-size:9.0px; font-family:Arial;" text-anchor="middle" x="100.0" y="100.0">2025</text><line stroke="#e1ed5e" stroke-width="0.3" x1="100.0" x2="100.0" y1="15.0" y2="10.0" /><path d="M 100.0 14.0 a86.0,86.0 0 0,1 42.46469731375804,11.215312516191453" fill="none" id="id25" stroke="none" /><text fill="#e1ed5e" style="font-size:6.75px; font-family:Arial;" text-anchor="middle"><textPath startOffset="22.20632615414155" xlink:href="#id25">January</textPath></text><path d="M 100.36148047927253 79.00311137660856 l 0.30525536061885544 -17.73100672408674 a38.73363415334814,38.73363415334814 0 0,0 0.666538271672686,0.017214717077856944 l -0.6104202674864092 17.72312521486652" fill="#ffd714" stroke="none" /><path d="M 100.72285384407766 79.0124445844662 l 0.4767094506924528 -13.840925237497439 a34.849132223008525,34.849132223008525 0 0,0 0.5993373136007564,0.02580872546317738 l -0.7148875966825406 13.830668785510067" fill="#ffa40f" stroke="none" /><path d="M 101.08401301168833 79.027996857942 l 0.531984468660269 -10.292108884276905 a31.305848473595336,31.305848473595336 0 0,0 0.5379208677404621,0.03244885574027468 l -0.7090673852403431 10.281426759156325" fill="#ff740a" stroke="none" /><path d="M 101.80526077348638 79.07773832637324 l 2.7134376940204827 -31.447674653529706 a52.56452098850204,52.56452098850204 0 0,0 0.9007928719190172,0.08554113726678778 l -3.254355693029744 31.39630797174774" fill="#83ff25" stroke="none" /><path d="M 102.16513564639614 79.11191278185805 l 1.3719964316703201 -13.23629823166555 a34.307214775681224,34.307214775681224 0 0,0 0.5868711360603728,0.06594181016665181 l -1.5996342712404181 13.210720468028299" fill="#ff9d0e" stroke="none" /><path d="M 102.88285421437855 79.19881850522331 l 2.1007198540885383 -15.157705421464076 a36.30258336194393,36.30258336194393 0 0,0 0.618234757181225,0.09111173249431813 l -2.3613235916984188 15.11929920480879" fill="#ffb711" stroke="none" /><path d="M 103.2404852339499 79.25152402106235 l 2.359461778866502 -15.1073782188973 a36.29051786352393,36.29051786352393 0 0,0 0.6163698960006863,0.10170631410117578 l -2.6191608810060636 15.0645256418565" fill="#ffb711" stroke="none" /><path d="M 104.307194497241 79.44645832069477 l 3.0179122184128504 -14.401203522470572 a35.71402246340763,35.71402246340763 0 0,0 0.6006031848903223,0.13126859347028264 l -3.2653581274567 14.34712143090442" fill="#ffb010" stroke="none" /><path d="M 105.01212808612495 79.60689891045804 l 5.081486855823153 -20.6753046521 a42.290601943652305,42.290601943652305 0 0,0 0.7054296168105336,0.17982971637062878 l -5.436625361318711 20.584771939560504" fill="#faff18" stroke="none" /><path d="M 105.71112130821622 79.79150937346287 l 4.0015984390637795 -14.159437382401416 a35.71402246340763,35.71402246340763 0 0,0 0.5901483409165579,0.1722804836465788 l -4.244736997703765 14.088458569836133" fill="#ffb010" stroke="none" /><path d="M 106.0581310904928 79.89281104454417 l 3.179053327060257 -10.551410161293072 a32.01991998374451,32.01991998374451 0 0,0 0.5263687972867136,0.1635453475489962 l -3.3602074970576883 10.495124678861554" fill="#ff7e0b" stroke="none" /><path d="M 106.40334571778207 80.00007090966166 l 10.797494275134234 -33.72441991634606 a56.4107664604368,56.4107664604368 0 0,0 0.9222278636352026,0.3040440270161347 l -11.376404961011854 33.53356216507069" fill="#5aff2a" stroke="none" /><path d="M 107.08798089147638 80.2323363322302 l 1.4898958579626778 -4.155169246523592 a25.414206739022287,25.414206739022287 0 0,0 0.41052133820695497,0.15119847339371073 l -1.561199521942209 4.128907505323556" fill="#ff2003" stroke="none" /><path d="M 107.4271985657038 80.35727306442388 l 6.7431329751727915 -17.83357729699351 a40.06584174718507,40.06584174718507 0 0,0 0.6429934846314534,0.2494714825338652 l -7.049109624803912 17.714863110569098" fill="#ffe815" stroke="none" /><path d="M 107.76421540070413 80.48803036053334 l 7.6290824416066725 -19.172371874705796 a41.634503682008955,41.634503682008955 0 0,0 0.6636066649547653,0.27070182080609556 l -7.957972976149826 19.038209167716122" fill="#fffc17" stroke="none" /><path d="M 108.09893153111575 80.62456947434976 l 7.997582103108849 -19.132967826266047 a41.73720755880354,41.73720755880354 0 0,0 0.6604739036317735,0.2827804568086449 l -8.325739764530937 18.992467841494612" fill="#fffd17" stroke="none" /><path d="M 108.76106565485865 80.91482961587045 l 15.701300952205674 -34.2038304163554 a58.63552665690403,58.63552665690403 0 0,0 0.9136581863839162,0.42897476932600104 l -16.287737349889188 33.92849066438939" fill="#43ff2d" stroke="none" /><path d="M 109.73455568895987 81.39251694778311 l 6.837604407948716 -13.069996433731822 a35.75051323911688,35.75051323911688 0 0,0 0.5428203921641718,0.2899558544334422 l -7.061569846641199 12.950361852796625" fill="#ffb010" stroke="none" /><path d="M 110.05341064243156 81.56283822128135 l 11.2735192861319 -20.67474474947408 a44.54861583088683,44.54861583088683 0 0,0 0.6700873621981589,0.3729028915750818 l -11.627730737402095 20.477626460338815" fill="#dfff1b" stroke="none" /><path d="M 110.36928655335952 81.73862282372117 l 6.190504976695775 -10.902114210976922 a33.537082839946464,33.537082839946464 0 0,0 0.49954805218648674,0.2893704754220862 l -6.37724976134759 10.793939578164785" fill="#ff930d" stroke="none" /><line stroke="#e1ed5e" stroke-width="0.3" x1="143.23703022742887" x2="145.7803849466894" y1="26.81831364943548" y2="22.513508569990506" /><path d="M 143.74570117128098 25.957352633546492 a86.0,86.0 0 0,1 28.547481713284135,27.462654790039103" fill="none" id="id26" stroke="none" /><text fill="#e1ed5e" style="font-size:6.75px; font-family:Arial;" text-anchor="middle"><textPath startOffset="19.985693538727396" xlink:href="#id26">February</textPath></text><path d="M 110.99172775467656 82.1063720568725 l 19.354839818635796 -31.508085929998483 a57.97795699301434,57.97795699301434 0 0,0 0.8458731241544858,0.5296856727449895 l -19.894332095162547 31.17025591593055" fill="#4aff2c" stroke="none" /><path d="M 111.2981086023043 82.29822771554956 l 4.359937426030585 -6.831109719931842 a29.103895011946385,29.103895011946385 0 0,0 0.419973326987246,0.27316233419060854 l -4.476877778802112 6.755048461581706" fill="#ff5507" stroke="none" /><path d="M 111.90073688211348 82.69761687909136 l 9.852060061907295 -14.323828802359834 a38.384911820965385,38.384911820965385 0 0,0 0.5411703380959652,0.3791244057541906 l -10.097161539586912 14.15211955384171" fill="#ffd213" stroke="none" /><path d="M 112.19680574252982 82.90503203632743 l 8.545908270352522 -11.977892506129145 a35.71402246340763,35.71402246340763 0 0,0 0.49736824482236014,0.36135918194282457 l -8.75082183152867 11.829014089369645" fill="#ffb010" stroke="none" /><path d="M 112.77801427241765 83.33499621200491 l 22.411864019511324 -29.22940848386772 a57.83272959130051,57.83272959130051 0 0,0 0.7847831037994529,0.6125356605387923 l -22.911679678470207 28.8392944341057" fill="#4bff2c" stroke="none" /><path d="M 113.34407831869373 83.78471172551755 l 7.894193710834067 -9.592766443558427 a33.42334344630433,33.42334344630433 0 0,0 0.44109655837000594,0.3694056823769575 l -8.05814780616319 9.45545960378765" fill="#ff910d" stroke="none" /><path d="M 113.6212207817346 84.01681056812373 l 10.95864962984503 -12.858918870638016 a37.895082013158536,37.895082013158536 0 0,0 0.4928277094563362,0.42737533323563864 l -11.178371137948131 12.668378543982705" fill="#ffcc13" stroke="none" /><path d="M 113.89432698308785 84.25364557470405 l 11.69054562003574 -13.248822701685372 a38.669186734958416,38.669186734958416 0 0,0 0.49531363572870035,0.44469747269417537 l -11.91687024336043 13.045626220221902" fill="#ffd614" stroke="none" /><path d="M 114.68862486808459 84.99185889309783 l 8.24037196567379 -8.419621737560252 a32.781076365776585,32.781076365776585 0 0,0 0.39987324747109776,0.3981560646671609 l -8.384081013312208 8.276529822242974" fill="#ff880c" stroke="none" /><path d="M 114.94478906791727 85.2469230424477 l 18.989655009968605 -18.7460552628916 a47.683732597165104,47.683732597165104 0 0,0 0.5716047397491151,0.5890889297866025 l -19.309524013420827 18.41640213755488" fill="#baff1f" stroke="none" /><path d="M 115.4437574822437 85.77008943001954 l 13.46828620194268 -12.40970718459525 a39.3138080590803,39.3138080590803 0 0,0 0.45427359700649445,0.5016202519643098 l -13.67990343956521 12.176034145361392" fill="#ffde14" stroke="none" /><path d="M 115.68641384162765 86.03803664274999 l 4.51662677817453 -4.020101612256306 a27.04658039111273,27.04658039111273 0 0,0 0.30653839026098656,0.3504263705870555 l -4.5851570320133614 3.941759685466302" fill="#ff3805" stroke="none" /><path d="M 115.92442197804982 86.31012108654704 l 1.6926274438030544 -1.4551149663825333 a23.232117207698938,23.232117207698938 0 0,0 0.2580860176561628,0.30549244038446155 l -1.7174240749463368 1.4257635763689651" fill="#ff0000" stroke="none" /><path d="M 116.15771136456269 86.58626213691792 l 6.97894575478358 -5.793750538250813 a30.070459147567632,30.070459147567632 0 0,0 0.32719739329399755,0.4011053159231708 l -7.077641640153987 5.672761052719541" fill="#ff6309" stroke="none" /><path d="M 116.82858285166822 87.43820079747576 l 9.179720098430316 -6.852258542995895 a32.4551607682121,32.4551607682121 0 0,0 0.33032767966894405,0.4505665838387316 l -9.296310390612888 6.69322951548567" fill="#ff840c" stroke="none" /><path d="M 117.04232023915458 87.72973835380427 l 11.977662826275589 -8.623770397803796 a35.759194512370286,35.759194512370286 0 0,0 0.35535679146237725,0.5026269804539273 l -12.124332237541848 8.416316917018076" fill="#ffb010" stroke="none" /><path d="M 117.45458315368197 88.32363383020206 l 18.849032163416208 -12.609192642903055 a43.67769284127773,43.67769284127773 0 0,0 0.4126572009291704,0.6285052277983711 l -19.063285999703304 12.28286935112701" fill="#e9ff1a" stroke="none" /><line stroke="#e1ed5e" stroke-width="0.3" x1="172.23445277983987" x2="176.4835382374775" y1="55.19839476539836" y2="52.563006222186495" /><path d="M 173.08426987136738 54.67131705675599 a86.0,86.0 0 0,1 12.851231095245387,41.99856678651699" fill="none" id="id27" stroke="none" /><text fill="#e1ed5e" style="font-size:6.75px; font-family:Arial;" text-anchor="middle"><textPath startOffset="22.20632615414155" xlink:href="#id27">March</textPath></text><path d="M 118.21658344932153 89.55222093294921 l 2.6728615551477515 -1.5329695100448475 a24.08126344406219,24.08126344406219 0 0,0 0.2031338955780707,0.36135253394421113 l -2.698853092018255 1.4867334661658425" fill="#ff0d01" stroke="none" /><path d="M 118.3937258080291 89.86733742301442 l 11.612246850533825 -6.396908398284453 a34.25762851997954,34.25762851997954 0 0,0 0.2800836836601437,0.5189525284827509 l -11.720638633412433 6.196074886469242" fill="#ff9c0e" stroke="none" /><path d="M 118.56541770881063 90.18545643968196 l 6.508777548349919 -3.4408426341188316 a28.36230827979064,28.36230827979064 0 0,0 0.2244546709479015,0.4335749817844812 l -6.567041652457937 3.328294930074007" fill="#ff4b07" stroke="none" /><path d="M 119.196687751892 91.48605970444005 l 9.531965659666977 -4.227530685221141 a31.42738629914308,31.42738629914308 0 0,0 0.21506701793093871,0.49640432946824 l -9.603323387440595 4.062827211166298" fill="#ff760a" stroke="none" /><path d="M 119.34039704204932 91.81776055985345 l 6.783049263526594 -2.8696687605645663 a28.36510394405869,28.36510394405869 0 0,0 0.18636996159518507,0.4513096447354912 l -6.831440912007977 2.752484545375772" fill="#ff4b07" stroke="none" /><path d="M 119.61058180528143 92.48833698450437 l 15.123483484548881 -5.792918980392003 a37.19498882434961,37.19498882434961 0 0,0 0.22387028181576754,0.5998610539647492 l -15.220958354866273 5.531734789397921" fill="#ffc312" stroke="none" /><path d="M 119.97218684219823 93.5106431181261 l 23.36541969895808 -7.591885070939825 a45.567856166927086,45.567856166927086 0 0,0 0.2359644987901166,0.7480719442787135 l -23.4926396815164 7.188562960234693" fill="#d3ff1c" stroke="none" /><path d="M 120.18372546131832 94.20196356495316 l 11.31395102582232 -3.2500789013292897 a32.771512251175366,32.771512251175366 0 0,0 0.1510817111647754,0.5435212993786532 l -11.368219507553459 3.0548462985316847" fill="#ff880c" stroke="none" /><path d="M 120.37134235888165 94.90015583598534 l 7.370857262860042 -1.8452501918408388 a28.598321200103697,28.598321200103697 0 0,0 0.1154380764464047,0.4785653533078255 l -7.401528139567264 1.7180996068736072" fill="#ff4e07" stroke="none" /><path d="M 120.45610955862082 95.25157060432595 l 4.315073705844543 -1.0016480783217825 a25.429803602833502,25.429803602833502 0 0,0 0.09530801337994305,0.4272471359588876 l -4.331676106226523 0.927222772812931" fill="#ff2003" stroke="none" /><path d="M 120.6074358757038 95.95851677861258 l 9.895456189836171 -1.9406742498395098 a31.083961014847148,31.083961014847148 0 0,0 0.0984536745198435,0.5259434660892494 l -9.927395588265872 1.7700527062876976" fill="#ff710a" stroke="none" /><path d="M 120.67395015179393 96.31383870115 l 61.86946226051428 -11.031313110986602 a83.84520848368494,83.84520848368494 0 0,0 0.24110743146564464,1.423029708819371 l -62.05018155350015 9.964697613851394" fill="#4dd3ff" stroke="none" /><path d="M 120.91429891909075 98.10471618934814 l 6.310294491027152 -0.5718479512776016 a27.336152353192592,27.336152353192592 0 0,0 0.038434000410330696,0.4689921547592092 l -6.319202975256978 0.46314187931062367" fill="#ff3c05" stroke="none" /><path d="M 120.94382443527127 98.46500227214037 l 22.091969994660296 -1.6191466773679308 a43.15122511753701,43.15122511753701 0 0,0 0.0479171936750659,0.7412577775013443 l -22.11656777933978 1.2386298356135512" fill="#f0ff19" stroke="none" /><line stroke="#e1ed5e" stroke-width="0.3" x1="184.98032266829074" x2="189.97916517819016" y1="98.17113171792111" y2="98.06355123074" /><path d="M 185.9800911702706 98.14961562048488 a86.0,86.0 0 0,1 -9.607161424134198,41.387399972396054" fill="none" id="id28" stroke="none" /><text fill="#e1ed5e" style="font-size:6.75px; font-family:Arial;" text-anchor="middle"><textPath startOffset="21.466115282336823" xlink:href="#id28">April</textPath></text><path d="M 120.92983693683757 101.71520430193887 l 13.307921837061114 1.0905868427774938 a34.35253396486852,34.35253396486852 0 0,0 -0.05336977569091987,0.5889310275176206 l -13.28717746509312 -1.3194992588436851" fill="#ff9d0e" stroke="none" /><path d="M 120.89721153311464 102.0752229133903 l 8.053247465564553 0.7997374980513021 a29.09285949509883,29.09285949509883 0 0,0 -0.0537770403977622,0.4979086052108328 l -8.03828812366574 -0.9382424251469264" fill="#ff5507" stroke="none" /><path d="M 120.8583938346157 102.4346265915055 l 50.08843946283189 5.846406372903314 a71.42848634748916,71.42848634748916 0 0,0 -0.15305590868662503,1.220006185284265 l -49.98038204489842 -6.707730312474974" fill="#3dffae" stroke="none" /><path d="M 120.81339534386255 102.79330883721812 l 11.782994212438295 1.5813634113378487 a32.88863586998409,32.88863586998409 0 0,0 -0.08013229833605624,0.5604451079267303 l -11.754027863085637 -1.7839539912449884" fill="#ff8a0c" stroke="none" /><path d="M 120.76222939487914 103.15116336523771 l 51.205769642605496 7.7716964935556065 a72.79218194939776,72.79218194939776 0 0,0 -0.19868191264539845,1.237192459699592 l -51.06440597559881 -8.651968182948403" fill="#3fffbc" stroke="none" /><path d="M 120.5718875245553 104.21870165774334 l 11.31590026697359 2.320565245078148 a32.551390475122794,32.551390475122794 0 0,0 -0.11728725005505589,0.5479269853211453 l -11.274278978194094 -2.5150060498154625" fill="#ff850c" stroke="none" /><path d="M 120.49622156327973 104.57218783832717 l 8.09589334721822 1.805988727642433 a29.294883023521415,29.294883023521415 0 0,0 -0.1140260552130141,0.4912212615185394 l -8.063606726074653 -1.9450786465095373" fill="#ff5808" stroke="none" /><path d="M 120.32669344350535 105.2749913415812 l 14.65072625014194 3.8020179884233953 a36.136020627658155,36.136020627658155 0 0,0 -0.16142807659208716,0.6007339257176608 l -14.583110097208074 -4.053642847316604" fill="#ffb510" stroke="none" /><path d="M 120.13307415673323 105.97154293290107 l 24.271667143120926 7.199064647052825 a46.31679991031453,46.31679991031453 0 0,0 -0.23328940065245865,0.7624032593666206 l -24.144150969962336 -7.615794878971503" fill="#caff1d" stroke="none" /><path d="M 119.79798401119884 107.00284435728193 l 12.289451429741508 4.346963587311448 a34.035593921006715,34.035593921006715 0 0,0 -0.20012238626296747,0.5506508578507983 l -12.212804782473315 -4.557862242168378" fill="#ff990e" stroke="none" /><path d="M 119.67450827220406 107.3425965602758 l 6.88341044104207 2.568913292677679 a28.34715283665333,28.34715283665333 0 0,0 -0.17454519138173463,0.45568241643015045 l -6.8381709700668285 -2.6870192759409735" fill="#ff4b06" stroke="none" /><path d="M 119.54520255179757 107.68017299344265 l 10.267459001257494 4.0345379447339145 a32.03169120171523,32.03169120171523 0 0,0 -0.20606655915553387,0.5114403004285193 l -10.196489827844568 -4.210677613005248" fill="#ff7e0b" stroke="none" /><path d="M 119.26925614724726 108.34839909993367 l 29.131449409148633 12.621191195376914 a52.74800484862074,52.74800484862074 0 0,0 -0.36812811300968634,0.8300317118532619 l -28.909880211407675 -13.120771243722864" fill="#81ff25" stroke="none" /><path d="M 118.81262510543309 109.33194174019688 l 11.550464893840324 5.729570692948001 a33.8934564640102,33.8934564640102 0 0,0 -0.26375779718522496,0.5204191565551515 l -11.450128426868831 -5.927544061205847" fill="#ff970e" stroke="none" /><path d="M 118.64920377521936 109.65438752849418 l 14.384430456537386 7.4465841908284345 a37.197637348393016,37.197637348393016 0 0,0 -0.29925940618909713,0.5660860176579823 l -14.254118542123395 -7.6930852235725515" fill="#ffc312" stroke="none" /><line stroke="#e1ed5e" stroke-width="0.3" x1="174.80103733775053" x2="179.2010983576182" y1="140.37084112569926" y2="142.7455964860345" /><path d="M 175.68104954172406 140.8457921977663 a86.0,86.0 0 0,1 -30.038265399797805,32.042727171017184" fill="none" id="id29" stroke="none" /><text fill="#e1ed5e" style="font-size:6.75px; font-family:Arial;" text-anchor="middle"><textPath startOffset="22.206326154141568" xlink:href="#id29">May</textPath></text><path d="M 118.30583269289576 110.29060199501025 l 9.37897999595446 5.272382408202955 a31.75933464591756,31.75933464591756 0 0,0 -0.2719929971236558,0.47424271684305624 l -9.286835002678421 -5.4330449709043265" fill="#ff7a0b" stroke="none" /><path d="M 117.75023020441432 111.22182372390056 l 10.432291392132054 6.595369958061551 a33.342269182530956,33.342269182530956 0 0,0 -0.31086924523394716,0.48247597210360355 l -10.317217283521058 -6.77396753008661" fill="#ff900d" stroke="none" /><path d="M 117.55443506779137 111.5257021239791 l 43.11076811979884 28.305204341004828 a72.5725015940191,72.5725015940191 0 0,0 -0.6946117834749127,1.038350370130618 l -42.6171532309132 -29.04309162534125" fill="#3fffba" stroke="none" /><path d="M 117.35343817320211 111.8261652097733 l 22.919704147592824 15.619510387695328 a48.73593234352337,48.73593234352337 0 0,0 -0.478399089614353,0.6891695692795957 l -22.647444150816337 -16.011721219161945" fill="#aeff20" stroke="none" /><path d="M 117.14729908036423 112.12312394758627 l 7.424276731329149 5.248956504068399 a30.092383041038108,30.092383041038108 0 0,0 -0.3026723520876647,0.4203854245777559 l -7.332824586865882 -5.375975534097286" fill="#ff6309" stroke="none" /><path d="M 116.498646956653 112.99209946851258 l 7.6047917968863565 5.988503888958875 a30.679619677552708,30.679619677552708 0 0,0 -0.3302910701935288,0.41208889464012544 l -7.500582814637974 -6.118520617177251" fill="#ff6b09" stroke="none" /><path d="M 115.80600337817218 113.82643327865902 l 11.588182324103839 10.13685913457561 a36.39616454481121,36.39616454481121 0 0,0 -0.41654743119468046,0.46799545473622306 l -11.41197604326082 -10.334828759052701" fill="#ffb911" stroke="none" /><path d="M 115.32070863581623 114.36230785411682 l 6.808070728148639 6.382185707891224 a30.331780186517754,30.331780186517754 0 0,0 -0.36036097340711953,0.377837039913179 l -6.697203203362554 -6.498429864386909" fill="#ff6609" stroke="none" /><path d="M 115.07121518719521 114.62390073753431 l 23.385669254774616 22.691581376476744 a53.58523272678863,53.58523272678863 0 0,0 -0.6480224861689952,0.6564433572011793 l -22.991606143550086 -23.090765227658586" fill="#78ff26" stroke="none" /><path d="M 114.81725581225074 114.88116024355365 l 6.638856511446709 6.667488827392478 a30.409028804450642,30.409028804450642 0 0,0 -0.3741035257064604,0.3661390382585661 l -6.523103033364454 -6.7807779685736165" fill="#ff6809" stroke="none" /><path d="M 114.29624159901734 115.38237550388516 l 22.84848349222789 24.584360185681863 a54.56253809880817,54.56253809880817 0 0,0 -0.6934650476573,0.6334638791373611 l -22.421918895103726 -24.974016831405805" fill="#6dff28" stroke="none" /><path d="M 114.0293411484842 115.62618273729858 l 12.359829793702108 13.766644984548254 a39.50097042481485,39.50097042481485 0 0,0 -0.5098590524407991,0.449891333483474 l -12.121028388354722 -13.977359459804017" fill="#ffe115" stroke="none" /><path d="M 113.20401910651253 116.32954008644616 l 7.182595605084091 8.88278651460776 a32.423378479691145,32.423378479691145 0 0,0 -0.4370092542602887,0.34718658159326554 l -7.028628858106452 -9.005107010206151" fill="#ff830c" stroke="none" /><path d="M 112.92097659922987 116.55440617244103 l 4.5753625280924295 5.861972513805431 a28.436172672556946,28.436172672556946 0 0,0 -0.38845338149309416,0.297849488426959 l -4.473780418105841 -5.939861344059762" fill="#ff4c07" stroke="none" /><path d="M 112.63410532772338 116.77436683061366 l 3.2221523099179734 4.278068246911854 a26.355757036455742,26.355757036455742 0 0,0 -0.3647323386090818,0.2698202645842768 l -3.148035000890327 -4.332898460235899" fill="#ff2e04" stroke="none" /><path d="M 111.7513745106137 117.40417183066458 l 5.862389653808375 8.682391730519594 a31.476236853721595,31.476236853721595 0 0,0 -0.4516469786895192,0.2993269899184084 l -5.712067976378892 -8.782016741529322" fill="#ff760a" stroke="none" /><path d="M 111.45004920935366 117.60387380957326 l 2.409130595411197 3.7039169192177437 a25.418473805536678,25.418473805536678 0 0,0 -0.3688319777495447,0.23540601888080537 l -2.345016815614722 -3.7448373669223556" fill="#ff2003" stroke="none" /><line stroke="#e1ed5e" stroke-width="0.3" x1="143.8653032363475" x2="146.44561519142675" y1="172.8068346515853" y2="177.08958963109032" /><path d="M 144.38136562736335 173.6633856474863 a86.0,86.0 0 0,1 -40.68145358897372,12.25698825130547" fill="none" id="id30" stroke="none" /><text fill="#e1ed5e" style="font-size:6.75px; font-family:Arial;" text-anchor="middle"><textPath startOffset="21.466115282336833" xlink:href="#id30">June</textPath></text><path d="M 110.8373102113329 117.98757091392108 l 18.718755661372413 31.069051112627108 a57.27227247566931,57.27227247566931 0 0,0 -0.8488081568402454,0.5014908205146412 l -18.181179633503785 -31.3866605054355" fill="#51ff2b" stroke="none" /><path d="M 110.21172684928248 118.3499491758327 l 3.589319563303621 6.449823084238809 a28.381289368768435,28.381289368768435 0 0,0 -0.4289320864477114,0.2338879733512581 l -3.4777646649872604 -6.510651709349838" fill="#ff4b07" stroke="none" /><path d="M 108.59647513512805 119.15986991738527 l 1.8380016868465912 4.096548023969924 a25.489983954708837,25.489983954708837 0 0,0 -0.40186698527188963,0.17616667656113585 l -1.7672140269169476 -4.127579253825514" fill="#ff2103" stroke="none" /><path d="M 106.2309692047433 120.05430185196036 l 3.4951161402661852 11.248990611476508 a32.77945782330561,32.77945782330561 0 0,0 -0.5402757465203114,0.16278065047704104 l -3.3009654193056277 -11.307486631059275" fill="#ff880c" stroke="none" /><path d="M 105.88484417918355 120.15858648285463 l 2.3771767057285897 8.143040112594047 a29.482928230603765,29.482928230603765 0 0,0 -0.4883900859255178,0.1380239166792618 l -2.2366554516984665 -8.182752822611828" fill="#ff5b08" stroke="none" /><path d="M 105.53697534728816 120.25689768951611 l 2.7186544687646874 9.9461352042834 a31.31099838145753,31.31099838145753 0 0,0 -0.5211187228301496,0.13763219107381003 l -2.5470453031230402 -9.991458744660795" fill="#ff740a" stroke="none" /><path d="M 104.13013068566511 120.58985236759428 l 10.35445330755212 51.61983510342935 a73.64809663609421,73.64809663609421 0 0,0 -1.2451171157602934,0.2386296586391719 l -9.464368577220123 -51.79042196041699" fill="#40ffc5" stroke="none" /><path d="M 103.7750983002368 120.6578951692458 l 3.167600576275103 17.333577946468015 a38.62063046082917,38.62063046082917 0 0,0 -0.6549893933820089,0.11387830174045097 l -2.868762211421044 -17.385534826729472" fill="#ffd513" stroke="none" /><path d="M 102.34483914955558 120.86867818915974 l 0.9201194759825896 8.188910204564865 a29.24044114040681,29.24044114040681 0 0,0 -0.5006623569029899,0.051895700377865984 l -0.7790245224739971 -8.20353527339849" fill="#ff5708" stroke="none" /><path d="M 101.62511606390274 120.93702456842531 l 1.1389510604036606 14.67356508472294 a35.71770096902348,35.71770096902348 0 0,0 -0.6133872889901121,0.042302778722471415 l -0.8862010106346182 -14.690996207961696" fill="#ffb010" stroke="none" /><path d="M 101.26447882468166 120.96189622390904 l 2.6613495684026964 44.11851932945336 a65.198716376707,65.198716376707 0 0,0 -1.1208340255293663,0.057934316497416406 l -1.9015274744598505 -44.15779345271299" fill="#35ff67" stroke="none" /><line stroke="#e1ed5e" stroke-width="0.3" x1="102.19456741930631" x2="102.32365962044197" y1="184.97166512339345" y2="189.96999836594603" /><path d="M 102.22038585953345 185.97133177190398 a86.0,86.0 0 0,1 -42.740103519485714,-10.115201625700543" fill="none" id="id31" stroke="none" /><text fill="#e1ed5e" style="font-size:6.75px; font-family:Arial;" text-anchor="middle"><textPath startOffset="22.20632615414155" xlink:href="#id31">July</textPath></text><path d="M 98.73552117531835 120.96189622390904 l -0.6043975060582022 10.019398943411455 a31.037611844087415,31.037611844087415 0 0,0 -0.5330151736888984,-0.03675984708682902 l 0.7767754405260306 -10.007510751808342" fill="#ff700a" stroke="none" /><path d="M 96.58105272829116 120.7198165907248 l -1.749946386294457 10.605184954929175 a31.748593409519273,31.748593409519273 0 0,0 -0.5384425808150469,-0.09361514447028801 l 1.932237938581554 -10.573491231937881" fill="#ff7a0b" stroke="none" /><path d="M 96.22490169976321 120.6578951692458 l -1.8532291128109428 10.14114327424043 a31.309085558537284,31.309085558537284 0 0,0 -0.5293209205441136,-0.1014456142166854 l 2.0275176479267514 -10.107740461675277" fill="#ff740a" stroke="none" /><path d="M 95.86986931433489 120.58985236759428 l -6.841956881905852 34.109061631593676 a55.78851045045928,55.78851045045928 0 0,0 -0.9399262548337324,-0.19697068543221005 l 7.428074598168972 -33.98623496543492" fill="#60ff29" stroke="none" /><path d="M 95.16358092515715 120.4354850818985 l -3.396381318763178 14.35084484987044 a35.747276154174926,35.747276154174926 0 0,0 -0.5975697082524031,-0.1468680954896712 l 3.642904311758792 -14.290255496066738" fill="#ffb010" stroke="none" /><path d="M 94.81253420990036 120.34920634021253 l -1.823851051221683 7.15453804937973 a28.383349331913312,28.383349331913312 0 0,0 -0.472392945548754,-0.1247632704320955 l 1.9467344395819262 -7.122083429644053" fill="#ff4b07" stroke="none" /><path d="M 94.11515582081647 120.15858648285463 l -4.125876908496038 14.133228331131372 a35.72314515733494,35.72314515733494 0 0,0 -0.5887940252693983,-0.17739880986263148 l 4.368545908205683 -14.060114152163015" fill="#ffb010" stroke="none" /><path d="M 93.76903079525671 120.05430185196036 l -10.618200904245489 34.174556005893535 a56.78612117347832,56.78612117347832 0 0,0 -0.9309642578622851,-0.29806535648521326 l 11.204886507198715 -33.986717802748615" fill="#56ff2b" stroke="none" /><path d="M 93.08242187328487 119.8279376855182 l -3.3972088963884994 9.737460866851897 a31.313058344602403,31.313058344602403 0 0,0 -0.5073914881680148,-0.18193253553258132 l 3.5643199451862406 -9.677540790279357" fill="#ff740a" stroke="none" /><path d="M 92.7421414339146 119.70592522655815 l -7.247738724894188 19.67844868757591 a41.970719095297824,41.970719095297824 0 0,0 -0.6757880943916776,-0.25552523241032243 l 7.585397040046149 -19.55077520505895" fill="#feff18" stroke="none" /><path d="M 92.06813273071674 119.44442032107085 l -4.450751174622379 10.910706602340497 a32.783577749595366,32.783577749595366 0 0,0 -0.5206789923463816,-0.21764386102910488 l 4.637901626466222 -10.832477698291418" fill="#ff880c" stroke="none" /><path d="M 91.7346041902142 119.30500536409082 l -4.91067167617223 11.46957087494284 a33.476608207621865,33.476608207621865 0 0,0 -0.5277815647679286,-0.23136392792380034 l 5.107373915597901 -11.38334239372459" fill="#ff920d" stroke="none" /><path d="M 91.07499286063937 119.00905698771935 l -3.754767719316922 7.997146942031185 a29.83474050770384,29.83474050770384 0 0,0 -0.46298876118860516,-0.22226274115121625 l 3.8918691485057697 -7.931329924380407" fill="#ff6008" stroke="none" /><path d="M 90.7491055286396 118.85261126421891 l -3.893943325558084 7.935556937647234 a29.83944899489213,29.83944899489213 0 0,0 -0.4591667304570939,-0.23023573079614892 l 4.029963963697939 -7.867353365941782" fill="#ff6008" stroke="none" /><line stroke="#e1ed5e" stroke-width="0.3" x1="58.666819895761336" x2="56.23545636021788" y1="174.27360380694188" y2="178.64263932499728" /><path d="M 58.180547188652646 175.14741091055294 a86.0,86.0 0 0,1 -31.652253787137756,-30.449443065178592" fill="none" id="id32" stroke="none" /><text fill="#e1ed5e" style="font-size:6.75px; font-family:Arial;" text-anchor="middle"><textPath startOffset="22.20632615414155" xlink:href="#id32">August</textPath></text><path d="M 89.4739219176387 118.17145234162733 l -13.512182785934302 23.326445386854086 a47.95741341498449,47.95741341498449 0 0,0 -0.7107565655770309,-0.419927507040297 l 13.911707222539714 -23.090399307520038" fill="#b7ff1f" stroke="none" /><path d="M 88.8546689885994 117.79835938074946 l -4.687925154289762 7.486307635076622 a29.832974825008233,29.832974825008233 0 0,0 -0.43288811086933365,-0.27628967374889507 l 4.816095067206019 -7.404503532503923" fill="#ff6008" stroke="none" /><path d="M 88.54995079064634 117.60387380957326 l -4.816656654810266 7.405366945152847 a29.834004806580673,29.834004806580673 0 0,0 -0.4280828802922071,-0.2837099904116832 l 4.943414233842434 -7.321358933649848" fill="#ff6008" stroke="none" /><path d="M 87.65650970185807 116.9893568818739 l -9.51684044693452 13.09880713116948 a37.19101603828448,37.19101603828448 0 0,0 -0.5146794393395092,-0.38074754497575486 l 9.740904856692595 -12.933049637453955" fill="#ffc312" stroke="none" /><path d="M 87.07902340077011 116.55440617244103 l -6.339400259302234 8.122064611464596 a31.303199949551924,31.303199949551924 0 0,0 -0.4219112476043355,-0.335191811989073 l 6.4782689996239275 -8.011738885470391" fill="#ff740a" stroke="none" /><path d="M 86.24171649860922 115.8653595955263 l -8.679650015752571 10.00893524612353 a34.248211545602956,34.248211545602956 0 0,0 -0.442059030414694,-0.39006569701882565 l 8.850651399073852 -9.858046407332415" fill="#ff9c0e" stroke="none" /><path d="M 85.97065885151581 115.62618273729859 l -5.901089593162904 6.572760855694036 a29.833121965232866,29.833121965232866 0 0,0 -0.3791654139681361,-0.34635861573469556 l 6.013354556597898 -6.470209473372762" fill="#ff6008" stroke="none" /><path d="M 85.44109423537348 115.13401014063109 l -14.288376423549945 14.852794377758395 a41.609784124270426,41.609784124270426 0 0,0 -0.5118995100065803,-0.5010014111064655 l 14.541925885932319 -14.604642863729358" fill="#fffb17" stroke="none" /><path d="M 85.18274418774928 114.88116024355367 l -7.272675968525835 7.304041845426936 a31.307319875841678,31.307319875841678 0 0,0 -0.3786089231835825,-0.3835288402880201 l 7.39732551676495 -7.1777725111582535" fill="#ff740a" stroke="none" /><path d="M 84.67929136418377 114.36230785411682 l -9.664581380393715 9.06000475342796 a34.24718156403052,34.24718156403052 0 0,0 -0.39947476857770114,-0.4335509640661016 l 9.819102556967144 -8.892302534560516" fill="#ff9c0e" stroke="none" /><path d="M 84.43433777217949 114.09645910891817 l -5.456886820487322 4.941825204809464 a28.36201399934137,28.36201399934137 0 0,0 -0.32459805099483996,-0.36468935133301533 l 5.5411437211305 -4.847161683735582" fill="#ff4b07" stroke="none" /><path d="M 83.06392112726016 112.41649034213515 l -4.830759557671022 3.5416154969344347 a26.98993140462861,26.98993140462861 0 0,0 -0.27146756738351274,-0.3770447078712824 l 4.8910069174301425 -3.4579371836120116" fill="#ff3705" stroke="none" /><path d="M 82.64656182679789 111.8261652097733 l -12.174679345327965 8.2969016212708 a35.73300355238542,35.73300355238542 0 0,0 -0.34201060706555836,-0.5112594529544764 l 12.315693057804255 -8.0861052541105" fill="#ffb010" stroke="none" /><path d="M 82.24976979558568 111.22182372390057 l -7.847382481960821 4.96117187734779 a30.28410675373631,30.28410675373631 0 0,0 -0.27477110441224945,-0.4430185093368464 l 7.931618226041026 -4.82535703664568" fill="#ff6609" stroke="none" /><line stroke="#e1ed5e" stroke-width="0.3" x1="26.63291911575756" x2="22.317208475507996" y1="142.92168965132927" y2="145.44649492493687" /><path d="M 25.769776987707644 143.4266507060508 a86.0,86.0 0 0,1 -11.730757126820373,-40.83630448921669" fill="none" id="id33" stroke="none" /><text fill="#e1ed5e" style="font-size:6.75px; font-family:Arial;" text-anchor="middle"><textPath startOffset="21.46611528233685" xlink:href="#id33">September</textPath></text><path d="M 81.87401531095188 110.60418214915194 l -11.017122874845734 6.4453093020122 a33.76397306633221,33.76397306633221 0 0,0 -0.2891611027592775,-0.504176756122687 l 11.126435973757387 -6.254712700031206" fill="#ff960d" stroke="none" /><path d="M 81.51974371655577 109.97397251340807 l -8.473122598774815 4.573025969267897 a30.628414879380045,30.628414879380045 0 0,0 -0.24640923194851605,-0.4661134051029781 l 8.550584338948216 -4.4264975490787934" fill="#ff6b09" stroke="none" /><path d="M 81.35079622478065 109.6543875284942 l -11.772227398330045 6.094289426343 a34.2561571177332,34.2561571177332 0 0,0 -0.26658032210431465,-0.5259882659935295 l 11.875386390220626 -5.890746948646784" fill="#ff9c0e" stroke="none" /><path d="M 80.87730276802145 108.67885076344099 l -17.68542329746691 8.026542889060687 a40.42162681035026,40.42162681035026 0 0,0 -0.2821023704153309,-0.6360663724357947 l 17.820966752613522 -7.720928180132196" fill="#ffec16" stroke="none" /><path d="M 80.73074385275274 108.34839909993369 l -8.107693338039569 3.5126555612006505 a29.835917629500916,29.835917629500916 0 0,0 -0.2001123677782079,-0.4730065251898575 l 8.166956687010083 -3.3725745103446343" fill="#ff6008" stroke="none" /><path d="M 80.32549172779595 107.34259656027581 l -13.817964319763162 5.1569134984505896 a35.748894696645905,35.748894696645905 0 0,0 -0.21019624718642146,-0.5783697965610373 l 13.904684827954805 -4.9182959048834345" fill="#ffb010" stroke="none" /><path d="M 80.0844068197444 106.66101706037122 l -27.136201003297238 9.076038870678808 a49.61377092369027,49.61377092369027 0 0,0 -0.2639163175467096,-0.812250905705428 l 27.288409571860196 -8.607589064995578" fill="#a4ff21" stroke="none" /><path d="M 79.97269907076064 106.31721596034903 l -8.432400049325967 2.6598338120479386 a29.841950378710912,29.841950378710912 0 0,0 -0.15030854315562658,-0.4912170158266935 l 8.476935364987725 -2.514289823669197" fill="#ff6008" stroke="none" /><path d="M 79.76711848015287 105.62410040840567 l -19.26462470563929 5.354955672946905 a40.99503226574926,40.99503226574926 0 0,0 -0.18313442082290668,-0.6815113075587808 l 19.35394720280397 -5.022553432212585" fill="#fff417" stroke="none" /><path d="M 79.58551787078972 104.9243191809786 l -14.582120326682627 3.517454636837217 a36.000357340545534,36.000357340545534 0 0,0 -0.14012613501495125,-0.6036597222027338 l 14.640507027628132 -3.265926257285909" fill="#ffb310" stroke="none" /><path d="M 79.50377843672027 104.57218783832718 l -10.44894994235375 2.330896048436088 a31.70577560415075,31.70577560415075 0 0,0 -0.11424038043215437,-0.5336930247980677 l 10.487524361510344 -2.1506892042218566" fill="#ff7a0b" stroke="none" /><path d="M 79.4281124754447 104.21870165774334 l -31.039808767370143 6.365370826893603 a52.68576453360052,52.68576453360052 0 0,0 -0.17454057951575444,-0.8899786546297513 l 31.144779279861567 -5.830128445195897" fill="#81ff25" stroke="none" /><path d="M 79.35854240842038 103.8639653848113 l -7.244273577852114 1.3560874864933188 a28.370106711696245,28.370106711696245 0 0,0 -0.08572305724161842,-0.48078042944716665 l 7.266543077432921 -1.2311883063129385" fill="#ff4b07" stroke="none" /><path d="M 79.23777060512086 103.15116336523772 l -23.070614678319856 3.501515873134894 a44.33482108449352,44.33482108449352 0 0,0 -0.10802062827606695,-0.7554960225726102 l 23.127469357612522 -3.1038743785818834" fill="#e1ff1b" stroke="none" /><path d="M 79.18660465613746 102.79330883721812 l -7.294116457381692 0.9789234107884532 a28.35951261552259,28.35951261552259 0 0,0 -0.06076834600921368,-0.4843835082023909 l 7.3098863126377545 -0.8532221482986537" fill="#ff4b06" stroke="none" /><path d="M 79.10278846688536 102.07522291339032 l -15.062520195588387 1.4958018199584395 a36.1366091885567,36.1366091885567 0 0,0 -0.05614149828353387,-0.619516755363205 l 15.086036290148996 -1.2363036760466684" fill="#ffb510" stroke="none" /><path d="M 79.07016306316243 101.71520430193888 l -26.4010034536048 2.1635674867311376 a47.489507500648116,47.489507500648116 0 0,0 -0.059754105500142006,-0.8152972946915346 l 26.43433411776928 -1.7087970555428427" fill="#bcff1f" stroke="none" /><path d="M 79.04373962182676 101.35467743843564 l -10.298772757090353 0.6657445004900289 a31.320268215609474,31.320268215609474 0 0,0 -0.03014747199136789,-0.5383033643320797 l 10.308706579969252 -0.48836941982251164" fill="#ff740a" stroke="none" /><path d="M 79.0095281055655 100.63252640178507 l -23.91208626220758 0.7205662625726298 a44.922940562355926,44.922940562355926 0 0,0 -0.016638467414244778,-0.7731242011376261 l 23.920946792306832 -0.3088522456448748" fill="#daff1b" stroke="none" /><line stroke="#e1ed5e" stroke-width="0.3" x1="15.007084014347285" x2="10.007500721073583" y1="101.09737516637583" y2="101.16192664675087" /><path d="M 14.007167355692545 101.11028546245083 a86.0,86.0 0 0,1 10.666146001902534,-42.60595125391555" fill="none" id="id34" stroke="none" /><text fill="#e1ed5e" style="font-size:6.75px; font-family:Arial;" text-anchor="middle"><textPath startOffset="22.20632615414155" xlink:href="#id34">October</textPath></text><path d="M 79.00175016825051 100.2711162175752 l -14.720152575069804 0.190057367650165 a35.721379474639335,35.721379474639335 0 0,0 -0.00264627842244704,-0.6149019097891377 l 14.721243150781754 0.06335402034264812" fill="#ffb010" stroke="none" /><path d="M 79.00019446554 99.90962569577889 l -14.741695452610424 -0.06344203842188477 a35.74183196586347,35.74183196586347 0 0,0 0.007943184542118648,-0.6152083964835641 l 14.73841926095059 0.31718669296592084" fill="#ffb010" stroke="none" /><path d="M 79.01574976396665 99.18683210126434 l -32.36377414119123 -1.2541397437377535 a53.38806482577897,53.38806482577897 0 0,0 0.043489388217387494,-0.9179922498799801 l 32.337391144740344 1.8110431002407426" fill="#7aff26" stroke="none" /><path d="M 79.05617556472873 98.46500227214037 l -11.739729646104642 -0.8604187066288115 a32.7712179707261,32.7712179707261 0 0,0 0.046075577449974356,-0.5622387500477601 l 11.723179584835172 1.06237137388435" fill="#ff880c" stroke="none" /><path d="M 79.08570108090925 98.10471618934814 l -21.98550445365507 -1.9923579949405368 a43.07559504207509,43.07559504207509 0 0,0 0.07327543180244106,-0.7378735983857779 l 21.9479518961704 2.370507124030745" fill="#f1ff19" stroke="none" /><path d="M 79.16333360222342 97.38593545837743 l -23.606498692243527 -2.96155392639189 a44.79154434175769,44.79154434175769 0 0,0 0.10255984096810254,-0.7641899413452033 l 23.55202285221759 3.367462209801753" fill="#dcff1b" stroke="none" /><path d="M 79.21141760316559 97.0276538004421 l -36.50270039430981 -5.219146775835432 a57.87392885419805,57.87392885419805 0 0,0 0.149491407802541,-0.9849615972308237 l 36.40745309306797 5.846707485458348" fill="#4bff2c" stroke="none" /><path d="M 79.26566170972629 96.67025291283419 l -25.98413368448572 -4.1728167177164925 a47.31705915737698,47.31705915737698 0 0,0 0.13606614861197525,-0.8030701113709452 l 25.90845567435352 4.619472617403265" fill="#beff1f" stroke="none" /><path d="M 79.32604984820605 96.31383870115002 l -21.43371829065339 -3.8216278105228847 a42.77175047820573,42.77175047820573 0 0,0 0.13547295334123258,-0.7237019338193899 l 21.364759613402295 4.190007821804848" fill="#f4ff19" stroke="none" /><path d="M 79.3925641242962 95.95851677861259 l -17.033503148246588 -3.3405717038407197 a38.35798515985734,38.35798515985734 0 0,0 0.13264685188528713,-0.6468331583632584 l 16.97347700044631 3.6332805183673806" fill="#ffd213" stroke="none" /><path d="M 79.62865764111835 94.90015583598534 l -14.349905788567668 -3.5924134011758113 a35.792742483586856,35.792742483586856 0 0,0 0.15476725285386533,-0.596381358781718 l 14.285942203843495 3.838891185506393" fill="#ffb110" stroke="none" /><path d="M 79.71946130924805 94.55025226153421 l -15.10244415742469 -4.058300035677179 a36.638210214334265,36.638210214334265 0 0,0 0.16890778340563084,-0.6076511657434889 l 15.030349603452699 4.31766250483961" fill="#ffbc11" stroke="none" /><path d="M 79.91906864156998 93.8553929516997 l -31.785533469157077 -9.726123231160612 a54.24030100685953,54.24030100685953 0 0,0 0.2808731092027593,-0.8904445116712384 l 31.613404876186113 10.271817909258266" fill="#71ff27" stroke="none" /><path d="M 80.14247586403 93.16781622104843 l -8.371212345518677 -2.8802010162793157 a29.852838755333835,29.852838755333835 0 0,0 0.17136513052557206,-0.4844723002724488 l 8.320394134183296 3.0238709429783754" fill="#ff6008" stroke="none" /><path d="M 80.2630227832202 92.82701384747504 l -11.094780783120985 -4.032162982635858 a32.80476594194267,32.80476594194267 0 0,0 0.19744628049236362,-0.529057867604945 l 11.023729914126994 4.222543987270145" fill="#ff890c" stroke="none" /><path d="M 80.38941819471856 92.48833698450439 l -4.132593370111227 -1.5829539931337795 a25.425389396094477,25.425389396094477 0 0,0 0.1600666892825402,-0.407352264915652 l 4.104733130946995 1.6538552629451948" fill="#ff2003" stroke="none" /><path d="M 80.65960295795068 91.81776055985345 l -7.87785008262621 -3.3328403501480444 a29.55384981887739,29.55384981887739 0 0,0 0.20224584661366132,-0.46681129836575275 l 7.819313526169868 3.467950793100396" fill="#ff5c08" stroke="none" /><path d="M 80.803312248108 91.48605970444005 l -57.59006325567602 -25.54182088667983 a84.0,84.0 0 0,0 0.5975907321465934,-1.3167119646317162 l 57.141870206566075 26.529354860153617" fill="#4dd2ff" stroke="none" /><path d="M 81.10775173730289 90.83032412892265 l -10.591471894417667 -5.140752065025548 a32.773130793646345,32.773130793646345 0 0,0 0.25069882410321226,-0.5053935315424661 l 10.501413057361043 5.322305185066975" fill="#ff880c" stroke="none" /><path d="M 81.6062741919709 89.86733742301443 l -11.777082966511646 -6.48771266280028 a34.44582086728653,34.44582086728653 0 0,0 0.2905625693356966,-0.5168783890054517 l 11.663662755883522 6.689474561740516" fill="#ff9f0e" stroke="none" /><line stroke="#e1ed5e" stroke-width="0.3" x1="26.266209847984257" x2="21.92892807433627" y1="57.711370442889674" y2="55.22380399835377" /><path d="M 25.39875349325466 57.213857153982495 a86.0,86.0 0 0,1 29.58750427330802,-30.492523968695096" fill="none" id="id35" stroke="none" /><text fill="#e1ed5e" style="font-size:6.75px; font-family:Arial;" text-anchor="middle"><textPath startOffset="21.46611528233685" xlink:href="#id35">November</textPath></text><path d="M 81.78341655067847 89.55222093294921 l -12.770920001999118 -7.324521144981002 a35.72226231598714,35.72226231598714 0 0,0 0.3105120662769874,-0.530765775232511 l 12.642948261251805 7.543266332567405" fill="#ffb010" stroke="none" /><path d="M 81.96595687620814 89.24020034530311 l -26.87902728605464 -16.037055391618072 a52.2996685841607,52.2996685841607 0 0,0 0.4679181658014443,-0.769134433779922 l 26.598993321966976 16.497357598605067" fill="#86ff25" stroke="none" /><path d="M 82.34701348167596 88.62581576622439 l -12.76517695810087 -8.224867466333457 a36.185459743135205,36.185459743135205 0 0,0 0.34187223638850245,-0.5206948705256567 l 12.621708086354447 8.44338040083678" fill="#ffb610" stroke="none" /><path d="M 82.7489923806493 88.02491185347247 l -8.463595438054357 -5.875152550136306 a31.302905669102657,31.302905669102657 0 0,0 0.3110724465053029,-0.43998991505395246 l 8.361210371745177 6.019968965522045" fill="#ff740a" stroke="none" /><path d="M 83.17141714833178 87.43820079747576 l -17.714223267576738 -13.222890939620807 a43.10517022722655,43.10517022722655 0 0,0 0.44895894425856014,-0.5907773442683671 l 17.48398838309407 13.525853059770201" fill="#f0ff19" stroke="none" /><path d="M 83.39014120810768 87.1503855733568 l -12.820877684083111 -9.918406707469272 a37.209555706588375,37.209555706588375 0 0,0 0.3962745379376099,-0.5032284208713751 l 12.64824906555153 10.137627522293695" fill="#ffc312" stroke="none" /><path d="M 83.84228863543731 86.58626213691792 l -6.930151438613381 -5.753242687135783 a30.007041710750343,30.007041710750343 0 0,0 0.333348778655582,-0.39457981031093003 l 6.830092046470674 5.871681447075829" fill="#ff6209" stroke="none" /><path d="M 84.07557802195018 86.31012108654704 l -12.306305292472906 -10.579462762175018 a37.228683935790805,37.228683935790805 0 0,0 0.42193950880985914,-0.4823497981888645 l 12.122373920085204 10.789728116566822" fill="#ffc312" stroke="none" /><path d="M 84.31358615837235 86.03803664274997 l -4.462551234911233 -3.97197074173433 a26.974187400592765,26.974187400592765 0 0,0 0.3116884815223043,-0.3441742061741632 l 4.393519112772884 4.048197735178052" fill="#ff3705" stroke="none" /><path d="M 84.80347519578584 85.50635884689758 l -6.7083796514872 -6.398097501901692 a30.270275572620708,30.270275572620708 0 0,0 0.3628623861515802,-0.3739615854334426 l 6.5972530016325015 6.512623282885258" fill="#ff6609" stroke="none" /><path d="M 85.05521093208273 85.24692304244772 l -44.804628622216605 -44.229873778354374 a83.95821217620392,83.95821217620392 0 0,0 1.024147059119058,-1.019749046174328 l 44.03664576293023 44.994558675178816" fill="#4dd2ff" stroke="none" /><path d="M 86.10567301691215 84.25364557470407 l -7.583511809765863 -8.594346807178185 a32.46178207832064,32.46178207832064 0 0,0 0.42216733297935216,-0.36609935105371255 l 7.434450678139737 8.723611151651578" fill="#ff840c" stroke="none" /><path d="M 86.37877921826538 84.01681056812374 l -7.008790511194883 -8.224139981563306 a31.805536676452657,31.805536676452657 0 0,0 0.41974594156425904,-0.35152515481301494 l 6.866187032671514 8.343566293770133" fill="#ff7b0b" stroke="none" /><path d="M 86.93701828274178 83.55741782278169 l -14.020274097362094 -17.64754127217649 a43.5389396094478,43.5389396094478 0 0,0 0.5908181129320197,-0.4611429085450596 l 13.714423429270648 17.886262569944773" fill="#ebff1a" stroke="none" /><path d="M 87.51073957382395 83.11751280151077 l -8.807527156996981 -11.905666100668746 a35.809369328970504,35.809369328970504 0 0,0 0.4986960846987894,-0.362323914083438 l 8.601285755944408 12.055509249568852" fill="#ffb110" stroke="none" /><path d="M 88.09926311788651 82.69761687909137 l -8.386825453878368 -12.19353630020102 a35.79936379369539,35.79936379369539 0 0,0 0.5107295874201732,-0.34484689727385875 l 8.175691172051655 12.336095109773543" fill="#ffb110" stroke="none" /><path d="M 88.39885842347998 82.49532879139004 l -7.422256279689886 -11.19925612018823 a34.43552105156214,34.43552105156214 0 0,0 0.49690944585346036,-0.3232037260185656 l 7.228379808052138 11.32535877036633" fill="#ff9f0e" stroke="none" /><path d="M 89.00827224532344 82.1063720568725 l -9.450801829861225 -15.385127386894737 a39.0560183855214,39.0560183855214 0 0,0 0.5758678492694453,-0.346953935755501 l 9.18457191437413 15.545527932108858" fill="#ffdb14" stroke="none" /><line stroke="#e1ed5e" stroke-width="0.3" x1="56.762969772571076" x2="54.21961505331055" y1="26.818313649435495" y2="22.513508569990535" /><path d="M 56.25429882871897 25.957352633546506 a86.0,86.0 0 0,1 42.265352541879196,-11.944610805530505" fill="none" id="id36" stroke="none" /><text fill="#e1ed5e" style="font-size:6.75px; font-family:Arial;" text-anchor="middle"><textPath startOffset="22.20632615414155" xlink:href="#id36">December</textPath></text><path d="M 89.63071344664047 81.73862282372117 l -2.995970462050668 -5.276211274031389 a27.06747430301077,27.06747430301077 0 0,0 0.40714110009440746,-0.2265735814002223 l 2.9047052728842164 5.3270002529917955" fill="#ff3805" stroke="none" /><path d="M 89.94658935756843 81.56283822128135 l -1.4460129460123967 -2.6518736345284597 a24.020494531288318,24.020494531288318 0 0,0 0.3647168412448111,-0.19481910564889204 l 1.4001510582392802 2.6763714666791034" fill="#ff0c01" stroke="none" /><path d="M 91.23893434514133 80.91482961587045 l -3.406429714754083 -7.4205917486292625 a29.16510534539416,29.16510534539416 0 0,0 0.45805586951005983,-0.2055163166410497 l 3.2781917267772487 7.478128395786841" fill="#ff5608" stroke="none" /><path d="M 91.56875222667455 80.76684994638697 l -5.401112109777811 -12.320880901210973 a34.452736457844324,34.452736457844324 0 0,0 0.5452001863576986,-0.23342626696170557 l 5.188228165629805 12.412026696135465" fill="#ff9f0e" stroke="none" /><path d="M 92.23578459929587 80.48803036053334 l -4.04756941335325 -10.171800681859 a31.947526993224542,31.947526993224542 0 0,0 0.5127073539687573,-0.19892248795322195 l 3.871878894384815 10.239965873702774" fill="#ff7d0b" stroke="none" /><path d="M 92.57280143429618 80.3572730644239 l -3.9405716733502723 -10.42163780393701 a32.14175208974152,32.14175208974152 0 0,0 0.519192875689372,-0.191223117765315 l 3.760596471888332 10.487924189508648" fill="#ff800b" stroke="none" /><path d="M 93.25333710446033 80.11325718540243 l -1.1466693889273876 -3.3799701547333134 a24.569180428948787,24.569180428948787 0 0,0 0.40166769927065377,-0.13242352527408044 l 1.0883188674143245 3.399207404266625" fill="#ff1402" stroke="none" /><path d="M 93.94186890950719 79.89281104454417 l -3.947350723644648 -13.101421162433402 a34.683158049621284,34.683158049621284 0 0,0 0.57311405349825,-0.16730770803826278 l 3.7212464524229767 13.167427199390364" fill="#ffa20f" stroke="none" /><path d="M 94.28887869178378 79.79150937346287 l -3.7900339295904844 -13.410827927993848 a34.936092095767265,34.936092095767265 0 0,0 0.5801090026699272,-0.15856570417422275 l 3.5586270376968345 13.474080172994366" fill="#ffa50f" stroke="none" /><path d="M 94.98787191387505 79.60689891045804 l -3.6874282624359394 -15.00322737650315 a36.44972358657801,36.44972358657801 0 0,0 0.6105785416438654,-0.14450421380561587 l 3.42862603382954 15.064477502449636" fill="#ffb911" stroke="none" /><path d="M 95.33964822691252 79.52364482259891 l -2.388805391722227 -10.495780153992433 a31.764190273330485,31.764190273330485 0 0,0 0.534178805066601,-0.116750796810268 l 2.207783862502105 10.53534444889857" fill="#ff7a0b" stroke="none" /><path d="M 95.692805502759 79.44645832069477 l -3.377375742748005 -16.116530874032037 a37.46660967902411,37.46660967902411 0 0,0 0.6323535711252312,-0.12684417749418583 l 3.0994557621556376 16.172279007603436" fill="#ffc712" stroke="none" /><path d="M 96.40284397218896 79.31037775812273 l -2.1244041680771324 -12.218852723308773 a33.40215525395702,33.40215525395702 0 0,0 0.5673130110048115,-0.09361150774124491 l 1.9137619509334352 12.253610493989646" fill="#ff910d" stroke="none" /><path d="M 96.75951476605007 79.25152402106235 l -2.3339640250830773 -14.94411886306076 a36.125279391259866,36.125279391259866 0 0,0 0.6152152619521994,-0.09066673738787946 l 2.0763797827022294 14.982080084609608" fill="#ffb510" stroke="none" /><path d="M 97.47563105711357 79.15227682838746 l -1.6021282001012636 -13.231316799102188 a34.327961547354626,34.327961547354626 0 0,0 0.5872260375451355,-0.06598168748366323 l 1.37413545904641 13.256934440056451" fill="#ff9d0e" stroke="none" /><path d="M 97.83486435360386 79.11191278185805 l -1.2785467250272948 -12.334744730332494 a33.40083099193531,33.40083099193531 0 0,0 0.5723866575382484,-0.05435501008999387 l 1.0660349403988103 12.354925284937668" fill="#ff910d" stroke="none" /><path d="M 98.19473922651362 79.07773832637324 l -1.9206944505124435 -22.26009254668341 a43.34280169001058,43.34280169001058 0 0,0 0.7438652833144103,-0.05773826253788209 l 1.5372389778356992 22.289856071409755" fill="#edff19" stroke="none" /><path d="M 98.91598698831166 79.02799685794201 l -0.5687534584346107 -11.003465077203677 a32.018154301048895,32.018154301048895 0 0,0 0.5506499978950953,-0.023712147232405556 l 0.3792626281501913 11.011624950960275" fill="#ff7e0b" stroke="none" /><path d="M 99.27714615592234 79.0124445844662 l -0.9760990922032158 -28.34035394085317 a49.35715837192845,49.35715837192845 0 0,0 0.8493505903849062,-0.0219362199213182 l 0.48812186662343054 28.35295695291685" fill="#a7ff21" stroke="none" /></svg>