<?xml version="1.0" encoding="utf-8" ?>
<svg baseProfile="full" height="200mm" version="1.1" viewBox="0,0,200,200" width="200mm" xmlns="http://www.w3.org/2000/svg" xmlns:ev="http://www.w3.org/2001/xml-events" xmlns:xlink="http://www.w3.org/1999/xlink"><defs /><rect fill="#1a1a1a" height="200" width="200" x="0" y="0" /><rect fill="#1a1a1a" height="200" width="180" x="10" y="0" /><text alignment-baseline="middle" fill="#e1ed5e" style="dominant-baseline: central; font-size:9.0px; font-family:Arial;" text-anchor="middle" x="100.0" y="100.0">2026</text><line stroke="#e1ed5e" stroke-width="0.3" x1="100.0" x2="100.0" y1="15.0" y2="10.0" /><path d="M 100.0 14.0 a86.0,86.0 0 0,1 42.46469731375804,11.215312516191453" fill="none" id="id37" stroke="none" /><text fill="#e1ed5e" style="font-size:6.75px; font-family:Arial;" text-anchor="middle"><textPath startOffset="22.20632615414155" xlink:href="#id37">January</textPath></text><path d="M 100.36148047927253 79.00311137660856 l 0.47885122592085405 -27.81446422243563 a48.81858584611586,48.81858584611586 0 0,0 0.84008269677329,0.021696857572278995 l -0.9575605578890118 27.802100572720992" fill="#ffb911" stroke="none" /><path d="M 100.72285384407766 79.0124445844662 l 1.1341857819118146 -32.93029032688848 a53.94981636369247,53.94981636369247 0 0,0 0.9278319414599806,0.039954395145600834 l -1.7008585557611267 32.90588820521869" fill="#edff1a" stroke="none" /><path d="M 101.08401301168833 79.027996857942 l 1.0560054270525212 -20.430150648914218 a41.4574241535755,41.4574241535755 0 0,0 0.7123529519982558,0.04297107541606443 l -1.4075204278903888 20.408946304117848" fill="#ff3004" stroke="none" /><path d="M 101.80526077348638 79.07773832637324 l 2.3902490931068225 -27.70204600111609 a48.8049751550878,48.8049751550878 0 0,0 0.8363659157762386,0.07942302147025626 l -2.8667401359733056 27.656797435130656" fill="#ffb911" stroke="none" /><path d="M 102.16513564639614 79.11191278185805 l 2.867713844174254 -27.666191258497005 a48.81441930804605,48.81441930804605 0 0,0 0.8350364173470427,0.09382607105978916 l -3.343516965031022 27.612729233966615" fill="#ffb911" stroke="none" /><path d="M 102.52436894288641 79.15227682838746 l 2.612474268347652 -21.575348759123 a42.732940341347486,42.732940341347486 0 0,0 0.7294823676155223,0.09470774760062955 l -2.9834713644710207 21.527182688358234" fill="#ff4906" stroke="none" /><path d="M 103.2404852339499 79.25152402106235 l 7.7379198960125954 -49.545063007018484 a71.14567451621863,71.14567451621863 0 0,0 1.2083611528326141,0.1993899438552656 l -8.589610254984086 49.40452680022359" fill="#37ff78" stroke="none" /><path d="M 103.59715602781102 79.31037775812273 l 5.777967653766701 -33.2329115440024 a54.731458905589335,54.731458905589335 0 0,0 0.9267987531420787,0.16936654818816943 l -6.34916152801168 33.12852951446349" fill="#e0ff1b" stroke="none" /><path d="M 104.307194497241 79.44645832069477 l 4.882988618041275 -23.301179026109043 a44.80732076170489,44.80732076170489 0 0,0 0.753525301818227,0.16469144520439397 l -5.28335664401303 23.21367408280878" fill="#ff700a" stroke="none" /><path d="M 104.66035177308747 79.52364482259891 l 5.706967079995921 -25.074906488939547 a46.716150736088395,46.716150736088395 0 0,0 0.7825540602497223,0.1852052627534632 l -6.1377448272081665 24.972955314045215" fill="#ff930d" stroke="none" /><path d="M 105.01212808612495 79.60689891045804 l 5.5151596134784375 -22.43981111216579 a44.10762013518101,44.10762013518101 0 0,0 0.7357384416481582,0.18755611067587524 l -5.900606943811621 22.341552005321045" fill="#ff6309" stroke="none" /><path d="M 105.71112130821622 79.79150937346287 l 8.687284128508354 -30.73948011373241 a52.94345853523039,52.94345853523039 0 0,0 0.8748522866323363,0.25539337249724614 l -9.215126632864118 30.58538841231646" fill="#feff18" stroke="none" /><path d="M 106.0581310904928 79.89281104454417 l 12.069732469117607 -40.05994386275438 a62.8387086818308,62.8387086818308 0 0,0 1.0329924474732368,0.3209557817795122 l -12.757510289301562 39.84624794609235" fill="#64ff29" stroke="none" /><path d="M 107.08798089147638 80.2323363322302 l 7.907448698626483 -22.05307671364694 a44.42788802814728,44.42788802814728 0 0,0 0.7176535641783102,0.2643178642144395 l -8.28588458857737 21.91369558162618" fill="#ff6909" stroke="none" /><path d="M 107.4271985657038 80.35727306442388 l 8.987418821969955 -23.76904457500313 a46.411437918582756,46.411437918582756 0 0,0 0.7448302816731048,0.2889825776564585 l -9.395232268642728 23.610819293456125" fill="#ff8e0d" stroke="none" /><path d="M 107.76421540070413 80.48803036053334 l 7.640635363066223 -19.201405104869075 a41.66575105706614,41.66575105706614 0 0,0 0.6641047125959396,0.2709049869441621 l -7.97002394525055 19.067039231741333" fill="#ff3404" stroke="none" /><path d="M 108.09893153111575 80.62456947434976 l 7.498779233155533 -17.939659756473787 a40.44384432579241,40.44384432579241 0 0,0 0.640006969850515,0.2740175838891975 l -7.806469960796363 17.807922644621797" fill="#ff1c02" stroke="none" /><path d="M 108.43124777332544 80.76684994638697 l 20.07433750418785 -45.79307308064496 a70.99984568377519,70.99984568377519 0 0,0 1.1150961282194405,0.5003111284601113 l -20.85961575087407 45.440741621668316" fill="#37ff75" stroke="none" /><path d="M 109.08828744355905 81.06846463323043 l 10.934218731669365 -22.77673873236663 a46.26533131693466,46.26533131693466 0 0,0 0.7149728263632094,0.3508340608035335 l -11.324662825043006 22.585149511428266" fill="#ff8b0c" stroke="none" /><path d="M 109.41281617654863 81.2277094730956 l 9.22153605839657 -18.39081426277453 a41.5732539119163,41.5732539119163 0 0,0 0.6369408782366099,0.3262658567507206 l -9.536737424221934 18.229355880711307" fill="#ff3204" stroke="none" /><path d="M 110.05341064243156 81.56283822128135 l 12.042311053467825 -22.084648183508207 a46.15450140427764,46.15450140427764 0 0,0 0.6942426273572493,0.3863452704837649 l -12.420677769897111 21.87408751546426" fill="#ff890c" stroke="none" /><path d="M 110.36928655335952 81.73862282372117 l 9.6008949291931 -16.90816071381639 a40.44384432579241,40.44384432579241 0 0,0 0.6024269836557837,0.3489645929046486 l -9.890518645314211 16.74039196352169" fill="#ff1c02" stroke="none" /><line stroke="#e1ed5e" stroke-width="0.3" x1="143.23703022742887" x2="145.7803849466894" y1="26.81831364943548" y2="22.513508569990506" /><path d="M 143.74570117128098 25.957352633546492 a86.0,86.0 0 0,1 28.547481713284135,27.462654790039103" fill="none" id="id38" stroke="none" /><text fill="#e1ed5e" style="font-size:6.75px; font-family:Arial;" text-anchor="middle"><textPath startOffset="19.985693538727396" xlink:href="#id38">February</textPath></text><path d="M 110.68208982089419 81.91981866633111 l 26.85374717389262 -45.451838220157754 a73.79198172895899,73.79198172895899 0 0,0 1.0880379405838432,0.6555306850621554 l -27.6321471806941 44.982860925636984" fill="#3cffa0" stroke="none" /><path d="M 111.2981086023043 82.29822771554956 l 16.5560003829011 -25.93978859962602 a51.77293910681769,51.77293910681769 0 0,0 0.747090843877539,0.4859286665417624 l -17.00005825256292 25.650961008924728" fill="#ffed16" stroke="none" /><path d="M 111.60114157652 82.49532879139004 l 17.416827142259823 -26.279813121107136 a52.52736026665844,52.52736026665844 0 0,0 0.7493785976717717,0.5059837743019597 l -17.86661043433814 25.976117434506506" fill="#fff917" stroke="none" /><path d="M 112.19680574252982 82.90503203632743 l 19.61156793854447 -27.48745308435712 a54.76645782537575,54.76645782537575 0 0,0 0.7627003379878019,0.5541342316721974 l -20.081813592886064 27.14579961786825" fill="#e0ff1b" stroke="none" /><path d="M 112.48926042617603 83.11751280151076 l 12.20060662292474 -16.49229642882834 a41.51464460973426,41.51464460973426 0 0,0 0.570833966972123,0.4299403092941761 l -12.482686743655245 16.279839530028315" fill="#ff3104" stroke="none" /><path d="M 112.77801427241765 83.33499621200491 l 38.33404281725294 -49.995011363985284 a84.0,84.0 0 0,0 1.1398697793622787,0.8896864431071037 l -39.188945151774654 49.32774653165496" fill="#4dd2ff" stroke="none" /><path d="M 113.34407831869373 83.78471172551755 l 19.9694322957231 -24.266202102492468 a52.42653004536897,52.42653004536897 0 0,0 0.691886555498114,0.5794350926375378 l -20.38417638818033 23.918865852461114" fill="#fff817" stroke="none" /><path d="M 113.6212207817346 84.01681056812373 l 11.705060035981504 -13.734759524450817 a39.04583191876794,39.04583191876794 0 0,0 0.507793277810078,0.4403533266388483 l -11.939747112438345 13.531241204392296" fill="#ff0000" stroke="none" /><path d="M 114.42810811169701 84.74124197986012 l 13.701126936069826 -14.489923342840855 a40.94188450973735,40.94188450973735 0 0,0 0.5079069977557977,0.48860612942689047 l -13.948517177438042 14.251934126651664" fill="#ff2603" stroke="none" /><path d="M 114.68862486808459 84.99185889309783 l 31.765696676232576 -32.45668415917003 a66.41470942254868,66.41470942254868 0 0,0 0.8101462331593794,0.8066672077705679 l -32.31967870955928 31.905081100749342" fill="#33ff2f" stroke="none" /><line stroke="#e1ed5e" stroke-width="0.3" x1="172.23445277983987" x2="176.4835382374775" y1="55.19839476539836" y2="52.563006222186495" /><path d="M 173.08426987136738 54.67131705675599 a86.0,86.0 0 0,1 12.851231095245387,41.99856678651699" fill="none" id="id39" stroke="none" /><text fill="#e1ed5e" style="font-size:6.75px; font-family:Arial;" text-anchor="middle"><textPath startOffset="22.20632615414155" xlink:href="#id39">March</textPath></text><line stroke="#e1ed5e" stroke-width="0.3" x1="184.98032266829074" x2="189.97916517819016" y1="98.17113171792111" y2="98.06355123074" /><path d="M 185.9800911702706 98.14961562048488 a86.0,86.0 0 0,1 -9.607161424134198,41.387399972396054" fill="none" id="id40" stroke="none" /><text fill="#e1ed5e" style="font-size:6.75px; font-family:Arial;" text-anchor="middle"><textPath startOffset="21.466115282336823" xlink:href="#id40">April</textPath></text><line stroke="#e1ed5e" stroke-width="0.3" x1="174.80103733775053" x2="179.2010983576182" y1="140.37084112569926" y2="142.7455964860345" /><path d="M 175.68104954172406 140.8457921977663 a86.0,86.0 0 0,1 -30.038265399797805,32.042727171017184" fill="none" id="id41" stroke="none" /><text fill="#e1ed5e" style="font-size:6.75px; font-family:Arial;" text-anchor="middle"><textPath startOffset="22.206326154141568" xlink:href="#id41">May</textPath></text><line stroke="#e1ed5e" stroke-width="0.3" x1="143.8653032363475" x2="146.44561519142675" y1="172.8068346515853" y2="177.08958963109032" /><path d="M 144.38136562736335 173.6633856474863 a86.0,86.0 0 0,1 -40.68145358897372,12.25698825130547" fill="none" id="id42" stroke="none" /><text fill="#e1ed5e" style="font-size:6.75px; font-family:Arial;" text-anchor="middle"><textPath startOffset="21.466115282336833" xlink:href="#id42">June</textPath></text><line stroke="#e1ed5e" stroke-width="0.3" x1="102.19456741930631" x2="102.32365962044197" y1="184.97166512339345" y2="189.96999836594603" /><path d="M 102.22038585953345 185.97133177190398 a86.0,86.0 0 0,1 -42.740103519485714,-10.115201625700543" fill="none" id="id43" stroke="none" /><text fill="#e1ed5e" style="font-size:6.75px; font-family:Arial;" text-anchor="middle"><textPath startOffset="22.20632615414155" xlink:href="#id43">July</textPath></text><line stroke="#e1ed5e" stroke-width="0.3" x1="58.666819895761336" x2="56.23545636021788" y1="174.27360380694188" y2="178.64263932499728" /><path d="M 58.180547188652646 175.14741091055294 a86.0,86.0 0 0,1 -31.652253787137756,-30.449443065178592" fill="none" id="id44" stroke="none" /><text fill="#e1ed5e" style="font-size:6.75px; font-family:Arial;" text-anchor="middle"><textPath startOffset="22.20632615414155" xlink:href="#id44">August</textPath></text><line stroke="#e1ed5e" stroke-width="0.3" x1="26.63291911575756" x2="22.317208475507996" y1="142.92168965132927" y2="145.44649492493687" /><path d="M 25.769776987707644 143.4266507060508 a86.0,86.0 0 0,1 -11.730757126820373,-40.83630448921669" fill="none" id="id45" stroke="none" /><text fill="#e1ed5e" style="font-size:6.75px; font-family:Arial;" text-anchor="middle"><textPath startOffset="21.46611528233685" xlink:href="#id45">September</textPath></text><line stroke="#e1ed5e" stroke-width="0.3" x1="15.007084014347285" x2="10.007500721073583" y1="101.09737516637583" y2="101.16192664675087" /><path d="M 14.007167355692545 101.11028546245083 a86.0,86.0 0 0,1 10.666146001902534,-42.60595125391555" fill="none" id="id46" stroke="none" /><text fill="#e1ed5e" style="font-size:6.75px; font-family:Arial;" text-anchor="middle"><textPath startOffset="22.20632615414155" xlink:href="#id46">October</textPath></text><line stroke="#e1ed5e" stroke-width="0.3" x1="26.266209847984243" x2="21.928928074336255" y1="57.711370442889674" y2="55.22380399835377" /><path d="M 25.398753493254645 57.213857153982495 a86.0,86.0 0 0,1 29.58750427330803,-30.492523968695096" fill="none" id="id47" stroke="none" /><text fill="#e1ed5e" style="font-size:6.75px; font-family:Arial;" text-anchor="middle"><textPath startOffset="21.46611528233685" xlink:href="#id47">November</textPath></text><line stroke="#e1ed5e" stroke-width="0.3" x1="56.762969772571076" x2="54.21961505331055" y1="26.818313649435495" y2="22.513508569990535" /><path d="M 56.25429882871897 25.957352633546506 a86.0,86.0 0 0,1 42.265352541879196,-11.944610805530505" fill="none" id="id48" stroke="none" /><text fill="#e1ed5e" style="font-size:6.75px; font-family:Arial;" text-anchor="middle"><textPath startOffset="22.20632615414155" xlink:href="#id48">December</textPath></text></svg>