<?xml version="1.0" encoding="utf-8" ?>
<svg baseProfile="full" height="200mm" version="1.1" viewBox="0,0,200,200" width="200mm" xmlns="http://www.w3.org/2000/svg" xmlns:ev="http://www.w3.org/2001/xml-events" xmlns:xlink="http://www.w3.org/1999/xlink"><defs /><rect fill="#1a1a1a" height="200" width="200" x="0" y="0" /><rect fill="#1a1a1a" height="200" width="180" x="10" y="0" /><text alignment-baseline="middle" fill="#e1ed5e" style="dominant-baseline: central; font-size:9.0px; font-family:Arial;" text-anchor="middle" x="100.0" y="100.0">2022</text><line stroke="#e1ed5e" stroke-width="0.3" x1="100.0" x2="100.0" y1="15.0" y2="10.0" /><path d="M 100.0 14.0 a86.0,86.0 0 0,1 42.46469731375804,11.215312516191453" fill="none" id="id1" stroke="none" /><text fill="#e1ed5e" style="font-size:6.75px; font-family:Arial;" text-anchor="middle"><textPath startOffset="22.20632615414155" xlink:href="#id1">January</textPath></text><line stroke="#e1ed5e" stroke-width="0.3" x1="143.23703022742887" x2="145.7803849466894" y1="26.81831364943548" y2="22.513508569990506" /><path d="M 143.74570117128098 25.957352633546492 a86.0,86.0 0 0,1 28.547481713284135,27.462654790039103" fill="none" id="id2" stroke="none" /><text fill="#e1ed5e" style="font-size:6.75px; font-family:Arial;" text-anchor="middle"><textPath startOffset="19.985693538727396" xlink:href="#id2">February</textPath></text><path d="M 116.60985879189232 87.15038557335679 l 3.5114787235610723 -2.7165280710962922 a25.439595430563042,25.439595430563042 0 0,0 0.2649643615061352,0.34866204096873027 l -3.5577190252913207 2.6556812542465282" fill="#ff3605" stroke="none" /><line stroke="#e1ed5e" stroke-width="0.3" x1="172.23445277983987" x2="176.4835382374775" y1="55.19839476539836" y2="52.563006222186495" /><path d="M 173.08426987136738 54.67131705675599 a86.0,86.0 0 0,1 12.851231095245387,41.99856678651699" fill="none" id="id3" stroke="none" /><text fill="#e1ed5e" style="font-size:6.75px; font-family:Arial;" text-anchor="middle"><textPath startOffset="22.20632615414155" xlink:href="#id3">March</textPath></text><path d="M 118.56541770881063 90.18545643968196 l 1.938635941733522 -1.0248531541906671 a23.192859617539522,23.192859617539522 0 0,0 0.18354449935603526,0.3545495517150806 l -1.9559898742496735 0.9913308802152417" fill="#ff1602" stroke="none" /><path d="M 119.196687751892 91.48605970444005 l 1.229938665877144 -0.5454912068071005 a22.34547752806337,22.34547752806337 0 0,0 0.15291679589449123,0.35295304812759354 l -1.239146171614316 0.5242390140929041" fill="#ff0a01" stroke="none" /><path d="M 119.7369772167798 92.82701384747503 l 1.280237232863018 -0.4652750946819803 a22.362163090874247,22.362163090874247 0 0,0 0.1283661841444513,0.36290848855262364 l -1.288056497817279 0.4431689797027421" fill="#ff0a01" stroke="none" /><path d="M 120.67395015179393 96.31383870115 l 1.653052336063972 -0.2947389106306732 a22.67912270284405,22.67912270284405 0 0,0 0.06521666677996192,0.3849124590391689 l -1.657880864364157 0.2662406632756664" fill="#ff0f01" stroke="none" /><path d="M 120.91429891909075 98.10471618934814 l 0.9036217658366019 -0.0818875024387964 a21.907324560865252,21.907324560865252 0 0,0 0.03080119360920986,0.37585257859486565 l -0.9048974432653065 0.06632100663616197" fill="#ff0400" stroke="none" /><path d="M 120.98425023603335 99.18683210126433 l 0.8988060938973639 -0.03482994410209107 a21.899480694308217,21.899480694308217 0 0,0 0.01135467795534905,0.37680648241635556 l -0.899272466308358 0.019353314260736436" fill="#ff0300" stroke="none" /><line stroke="#e1ed5e" stroke-width="0.3" x1="184.98032266829074" x2="189.97916517819016" y1="98.17113171792111" y2="98.06355123074" /><path d="M 185.9800911702706 98.14961562048488 a86.0,86.0 0 0,1 -9.607161424134198,41.387399972396054" fill="none" id="id4" stroke="none" /><text fill="#e1ed5e" style="font-size:6.75px; font-family:Arial;" text-anchor="middle"><textPath startOffset="21.466115282336823" xlink:href="#id4">April</textPath></text><path d="M 120.99513854157772 99.54816195383933 l 0.8903006846113856 -0.019160231833368208 a21.890506835180624,21.890506835180624 0 0,0 0.004864897123304145,0.3767916435046384 l -0.8904985888524053 0.0038323302682671144" fill="#ff0300" stroke="none" /><path d="M 120.99980553446 99.90962569577887 l 0.8510681606087823 -0.003662638338891338 a21.85107604179745,21.85107604179745 0 0,0 -0.0016187513440714316,0.3761408038171583 l -0.8510051119752079 -0.010987643681951683" fill="#ff0300" stroke="none" /><path d="M 120.9904718944345 100.63252640178507 l 0.8425919838451134 0.02539064764217165 a21.842974457636608,21.842974457636608 0 0,0 -0.014559764504407581,0.3757228269995353 l -0.8420300864895026 -0.0398907216557131" fill="#ff0300" stroke="none" /><path d="M 120.9764740272857 100.99374915477107 l 0.8039240105029218 0.03808546683767033 a21.804825644128805,21.804825644128805 0 0,0 -0.02098833783471536,0.3747608712067027 l -0.8031493217806772 -0.05191805437979637" fill="#ff0200" stroke="none" /><path d="M 120.95626037817324 101.35467743843564 l 0.8685523824936966 0.0561459103595228 a21.870365213221195,21.870365213221195 0 0,0 -0.027518586295288583,0.37546924638060863 l -0.8674572375340703 -0.07108829323690172" fill="#ff0300" stroke="none" /><path d="M 120.92983693683757 101.71520430193887 l 0.8792660524918088 0.07205602797260163 a21.88221361485284,21.88221361485284 0 0,0 -0.03399600254932631,0.37514305529061354 l -0.8778954536654071 -0.08718047181178573" fill="#ff0300" stroke="none" /><path d="M 120.89721153311464 102.0752229133903 l 0.8555311616747846 0.08495955869583502 a21.859739318171734,21.859739318171734 0 0,0 -0.04040689381516153,0.37411765302812205 l -0.8539419663585712 -0.09967353360874848" fill="#ff0300" stroke="none" /><path d="M 120.8583938346157 102.4346265915055 l 0.7689304266686635 0.08975084460618517 a21.77415064113154,21.77415064113154 0 0,0 -0.04665732934679494,0.3719048214497915 l -0.7672715880750204 -0.10297342034337156" fill="#ff0200" stroke="none" /><path d="M 120.76222939487914 103.15116336523771 l 0.6598003480253912 0.10014043509130598 a21.667356430998236,21.667356430998236 0 0,0 -0.05913975515492732,0.3682633118030372 l -0.6579788385091755 -0.11148297658754806" fill="#ff0000" stroke="none" /><path d="M 120.70491114924044 103.5080841355445 l 0.8338981039670037 0.14128941139139356 a21.845782918703783,21.845782918703783 0 0,0 -0.06600917362273985,0.3702145007771058 l -0.8313424880050752 -0.1556226629017177" fill="#ff0300" stroke="none" /><path d="M 120.5718875245553 104.21870165774334 l 0.8372731817381043 0.1717006159773341 a21.85469730453819,21.85469730453819 0 0,0 -0.07874555618734308,0.36787302276175954 l -0.8341935868263181 -0.18608745815526265" fill="#ff0300" stroke="none" /><path d="M 120.32669344350535 105.2749913415812 l 0.8688823743351842 0.22548414055681343 a21.897663454794163,21.897663454794163 0 0,0 -0.09782199677688594,0.3640320406828138 l -0.8648723012165211 -0.24040711441517548" fill="#ff0300" stroke="none" /><path d="M 120.23288151984713 105.62410040840565 l 0.8757849138421067 0.24344047518804046 a21.908989813074495,21.908989813074495 0 0,0 -0.10412754770153691,0.36248165379995234 l -0.8714647292544704 -0.2584796044925748" fill="#ff0400" stroke="none" /><path d="M 120.13307415673323 105.97154293290107 l 0.8274214101860392 0.24541619605941015 a21.86304999815916,21.86304999815916 0 0,0 -0.11012025529357543,0.35987936581473423 l -0.823074382386331 -0.2596225344262015" fill="#ff0300" stroke="none" /><path d="M 120.02730092923936 106.31721596034902 l 0.8159341472079006 0.25737028846509086 a21.85556297136125,21.85556297136125 0 0,0 -0.11625884487159188,0.35780793291231255 l -0.8113830513200617 -0.27137712135519865" fill="#ff0300" stroke="none" /><path d="M 119.9155931802556 106.66101706037122 l 0.8116274607940102 0.27145886713404394 a21.85582068896506,21.85582068896506 0 0,0 -0.12240213858490123,0.3557579098987558 l -0.8068344912658781 -0.28538948012210014" fill="#ff0300" stroke="none" /><path d="M 119.79798401119884 107.00284435728193 l 0.7686451975321128 0.2718813532349986 a21.81531276816083,21.81531276816083 0 0,0 -0.12826961264051293,0.35294288438013893 l -0.7638513238863731 -0.2850720346212687" fill="#ff0200" stroke="none" /><path d="M 119.67450827220406 107.3425965602758 l 0.7973944141183128 0.2975904353635135 a21.85111569065958,21.85111569065958 0 0,0 -0.13454639314601738,0.351258175979485 l -0.7921537413787886 -0.31127217817614233" fill="#ff0300" stroke="none" /><path d="M 119.54520255179757 107.68017299344265 l 0.7748773872464786 0.3044835358952305 a21.832553415041456,21.832553415041456 0 0,0 -0.14045337573609235,0.34859376007947335 l -0.7695213972529937 -0.3177766638175174" fill="#ff0200" stroke="none" /><path d="M 119.41010516605496 108.01547362559984 l 0.7462505043692189 0.30816686384176756 a21.80737638759217,21.80737638759217 0 0,0 -0.14626416985535085,0.3457252918007443 l -0.7408353533215591 -0.32096668130867534" fill="#ff0200" stroke="none" /><path d="M 119.12269723197855 108.67885076344098 l 0.7612319761563838 0.345485714555601 a21.835963217184194,21.835963217184194 0 0,0 -0.15828513654320062,0.3409321024072516 l -0.7551722227733518 -0.35853788424168315" fill="#ff0200" stroke="none" /><line stroke="#e1ed5e" stroke-width="0.3" x1="174.80103733775053" x2="179.2010983576182" y1="140.37084112569926" y2="142.7455964860345" /><path d="M 175.68104954172406 140.8457921977663 a86.0,86.0 0 0,1 -30.038265399797805,32.042727171017184" fill="none" id="id5" stroke="none" /><text fill="#e1ed5e" style="font-size:6.75px; font-family:Arial;" text-anchor="middle"><textPath startOffset="22.206326154141568" xlink:href="#id5">May</textPath></text><path d="M 118.30583269289576 110.29060199501025 l 0.707193711399118 0.39754810062296375 a21.811275192367784,21.811275192367784 0 0,0 -0.1867959192723081,0.3256944303261618 l -0.7002457959744305 -0.40966237680744066" fill="#ff0200" stroke="none" /><path d="M 118.12598468904814 110.60418214915192 l 0.6760218966553563 0.3954907527467966 a21.783210406127072,21.783210406127072 0 0,0 -0.19212700742400574,0.3220159155674531 l -0.6691140135331233 -0.4070687622003539" fill="#ff0200" stroke="none" /><path d="M 117.94076556474637 110.91462005526583 l 0.734759697451408 0.4470056141507562 a21.860049900925045,21.860049900925045 0 0,0 -0.1983386897499555,0.3197851202905887 l -0.7269563680334896 -0.4595870658066184" fill="#ff0300" stroke="none" /><path d="M 117.75023020441432 111.22182372390056 l 0.6808254987012703 0.43042279706672826 a21.80547324221018,21.80547324221018 0 0,0 -0.2033050291707912,0.31553392008563796 l -0.6733156061534288 -0.44207831707381917" fill="#ff0200" stroke="none" /><path d="M 117.55443506779139 111.5257021239791 l 0.6835182784144257 0.4487770778653067 a21.817678483600947,21.817678483600947 0 0,0 -0.2088231248738628,0.3121622381927768 l -0.6756920481298417 -0.46047623026389034" fill="#ff0200" stroke="none" /><path d="M 115.32070863581623 114.36230785411682 l 0.6013356095438683 0.5637185167611471 a21.8242469784263,21.8242469784263 0 0,0 -0.25928603058118055,0.2718603664524782 l -0.5915430275837232 -0.5739859997961324" fill="#ff0200" stroke="none" /><path d="M 115.07121518719521 114.62390073753431 l 0.5548739235103705 0.538405236636528 a21.77315281143473,21.77315281143473 0 0,0 -0.26330934659820343,0.2667309779406286 l -0.5455239518566314 -0.5478767085578212" fill="#ff0200" stroke="none" /><path d="M 114.29624159901734 115.38237550388516 l 0.5308405239955992 0.5711702769027583 a21.779760955122207,21.779760955122207 0 0,0 -0.27681085768695823,0.25286015537494794 l -0.520930116841777 -0.5802231988642893" fill="#ff0200" stroke="none" /><path d="M 113.20401910651253 116.32954008644616 l 0.4184496754413319 0.5175008226025192 a21.66551275890943,21.66551275890943 0 0,0 -0.29201243108790215,0.2319923359603794 l -0.40947975163607864 -0.5246270725680247" fill="#ff0000" stroke="none" /><path d="M 112.92097659922987 116.55440617244103 l 0.4106873206825169 0.5261742147923358 a21.66747537758461,21.66747537758461 0 0,0 -0.2959893434239816,0.2269520069044159 l -0.4015692487650416 -0.5331655635241233" fill="#ff0000" stroke="none" /><path d="M 112.63410532772338 116.77436683061366 l 0.4776228259953138 0.634142290419187 a21.793889166326032,21.793889166326032 0 0,0 -0.3016015116555415,0.22311758804896314 l -0.46663634392120806 -0.6422698272079191" fill="#ff0200" stroke="none" /><path d="M 112.34349029814194 116.9893568818739 l 0.4641427071635014 0.6388376306583894 a21.789646738078673,21.789646738078673 0 0,0 -0.30533797956396413,0.21785054119271463 l -0.4530773997506527 -0.6467324336953233" fill="#ff0200" stroke="none" /><line stroke="#e1ed5e" stroke-width="0.3" x1="143.8653032363475" x2="146.44561519142675" y1="172.8068346515853" y2="177.08958963109032" /><path d="M 144.38136562736335 173.6633856474863 a86.0,86.0 0 0,1 -40.68145358897372,12.25698825130547" fill="none" id="id6" stroke="none" /><text fill="#e1ed5e" style="font-size:6.75px; font-family:Arial;" text-anchor="middle"><textPath startOffset="21.466115282336833" xlink:href="#id6">June</textPath></text><path d="M 103.41894727170886 120.7198165907248 l 1.3374455814096147 8.105309893542659 a29.214913825086214,29.214913825086214 0 0,0 -0.4968818793375481,0.07760273066055952 l -1.1977278384635495 -8.127130931550324" fill="#ff6a09" stroke="none" /><path d="M 103.06178313531738 120.77559828337769 l 1.0355357477983285 7.02658344942027 a28.102479092305384,28.102479092305384 0 0,0 -0.47917591808211574,0.06640941598527172 l -0.9144312385293822 -7.043367430898145" fill="#ff5b08" stroke="none" /><path d="M 102.34483914955558 120.86867818915974 l 1.173572479095077 10.444599751130589 a31.510325224511682,31.510325224511682 0 0,0 -0.5395278962424117,0.055924272441999844 l -0.9936119862470627 -10.463253392028347" fill="#ff890c" stroke="none" /><path d="M 101.26447882468166 120.96189622390904 l 0.17402585804362014 2.884913456344724 a23.890157547585716,23.890157547585716 0 0,0 -0.41069675819810514,0.021228331253304304 l -0.12434103143203537 -2.88748159436023" fill="#ff2003" stroke="none" /><line stroke="#e1ed5e" stroke-width="0.3" x1="102.19456741930631" x2="102.32365962044197" y1="184.97166512339345" y2="189.96999836594603" /><path d="M 102.22038585953345 185.97133177190398 a86.0,86.0 0 0,1 -42.740103519485714,-10.115201625700543" fill="none" id="id7" stroke="none" /><text fill="#e1ed5e" style="font-size:6.75px; font-family:Arial;" text-anchor="middle"><textPath startOffset="22.20632615414155" xlink:href="#id7">July</textPath></text><path d="M 100.54218724476979 120.99299961872073 l 0.23701840403113064 9.177138181419132 a30.18019841423432,30.18019841423432 0 0,0 -0.5194447749496031,0.008942712873906793 l -0.0790139391888597 -9.179858371572198" fill="#ff770b" stroke="none" /><path d="M 91.40352486487194 119.15986991738527 l -3.2497433410084344 7.243045399407548 a28.93867359451864,28.93867359451864 0 0,0 -0.4527276398018888,-0.207825054544539 l 3.373938976577743 -7.186033274528935" fill="#ff6609" stroke="none" /><line stroke="#e1ed5e" stroke-width="0.3" x1="58.666819895761336" x2="56.23545636021788" y1="174.27360380694188" y2="178.64263932499728" /><path d="M 58.180547188652646 175.14741091055294 a86.0,86.0 0 0,1 -31.652253787137756,-30.449443065178592" fill="none" id="id8" stroke="none" /><text fill="#e1ed5e" style="font-size:6.75px; font-family:Arial;" text-anchor="middle"><textPath startOffset="22.20632615414155" xlink:href="#id8">August</textPath></text><path d="M 89.1626897886671 117.98757091392108 l -0.8161768505426515 1.3546755321338222 a22.581546853154776,22.581546853154776 0 0,0 -0.3312183870702281,-0.20346138578439182 l 0.8393744375451884 -1.3404256795210523" fill="#ff0d01" stroke="none" /><path d="M 88.24862548938628 117.40417183066458 l -3.8374806242961923 5.683434914083844 a27.857673801259136,27.857673801259136 0 0,0 -0.3951055405774434,-0.27175719357383094 l 3.934743049496526 -5.616536931144912" fill="#ff5808" stroke="none" /><path d="M 83.50135304334701 112.99209946851258 l -4.158541391454489 3.2747038920010874 a26.293123093668548,26.293123093668548 0 0,0 -0.2769456943983644,-0.3579896426651843 l 4.214293903070922 -3.20263625522265" fill="#ff4206" stroke="none" /><path d="M 83.06392112726016 112.41649034213515 l -0.5748327712859992 0.42143199772786216 a21.712767594418573,21.712767594418573 0 0,0 -0.21838929901872728,-0.30332363546914004 l 0.5820018626803339 -0.411474756807584" fill="#ff0100" stroke="none" /><line stroke="#e1ed5e" stroke-width="0.3" x1="26.63291911575756" x2="22.317208475507996" y1="142.92168965132927" y2="145.44649492493687" /><path d="M 25.769776987707644 143.4266507060508 a86.0,86.0 0 0,1 -11.730757126820373,-40.83630448921669" fill="none" id="id9" stroke="none" /><text fill="#e1ed5e" style="font-size:6.75px; font-family:Arial;" text-anchor="middle"><textPath startOffset="21.46611528233685" xlink:href="#id9">September</textPath></text><path d="M 81.69416730710424 110.29060199501025 l -4.676157054525148 2.628696105856612 a26.36437209890692,26.36437209890692 0 0,0 -0.21897944971655245,-0.39751130811637186 l 4.720712913693217 -2.547814279342418" fill="#ff4306" stroke="none" /><path d="M 80.87730276802145 108.67885076344099 l -4.721654083259361 2.142926316726499 a26.18518567467731,26.18518567467731 0 0,0 -0.18274630517098742,-0.412044674544988 l 4.757841473161628 -2.061333305688815" fill="#ff4006" stroke="none" /><path d="M 80.45479744820244 107.68017299344265 l -20.918140699394932 8.21966100616088 a43.47512930721166,43.47512930721166 0 0,0 -0.2676944245159214,-0.6988656706188456 l 21.056529403504364 -7.858371768708876" fill="#e0ff1b" stroke="none" /><path d="M 79.86692584326677 105.97154293290107 l -0.6536175529761244 0.19386534062853644 a21.681762184236934,21.681762184236934 0 0,0 -0.10304759577482253,-0.3587221994666793 l 0.6568577856370511 -0.18258566565726114" fill="#ff0000" stroke="none" /><path d="M 79.4281124754447 104.21870165774334 l -1.0776639317291723 0.2209978355097168 a22.100090720372624,22.100090720372624 0 0,0 -0.07321451393619882,-0.3733192292192886 l 1.0813083786410376 -0.20241487922247334" fill="#ff0601" stroke="none" /><path d="M 79.18660465613746 102.79330883721812 l -21.71701939322372 2.9145817482882386 a42.91172558456111,42.91172558456111 0 0,0 -0.09195061366279352,-0.7329368619082306 l 21.76397151613336 -2.540327132092599" fill="#e6ff1a" stroke="none" /><path d="M 79.07016306316243 101.71520430193888 l -1.053915330266091 0.08636857104080573 a22.05744836915734,22.05744836915734 0 0,0 -0.027753985380803856,-0.378681079876997 l 1.0552458743112303 -0.06821435466704807" fill="#ff0600" stroke="none" /><path d="M 79.04373962182676 101.35467743843564 l -1.0441079665128559 0.06749436588405179 a22.046287214469192,22.046287214469192 0 0,0 -0.021220757808856093,-0.3789108859759215 l 1.0451150752092435 -0.04951176357269267" fill="#ff0600" stroke="none" /><path d="M 79.0095281055655 100.63252640178507 l -62.97141568330351 1.8975792053552267 a84.0,84.0 0 0,0 -0.03111174925997018,-1.4456407368394846 l 62.994749495248485 -0.8133486527256131" fill="#4dd2ff" stroke="none" /><line stroke="#e1ed5e" stroke-width="0.3" x1="15.007084014347285" x2="10.007500721073583" y1="101.09737516637583" y2="101.16192664675087" /><path d="M 14.007167355692545 101.11028546245083 a86.0,86.0 0 0,1 10.666146001902534,-42.60595125391555" fill="none" id="id10" stroke="none" /><text fill="#e1ed5e" style="font-size:6.75px; font-family:Arial;" text-anchor="middle"><textPath startOffset="22.20632615414155" xlink:href="#id10">October</textPath></text><path d="M 79.00019446554 99.90962569577889 l -2.3775748652922473 -0.010232079236724985 a23.377596882466612,23.377596882466612 0 0,0 0.005195384678827943,-0.4023882688900108 l 2.3770464734957035 0.05115660618720774" fill="#ff1902" stroke="none" /><path d="M 79.01574976396665 99.18683210126434 l -1.0788089893449742 -0.041805298218203765 a22.079618691228823,22.079618691228823 0 0,0 0.01798583844700584,-0.3796526228286543 l 1.0779295426644695 0.060369027669867154" fill="#ff0601" stroke="none" /><path d="M 79.3925641242962 95.95851677861259 l -6.517724596890693 -1.27824125033499 a27.641884869144594,27.641884869144594 0 0,0 0.09558919721113993,-0.46612687341393344 l 6.4947561037645585 1.390243779912326" fill="#ff5507" stroke="none" /><path d="M 79.62865764111835 94.90015583598534 l -7.701078534293784 -1.9279191193119176 a28.938733067811825,28.938733067811825 0 0,0 0.12513062445634987,-0.4821793400245072 l 7.666751577967127 2.0601948848852887" fill="#ff6609" stroke="none" /><path d="M 80.02781315780177 93.51064311812611 l -0.6454091267777242 -0.20970613741856334 a21.678623315985384,21.678623315985384 0 0,0 0.11836807698634465,-0.3539054840159556 l 0.6417037560196072 0.2207847243568411" fill="#ff0000" stroke="none" /><line stroke="#e1ed5e" stroke-width="0.3" x1="26.266209847984243" x2="21.928928074336255" y1="57.711370442889674" y2="55.22380399835377" /><path d="M 25.398753493254645 57.213857153982495 a86.0,86.0 0 0,1 29.58750427330803,-30.492523968695096" fill="none" id="id11" stroke="none" /><text fill="#e1ed5e" style="font-size:6.75px; font-family:Arial;" text-anchor="middle"><textPath startOffset="21.46611528233685" xlink:href="#id11">November</textPath></text><path d="M 81.78341655067845 89.55222093294921 l -5.741052349582899 -3.292672675295152 a27.618260755461865,27.618260755461865 0 0,0 0.24006887185073605,-0.410355521461079 l 5.683523803261838 3.391007609110123" fill="#ff5407" stroke="none" /><path d="M 82.95767976084542 87.72973835380427 l -3.362052519616586 -2.4206365978951685 a25.142810481271106,25.142810481271106 0 0,0 0.255902791730082,-0.34905112033049324 l 3.3198871153728704 2.4781501618971626" fill="#ff3204" stroke="none" /><path d="M 84.80347519578584 85.50635884689758 l -7.8123141607224875 -7.450971816228182 a31.795797031810658,31.795797031810658 0 0,0 0.3811494465213838,-0.39280800862251375 l 7.682900450497986 7.5843440204008195" fill="#ff8d0d" stroke="none" /><path d="M 85.31137513191541 84.99185889309783 l -15.485783610642661 -15.822640149553022 a43.13968010920429,43.13968010920429 0 0,0 0.5351718825546371,-0.5148349270014285 l 15.211128484475598 16.086858163316766" fill="#e3ff1b" stroke="none" /><line stroke="#e1ed5e" stroke-width="0.3" x1="56.762969772571076" x2="54.21961505331055" y1="26.818313649435495" y2="22.513508569990535" /><path d="M 56.25429882871897 25.957352633546506 a86.0,86.0 0 0,1 42.265352541879196,-11.944610805530505" fill="none" id="id12" stroke="none" /><text fill="#e1ed5e" style="font-size:6.75px; font-family:Arial;" text-anchor="middle"><textPath startOffset="22.20632615414155" xlink:href="#id12">December</textPath></text><path d="M 90.91171255644093 81.06846463323043 l -0.91514985600191 -1.9063208522385278 a23.11460597999243,23.11460597999243 0 0,0 0.360171557803709,-0.1691053757621677 l 0.8822000868985925 1.9217912106407031" fill="#ff1502" stroke="none" /></svg>