<?xml version="1.0" encoding="utf-8" ?>
<svg baseProfile="full" height="200mm" version="1.1" viewBox="0,0,200,200" width="200mm" xmlns="http://www.w3.org/2000/svg" xmlns:ev="http://www.w3.org/2001/xml-events" xmlns:xlink="http://www.w3.org/1999/xlink"><defs /><rect fill="#1a1a1a" height="200" width="200" x="0" y="0" /><rect fill="#1a1a1a" height="200" width="180" x="10" y="0" /><text alignment-baseline="middle" fill="#e1ed5e" style="dominant-baseline: central; font-size:9.0px; font-family:Arial;" text-anchor="middle" x="100.0" y="100.0">2026</text><line stroke="#e1ed5e" stroke-width="0.3" x1="100.0" x2="100.0" y1="15.0" y2="10.0" /><path d="M 100.0 14.0 a86.0,86.0 0 0,1 42.46469731375804,11.215312516191453" fill="none" id="id37" stroke="none" /><text fill="#e1ed5e" style="font-size:6.75px; font-family:Arial;" text-anchor="middle"><textPath startOffset="22.20632615414155" xlink:href="#id37">January</textPath></text><path d="M 100.36148047927253 79.00311137660856 l 0.4714471565073042 -27.384392808485337 a48.388450703002576,48.388450703002576 0 0,0 0.8326808213453003,0.021505688967633652 l -0.9427546130474722 27.372220327375345" fill="#fff617" stroke="none" /><path d="M 100.72285384407766 79.0124445844662 l 1.1166488313882206 -32.42111724307783 a53.44034136537468,53.44034136537468 0 0,0 0.9190699621118426,0.03957708588355685 l -1.6745596258893944 32.397092430670085" fill="#beff1e" stroke="none" /><path d="M 101.08401301168833 79.027996857942 l 1.0396773128914967 -20.114256598015736 a41.14110839566087,41.14110839566087 0 0,0 0.7069177743789385,0.04264321065924097 l -1.3857571361100471 20.093380117976192" fill="#ff850c" stroke="none" /><path d="M 101.80526077348638 79.07773832637324 l 2.3532907034378723 -27.2737128145503 a48.37505046251883,48.37505046251883 0 0,0 0.8289983398667613,0.07872338136225511 l -2.8224141703948775 27.22916388867287" fill="#fff617" stroke="none" /><path d="M 102.16513564639614 79.11191278185805 l 2.823372822973707 -27.2384124633346 a48.38434858856877,48.38434858856877 0 0,0 0.8276794781907681,0.09299943322493616 l -3.2918190046742 27.185777076639067" fill="#fff617" stroke="none" /><path d="M 102.52436894288641 79.15227682838746 l 2.5720797997175224 -21.241747483430544 a42.39690236099475,42.39690236099475 0 0,0 0.7237459549194069,0.09396299659652702 l -2.9373404831447756 21.194326163669878" fill="#ff990e" stroke="none" /><path d="M 103.2404852339499 79.25152402106235 l 7.618275019012664 -48.77898981821703 a70.37031458225715,70.37031458225715 0 0,0 1.1951921888719403,0.19721695196571706 l -8.45679641402348 48.64062660331169" fill="#38ff83" stroke="none" /><path d="M 103.59715602781102 79.31037775812273 l 5.6886278520454745 -32.719059285583356 a54.209898033155504,54.209898033155504 0 0,0 0.9179668678621121,0.16775257760524553 l -6.250989841010488 32.61629122662737" fill="#b4ff20" stroke="none" /><path d="M 104.307194497241 79.44645832069477 l 4.807487116287726 -22.940892704203744 a44.43920840043582,44.43920840043582 0 0,0 0.7473347514034081,0.16333843065801165 l -5.201664591844662 22.854740775449862" fill="#ffba11" stroke="none" /><path d="M 104.66035177308747 79.52364482259891 l 5.618725099786146 -24.687194527201626 a46.318523759707254,46.318523759707254 0 0,0 0.7758933101680272,0.18362887840933004 l -6.042842096916697 24.586819736651428" fill="#ffd714" stroke="none" /><path d="M 105.01212808612495 79.60689891045804 l 5.429883389059311 -22.09284339002638 a43.750326649853065,43.750326649853065 0 0,0 0.7297785972652474,0.1860368136412006 l -5.809370875009583 21.996103580216314" fill="#ffaf10" stroke="none" /><path d="M 105.71112130821622 79.79150937346287 l 8.552960039478377 -30.26418166574194 a52.44954399246426,52.44954399246426 0 0,0 0.8666907067300262,0.25301078351850503 l -9.07264096393183 30.112472553304734" fill="#ccff1d" stroke="none" /><path d="M 106.0581310904928 79.89281104454417 l 11.883108456967548 -39.44053100755628 a62.19179229844293,62.19179229844293 0 0,0 1.0223579237504477,0.31765158349263256 l -12.560251753428714 39.23013928918113" fill="#4bff2c" stroke="none" /><path d="M 107.08798089147638 80.2323363322302 l 7.785182541875758 -21.712088736731594 a44.06564251266446,44.06564251266446 0 0,0 0.7118021317372913,0.2621627322641425 l -8.157766999385625 21.574862736661128" fill="#ffb410" stroke="none" /><path d="M 107.4271985657038 80.35727306442388 l 8.84845400533292 -23.401524045868733 a46.0185224574487,46.0185224574487 0 0,0 0.7385246090476717,0.2865360746422924 l -9.249961779380259 23.245745267335895" fill="#ffd213" stroke="none" /><path d="M 107.76421540070413 80.48803036053334 l 7.522494714093305 -18.904510101706563 a41.346214117350854,41.346214117350854 0 0,0 0.659011656977603,0.26882740167843183 l -7.8467902406592955 18.772221813844553" fill="#ff880c" stroke="none" /><path d="M 108.09893153111575 80.62456947434976 l 7.382831984921179 -17.66227404896731 a40.1432006910652,40.1432006910652 0 0,0 0.6352494097106671,0.2719806449242466 l -7.685765152422161 17.53257387608027" fill="#ff740a" stroke="none" /><path d="M 108.43124777332544 80.76684994638697 l 19.763945089453586 -45.08501372234042 a70.22674057707417,70.22674057707417 0 0,0 1.102954038291124,0.49486332664270183 l -20.537081246211493 44.73813006518118" fill="#38ff81" stroke="none" /><path d="M 109.08828744355905 81.06846463323043 l 10.765152203090407 -22.424561384873307 a45.87467497797013,45.87467497797013 0 0,0 0.7089357212813758,0.3478716795587373 l -11.149559191382215 22.235934545179738" fill="#ffd013" stroke="none" /><path d="M 109.41281617654863 81.2277094730956 l 9.078951285966212 -18.106452736683767 a41.2551471769205,41.2551471769205 0 0,0 0.6320671874836443,0.3237693630518757 l -9.389278961038613 17.94749084831939" fill="#ff860c" stroke="none" /><path d="M 110.05341064243156 81.56283822128135 l 11.856111035355786 -21.74317204379472 a45.765558734031046,45.765558734031046 0 0,0 0.6883922644875875,0.3830895498808516 l -12.228627388915408 21.535867096353687" fill="#ffce13" stroke="none" /><path d="M 110.36928655335952 81.73862282372117 l 9.452444453053577 -16.646724199083014 a40.1432006910652,40.1432006910652 0 0,0 0.5979487783554899,0.3463705273465669 l -9.737589963874395 16.481549514346394" fill="#ff740a" stroke="none" /><line stroke="#e1ed5e" stroke-width="0.3" x1="143.23703022742887" x2="145.7803849466894" y1="26.81831364943548" y2="22.513508569990506" /><path d="M 143.74570117128098 25.957352633546492 a86.0,86.0 0 0,1 28.547481713284135,27.462654790039103" fill="none" id="id38" stroke="none" /><text fill="#e1ed5e" style="font-size:6.75px; font-family:Arial;" text-anchor="middle"><textPath startOffset="19.985693538727396" xlink:href="#id38">February</textPath></text><path d="M 110.68208982089419 81.91981866633111 l 26.438530510915374 -44.7490550864019 a72.97570419631114,72.97570419631114 0 0,0 1.0760022030313647,0.6482792878555739 l -27.204894780164377 44.287329189087714" fill="#3cffa6" stroke="none" /><path d="M 111.2981086023043 82.29822771554956 l 16.3000090239774 -25.538703701085556 a51.29712331086213,51.29712331086213 0 0,0 0.7402247545524326,0.48146277105201335 l -16.73720080431411 25.254342005874012" fill="#ddff1b" stroke="none" /><path d="M 111.60114157652 82.49532879139004 l 17.147525550983524 -25.873470712461078 a52.03987949767547,52.03987949767547 0 0,0 0.7424239810072771,0.5012879860853531 l -17.590354226397345 25.574470814077056" fill="#d2ff1c" stroke="none" /><path d="M 112.19680574252982 82.90503203632743 l 19.308330936182628 -27.062437965628124 a54.24435579439941,54.24435579439941 0 0,0 0.7554293292116004,0.5488515345747869 l -19.771305581748017 26.726067196236663" fill="#b3ff20" stroke="none" /><path d="M 112.48926042617603 83.11751280151076 l 12.01195901499634 -16.237290069988887 a41.19744410055172,41.19744410055172 0 0,0 0.5664724018742059,0.4266552688871523 l -12.289677570628928 16.028118211595885" fill="#ff850c" stroke="none" /><path d="M 112.77801427241765 83.33499621200491 l 37.74131610265569 -49.22198100626131 a83.02588455912037,83.02588455912037 0 0,0 1.1266511513543163,0.8793690942764857 l -38.582999809169436 48.565033522761595" fill="#4cddff" stroke="none" /><path d="M 113.34407831869373 83.78471172551755 l 19.660661941042715 -23.89099444916638 a51.94060832837752,51.94060832837752 0 0,0 0.685473720188968,0.5740645274893985 l -20.0689931981908 23.549028764283165" fill="#d4ff1c" stroke="none" /><path d="M 113.6212207817346 84.01681056812373 l 11.524074643640665 -13.522390614458176 a38.76680456137761,38.76680456137761 0 0,0 0.504164511064816,0.43720649587581834 l -11.755132953352245 13.322019125162688" fill="#ff5d08" stroke="none" /><path d="M 114.42810811169701 84.74124197986012 l 13.489278058198757 -14.265877976723022 a40.633540103052056,40.633540103052056 0 0,0 0.5040818127710402,0.48492630450224394 l -13.732843114582215 14.031568585458476" fill="#ff7c0b" stroke="none" /><path d="M 114.68862486808459 84.99185889309783 l 31.27453071396881 -31.954834044896995 a65.7125003798254,65.7125003798254 0 0,0 0.8015804799429755,0.7981382386206628 l -31.81994699407911 31.411759955626213" fill="#31ff41" stroke="none" /><path d="M 114.94478906791727 85.2469230424477 l 20.041167853198765 -19.784079274306514 a49.16128906233044,49.16128906233044 0 0,0 0.5893168237814307,0.6073427893180506 l -20.378748940683305 19.43617228943835" fill="#fcff18" stroke="none" /><path d="M 115.4437574822437 85.77008943001954 l 20.934939782685937 -19.289497470939793 a49.46675985050071,49.46675985050071 0 0,0 0.571591612183017,0.6311657345118211 l -21.263875035484993 18.92627894915842" fill="#f8ff18" stroke="none" /><path d="M 115.68641384162765 86.03803664274999 l 20.785865298201653 -18.50081813295531 a48.82682999882796,48.82682999882796 0 0,0 0.5533896578772505,0.6326200420287775 l -21.10124681965675 18.140282534723585" fill="#fffd17" stroke="none" /><path d="M 115.9244219780498 86.31012108654704 l 47.773265934149435 -41.069636740358895 a84.0,84.0 0 0,0 0.9331575460515311,1.1045642014835737 l -48.47313409368808 40.241213589246215" fill="#4dd2ff" stroke="none" /><path d="M 116.38621287248628 86.86637796730983 l 35.49863621931496 -28.452313808474752 a66.49381644231646,66.49381644231646 0 0,0 0.7081462244313359,0.8992737916527805 l -35.98313652434026 27.837047622868933" fill="#32ff4c" stroke="none" /><path d="M 116.82858285166822 87.43820079747576 l 30.470408377823112 -22.744823793833795 a59.023319109776054,59.023319109776054 0 0,0 0.6007376203475279,0.8194054390315114 l -30.857408610684267 22.21695591113079" fill="#73ff27" stroke="none" /><line stroke="#e1ed5e" stroke-width="0.3" x1="172.23445277983987" x2="176.4835382374775" y1="55.19839476539836" y2="52.563006222186495" /><path d="M 173.08426987136738 54.67131705675599 a86.0,86.0 0 0,1 12.851231095245387,41.99856678651699" fill="none" id="id39" stroke="none" /><text fill="#e1ed5e" style="font-size:6.75px; font-family:Arial;" text-anchor="middle"><textPath startOffset="22.20632615414155" xlink:href="#id39">March</textPath></text><path d="M 117.84615892207809 88.93136811851018 l 15.053215567643758 -9.336378908115133 a38.71347707373822,38.71347707373822 0 0,0 0.346364320741137,0.5693318729323417 l -15.211695686671119 9.075879261975711" fill="#ff5c08" stroke="none" /><path d="M 118.21658344932153 89.55222093294921 l 16.964103882826887 -9.729442951327679 a40.556146877401034,40.556146877401034 0 0,0 0.3421053103787308,0.6085671740274087 l -17.12906683449805 9.435992267365476" fill="#ff7b0b" stroke="none" /><path d="M 118.56541770881063 90.18545643968196 l 19.341579162624104 -10.224858615856869 a42.87794364693166,42.87794364693166 0 0,0 0.33932903617200766,0.6554756916213721 l -19.51471763195623 9.890410201975152" fill="#ffa10e" stroke="none" /><path d="M 118.73160827565052 90.50648371742162 l 22.41070172853853 -11.358147075948263 a46.12463048413632,46.12463048413632 0 0,0 0.35283143064288075,0.7112866341103137 l -22.60289317213482 10.970700853339" fill="#ffd413" stroke="none" /><path d="M 118.89224826269711 90.83032412892265 l 17.90035376848425 -8.688242910650024 a40.89744279829317,40.89744279829317 0 0,0 0.3019434951762302,0.6359700060328475 l -18.04725545750224 8.378830488976636" fill="#ff810b" stroke="none" /><path d="M 119.04729006885535 91.15688171328212 l 39.69091484142253 -18.427369645861575 a64.75998940829712,64.75998940829712 0 0,0 0.4607139224322752,1.0151220581348828 l -40.002231080818156 17.741425578884627" fill="#30ff33" stroke="none" /><path d="M 119.34039704204932 91.81776055985345 l 32.372323263225745 -13.695587510310624 a56.150198160342754,56.150198160342754 0 0,0 0.36892902967475405,0.8933909085455558 l -32.6032739797867 13.136322031311764" fill="#99ff23" stroke="none" /><path d="M 119.61058180528143 92.48833698450437 l 25.548518434105628 -9.786138061977073 a48.35864200478363,48.35864200478363 0 0,0 0.2910624026522484,0.7799025319857922 l -25.7131854252595 9.344912392961948" fill="#fff617" stroke="none" /><path d="M 119.7369772167798 92.82701384747503 l 27.082365449053306 -9.842511860353396 a49.81543957737368,49.81543957737368 0 0,0 0.2859570366265467,0.8084390499319293 l -27.24777556648966 9.374875183994853" fill="#f2ff19" stroke="none" /><path d="M 119.97218684219823 93.5106431181261 l 52.57137265048477 -17.081474432142432 a76.27681241833753,76.27681241833753 0 0,0 0.3949850031493046,1.2522103993688147 l -52.85761313740228 16.1740138663472" fill="#41ffd1" stroke="none" /><path d="M 120.28053869075195 94.5502522615342 l 21.145306656751096 -5.682126539584653 a42.89544600184921,42.89544600184921 0 0,0 0.18547923062034605,0.7147271373201577 l -21.239982219241746 5.317302976715645" fill="#ffa10e" stroke="none" /><path d="M 120.37134235888165 94.90015583598534 l 23.044998693808598 -5.769178094790849 a44.75616510902074,44.75616510902074 0 0,0 0.18065975177886215,0.7489513044571379 l -23.14089124584828 5.371641558674305" fill="#ffbf11" stroke="none" /><path d="M 120.45610955862082 95.25157060432595 l 54.33293085614922 -12.612177564415584 a76.7775438535567,76.7775438535567 0 0,0 0.28775350730819627,1.2899425504699902 l -54.54197875045946 11.675056844395629" fill="#42ffd7" stroke="none" /><path d="M 120.53481517161879 95.60439243477599 l 38.48335733172411 -8.23760697180946 a60.355138929283015,60.355138929283015 0 0,0 0.20871584210441488,1.0177725700237366 l -38.61945246974352 7.5739587456223125" fill="#62ff29" stroke="none" /><path d="M 120.6074358757038 95.95851677861258 l 27.46739722032958 -5.386843160435383 a48.99064110188437,48.99064110188437 0 0,0 0.15517033467065391,0.8289261325077689 l -27.556053278910095 4.913238950465051" fill="#ffff18" stroke="none" /><path d="M 120.73433829027371 96.67025291283417 l 16.93343145819883 -2.71935584749811 a38.150393499125315,38.150393499125315 0 0,0 0.09854447668091401,0.6492849761513679 l -16.97773182831904 2.4274717589546597" fill="#ff5307" stroke="none" /><path d="M 120.83666639777658 97.38593545837742 l 19.342176084885246 -2.4265732193473144 a40.49379473800728,40.49379473800728 0 0,0 0.0808133639530959,0.6923595504604593 l -19.38107980184193 2.0932699305620024" fill="#ff7a0b" stroke="none" /><path d="M 120.91429891909075 98.10471618934814 l 12.370239172017715 -1.1210088431516005 a33.42092903124986,33.42092903124986 0 0,0 0.046989056232365975,0.5733855049498178 l -12.387702712069578 0.9079094209940141" fill="#ff0000" stroke="none" /><path d="M 120.94382443527127 98.46500227214037 l 57.955924005279755 -4.24765839396026 a79.11137349209312,79.11137349209312 0 0,0 0.08784907022212193,1.358986233417395 l -58.02045366650629 3.24941309628983" fill="#46fff4" stroke="none" /><line stroke="#e1ed5e" stroke-width="0.3" x1="184.98032266829074" x2="189.97916517819016" y1="98.17113171792111" y2="98.06355123074" /><path d="M 185.9800911702706 98.14961562048488 a86.0,86.0 0 0,1 -9.607161424134198,41.387399972396054" fill="none" id="id40" stroke="none" /><text fill="#e1ed5e" style="font-size:6.75px; font-family:Arial;" text-anchor="middle"><textPath startOffset="21.466115282336823" xlink:href="#id40">April</textPath></text><path d="M 120.99513854157772 99.54816195383933 l 13.695703152221572 -0.29474631666951906 a34.69887441452626,34.69887441452626 0 0,0 0.007711399995994096,0.5972564279507016 l -13.698747559335281 0.058953630658354815" fill="#ff1702" stroke="none" /><path d="M 120.99980553446 99.90962569577887 l 31.999751420596084 -0.1377134309715338 a53.000047749480174,53.000047749480174 0 0,0 -0.003926300854301716,0.9123340436280578 l -31.997380822452282 -0.41313009086020874" fill="#c5ff1e" stroke="none" /><path d="M 120.9904718944345 100.63252640178507 l 27.356069468279006 0.8243471740309395 a48.36848707942475,48.36848707942475 0 0,0 -0.032240745539337264,0.8319903838379658 l -27.337826589888465 -1.2951148048829115" fill="#fff617" stroke="none" /><line stroke="#e1ed5e" stroke-width="0.3" x1="174.80103733775053" x2="179.2010983576182" y1="140.37084112569926" y2="142.7455964860345" /><path d="M 175.68104954172406 140.8457921977663 a86.0,86.0 0 0,1 -30.038265399797805,32.042727171017184" fill="none" id="id41" stroke="none" /><text fill="#e1ed5e" style="font-size:6.75px; font-family:Arial;" text-anchor="middle"><textPath startOffset="22.206326154141568" xlink:href="#id41">May</textPath></text><line stroke="#e1ed5e" stroke-width="0.3" x1="143.8653032363475" x2="146.44561519142675" y1="172.8068346515853" y2="177.08958963109032" /><path d="M 144.38136562736335 173.6633856474863 a86.0,86.0 0 0,1 -40.68145358897372,12.25698825130547" fill="none" id="id42" stroke="none" /><text fill="#e1ed5e" style="font-size:6.75px; font-family:Arial;" text-anchor="middle"><textPath startOffset="21.466115282336833" xlink:href="#id42">June</textPath></text><line stroke="#e1ed5e" stroke-width="0.3" x1="102.19456741930631" x2="102.32365962044197" y1="184.97166512339345" y2="189.96999836594603" /><path d="M 102.22038585953345 185.97133177190398 a86.0,86.0 0 0,1 -42.740103519485714,-10.115201625700543" fill="none" id="id43" stroke="none" /><text fill="#e1ed5e" style="font-size:6.75px; font-family:Arial;" text-anchor="middle"><textPath startOffset="22.20632615414155" xlink:href="#id43">July</textPath></text><line stroke="#e1ed5e" stroke-width="0.3" x1="58.666819895761336" x2="56.23545636021788" y1="174.27360380694188" y2="178.64263932499728" /><path d="M 58.180547188652646 175.14741091055294 a86.0,86.0 0 0,1 -31.652253787137756,-30.449443065178592" fill="none" id="id44" stroke="none" /><text fill="#e1ed5e" style="font-size:6.75px; font-family:Arial;" text-anchor="middle"><textPath startOffset="22.20632615414155" xlink:href="#id44">August</textPath></text><line stroke="#e1ed5e" stroke-width="0.3" x1="26.63291911575756" x2="22.317208475507996" y1="142.92168965132927" y2="145.44649492493687" /><path d="M 25.769776987707644 143.4266507060508 a86.0,86.0 0 0,1 -11.730757126820373,-40.83630448921669" fill="none" id="id45" stroke="none" /><text fill="#e1ed5e" style="font-size:6.75px; font-family:Arial;" text-anchor="middle"><textPath startOffset="21.46611528233685" xlink:href="#id45">September</textPath></text><line stroke="#e1ed5e" stroke-width="0.3" x1="15.007084014347285" x2="10.007500721073583" y1="101.09737516637583" y2="101.16192664675087" /><path d="M 14.007167355692545 101.11028546245083 a86.0,86.0 0 0,1 10.666146001902534,-42.60595125391555" fill="none" id="id46" stroke="none" /><text fill="#e1ed5e" style="font-size:6.75px; font-family:Arial;" text-anchor="middle"><textPath startOffset="22.20632615414155" xlink:href="#id46">October</textPath></text><line stroke="#e1ed5e" stroke-width="0.3" x1="26.266209847984243" x2="21.928928074336255" y1="57.711370442889674" y2="55.22380399835377" /><path d="M 25.398753493254645 57.213857153982495 a86.0,86.0 0 0,1 29.58750427330803,-30.492523968695096" fill="none" id="id47" stroke="none" /><text fill="#e1ed5e" style="font-size:6.75px; font-family:Arial;" text-anchor="middle"><textPath startOffset="21.46611528233685" xlink:href="#id47">November</textPath></text><line stroke="#e1ed5e" stroke-width="0.3" x1="56.762969772571076" x2="54.21961505331055" y1="26.818313649435495" y2="22.513508569990535" /><path d="M 56.25429882871897 25.957352633546506 a86.0,86.0 0 0,1 42.265352541879196,-11.944610805530505" fill="none" id="id48" stroke="none" /><text fill="#e1ed5e" style="font-size:6.75px; font-family:Arial;" text-anchor="middle"><textPath startOffset="22.20632615414155" xlink:href="#id48">December</textPath></text></svg>