<?xml version="1.0" encoding="utf-8" ?>
<svg baseProfile="full" height="200mm" version="1.1" viewBox="0,0,200,200" width="200mm" xmlns="http://www.w3.org/2000/svg" xmlns:ev="http://www.w3.org/2001/xml-events" xmlns:xlink="http://www.w3.org/1999/xlink"><defs /><rect fill="#1a1a1a" height="200" width="200" x="0" y="0" /><rect fill="#1a1a1a" height="200" width="180" x="10" y="0" /><text alignment-baseline="middle" fill="#e1ed5e" style="dominant-baseline: central; font-size:9.0px; font-family:Arial;" text-anchor="middle" x="100.0" y="100.0">2023</text><line stroke="#e1ed5e" stroke-width="0.3" x1="100.0" x2="100.0" y1="15.0" y2="10.0" /><path d="M 100.0 14.0 a86.0,86.0 0 0,1 42.46469731375804,11.215312516191453" fill="none" id="id13" stroke="none" /><text fill="#e1ed5e" style="font-size:6.75px; font-family:Arial;" text-anchor="middle"><textPath startOffset="22.20632615414155" xlink:href="#id13">January</textPath></text><path d="M 100.72285384407766 79.0124445844662 l 0.39173394236323933 -11.373720830086254 a32.380464885159014,32.380464885159014 0 0,0 0.5568810354652624,0.023980468817509586 l -0.5874558102178332 11.365292634744549" fill="#ff960d" stroke="none" /><line stroke="#e1ed5e" stroke-width="0.3" x1="143.23703022742887" x2="145.7803849466894" y1="26.81831364943548" y2="22.513508569990506" /><path d="M 143.74570117128098 25.957352633546492 a86.0,86.0 0 0,1 28.547481713284135,27.462654790039103" fill="none" id="id14" stroke="none" /><text fill="#e1ed5e" style="font-size:6.75px; font-family:Arial;" text-anchor="middle"><textPath startOffset="19.985693538727396" xlink:href="#id14">February</textPath></text><path d="M 112.19680574252982 82.90503203632743 l 2.694489341064205 -3.776579699333289 a25.639270097173146,25.639270097173146 0 0,0 0.3570630773899304,0.25942151090425225 l -2.7590977348079235 3.729638953612362" fill="#ff3b05" stroke="none" /><path d="M 113.6212207817346 84.01681056812373 l 4.2865963750798 -5.029907596297669 a27.60869721731449,27.60869721731449 0 0,0 0.35905268673011487,0.31136695176842766 l -4.372542860456679 4.95537565110957" fill="#ff5607" stroke="none" /><path d="M 114.94478906791727 85.2469230424477 l 3.297718872000988 -3.2554156557114458 a25.63386241166078,25.63386241166078 0 0,0 0.30728377277774394,0.31668293885366194 l -3.3532669084818414 3.1981685213076694" fill="#ff3b05" stroke="none" /><path d="M 115.68641384162765 86.03803664274999 l 1.7391410625261812 -1.5479525169508 a23.32825441696113,23.32825441696113 0 0,0 0.2643959218934643,0.30225024418071406 l -1.7655288479974935 1.517786716567138" fill="#ff1a02" stroke="none" /><path d="M 115.9244219780498 86.31012108654704 l 1.8639451520243822 -1.6023930707001044 a23.45803886925795,23.45803886925795 0 0,0 0.26059578555259744,0.3084632139522922 l -1.8912515510640966 1.5700709071187056" fill="#ff1c02" stroke="none" /><path d="M 116.15771136456269 86.58626213691792 l 1.0766502556301083 -0.8938087810453621 a22.399310512367492,22.399310512367492 0 0,0 0.24372743945355804,0.2987810221132293 l -1.0918761871600753 0.8751435893240319" fill="#ff0d01" stroke="none" /><path d="M 116.38621287248628 86.86637796730983 l 7.096612579554512 -5.687966344487107 a30.09477164310954,30.09477164310954 0 0,0 0.32050347016371106,0.4070068594709298 l -7.193470130312187 5.564967091063138" fill="#ff780b" stroke="none" /><path d="M 116.82858285166822 87.43820079747576 l 0.7766978202495965 -0.5797708663297528 a21.969223277385158,21.969223277385158 0 0,0 0.22360211373395858,0.3049930318440099 l -0.7865625464971815 0.5663153908142493" fill="#ff0601" stroke="none" /><path d="M 117.04232023915458 87.72973835380427 l 10.33281371194366 -7.439499200094669 a33.73236771201414,33.73236771201414 0 0,0 0.3352152116967771,0.4741381442690493 l -10.459341543444319 7.260534555493827" fill="#ffa80f" stroke="none" /><path d="M 117.65298651832404 88.62581576622439 l 1.9540819040799322 -1.2590553763705201 a23.32457663427562,23.32457663427562 0 0,0 0.21455545404706847,0.3393752026987228 l -1.9754649543729563 1.2252325259575911" fill="#ff1a02" stroke="none" /><line stroke="#e1ed5e" stroke-width="0.3" x1="172.23445277983987" x2="176.4835382374775" y1="55.19839476539836" y2="52.563006222186495" /><path d="M 173.08426987136738 54.67131705675599 a86.0,86.0 0 0,1 12.851231095245387,41.99856678651699" fill="none" id="id15" stroke="none" /><text fill="#e1ed5e" style="font-size:6.75px; font-family:Arial;" text-anchor="middle"><textPath startOffset="22.20632615414155" xlink:href="#id15">March</textPath></text><path d="M 118.73160827565052 90.50648371742162 l 13.573482657207498 -6.8792853620050245 a36.217227031802125,36.217227031802125 0 0,0 0.27704451815486525,0.5585048431145598 l -13.689887188315772 6.644620930391515" fill="#ffc712" stroke="none" /><path d="M 119.85752413597 93.16781622104841 l 2.3097572149860444 -0.7946955355304763 a23.44264598056537,23.44264598056537 0 0,0 0.12799986806104582,0.3827033133718054 l -2.32309437681886 0.7548191192363569" fill="#ff1c02" stroke="none" /><path d="M 119.97218684219823 93.5106431181261 l 10.566588031024285 -3.433292573258675 a32.11036815371025,32.11036815371025 0 0,0 0.16627745004285807,0.5271449560465723 l -10.624120964835349 3.2508974507856836" fill="#ff920d" stroke="none" /><path d="M 120.28053869075195 94.5502522615342 l 13.54847030671804 -3.6407191416161537 a35.02910843639576,35.02910843639576 0 0,0 0.1514653113017934,0.5836576310348474 l -13.609131949890136 3.4069650850324558" fill="#ffb811" stroke="none" /><path d="M 120.53481517161879 95.60439243477599 l 2.5745932678079035 -0.5511080353424538 a23.632916740282685,23.632916740282685 0 0,0 0.08172566920293262,0.39852338731415843 l -2.583698232925833 0.5067089918648836" fill="#ff1e03" stroke="none" /><path d="M 120.6074358757038 95.95851677861258 l 2.720754975725486 -0.5335882469912273 a23.7725843639576,23.7725843639576 0 0,0 0.0752960114171637,0.4022343038040397 l -2.729536711052509 0.4866758657246248" fill="#ff2003" stroke="none" /><path d="M 120.78858239683441 97.02765380044208 l 42.51518988979172 -6.0788109876914165 a63.94756470848057,63.94756470848057 0 0,0 0.1464216553186505,1.091011404984837 l -42.61352754416821 5.346081240641915" fill="#34ff5f" stroke="none" /><path d="M 120.83666639777658 97.38593545837742 l 3.7163952384074967 -0.46624046428140103 a24.745527164310953,24.745527164310953 0 0,0 0.04938458610458921,0.42309697508563326 l -3.723870177515675 0.40219975087091503" fill="#ff2e04" stroke="none" /><path d="M 120.91429891909075 98.10471618934814 l 4.505728892263885 -0.4083156245270572 a25.524192137809187,25.524192137809187 0 0,0 0.03588642609329572,0.43790529532226374 l -4.512089802176677 0.3306964119970247" fill="#ff3905" stroke="none" /><line stroke="#e1ed5e" stroke-width="0.3" x1="184.98032266829074" x2="189.97916517819016" y1="98.17113171792111" y2="98.06355123074" /><path d="M 185.9800911702706 98.14961562048488 a86.0,86.0 0 0,1 -9.607161424134198,41.387399972396054" fill="none" id="id16" stroke="none" /><text fill="#e1ed5e" style="font-size:6.75px; font-family:Arial;" text-anchor="middle"><textPath startOffset="21.466115282336823" xlink:href="#id16">April</textPath></text><path d="M 120.99980553446 99.90962569577887 l 55.55506902120622 -0.2390855810788096 a76.55558348056536,76.55558348056536 0 0,0 -0.005671320415447327,1.3178151342290927 l -55.55095340350127 -0.7172390313539678" fill="#44ffe6" stroke="none" /><path d="M 120.9764740272857 100.99374915477107 l 26.57956912330773 1.2591927659581001 a47.60937919611307,47.60937919611307 0 0,0 -0.04582663264441866,0.8182653104566234 l -26.553956139775785 -1.7165297927501468" fill="#afff20" stroke="none" /><path d="M 120.95626037817324 101.35467743843564 l 1.393271972841522 0.09006540638228379 a22.39617999116608,22.39617999116608 0 0,0 -0.028180197530452915,0.3844964060318523 l -1.3915152166467313 -0.11403494891090635" fill="#ff0d01" stroke="none" /><path d="M 120.8583938346157 102.4346265915055 l 4.872429590358558 0.5687181256611744 a25.90550817137809,25.90550817137809 0 0,0 -0.0555099414240694,0.4424688498683874 l -4.86191813968764 -0.6525047298169567" fill="#ff3e05" stroke="none" /><path d="M 120.81339534386255 102.79330883721812 l 2.8127226144974187 0.3774878056134023 a23.837940371024736,23.837940371024736 0 0,0 -0.05808051623300719,0.4062149952586763 l -2.80580804724781 -0.42584827285248794" fill="#ff2103" stroke="none" /><path d="M 120.70491114924044 103.5080841355445 l 4.068300126774506 0.6893021192170095 a25.126282022968198,25.126282022968198 0 0,0 -0.07592152310220089,0.4258082207506381 l -4.055832161333116 -0.7592290907008659" fill="#ff3304" stroke="none" /><path d="M 120.49622156327973 104.57218783832717 l 9.563361351259218 2.133343666722085 a30.798420053003532,30.798420053003532 0 0,0 -0.11987835358883914,0.5164328097527151 l -9.525222431739826 -2.297645133823365" fill="#ff810b" stroke="none" /><path d="M 120.32669344350535 105.2749913415812 l 2.695140884001244 0.6994174860245435 a23.784415415194346,23.784415415194346 0 0,0 -0.10625056015169852,0.3953978605030287 l -2.6827022475077684 -0.7457062797031204" fill="#ff2003" stroke="none" /><path d="M 120.13307415673323 105.97154293290107 l 20.360024768727037 6.038857308868641 a42.2367230565371,42.2367230565371 0 0,0 -0.21273878649783665,0.6952426632587386 l -20.253059209723066 -6.388426944679437" fill="#edff1a" stroke="none" /><path d="M 119.9155931802556 106.66101706037122 l 2.5620830048152397 0.8569204266574825 a23.701588780918726,23.701588780918726 0 0,0 -0.13273924580233787,0.38580238216525775 l -2.546952928069671 -0.9008955119120405" fill="#ff1f03" stroke="none" /><path d="M 119.79798401119884 107.00284435728193 l 4.384295914642544 1.550791327497874 a25.650484319787985,25.650484319787985 0 0,0 -0.1508196431885555,0.41499088359560277 l -4.356952010448762 -1.626030008099608" fill="#ff3b05" stroke="none" /><path d="M 119.41010516605496 108.01547362559984 l 1.2602293700205394 0.5204163084737676 a22.363455609540637,22.363455609540637 0 0,0 -0.14999384665491208,0.35454114602619113 l -1.2510845421733185 -0.5420319801661222" fill="#ff0c01" stroke="none" /><path d="M 119.26925614724726 108.34839909993367 l 0.6436859269134673 0.27887672320200246 a21.701501104240283,21.701501104240283 0 0,0 -0.1514546886447876,0.34149034002390366 l -0.6387901535374068 -0.28991539971859376" fill="#ff0300" stroke="none" /><path d="M 118.64920377521936 109.65438752849418 l 16.927027237017548 8.762844924708931 a40.060737190812716,40.060737190812716 0 0,0 -0.32229338414521674,0.6096576233697247 l -16.77368134464744 -9.05291756316479" fill="#fff717" stroke="none" /><line stroke="#e1ed5e" stroke-width="0.3" x1="174.80103733775053" x2="179.2010983576182" y1="140.37084112569926" y2="142.7455964860345" /><path d="M 175.68104954172406 140.8457921977663 a86.0,86.0 0 0,1 -30.038265399797805,32.042727171017184" fill="none" id="id17" stroke="none" /><text fill="#e1ed5e" style="font-size:6.75px; font-family:Arial;" text-anchor="middle"><textPath startOffset="22.206326154141568" xlink:href="#id17">May</textPath></text><path d="M 118.12598468904814 110.60418214915192 l 43.67481630592495 25.550926770814783 a71.599796819788,71.599796819788 0 0,0 -0.6315072222450471,1.0584424287102556 l -43.228528207981675 -26.29893129341114" fill="#3effb3" stroke="none" /><path d="M 117.55443506779139 111.5257021239791 l 8.190454338774174 5.377600395809285 a30.7980675795053,30.7980675795053 0 0,0 -0.2947769496586341,0.44065154387791705 l -8.096674283704818 -5.517788853893009" fill="#ff810b" stroke="none" /><path d="M 116.93607887273984 112.41649034213515 l 0.6017694031972989 0.4411802778633922 a21.74616784452297,21.74616784452297 0 0,0 -0.22392208518740797,0.29998022593271356 l -0.5940860513147989 -0.45147338330542075" fill="#ff0300" stroke="none" /><path d="M 115.80600337817218 113.82643327865902 l 23.991334915585693 20.986620307471302 a52.875106007067146,52.875106007067146 0 0,0 -0.6051458953668846,0.6798878285522859 l -23.62653017057047 -21.396482305764454" fill="#76ff27" stroke="none" /><path d="M 115.56566222782051 114.09645910891815 l 1.384738912535722 1.2540369417884225 a22.86818374558304,22.86818374558304 0 0,0 -0.2667449405283052,0.28949895017789345 l -1.3629475640116948 -1.2776871467676507" fill="#ff1302" stroke="none" /><path d="M 115.32070863581623 114.36230785411682 l 1.7287870030201669 1.620641168876899 a23.369637588339224,23.369637588339224 0 0,0 -0.2776462607113587,0.29111099434073723 l -1.7006341909298437 -1.6501592798001432" fill="#ff1b02" stroke="none" /><path d="M 115.07121518719521 114.62390073753431 l 9.603469516771979 9.318438042642425 a34.38132707597173,34.38132707597173 0 0,0 -0.41578382542737957,0.4211868199930327 l -9.441645066289063 -9.482365356616123" fill="#ffb010" stroke="none" /><path d="M 114.81725581225074 114.88116024355365 l 27.12069283845828 27.237660006626474 a59.437248895759716,59.437248895759716 0 0,0 -0.7312198134700616,0.715652488850396 l -26.647823072612425 -27.700462598399444" fill="#34ff2f" stroke="none" /><path d="M 114.0293411484842 115.62618273729858 l 4.442588549571515 4.948250938336849 a27.64994589222615,27.64994589222615 0 0,0 -0.35689187027652286,0.3149155804128028 l -4.356754326388405 -5.0239896605219405" fill="#ff5608" stroke="none" /><path d="M 113.75828350139079 115.86535959552629 l 3.1182231931870112 3.595777936544278 a25.759509938162545,25.759509938162545 0 0,0 -0.3374919281164365,0.287617942871844 l -3.0558657884935276 -3.6489202696390692" fill="#ff3c05" stroke="none" /><path d="M 113.48314897796784 116.09983520530334 l 1.5428676852580254 1.8422933334662204 a23.40301590106007,23.40301590106007 0 0,0 -0.3110705152442594,0.2559898564731699 l -1.510927041469075 -1.8685783087965686" fill="#ff1b02" stroke="none" /><path d="M 113.20401910651253 116.32954008644616 l 4.342906279866074 5.370914841661626 a27.907066033568906,27.907066033568906 0 0,0 -0.37613742576399006,0.2988263195509111 l -4.249811361384732 -5.444875075217663" fill="#ff5a08" stroke="none" /><path d="M 112.92097659922987 116.55440617244103 l 16.650995449034948 21.333321032035688 a48.06226590106007,48.06226590106007 0 0,0 -0.6565563490724239,0.5034194114697645 l -16.281310371469033 -21.61677978533282" fill="#aaff21" stroke="none" /><path d="M 111.7513745106137 117.40417183066458 l 16.1397654530799 23.90352303029076 a49.84216431095406,49.84216431095406 0 0,0 -0.7151764369738305,0.4739799450471043 l -15.725914317366104 -24.177800996429184" fill="#97ff23" stroke="none" /><path d="M 111.45004920935366 117.60387380957326 l 2.537103825636635 3.9006693134390473 a25.653183524734985,25.653183524734985 0 0,0 -0.3722377074007913,0.2375797166807495 l -2.469584316188913 -3.943763458943606" fill="#ff3b05" stroke="none" /><line stroke="#e1ed5e" stroke-width="0.3" x1="143.8653032363475" x2="146.44561519142675" y1="172.8068346515853" y2="177.08958963109032" /><path d="M 144.38136562736335 173.6633856474863 a86.0,86.0 0 0,1 -40.68145358897372,12.25698825130547" fill="none" id="id18" stroke="none" /><text fill="#e1ed5e" style="font-size:6.75px; font-family:Arial;" text-anchor="middle"><textPath startOffset="21.466115282336833" xlink:href="#id18">June</textPath></text><path d="M 110.8373102113329 117.98757091392108 l 2.400662863918796 3.9845766766000073 a25.651884938162546,25.651884938162546 0 0,0 -0.38017575054472896,0.22461453456122818 l -2.331719242345685 -4.0253097834549845" fill="#ff3b05" stroke="none" /><path d="M 110.5260780823613 118.17145234162733 l 18.60788832026614 32.12329921403998 a58.12357553003534,58.12357553003534 0 0,0 -0.8700579828007347,0.49404162975276705 l -18.052181570544207 -32.43884400958738" fill="#41ff2d" stroke="none" /><path d="M 109.89434966115114 118.52300852407294 l 6.5675646954557925 12.295002804881145 a34.939153489399295,34.939153489399295 0 0,0 -0.532920415270368,0.2787987738951603 l -6.354953377658929 -12.406230997721021" fill="#ffb711" stroke="none" /><path d="M 108.2653958097858 119.30500536409082 l 6.3601928692845595 14.855133412101234 a37.15942579505301,37.15942579505301 0 0,0 -0.5901775738731632,0.24669427374380068 l -6.103543835913935 -14.962412728865008" fill="#ffd313" stroke="none" /><path d="M 106.57524785965236 119.94407469862006 l 1.0763715597387984 3.264855599228431 a24.43771113074205,24.43771113074205 0 0,0 -0.4006372531975251,0.1282713967663857 l -1.020012961450333 -3.2828998426545235" fill="#ff2a04" stroke="none" /><path d="M 106.2309692047433 120.05430185196036 l 4.594816871471287 14.788364613456858 a36.48573763250883,36.48573763250883 0 0,0 -0.6013631843151716,0.1811857943767391 l -4.33957871271587 -14.865265776939323" fill="#ffcb12" stroke="none" /><path d="M 105.53697534728816 120.25689768951611 l 1.227927001001691 4.492342853155041 a25.657139575971733,25.657139575971733 0 0,0 -0.42701978532959456,0.11277980642797936 l -1.150416772860599 -4.512814008886604" fill="#ff3b05" stroke="none" /><path d="M 105.18746579009965 120.34920634021253 l 3.3688626386283445 13.215254565363418 a34.6378953180212,34.6378953180212 0 0,0 -0.5790247321333262,0.14231019155662966 l -3.140884621751807 -13.271286015234077" fill="#ffb310" stroke="none" /><path d="M 104.83641907484287 120.43548508189849 l 1.4892934365843598 6.292761924663825 a27.466594743816255,27.466594743816255 0 0,0 -0.461020057713674,0.10492666418318783 l -1.3807532294778235 -6.317465322424697" fill="#ff5407" stroke="none" /><path d="M 101.98527174616119 120.90594882070398 l 0.676710214962795 7.126112154578116 a28.15817093639576,28.15817093639576 0 0,0 -0.4829202507022813,0.04166839125303365 l -0.553945646518972 -7.136704798109813" fill="#ff5d08" stroke="none" /><path d="M 101.26447882468166 120.96189622390904 l 0.619357255056696 10.2673941647794 a31.286057862190813,31.286057862190813 0 0,0 -0.5378400085979594,0.02780018501701968 l -0.44252917804525693 -10.276534156558622" fill="#ff880c" stroke="none" /><path d="M 100.90346689309514 120.98055641714683 l 0.6098720774644186 14.162616943991672 a35.17574204946996,35.17574204946996 0 0,0 -0.6051561770102691,0.02084280232539446 l -0.3659955487794972 -14.17101654474316" fill="#ffba11" stroke="none" /><line stroke="#e1ed5e" stroke-width="0.3" x1="102.19456741930631" x2="102.32365962044197" y1="184.97166512339345" y2="189.96999836594603" /><path d="M 102.22038585953345 185.97133177190398 a86.0,86.0 0 0,1 -42.740103519485714,-10.115201625700543" fill="none" id="id19" stroke="none" /><text fill="#e1ed5e" style="font-size:6.75px; font-family:Arial;" text-anchor="middle"><textPath startOffset="22.20632615414155" xlink:href="#id19">July</textPath></text><path d="M 100.54218724476979 120.99299961872073 l 0.4744485640633635 18.370219182698982 a39.37634496466431,39.37634496466431 0 0,0 -0.6777237302343596,0.011667628628870039 l -0.15816514393633596 -18.375664288607013" fill="#ffef16" stroke="none" /><path d="M 100.18074693466247 120.99922214144158 l 0.1309848446251572 15.217850607438953 a36.21841431095407,36.21841431095407 0 0,0 -0.6234635585752148,0.0 l 0.13098484462514673 -15.217850607438953" fill="#ffc712" stroke="none" /><path d="M 99.09653310690486 120.98055641714683 l -1.7395249400853139 40.395726089600885 a61.43316254416961,61.43316254416961 0 0,0 -1.0561002225494656,-0.05458831829920313 l 2.434613231048268 -40.35979796453948" fill="#31ff41" stroke="none" /><path d="M 96.93821686468263 120.77559828337769 l -5.728455598896952 38.870190032094776 a60.29003533568905,60.29003533568905 0 0,0 -1.025401828746827,-0.1601466771965495 l 6.396693291252296 -38.765825047551125" fill="#30ff34" stroke="none" /><path d="M 95.86986931433489 120.58985236759428 l -1.2312587254105014 6.138167847933854 a27.26043948763251,27.26043948763251 0 0,0 -0.45928458361485214,-0.09624755003685631 l 1.3367347704547403 -6.116064317170456" fill="#ff5107" stroke="none" /><path d="M 94.46302465271185 120.25689768951611 l -0.28774418484328107 1.0527055201678541 a22.09132287985866,22.09132287985866 0 0,0 -0.3659467945352499,-0.10342021947939219 l 0.3058221474831449 -1.0475965073499405" fill="#ff0801" stroke="none" /><path d="M 94.11515582081647 120.15858648285463 l -15.66561636238018 53.66270926345531 a76.90257508833923,76.90257508833923 0 0,0 -1.2675193222886825,-0.3818931741860324 l 16.587010659109108 -53.38510072016356" fill="#44ffe9" stroke="none" /><path d="M 92.40401165467489 119.57807347666478 l -20.316249217070308 52.36356374701778 a77.1666519434629,77.1666519434629 0 0,0 -1.2342215247725132,-0.49112221613631196 l 21.214591817884678 -52.0060946864754" fill="#45ffec" stroke="none" /><path d="M 91.07499286063937 119.00905698771935 l -7.208736939171702 15.353633800679408 a37.96172040636043,37.96172040636043 0 0,0 -0.5891068467309317,-0.28280708639497065 l 7.471956453902876 -15.227272437784874" fill="#ffdd14" stroke="none" /><line stroke="#e1ed5e" stroke-width="0.3" x1="58.666819895761336" x2="56.23545636021788" y1="174.27360380694188" y2="178.64263932499728" /><path d="M 58.180547188652646 175.14741091055294 a86.0,86.0 0 0,1 -31.652253787137756,-30.449443065178592" fill="none" id="id20" stroke="none" /><text fill="#e1ed5e" style="font-size:6.75px; font-family:Arial;" text-anchor="middle"><textPath startOffset="22.20632615414155" xlink:href="#id20">August</textPath></text><path d="M 89.4739219176387 118.17145234162733 l -2.3335278308501164 4.0284319985437165 a25.655493153710246,25.655493153710246 0 0,0 -0.3802292263831432,-0.22464612902915118 l 2.402524928261642 -3.987667297220816" fill="#ff3b05" stroke="none" /><path d="M 89.1626897886671 117.98757091392108 l -7.917770433265277 13.14177174697577 a36.34266121908127,36.34266121908127 0 0,0 -0.5330616945376414,-0.3274500308952006 l 8.142811327735227 -13.003533249252193" fill="#ffc912" stroke="none" /><path d="M 88.24862548938628 117.40417183066458 l -5.906415231058991 8.747595057221659 a31.554911660777385,31.554911660777385 0 0,0 -0.44754348545216305,-0.30782449021337244 l 6.056115601134044 -8.644629777643186" fill="#ff8b0c" stroke="none" /><path d="M 87.65650970185807 116.9893568818739 l -37.030470894425804 50.968070645621694 a84.0,84.0 0 0,0 -1.1624601183257428,-0.8599602050409332 l 37.902315983170105 -50.323100491841" fill="#4dd2ff" stroke="none" /><path d="M 85.44109423537348 115.13401014063109 l -32.63825011619861 33.9275228658419 a68.07793727915194,68.07793727915194 0 0,0 -0.8375208732488856,-0.8196904492513012 l 33.21742094182329 -33.36068231366803" fill="#39ff8d" stroke="none" /><path d="M 84.19399662182784 113.82643327865904 l -3.9873401194290174 3.4879590242742977 a26.297616386925796,26.297616386925796 0 0,0 -0.2951062039053951,-0.343275185196256 l 4.046788832905191 -3.4188067399165116" fill="#ff4406" stroke="none" /><path d="M 83.95833913139862 113.55231037782056 l -3.562591422517936 3.009747251409998 a25.66375772968198,25.66375772968198 0 0,0 -0.28218401512127356,-0.33990882441289244 l 3.613871437532746 -2.9479771698833446" fill="#ff3b05" stroke="none" /><path d="M 83.72743513129214 113.27417163493432 l -3.663616323335009 2.9885560311401367 a25.727954284452295,25.727954284452295 0 0,0 -0.27698236300886003,-0.34557808583880745 l 3.71451659839873 -2.9250501117230696" fill="#ff3c05" stroke="none" /><path d="M 83.28015986056508 112.70617746262583 l -3.6994861835020005 2.8114101316818845 a25.646528268551236,25.646528268551236 0 0,0 -0.2640844184028673,-0.35378423450951146 l 3.747331868599953 -2.747313017663065" fill="#ff3b05" stroke="none" /><path d="M 83.06392112726016 112.41649034213515 l -3.607354877492749 2.6446905056126964 a25.4729628975265,25.4729628975265 0 0,0 -0.2562097386678093,-0.35585291827258464 l 3.6523444085361656 -2.5822039818889735" fill="#ff3805" stroke="none" /><path d="M 82.24976979558568 111.22182372390057 l -12.612581307858804 7.97376498840877 a35.92173365724381,35.92173365724381 0 0,0 -0.32592192695879363,-0.5254899220583412 l 12.747967874485553 -7.755478734985164" fill="#ffc412" stroke="none" /><path d="M 82.05923443525364 110.91462005526583 l -8.981476895354916 5.464059350988644 a31.51298586572438,31.51298586572438 0 0,0 -0.27794322124683174,-0.46584882607390726 l 9.07420099229998 -5.308648431028626" fill="#ff8b0c" stroke="none" /><line stroke="#e1ed5e" stroke-width="0.3" x1="26.63291911575756" x2="22.317208475507996" y1="142.92168965132927" y2="145.44649492493687" /><path d="M 25.769776987707644 143.4266507060508 a86.0,86.0 0 0,1 -11.730757126820373,-40.83630448921669" fill="none" id="id21" stroke="none" /><text fill="#e1ed5e" style="font-size:6.75px; font-family:Arial;" text-anchor="middle"><textPath startOffset="21.46611528233685" xlink:href="#id21">September</textPath></text><path d="M 81.69416730710424 110.29060199501025 l -39.34852482883692 22.119726258695863 a66.13965768551236,66.13965768551236 0 0,0 -0.5493484081502221,-0.9972269298242501 l 39.72344964643866 -21.439128810473793" fill="#37ff78" stroke="none" /><path d="M 81.35079622478065 109.6543875284942 l -5.518961674465289 2.8570761198392463 a27.214645759717314,27.214645759717314 0 0,0 -0.2117835053023114,-0.41786894786782053 l 5.567323849553867 -2.7616529602687407" fill="#ff5007" stroke="none" /><path d="M 81.18737489456691 109.33194174019688 l -8.349427749945967 4.141706587454222 a30.320229461130744,30.320229461130744 0 0,0 -0.22790235614923535,-0.46954635611554574 l 8.419483362709922 -3.997371275373392" fill="#ff7b0b" stroke="none" /><path d="M 80.87730276802145 108.67885076344099 l -17.97394173858842 8.157487204217588 a40.7384695229682,40.7384695229682 0 0,0 -0.2843136144282873,-0.6410521439336406 l 18.111696437747987 -7.846886723791252" fill="#ffff18" stroke="none" /><path d="M 80.73074385275274 108.34839909993369 l -4.266957185994919 1.8486578443301476 a25.650210689045934,25.650210689045934 0 0,0 -0.17203842894108234,-0.406648026686361 l 4.298146596128308 -1.7749352919776278" fill="#ff3b05" stroke="none" /><path d="M 80.45479744820244 107.68017299344265 l -8.644690283852125 3.3968804712443914 a30.288135821554768,30.288135821554768 0 0,0 -0.18649662962741823,-0.4868838503768248 l 8.701881193073053 -3.2475730540344085" fill="#ff7a0b" stroke="none" /><path d="M 80.20201598880116 107.00284435728193 l -37.8764991195169 13.397486733127305 a61.17613515901059,61.17613515901059 0 0,0 -0.34261306772171346,-0.9957939484213533 l 38.101503018181845 -12.743520081616655" fill="#31ff3e" stroke="none" /><path d="M 80.0844068197444 106.66101706037122 l -7.160214334948068 2.3948224594328433 a28.550089001766786,28.550089001766786 0 0,0 -0.15186981788919549,-0.46740723831138276 l 7.200376403853514 -2.2712163211436573" fill="#ff6309" stroke="none" /><path d="M 79.97269907076064 106.31721596034903 l -8.891188361589325 2.8045495108279113 a30.323021422261483,30.323021422261483 0 0,0 -0.15273161158087364,-0.49913574363820173 l 8.93814674567633 -2.6510867946376617" fill="#ff7b0b" stroke="none" /><path d="M 79.67330655649465 105.27499134158121 l -18.954919960934784 4.919001654262812 a40.582787544169605,40.582787544169605 0 0,0 -0.16965283717835805,-0.6776787519709795 l 19.0367841124082 -4.591995062894441" fill="#fffd17" stroke="none" /><path d="M 79.50377843672027 104.57218783832718 l -4.534331839255083 1.0114945735912682 a25.645781581272086,25.645781581272086 0 0,0 -0.09240536742904687,-0.4316871132976745 l 4.55107124540857 -0.9332936408774299" fill="#ff3b05" stroke="none" /><path d="M 79.4281124754447 104.21870165774334 l -4.55408797096429 0.9339122844067455 a25.64886108657244,25.64886108657244 0 0,0 -0.0849710945186031,-0.43326578032392726 l 4.56948899845856 -0.8553827770148633" fill="#ff3b05" stroke="none" /><path d="M 79.29508885075956 103.50808413554451 l -4.576544422120559 0.7754152030468783 a25.64176987632509,25.64176987632509 0 0,0 -0.06998767925630746,-0.43581334553749046 l 4.589213855738157 -0.6965226278161741" fill="#ff3b05" stroke="none" /><path d="M 79.23777060512086 103.15116336523772 l -4.763225915264584 0.7229331069925813 a25.817774734982333,25.817774734982333 0 0,0 -0.062904330712145,-0.43995274249064004 l 4.774964296993328 -0.6408348925215407" fill="#ff3d05" stroke="none" /><path d="M 79.18660465613746 102.79330883721812 l -19.43222798976748 2.6079461459257307 a40.60644964664311,40.60644964664311 0 0,0 -0.08701090233060939,-0.6935625023653911 l 19.47424040134494 -2.273065889272931" fill="#fffd18" stroke="none" /><path d="M 79.04373962182676 101.35467743843564 l -16.858450638456283 1.0897823521358838 a37.893637367491166,37.893637367491166 0 0,0 -0.03647469949245648,-0.6512802617550435 l 16.87471168883627 -0.7994303740454028" fill="#ffdc14" stroke="none" /><path d="M 79.0235259727143 100.99374915477108 l -18.52748921505418 0.8777298188218332 a39.548268551236745,39.548268551236745 0 0,0 -0.026361495673582994,-0.6802730686622624 l 18.539852843578966 -0.558679503145574" fill="#fff116" stroke="none" /><line stroke="#e1ed5e" stroke-width="0.3" x1="15.007084014347285" x2="10.007500721073583" y1="101.09737516637583" y2="101.16192664675087" /><path d="M 14.007167355692545 101.11028546245083 a86.0,86.0 0 0,1 10.666146001902534,-42.60595125391555" fill="none" id="id22" stroke="none" /><text fill="#e1ed5e" style="font-size:6.75px; font-family:Arial;" text-anchor="middle"><textPath startOffset="22.20632615414155" xlink:href="#id22">October</textPath></text><path d="M 79.03285615573316 98.82574320788736 l -18.720538460229104 -1.0484365253658932 a39.74987411660778,39.74987411660778 0 0,0 0.044140170097536534,-0.6828288945071465 l 18.699717699127152 1.3705244841260515" fill="#fff316" stroke="none" /><path d="M 79.05617556472873 98.46500227214037 l -48.38240838485043 -3.5460040819502963 a69.51217977031803,69.51217977031803 0 0,0 0.09773252326431203,-1.1925843312284092 l 48.31420137776662 4.378302330386484" fill="#3bff9d" stroke="none" /><path d="M 79.16333360222342 97.38593545837743 l -4.64920880042757 -0.5832666147159762 a25.685652826855122,25.685652826855122 0 0,0 0.058812807367935906,-0.43822372761701056 l 4.6384799940018 0.6632086843976461" fill="#ff3b05" stroke="none" /><path d="M 79.21141760316559 97.0276538004421 l -4.60200356132891 -0.6579932933739078 a25.64880543286219,25.64880543286219 0 0,0 0.06625221595498956,-0.43651932513273706 l 4.589995451934618 0.7371117308987368" fill="#ff3b05" stroke="none" /><path d="M 79.3925641242962 95.95851677861259 l -7.673493685280015 -1.5049080422006782 a28.81967093639576,28.81967093639576 0 0,0 0.09966213309043942,-0.4859879552351337 l 7.64645225627458 1.6367716535992145" fill="#ff6609" stroke="none" /><path d="M 79.54389044137918 95.25157060432595 l -9.042770507148854 -2.0990774013714715 a30.283201192579504,30.283201192579504 0 0,0 0.1222391506777771,-0.5067601967477241 l 9.005298556210262 2.2544228297785924" fill="#ff7a0b" stroke="none" /><path d="M 79.62865764111835 94.90015583598534 l -9.00962656666725 -2.2555063214053113 a30.287662765017668,30.287662765017668 0 0,0 0.13096337514946255,-0.5046553077738222 l 8.969466859647481 2.4102580547279975" fill="#ff7a0b" stroke="none" /><path d="M 79.71946130924805 94.55025226153421 l -4.490907617673831 -1.2067881433660916 a25.6502246024735,25.6502246024735 0 0,0 0.11825147997445927,-0.4254134901812794 l 4.469469367133011 1.2839129369663136" fill="#ff3b05" stroke="none" /><path d="M 80.02781315780177 93.51064311812611 l -6.224463471766812 -2.022450780459293 a27.54478820671378,27.54478820671378 0 0,0 0.1503980932507224,-0.4496711557890237 l 6.188728084744318 2.1292950391706387" fill="#ff5507" stroke="none" /><path d="M 80.2630227832202 92.82701384747504 l -11.808640442996255 -4.291600149679765 a33.5643074204947,33.5643074204947 0 0,0 0.2020178308605382,-0.5413073497598068 l 11.73301802363409 4.494230636468913" fill="#ffa50f" stroke="none" /><path d="M 80.52162464483688 92.15188598940014 l -8.646458563327325 -3.4837809291385824 a30.321908348056535,30.321908348056535 0 0,0 0.19922694115505232,-0.48244384054617695 l 8.585209935286073 3.632099340138071" fill="#ff7b0b" stroke="none" /><path d="M 80.65960295795068 91.81776055985345 l -19.042564324437784 -8.056236928237977 a41.67661020318021,41.67661020318021 0 0,0 0.28520552706963415,-0.6582936788155115 l 18.90106808752547 8.382829751640088" fill="#f4ff19" stroke="none" /><path d="M 80.95270993114464 91.15688171328213 l -3.6716385869764796 -1.704637993821547 a25.04805145759717,25.04805145759717 0 0,0 0.18492833993955304,-0.38950624651926563 l 3.641752053195175 1.767586655981345" fill="#ff3204" stroke="none" /><path d="M 81.43458229118936 90.18545643968196 l -8.20573422129183 -4.337932882654247 a30.28179593639576,30.28179593639576 0 0,0 0.24757805254276877,-0.4587245307720449 l 8.12984806953059 4.478538396758765" fill="#ff7a0b" stroke="none" /><path d="M 81.6062741919709 89.86733742301443 l -4.902126976551019 -2.7004642279297 a26.596727252650176,26.596727252650176 0 0,0 0.22435271425887346,-0.3990984447179516 l 4.854916620999715 2.7844461825824363" fill="#ff4806" stroke="none" /><line stroke="#e1ed5e" stroke-width="0.3" x1="26.266209847984243" x2="21.928928074336255" y1="57.711370442889674" y2="55.22380399835377" /><path d="M 25.398753493254645 57.213857153982495 a86.0,86.0 0 0,1 29.58750427330803,-30.492523968695096" fill="none" id="id23" stroke="none" /><text fill="#e1ed5e" style="font-size:6.75px; font-family:Arial;" text-anchor="middle"><textPath startOffset="21.46611528233685" xlink:href="#id23">November</textPath></text><path d="M 81.78341655067845 89.55222093294921 l -4.5686330348129385 -2.620253612261912 a26.26670075088339,26.26670075088339 0 0,0 0.22832057645984827,-0.39027387637214794 l 4.522852783882765 2.6985069009879514" fill="#ff4306" stroke="none" /><path d="M 82.15384107792192 88.93136811851018 l -21.845345979640676 -13.549027218024474 a46.70593860424029,46.70593860424029 0 0,0 0.42963325856045637,-0.6795766383924309 l 21.60888512483426 13.92305150413112" fill="#b9ff1f" stroke="none" /><path d="M 82.34701348167596 88.62581576622439 l -16.46811946672013 -10.61074989231252 a40.59048166961131,40.59048166961131 0 0,0 0.3834899112235022,-0.5840814445239126 l 16.28303292013871 10.892649400814099" fill="#fffd17" stroke="none" /><path d="M 82.7489923806493 88.02491185347247 l -4.459774074455774 -3.0958300427216545 a26.428973056537103,26.428973056537103 0 0,0 0.2626377689734579,-0.3714824985588089 l 4.405823685678437 3.1721390416122497" fill="#ff4606" stroke="none" /><path d="M 82.95767976084542 87.72973835380427 l -3.404180885191305 -2.4509685046469705 a25.194722173144875,25.194722173144875 0 0,0 0.2564311474158485,-0.3497717968921007 l 3.361487125261823 2.509202745210572" fill="#ff3405" stroke="none" /><path d="M 83.17141714833178 87.43820079747576 l -9.128242566692206 -6.813832822729632 a32.390923144876325,32.390923144876325 0 0,0 0.3373654385779155,-0.44393337163633445 l 9.009601187890182 6.969950970246993" fill="#ff960d" stroke="none" /><path d="M 83.6137871275137 86.86637796730984 l -0.4096553218121563 -0.3283405508172531 a21.525,21.525 0 0,0 0.23421404562169762,-0.2871187261517157 l 0.40394278411406614 0.33534344657705106" fill="#ff0000" stroke="none" /><path d="M 84.07557802195018 86.31012108654704 l -4.936623566360124 -4.243907813917704 a27.510069567137812,27.510069567137812 0 0,0 0.31179144716754054,-0.35643152271395395 l 4.86284025561474 4.328254892834601" fill="#ff5507" stroke="none" /><path d="M 84.31358615837235 86.03803664274999 l -3.4675704661304745 -3.0863709370154226 a25.642168727915195,25.642168727915195 0 0,0 0.2962969195345239,-0.327178459000411 l 3.4139299059799053 3.1456021832853898" fill="#ff3b05" stroke="none" /><path d="M 84.5562425177563 85.77008943001954 l -1.8641311068728554 -1.7176143158177597 a23.53479461130742,23.53479461130742 0 0,0 0.2770747761251817,-0.29556405269025854 l 1.8342890087772177 1.7494477853860684" fill="#ff1d02" stroke="none" /><path d="M 84.80347519578584 85.50635884689758 l -1.3886294397066372 -1.324401272859465 a22.918939929328623,22.918939929328623 0 0,0 0.2747388675358829,-0.28314255322398874 l 1.3656263084676359 1.3481080216335775" fill="#ff1402" stroke="none" /><path d="M 85.31137513191541 84.99185889309783 l -6.733475847765721 -6.8799466642219205 a30.626700530035336,30.626700530035336 0 0,0 0.3799413657589691,-0.3655032928329748 l 6.614051238394324 6.994833043817208" fill="#ff7f0b" stroke="none" /><path d="M 85.57189188830299 84.74124197986013 l -24.145795803924187 -25.535908971814102 a56.14401943462897,56.14401943462897 0 0,0 0.7079282723027681,-0.6579421762951454 l 23.70265964782656 25.947755734183897" fill="#55ff2b" stroke="none" /><path d="M 85.83668400450813 84.49514656593479 l -9.526078055352164 -10.428380196891235 a35.124350485865726,35.124350485865726 0 0,0 0.44990782612028496,-0.40393168850818273 l 9.345159241635908 10.590810894168698" fill="#ffb911" stroke="none" /><path d="M 86.37877921826538 84.01681056812374 l -6.350232381053557 -7.45138550422118 a30.790229681978797,30.790229681978797 0 0,0 0.4063466710313482,-0.3403036510840935 l 6.2210281730630985 7.559590312699086" fill="#ff810b" stroke="none" /><path d="M 86.93701828274178 83.55741782278169 l -6.570293222608161 -8.27013223929016 a31.562378533568904,31.562378533568904 0 0,0 0.42829763637152973,-0.33429309873251445 l 6.4269630310772055 8.382003727245896" fill="#ff8b0c" stroke="none" /><path d="M 87.22198572758235 83.33499621200491 l -5.656441433251412 -7.377094429702173 a30.296066475265015,30.296066475265015 0 0,0 0.41657646289163197,-0.3137567553141898 l 5.528618816601389 7.473367774522218" fill="#ff7a0b" stroke="none" /><path d="M 87.80319425747018 82.90503203632743 l -4.8534963505060125 -6.802630653892216 a29.35656691696113,29.35656691696113 0 0,0 0.41388406251622384,-0.28995223538058734 l 4.735681148406128 6.885167732036746" fill="#ff6e0a" stroke="none" /><path d="M 88.09926311788651 82.69761687909137 l -2.6300812487293643 -3.8238534181046084 a25.641032464664313,25.641032464664313 0 0,0 0.3658063312849022,-0.24699406780784672 l 2.5638702230379224 3.8685593982111204" fill="#ff3b05" stroke="none" /><path d="M 89.00827224532344 82.1063720568725 l -2.6002864295050623 -4.233052251074077 a25.967919169611307,25.967919169611307 0 0,0 0.38288823030026403,-0.23068587459026219 l 2.527036132987149 4.277184735122958" fill="#ff3f05" stroke="none" /><line stroke="#e1ed5e" stroke-width="0.3" x1="56.762969772571076" x2="54.21961505331055" y1="26.818313649435495" y2="22.513508569990535" /><path d="M 56.25429882871897 25.957352633546506 a86.0,86.0 0 0,1 42.265352541879196,-11.944610805530505" fill="none" id="id24" stroke="none" /><text fill="#e1ed5e" style="font-size:6.75px; font-family:Arial;" text-anchor="middle"><textPath startOffset="22.20632615414155" xlink:href="#id24">December</textPath></text><path d="M 89.3179101791058 81.91981866633112 l -2.8166910955090607 -4.767445941909444 a26.53735401943463,26.53735401943463 0 0,0 0.3952843356668439,-0.22897420105667027 l 2.734210027376897 4.815224300356162" fill="#ff4706" stroke="none" /><path d="M 90.26544431104013 81.39251694778311 l -2.014702600808753 -3.8510791552944283 a25.346244037102473,25.346244037102473 0 0,0 0.38832800942635975,-0.19891668916989674 l 1.9481141037936296 3.8851883697768304" fill="#ff3705" stroke="none" /><path d="M 90.58718382345135 81.22770947309562 l -3.0021291625382105 -5.987245451458885 a27.697752429328624,27.697752429328624 0 0,0 0.4280341191689959,-0.2100344833444557 l 2.8986237763587885 6.03803509493817" fill="#ff5708" stroke="none" /><path d="M 90.91171255644093 81.06846463323043 l -4.477631427321789 -9.327217944209865 a31.34631227915194,31.34631227915194 0 0,0 0.4884379225307212,-0.22932815386567865 l 4.31641529349146 9.402911080715551" fill="#ff880c" stroke="none" /><path d="M 91.90106846888425 80.62456947434976 l -3.5813196203800852 -8.56774862563419 a30.28612765017668,30.28612765017668 0 0,0 0.48272645010569015,-0.19691623953743764 l 3.4333093006860147 8.628125751355205" fill="#ff7a0b" stroke="none" /><path d="M 94.63758080256005 79.69619591428918 l -2.36995242929684 -8.973384594749659 a30.281072438162546,30.281072438162546 0 0,0 0.5051043102939997,-0.12876233531054915 l 2.215139230317841 9.01284992622907" fill="#ff7a0b" stroke="none" /><path d="M 94.98787191387505 79.60689891045804 l -1.5548898707393557 -6.326459693811988 a27.514735203180212,27.514735203180212 0 0,0 0.46090629066556704,-0.10908162771553503 l 1.4457598931112547 6.3522872336683935" fill="#ff5507" stroke="none" /><path d="M 96.04723909329186 79.375362276772 l -0.9712190197893782 -5.0676074029851685 a26.15983635159011,26.15983635159011 0 0,0 0.44297930656073004,-0.0809516368215046 l 0.883844592125755 5.083574521157409" fill="#ff4206" stroke="none" /><path d="M 96.40284397218896 79.31037775812273 l -1.8452099621556233 -10.613022281710712 a31.7722347614841,31.7722347614841 0 0,0 0.5396299140533442,-0.08904355954632515 l 1.6622508419633935 10.643212104196664" fill="#ff8e0d" stroke="none" /><path d="M 96.75951476605007 79.25152402106235 l -1.4647572937895224 -9.378682305588097 a30.49237566254417,30.49237566254417 0 0,0 0.519286637968968,-0.07652935183104317 l 1.3031016753919056 9.402506141580108" fill="#ff7d0b" stroke="none" /><path d="M 97.83486435360386 79.11191278185805 l -0.5742682804206024 -5.540237604975999 a26.569920715547703,26.569920715547703 0 0,0 0.45532604003477267,-0.043238693939460345 l 0.47881711329559334 5.549301843430641" fill="#ff4806" stroke="none" /><path d="M 98.55514903715128 79.0497635885617 l -0.5914198107630765 -8.575545279400492 a29.595914973498232,29.595914973498232 0 0,0 0.508539491512087,-0.03067649088911866 l 0.4437182704113665 8.584455039669917" fill="#ff710a" stroke="none" /></svg>