<?xml version="1.0" encoding="utf-8" ?>
<svg baseProfile="full" height="200mm" version="1.1" viewBox="0,0,200,200" width="200mm" xmlns="http://www.w3.org/2000/svg" xmlns:ev="http://www.w3.org/2001/xml-events" xmlns:xlink="http://www.w3.org/1999/xlink"><defs /><rect fill="#1a1a1a" height="200" width="200" x="0" y="0" /><rect fill="#1a1a1a" height="200" width="180" x="10" y="0" /><text alignment-baseline="middle" fill="#e1ed5e" style="dominant-baseline: central; font-size:9.0px; font-family:Arial;" text-anchor="middle" x="100.0" y="100.0">2024</text><line stroke="#e1ed5e" stroke-width="0.3" x1="100.0" x2="100.0" y1="15.0" y2="10.0" /><path d="M 100.0 14.0 a86.0,86.0 0 0,1 42.35913384403234,11.155469271406648" fill="none" id="id13" stroke="none" /><text fill="#e1ed5e" style="font-size:6.75px; font-family:Arial;" text-anchor="middle"><textPath startOffset="22.145653131862478" xlink:href="#id13">January</textPath></text><path d="M 101.44090949804482 79.04949213459386 l 0.042977714489548915 -0.6248865363662621 a21.626362728197144,21.626362728197144 0 0,0 0.370151680702444,0.028652081089208963 l -0.053698389967226375 0.6240566882819996" fill="#ff0801" stroke="none" /><path d="M 101.80034050326958 79.07731436759882 l 0.0541113678667156 -0.6288561174724501 a21.631179892435533,21.631179892435533 0 0,0 0.3696876146615448,0.03500980147121205 l -0.06489854591327338 0.6278345604960544" fill="#ff0801" stroke="none" /><path d="M 102.15924093988457 79.11130261209362 l 0.06654784933698454 -0.6437900749930062 a21.647220423743626,21.647220423743626 0 0,0 0.36930580514101574,0.041381485764245524 l -0.07758955607879695 0.6425528287217899" fill="#ff0801" stroke="none" /><path d="M 102.87502721639298 79.19773525538626 l 0.0875472030311565 -0.6334479495430403 a21.639469168560034,21.639469168560034 0 0,0 0.367535970495332,0.05401513086656392 l -0.09840827913417047 0.6318517453775939" fill="#ff0801" stroke="none" /><path d="M 103.23170211078529 79.25015418208739 l 0.09664837526141827 -0.6205519000446708 a21.62803309553695,21.62803309553695 0 0,0 0.3663608541331063,0.06028453913094734 l -0.1072867324475951 0.618801362418055" fill="#ff0801" stroke="none" /><path d="M 103.58742460773223 79.30868818359171 l 0.058450471879346495 -0.33712678919161715 a21.34215629418961,21.34215629418961 0 0,0 0.3604438832701817,0.06568488254931744 l -0.06422908870058185 0.33607373271093377" fill="#ff0400" stroke="none" /><path d="M 104.29559338865022 79.4440306129975 l 0.11604736059608016 -0.5553286300696721 a21.567324314018336,21.567324314018336 0 0,0 0.36175343792196235,0.078842478073542 l -0.12556321513717664 0.5532546938624113" fill="#ff0701" stroke="none" /><path d="M 104.64783097203109 79.52079915486377 l 0.17549551481823203 -0.7732656193847319 a21.79293025786873,21.79293025786873 0 0,0 0.36411611920358544,0.08593041269525452 l -0.18874378776170245 0.7701390630432499" fill="#ff0a01" stroke="none" /><path d="M 106.38641147887787 79.99465700312896 l 19.15923443663363 -60.016028990613094 a84.0,84.0 0 0,0 1.3699090494090305,0.4503163143919138 l -20.186666223690402 59.67829175481916" fill="#4dd2ff" stroke="none" /><path d="M 106.72888874123014 80.10723608172694 l 3.680280323017119 -10.880094832042248 a32.4856835586838,32.4856835586838 0 0,0 0.5267232258525659,0.18322167998910857 l -3.866509320914703 10.81531471948455" fill="#ff9c0e" stroke="none" /><path d="M 107.06938296918511 80.22567764915836 l 0.26213026403310113 -0.7332250016014152 a21.77867270293459,21.77867270293459 0 0,0 0.3509590050117739,0.12887700792907644 l -0.2746784206989997 0.7286171446636169" fill="#ff0a01" stroke="none" /><path d="M 107.40779381753099 80.34994680014964 l 0.6843534939323984 -1.8153289487418764 a22.94004095235069,22.94004095235069 0 0,0 0.3672894317959397,0.14207544249431972 l -0.715415188221864 1.8033136181095184" fill="#ff1b02" stroke="none" /><path d="M 107.74402155503746 80.48000691201159 l 2.4909393600213896 -6.278794389277826 a27.754852913138116,27.754852913138116 0 0,0 0.44136234812657155,0.17949822463673676 l -2.598356169338401 6.235108908061797" fill="#ff5e08" stroke="none" /><path d="M 109.06512990194946 81.05736502329252 l 1.3351672910825212 -2.789986122799695 a24.093007316608144,24.093007316608144 0 0,0 0.371536832568456,0.18173728275733853 l -1.382864372913044 2.7666550899451354" fill="#ff2b04" stroke="none" /><path d="M 109.3889696526874 81.21577127319529 l 2.1294179144550984 -4.2602622694206955 a25.762799099127726,25.762799099127726 0 0,0 0.3938920706281832,0.20112409785486993 l -2.2022372067968603 4.223080219892991" fill="#ff4206" stroke="none" /><path d="M 109.71004243097381 81.37971332152246 l 2.408182587703328 -4.618007642697476 a26.208199109455187,26.208199109455187 0 0,0 0.39713057498673193,0.2114496627118413 l -2.4871019784766193 4.575987512263062" fill="#ff4806" stroke="none" /><path d="M 110.02825361518725 81.54914285379988 l 2.5057648406330544 -4.610325076588929 a26.247280700360665,26.247280700360665 0 0,0 0.39402894218509155,0.21856121208952012 l -2.5845379709742464 4.566630949066264" fill="#ff4906" stroke="none" /><path d="M 110.34350942703115 81.72400993836675 l 4.027463205837674 -7.116141580644327 a29.17679221150638,29.17679221150638 0 0,0 0.4337721091478279,0.25043844398345017 l -4.1490277828458995 7.045956239384705" fill="#ff710a" stroke="none" /><line stroke="#e1ed5e" stroke-width="0.3" x1="143.13028292997686" x2="145.6673583964461" y1="26.7553504044142" y2="22.446841604673864" /><path d="M 143.63769802327073 25.89364864446614 a86.0,86.0 0 0,1 29.32050498858742,28.57503671076993" fill="none" id="id14" stroke="none" /><text fill="#e1ed5e" style="font-size:6.75px; font-family:Arial;" text-anchor="middle"><textPath startOffset="20.669276256404974" xlink:href="#id14">February</textPath></text><path d="M 110.65571695917076 81.90426304109057 l 0.1441979365547381 -0.24487962094998408 a21.28418140977772,21.28418140977772 0 0,0 0.31324967986911917,0.18809743236706508 l -0.14838037298129153 0.24236818804699795" fill="#ff0300" stroke="none" /><path d="M 111.27062007382361 82.28071324371311 l 0.3360892674304471 -0.5283881513441999 a21.626218838875737,21.626218838875737 0 0,0 0.3115353294625757,0.20193343669457156 l -0.34511022915003015 0.5225408729457337" fill="#ff0801" stroke="none" /><path d="M 111.5731344415666 82.4767994020092 l 0.36873403072584593 -0.5583103195023499 a21.66908534453995,21.66908534453995 0 0,0 0.30863351714737025,0.20766240421298926 l -0.3782638359702172 0.5518982412322418" fill="#ff0901" stroke="none" /><path d="M 113.86319453409587 84.22622945171908 l 0.2553010940695176 -0.2904857800756736 a21.386730703538348,21.386730703538348 0 0,0 0.27368392866433655,0.24472985663049912 l -0.26025004955722975 0.28606039356178753" fill="#ff0500" stroke="none" /><path d="M 114.13192950727249 84.46653392183569 l 0.6435502058562717 -0.7073744096388025 a21.956313454297018,21.956313454297018 0 0,0 0.2766184224621729,0.25603388215772926 l -0.6555983996324095 0.6962227813486983" fill="#ff0d01" stroke="none" /><path d="M 114.39649973595853 84.71141617570332 l 0.6436883320173115 -0.6835747022721113 a21.938940382751554,21.938940382751554 0 0,0 0.2719671339328967,0.2605383621622519 l -0.6553279518155202 0.6724242098042792" fill="#ff0d01" stroke="none" /><path d="M 115.6541949942343 86.00192230759917 l 0.13510631817453073 -0.12081290281856576 a21.181244240455044,21.181244240455044 0 0,0 0.24004294194376835,0.2731248038569233 l -0.13716032407688927 0.11847582115034466" fill="#ff0200" stroke="none" /><path d="M 115.8921839302757 86.27271002978787 l 0.13919138199787826 -0.1202302006081986 a21.183928089102146,21.183928089102146 0 0,0 0.2353488375934249,0.2772403389088217 l -0.14123478309841536 0.11782307924982487" fill="#ff0200" stroke="none" /><path d="M 116.35404254752997 86.82634096563983 l 0.3995228232100659 -0.3218273056412764 a21.513021735331034,21.513021735331034 0 0,0 0.2291992924062537,0.2895858186051487 l -0.4049885462578789 0.31492154312144943" fill="#ff0601" stroke="none" /><path d="M 116.57777611688842 87.10902102172516 l 0.403951431059668 -0.31411507607038547 a21.51170796326602,21.51170796326602 0 0,0 0.22418070245201818,0.29345973580691886 l -0.4092841108659929 0.3071344270225846" fill="#ff0601" stroke="none" /><path d="M 116.7966241395341 87.39550010848427 l 0.4186563036876172 -0.3141674952404643 a21.523425558874465,21.523425558874465 0 0,0 0.21922939327052926,0.2974267761955432 l -0.4239877165419722 0.3069344097760461" fill="#ff0701" stroke="none" /><path d="M 117.42321728460499 88.27688183743584 l 0.5233484462253589 -0.35213219091948733 a21.63078576081603,21.63078576081603 0 0,0 0.20464326179122527,0.3098559811519254 l -0.5293161469373086 0.3430963314285032" fill="#ff0801" stroke="none" /><path d="M 117.62189284568427 88.57770195909679 l 0.5422986402067959 -0.3515114267157511 a21.646256990895946,21.646256990895946 0 0,0 0.199436560488465,0.31354739862008313 l -0.5482528923211508 0.342150353416996" fill="#ff0801" stroke="none" /><path d="M 117.81537515405839 88.88188828441811 l 0.6537839182639197 -0.40800951864621615 a21.770652437280543,21.770652437280543 0 0,0 0.19513972492396536,0.3187460753436318 l -0.6606916076432874 0.39672632717802964" fill="#ff0a01" stroke="none" /><line stroke="#e1ed5e" stroke-width="0.3" x1="172.87174338648825" x2="177.1583165268699" y1="56.24261187166439" y2="53.66864786411523" /><path d="M 173.72905801456457 55.72781907015455 a86.0,86.0 0 0,1 12.242430191666344,42.057860355516425" fill="none" id="id15" stroke="none" /><text fill="#e1ed5e" style="font-size:6.75px; font-family:Arial;" text-anchor="middle"><textPath startOffset="22.145653131862474" xlink:href="#id15">March</textPath></text><path d="M 118.18653347947321 89.5 l 1.2464810763264715 -0.7196561849568629 a22.439312369913726,22.439312369913726 0 0,0 0.1897368185123711,0.3352467780805498 l -1.2586512598602184 0.6981526367771951" fill="#ff1402" stroke="none" /><path d="M 118.53625476483649 90.13048839642627 l 0.17011900427605944 -0.09057878778597954 a21.19273036193775,21.19273036193775 0 0,0 0.16822176893927263,0.32258742281270325 l -0.17164884219027665 0.08764512186877806" fill="#ff0200" stroke="none" /><path d="M 118.8641267826498 90.77261029715802 l 0.812337002821788 -0.39735473480646116 a21.90431310475222,21.90431310475222 0 0,0 0.1623221647257126,0.339190893929378 l -0.8190384255074126 0.38335133881197964" fill="#ff0c01" stroke="none" /><path d="M 119.0197475246899 91.09779779509293 l 0.5458801864531962 -0.25549949036655045 a21.602714831026866,21.602714831026866 0 0,0 0.15432108695048632,0.3372194255088025 l -0.550185738258734 0.24609108264306373" fill="#ff0801" stroke="none" /><path d="M 119.31412917781788 91.75594674310238 l 1.2768540756822893 -0.5450130784721638 a22.388306733503867,22.388306733503867 0 0,0 0.14784188231080073,0.3547666975984297 l -1.2860218025295733 0.5230138714324563" fill="#ff1302" stroke="none" /><path d="M 119.58574465831526 92.42381321644754 l 0.6890886502878842 -0.2665542932415692 a21.738846641192264,21.738846641192264 0 0,0 0.13164353628681735,0.34920012019375446 l -0.6935628703891422 0.254685892853657" fill="#ff0a01" stroke="none" /><path d="M 119.71291397450082 92.76114493625339 l 0.3361373026082233 -0.12343427350452273 a21.35808421646356,21.35808421646356 0 0,0 0.12342921279510274,0.34525347572199305 l -0.33820668544726923 0.11764584140161284" fill="#ff0400" stroke="none" /><path d="M 119.94978838288452 93.4421083053983 l 0.8776726966842611 -0.2885084481949865 a21.923875796406044,21.923875796406044 0 0,0 0.11445858829538519,0.35853989761855903 l -0.8824960007569034 0.27339951688504044" fill="#ff0c01" stroke="none" /><path d="M 120.16314734710363 94.1308016681162 l 0.1403597920386516 -0.04085668983692403 a21.14618529449149,21.14618529449149 0 0,0 0.09846218499836554,0.34940755889843694 l -0.1410404691115992 0.038441207035473934" fill="#ff0100" stroke="none" /><path d="M 120.26092885502905 94.47779374421319 l 0.7251931887855234 -0.19765462839436349 a21.751646534739987,21.751646534739987 0 0,0 0.09509666484316513,0.36109752590486754 l -0.7284793344334188 0.1851765981166974" fill="#ff0a01" stroke="none" /><path d="M 120.35273937422433 94.82641323984039 l 0.6153393943556172 -0.1564168677792143 a21.634908502677195,21.634908502677195 0 0,0 0.08840690534325965,0.3607303427309153 l -0.6179338262151681 0.14583070044020402" fill="#ff0801" stroke="none" /><path d="M 120.43855184770803 95.1765574152323 l 0.5829232386449666 -0.13756829710252402 a21.598936172325587,21.598936172325587 0 0,0 0.08206478611718158,0.36159258960152874 l -0.5851988863198146 0.12754137356196904" fill="#ff0801" stroke="none" /><path d="M 120.592083275326 95.88100663000786 l 0.649322232174238 -0.12988263176455317 a21.662184913169895,21.662184913169895 0 0,0 0.06980763668303475,0.3652630530251187 l -0.6514561611394296 0.11871701370611998" fill="#ff0901" stroke="none" /><path d="M 120.65975698304385 96.23510406497455 l 0.3091688696185703 -0.05634086700142183 a21.31426053400912,21.31426053400912 0 0,0 0.06250679166690565,0.3605225638012232 l -0.3100904787777103 0.051025270279605926" fill="#ff0400" stroke="none" /><path d="M 120.77682067341334 96.94652285012252 l 1.486109725348912 -0.21840695262727655 a22.502073138276746,22.502073138276746 0 0,0 0.052885747535695936,0.3826549241626389 l -1.4896399894398205 0.192863720264552" fill="#ff1502" stroke="none" /><path d="M 120.82617615685814 97.30363454192243 l 0.1246128438181693 -0.016133627468308927 a21.125652913932537,21.125652913932537 0 0,0 0.04347650692107722,0.3600478455722753 l -0.12487143699891017 0.013992104972620677" fill="#ff0100" stroke="none" /><path d="M 120.86939407059847 97.66154086499901 l 0.624382053590422 -0.06996331144114168 a21.6282895938925,21.6282895938925 0 0,0 0.0381766166647273,0.3693241351964278 l -0.6254910627368153 0.05923465396178244" fill="#ff0801" stroke="none" /><path d="M 120.93736805541906 98.37931529534042 l 0.6223240031002225 -0.04817181369202725 a21.62418562020369,21.62418562020369 0 0,0 0.025471271203579907,0.3703466931244545 l -0.6230592354688684 0.03748169641323856" fill="#ff0801" stroke="none" /><path d="M 120.96210409425399 98.7389718711861 l 1.756253567060453 -0.10565185343202624 a22.759428573698344,22.759428573698344 0 0,0 0.02011327710497641,0.3901922025313813 l -1.7578084336220023 0.07548785752391426" fill="#ff1802" stroke="none" /><line stroke="#e1ed5e" stroke-width="0.3" x1="184.99686870605535" x2="189.99668451229388" y1="99.2704041080226" y2="99.22748670261217" /><path d="M 185.99683186730306 99.26182062694052 a86.0,86.0 0 0,1 -10.086455211305974,41.156179273409016" fill="none" id="id16" stroke="none" /><text fill="#e1ed5e" style="font-size:6.75px; font-family:Arial;" text-anchor="middle"><textPath startOffset="21.40746469413373" xlink:href="#id16">April</textPath></text><path d="M 120.99922638620191 99.81974689727618 l 0.7807835104333575 -0.00670208738754734 a21.780812274583326,21.780812274583326 0 0,0 0.0,0.3739103802227483 l -0.7807835104333575 -0.006702087387547246" fill="#ff0a01" stroke="none" /><path d="M 120.99922638620191 100.18025310272382 l 0.4618739622848133 0.0039646324696937015 a21.46189097777213,21.46189097777213 0 0,0 -0.006324684777993582,0.36838118057493013 l -0.46173784590815137 -0.011892729013694892" fill="#ff0600" stroke="none" /><path d="M 120.93736805541906 101.62068470465957 l 0.5254072985792467 0.040669847818025844 a21.52697899950746,21.52697899950746 0 0,0 -0.03168194929221847,0.3681922747718719 l -0.5246317265892875 -0.04968316996555505" fill="#ff0701" stroke="none" /><path d="M 120.9064616781168 101.97986365728391 l 0.9354183373677404 0.08858508909950344 a21.939603524841512,21.939603524841512 0 0,0 -0.038726124407937185,0.37464012413874404 l -0.9337598204781371 -0.10462973552117885" fill="#ff0d01" stroke="none" /><path d="M 120.86939407059847 102.33845913500097 l 0.3123122612000635 0.03499524028850529 a21.314266790066572,21.314266790066572 0 0,0 -0.04386467350341013,0.3632624217098204 l -0.3116655014369897 -0.040351338921734335" fill="#ff0400" stroke="none" /><path d="M 120.77682067341334 103.0534771498775 l 0.44117402777060555 0.06483738942025763 a21.445913007038563,21.445913007038563 0 0,0 -0.0566565358744295,0.3637756029703409 l -0.43999599975790854 -0.07240117432204907" fill="#ff0600" stroke="none" /><path d="M 120.7213421655516 103.40968896794604 l 0.39313642887021116 0.06469044976463652 a21.398423274916983,21.398423274916983 0 0,0 -0.0627536096554373,0.3619461443697505 l -0.39196800172253954 -0.071429627054975" fill="#ff0500" stroke="none" /><path d="M 120.592083275326 104.11899336999214 l 0.08811647512873132 0.017625762871560407 a21.08986200924705,21.08986200924705 0 0,0 -0.07405784299810217,0.3543935879868634 l -0.08780092130626467 -0.019135802143832894" fill="#ff0000" stroke="none" /><path d="M 120.51834098615036 104.47187691870673 l 1.3899795392843572 0.3029395711571382 a22.422608696515674,22.422608696515674 0 0,0 -0.08519431569164831,0.37538187434358683 l -1.3845743620350448 -0.326755779439742" fill="#ff1302" stroke="none" /><path d="M 120.26092885502905 105.52220625578681 l 0.3035807521049759 0.08274228394985186 a21.314654665628623,21.314654665628623 0 0,0 -0.09924662257689341,0.3521912511293763 l -0.3021156374535028 -0.08794145898223667" fill="#ff0400" stroke="none" /><path d="M 120.16314734710363 105.8691983318838 l 0.36181675326093193 0.10531958370039471 a21.376833620648565,21.376833620648565 0 0,0 -0.10558494522875249,0.3514579430241674 l -0.35995548802854976 -0.11151513031528557" fill="#ff0500" stroke="none" /><path d="M 119.94978838288452 106.5578916946017 l 0.41674847699298834 0.13699350206415878 a21.438687260680975,21.438687260680975 0 0,0 -0.117927662902832,0.34863218099974763 l -0.41433539251779133 -0.1441273575380669" fill="#ff0500" stroke="none" /><path d="M 119.83427380445688 106.89939002012753 l 0.9525128815499521 0.3313334248482513 a22.008495229507936,22.008495229507936 0 0,0 -0.12718796374484617,0.35576737109881873 l -0.9466847477611626 -0.3476357523279915" fill="#ff0e01" stroke="none" /><path d="M 119.71291397450082 107.23885506374661 l 0.41479524018701014 0.15231855770941452 a21.44187784998173,21.44187784998173 0 0,0 -0.12984518780554613,0.3444297871905289 l -0.41211936856702336 -0.15941662509410234" fill="#ff0500" stroke="none" /><path d="M 119.4528033332814 107.91128576633889 l 0.43836726493392375 0.1782801503764368 a21.473233209933426,21.473233209933426 0 0,0 -0.14179916573612428,0.340266377592941 l -0.43524225466131394 -0.1857790374106556" fill="#ff0601" stroke="none" /><path d="M 119.31412917781788 108.2440532568976 l 4.620637047446496 1.9722751954922344 a26.023958217480416,26.023958217480416 0 0,0 -0.1789037058290635,0.40936669018106564 l -4.586099459600467 -2.0513039554491446" fill="#ff4606" stroke="none" /><path d="M 119.0197475246899 108.90220220490707 l 0.38378367122029355 0.17963013650468168 a21.423741539427063,21.423741539427063 0 0,0 -0.15876088360193796,0.3317491860766759 l -0.3806435296584436 -0.1861918246464611" fill="#ff0500" stroke="none" /><path d="M 118.8641267826498 109.22738970284198 l 0.5704117476541977 0.27901696947485705 a21.63499608748153,21.63499608748153 0 0,0 -0.1660538355735288,0.3322189062016567 l -0.5655379988689366 -0.2887677318402595" fill="#ff0801" stroke="none" /><line stroke="#e1ed5e" stroke-width="0.3" x1="174.33088141563837" x2="178.70328620479359" y1="141.23008692659167" y2="143.65538615756765" /><path d="M 175.20536237346943 141.71514677278685 a86.0,86.0 0 0,1 -30.301960400862466,31.631185727798858" fill="none" id="id17" stroke="none" /><text fill="#e1ed5e" style="font-size:6.75px; font-family:Arial;" text-anchor="middle"><textPath startOffset="22.145653131862474" xlink:href="#id17">May</textPath></text><path d="M 118.18653347947321 110.5 l 0.7047556230466382 0.40689084867887876 a21.813781697357758,21.813781697357758 0 0,0 -0.19001495971128018,0.3226869428277972 l -0.6976669532055926 -0.4189289598002254" fill="#ff0b01" stroke="none" /><path d="M 118.00360718960297 110.81064883170644 l 0.10798152483404808 0.0648398031016375 a21.125953204690255,21.125953204690255 0 0,0 -0.18936100831136732,0.3093069760443677 l -0.10685255206727609 -0.06668389527056225" fill="#ff0100" stroke="none" /><path d="M 117.423217284605 111.72311816256416 l 0.10430842995343316 0.07018336680999303 a21.125721730564514,21.125721730564514 0 0,0 -0.20503042408917427,0.29914551615456403 l -0.10308826904893853 -0.07196361803460108" fill="#ff0100" stroke="none" /><path d="M 117.21940702142032 112.02048342749411 l 0.30930584547048207 0.21591950204091925 a21.377215240153163,21.377215240153163 0 0,0 -0.21263702376872462,0.29910060319474563 l -0.3055537231717968 -0.2211973319451689" fill="#ff0500" stroke="none" /><path d="M 117.01052211995028 112.31430620078461 l 0.4566228163367598 0.33055970528034134 a21.56371456886827,21.56371456886827 0 0,0 -0.21963976174055744,0.29798351983868393 l -0.45088103501237425 -0.33834953438790266" fill="#ff0701" stroke="none" /><path d="M 116.79662413953412 112.60449989151573 l 0.08598599116220176 0.06452549079340811 a21.107504091262967,21.107504091262967 0 0,0 -0.21996835873137285,0.2879456426585458 l -0.08486565507652448 -0.06599204669283118" fill="#ff0100" stroke="none" /><path d="M 116.35404254752997 113.17365903436017 l 0.14685645163676345 0.1182971620158175 a21.18857633978932,21.18857633978932 0 0,0 -0.23060554848876227,0.2813012732185982 l -0.1448040839093736 -0.12080071693290857" fill="#ff0200" stroke="none" /><path d="M 116.1254893667686 113.45245675266167 l 2.1367285433450465 1.7825349462425089 a23.782631794277,23.782631794277 0 0,0 -0.26421987103397004,0.311250343706601 l -2.105814108803962 -1.8189520723986665" fill="#ff2703" stroke="none" /><path d="M 115.6541949942343 113.99807769240083 l 0.05647500994420416 0.05050030213430002 a21.075760855749216,21.075760855749216 0 0,0 -0.2434775257195938,0.2676244517505145 l -0.055599783382730514 -0.05146232944248628" fill="#ff0000" stroke="none" /><path d="M 115.16444852881244 114.52719865689866 l 0.6022326094945899 0.5769252168430494 a21.833982506871735,21.833982506871735 0 0,0 -0.2616056277224436,0.26843042024115527 l -0.5922401806213391 -0.587178329151942" fill="#ff0b01" stroke="none" /><path d="M 114.91283532996324 114.78537596483092 l 0.27993997555519334 0.27754734056862357 a21.39420669219403,21.39420669219403 0 0,0 -0.26081379883863093,0.2585846344656469 l -0.27513425658659757 -0.2823119852629322" fill="#ff0500" stroke="none" /><path d="M 114.39649973595853 115.28858382429668 l 0.17758309674856868 0.18858709479481078 a21.25903831487631,21.25903831487631 0 0,0 -0.26783374421961703,0.24790291512404808 l -0.17431958121498436 -0.19160775605123848" fill="#ff0300" stroke="none" /><path d="M 114.13192950727249 115.5334660781643 l 0.2192024739197344 0.24094191745929958 a21.32573414337692,21.32573414337692 0 0,0 -0.2729033615710557,0.24403186872247398 l -0.21503408552530076 -0.2446693160651605" fill="#ff0400" stroke="none" /><path d="M 113.59037401385872 116.0094264158162 l 0.2807350770550555 0.33070521487254495 a21.43379502375316,21.43379502375316 0 0,0 -0.28254402756609187,0.235708276822199 l -0.2750167153270686 -0.3354756756066141" fill="#ff0500" stroke="none" /><path d="M 113.03279911837588 116.46651593811092 l 0.38901784082547947 0.4915113336727721 a21.62683193250608,21.62683193250608 0 0,0 -0.29308482366840316,0.22790453159225926 l -0.38052307252184564 -0.49811691688582455" fill="#ff0801" stroke="none" /><path d="M 112.45986205192187 116.90419585922612 l 0.573909592411655 0.7786185846350393 a21.967274066953717,21.967274066953717 0 0,0 -0.3054695798985696,0.2211364187042964 l -0.5604590021391175 -0.7883557747124127" fill="#ff0d01" stroke="none" /><path d="M 111.8722381534696 117.32195027204791 l 0.28308777401642143 0.4130335224705823 a21.500734838494417,21.500734838494417 0 0,0 -0.30623569518265514,0.20604904258373388 l -0.27595579073676296 -0.4178322391114373" fill="#ff0601" stroke="none" /><path d="M 111.5731344415666 117.5232005979908 l 0.2623234919290013 0.3971912012123025 a21.47599838732741,21.47599838732741 0 0,0 -0.3093713368472301,0.2005307628259231 l -0.2554665228247615 -0.40163580574212027" fill="#ff0601" stroke="none" /><line stroke="#e1ed5e" stroke-width="0.3" x1="143.1302829299769" x2="145.66735839644613" y1="173.24464959558577" y2="177.55315839532614" /><path d="M 143.63769802327073 174.10635135553383 a86.0,86.0 0 0,1 -40.68552437913181,11.842963189579606" fill="none" id="id18" stroke="none" /><text fill="#e1ed5e" style="font-size:6.75px; font-family:Arial;" text-anchor="middle"><textPath startOffset="21.407464694133747" xlink:href="#id18">June</textPath></text><path d="M 110.65571695917076 118.09573695890943 l 0.48000056771613675 0.8151459021293629 a21.94597219132811,21.94597219132811 0 0,0 -0.32627132467899383,0.1883728371322736 l -0.46593677517674437 -0.8232656365378082" fill="#ff0d01" stroke="none" /><path d="M 110.34350942703117 118.27599006163325 l 0.307848167265392 0.5439382141162877 a21.625011419787413,21.625011419787413 0 0,0 -0.32463859672756235,0.1800715571763428 l -0.2984653823817352 -0.5491426867257743" fill="#ff0801" stroke="none" /><path d="M 109.71004243097381 118.62028667847754 l 0.23155440481495643 0.44403610282538414 a21.500784886954033,21.500784886954033 0 0,0 -0.3287293685234739,0.16785155785757 l -0.22389781457790017 -0.44794561235579045" fill="#ff0601" stroke="none" /><path d="M 109.06512990194946 118.94263497670748 l 0.20339614260292463 0.42501971032637753 a21.471181223089022,21.471181223089022 0 0,0 -0.33383728551660774,0.1562527060544983 l -0.19607014321481064 -0.4284486479514094" fill="#ff0600" stroke="none" /><path d="M 108.4095320186766 119.2426549942271 l 0.1984443590415093 0.4540795288139264 a21.49554856686633,21.49554856686633 0 0,0 -0.33938904498778005,0.14486500198519311 l -0.1906202388832981 -0.45741918045852337" fill="#ff0601" stroke="none" /><path d="M 107.06938296918513 119.77432235084164 l 0.17899293202565575 0.5006750874617835 a21.531708578941515,21.531708578941515 0 0,0 -0.349115356625632,0.12144044350315052 l -0.17037180335500196 -0.5036739635335244" fill="#ff0701" stroke="none" /><path d="M 106.72888874123015 119.89276391827305 l 0.1623714990028957 0.48002248527744495 a21.50674065364877,21.50674065364877 0 0,0 -0.350741412437229,0.11529566887778635 l -0.15410734891793243 -0.48273907555725054" fill="#ff0601" stroke="none" /><path d="M 106.38641147887787 120.00534299687104 l 0.16951047357027393 0.5309891441462845 a21.55738969478384,21.55738969478384 0 0,0 -0.35349947963026335,0.10951504241054388 l -0.16037036106838623 -0.5338207743634727" fill="#ff0701" stroke="none" /><path d="M 104.64783097203109 120.47920084513623 l 0.149891053454412 0.6604476382755657 a21.67724324345795,21.67724324345795 0 0,0 -0.3635971321159426,0.07924430264195066 l -0.1385315047193336 -0.6629233990512352" fill="#ff0901" stroke="none" /><path d="M 103.2317021107853 120.74984581791261 l 0.13034937912668085 0.8369365203286062 a21.8470263866601,21.8470263866601 0 0,0 -0.3710612299641952,0.054533222609510365 l -0.11596304355480012 -0.839050816236999" fill="#ff0b01" stroke="none" /><path d="M 102.51750503828377 120.84855314841334 l 0.03659995095646759 0.3031000975733606 a21.305301859737206,21.305301859737206 0 0,0 -0.3634726077095983,0.040727863825169984 l -0.03139144164607001 -0.3036837219055014" fill="#ff0300" stroke="none" /><path d="M 101.80034050326958 120.92268563240118 l 0.38427379013501933 4.465843929614915 a25.48234629959167,25.48234629959167 0 0,0 -0.43614977837846586,0.03376075125047485 l -0.30755501698131765 -4.471782447860444" fill="#ff3e05" stroke="none" /><path d="M 101.08105385017728 120.97215588758144 l 0.04840729976021834 0.9390886832341421 a21.94033548356345,21.94033548356345 0 0,0 -0.37630207833119506,0.016160030371730073 l -0.032279460828193704 -0.9397812820317031" fill="#ff0d01" stroke="none" /><line stroke="#e1ed5e" stroke-width="0.3" x1="101.45913802915013" x2="101.54496967792366" y1="184.9874750549273" y2="189.98673829345242" /><path d="M 101.47630435890484 185.9873277026323 a86.0,86.0 0 0,1 -42.54439059252881,-10.42667462771756" fill="none" id="id19" stroke="none" /><text fill="#e1ed5e" style="font-size:6.75px; font-family:Arial;" text-anchor="middle"><textPath startOffset="22.145653131862474" xlink:href="#id19">July</textPath></text><path d="M 100.0 121.0 l 7.37990205243941e-17 0.6026147341076289 a21.60261473410763,21.60261473410763 0 0,0 -0.37083760808958893,-0.0031831948584902688 l 0.010344683240736712 -0.6025259374435735" fill="#ff0801" stroke="none" /><path d="M 99.27912038922189 120.98762331915562 l -0.024410821469376783 0.7106944325383836 a21.711113538505536,21.711113538505536 0 0,0 -0.372370657392384,-0.015991198240757183 l 0.036607239462599535 -0.7101706658717978" fill="#ff0901" stroke="none" /><path d="M 98.91894614982273 120.97215588758144 l -0.01940279019515822 0.3764089462890031 a21.376908693337995,21.376908693337995 0 0,0 -0.36631434891650877,-0.022036561592043848 l 0.02586149124411333 -0.3760204068722675" fill="#ff0500" stroke="none" /><path d="M 98.55909050195518 120.95050786540614 l -0.08609150368363745 1.2517515690722327 a22.254708626606714,22.254708626606714 0 0,0 -0.38090629964978456,-0.029484556612697218 l 0.10756679810865813 -1.2500892454644819" fill="#ff1101" stroke="none" /><path d="M 97.48249496171623 120.84855314841334 l -0.09267097682393723 0.767448627211628 a21.77302348305502,21.77302348305502 0 0,0 -0.37068279903260576,-0.04799230966294708 l 0.10583159774733703 -0.765744721348284" fill="#ff0a01" stroke="none" /><path d="M 97.12497278360702 120.80226474461374 l -0.08711039202753781 0.6302874027180144 a21.636278579259283,21.636278579259283 0 0,0 -0.3674817798714292,-0.05400716671100728 l 0.09791727750665197 -0.6286991627081248" fill="#ff0801" stroke="none" /><path d="M 96.41257539226777 120.69131181640829 l -0.10696077263769213 0.6169213128549834 a21.62612499801395,21.62612499801395 0 0,0 -0.3652397802227981,-0.06655885473381792 l 0.11753528641154744 -0.6149942841897995" fill="#ff0801" stroke="none" /><path d="M 95.70440661134978 120.55596938700252 l -0.19266364931567653 0.9219653070016697 a21.941880729754207,21.941880729754207 0 0,0 -0.3680359544323695,-0.08021172330605168 l 0.20846202036718253 -0.9185221255618992" fill="#ff0d01" stroke="none" /><path d="M 95.35216902796893 120.47920084513623 l -0.424928550313872 1.8723135972622411 a22.91992772764105,22.91992772764105 0 0,0 -0.3829459846778495,-0.09037420967611606 l 0.45700668873160943 -1.8647432439398977" fill="#ff1b02" stroke="none" /><path d="M 95.00130118170881 120.39639698878247 l -0.12923735948027604 0.5273325290365887 a21.54293820206867,21.54293820206867 0 0,0 -0.3584280274369319,-0.0911110029525707 l 0.13827068014258664 -0.5250362942487549" fill="#ff0701" stroke="none" /><path d="M 94.6519064749342 120.30758222061772 l -0.11181497710560376 0.42457968067052376 a21.439056368070673,21.439056368070673 0 0,0 -0.3550905976773545,-0.09678152141471116 l 0.1190869757176534 -0.4225976651116682" fill="#ff0500" stroke="none" /><path d="M 94.30408787586889 120.21278271476187 l -0.16990269025316188 0.6029247091420891 a21.62640652059931,21.62640652059931 0 0,0 -0.35646495644145637,-0.10376175364416984 l 0.18022765907622504 -0.5999192611954033" fill="#ff0801" stroke="none" /><path d="M 93.61358852112213 120.00534299687104 l -0.2593512528697016 0.8124141057128135 a21.852806983746166,21.852806983746166 0 0,0 -0.35638521478598373,-0.11715089880998152 l 0.27325920530342884 -0.8078422855008104" fill="#ff0b01" stroke="none" /><path d="M 92.93061703081489 119.77432235084164 l -0.1056759814943148 0.29559452811070935 a21.313916450849234,21.313916450849234 0 0,0 -0.3434695498907201,-0.12612677626886284 l 0.11073468303915372 -0.2937369028331269" fill="#ff0400" stroke="none" /><path d="M 92.59220618246901 119.65005319985036 l -0.27890451416665446 0.7398273596766793 a21.79065305295604,21.79065305295604 0 0,0 -0.34888676070399527,-0.13495689398155286 l 0.29156353736417795 -0.7349305775570859" fill="#ff0a01" stroke="none" /><path d="M 91.92203290615298 119.3841803445677 l -0.12050964768225238 0.2891792844405629 a21.313284589046535,21.313284589046535 0 0,0 -0.33651131441135346,-0.14363666992255422 l 0.125456037264037 -0.2870679648586048" fill="#ff0400" stroke="none" /><path d="M 90.93487009805054 118.94263497670748 l -0.3067739685474784 0.6410396066471306 a21.71066310236896,21.71066310236896 0 0,0 -0.3347988441631596,-0.16376689166423322 l 0.3177330619727074 -0.6356789648856762" fill="#ff0901" stroke="none" /><path d="M 90.28995756902619 118.62028667847754 l -0.47177532218270296 0.9046913861932563 a22.02031292203562,22.02031292203562 0 0,0 -0.3336718976986395,-0.1776614913801464 l 0.48723603566790435 -0.8964594270905367" fill="#ff0e01" stroke="none" /><path d="M 89.97174638481275 118.45085714620012 l -0.6763532380192488 1.2444137787025868 a22.416340126948317,22.416340126948317 0 0,0 -0.33651816691857267,-0.18666095450754194 l 0.6976155930939241 -1.2326199087618965" fill="#ff1302" stroke="none" /><line stroke="#e1ed5e" stroke-width="0.3" x1="58.13341422392154" x2="55.67067388415222" y1="173.97424548756322" y2="178.32567169271397" /><path d="M 57.64086615596768 174.84453072859336 a86.0,86.0 0 0,1 -31.369924170532247,-30.572349798747897" fill="none" id="id20" stroke="none" /><text fill="#e1ed5e" style="font-size:6.75px; font-family:Arial;" text-anchor="middle"><textPath startOffset="22.145653131862474" xlink:href="#id20">August</textPath></text><path d="M 89.65649057296885 118.27599006163327 l -0.6118507360847876 1.0810816242566277 a22.242215279874163,22.242215279874163 0 0,0 -0.33067557818320104,-0.1909156340785077 l 0.6303187821283883 -1.0704190929019484" fill="#ff1101" stroke="none" /><path d="M 89.03521579738668 117.91015095944536 l -0.32691372830689613 0.5339890066688343 a21.626112485899046,21.626112485899046 0 0,0 -0.31495433109602905,-0.1965547965255323 l 0.33603218819263775 -0.5282984133017543" fill="#ff0801" stroke="none" /><path d="M 88.72937992617639 117.7192867562869 l -1.0360956095248872 1.6289143890796602 a22.930506720793147,22.930506720793147 0 0,0 -0.33032417822224425,-0.2141121414601596 l 1.0639054200041411 -1.6108884059156061" fill="#ff1b02" stroke="none" /><path d="M 88.1277618465304 117.32195027204791 l -0.2789850526538641 0.40704752939129796 a21.49347781184957,21.49347781184957 0 0,0 -0.30255131185383277,-0.21120431299298048 l 0.2859314556814623 -0.40219840059318845" fill="#ff0601" stroke="none" /><path d="M 86.96720088162412 116.46651593811092 l -0.4876350826012703 0.6161109970853668 a21.78573579179841,21.78573579179841 0 0,0 -0.2912537400376763,-0.2346133962038654 l 0.4981395929942085 -0.6076493070880908" fill="#ff0a01" stroke="none" /><path d="M 86.40962598614128 116.0094264158162 l -0.422260536436891 0.4974218501636415 a21.65248176806114,21.65248176806114 0 0,0 -0.28129720668512254,-0.24297782739734433 l 0.4307372228848761 -0.49009989030157486" fill="#ff0801" stroke="none" /><path d="M 85.08716467003676 114.78537596483092 l -0.3278539068121403 0.3250517535063591 a21.461678271818744,21.461678271818744 0 0,0 -0.257144834411642,-0.2638532533298333 l 0.3333855423745918 -0.3193758081087885" fill="#ff0600" stroke="none" /><path d="M 84.58840730492382 114.26474011684316 l -0.6777572273293814 0.6273219712881867 a21.923519201131253,21.923519201131253 0 0,0 -0.25327124589674455,-0.2783894658324545 l 0.6884261740680058 -0.6155949298980581" fill="#ff0c01" stroke="none" /><path d="M 84.3458050057657 113.99807769240083 l -0.48636129331883554 0.43490726753826364 a21.652450487773876,21.652450487773876 0 0,0 -0.24538303115593138,-0.2792008451137091 l 0.4937553884333594 -0.4264941446132544" fill="#ff0801" stroke="none" /><path d="M 83.8745106332314 113.45245675266167 l -0.5784044758298833 0.48252558540533064 a21.753248085447815,21.753248085447815 0 0,0 -0.2367511448485849,-0.2887979015175918 l 0.586602439917098 -0.4725254021892436" fill="#ff0a01" stroke="none" /><path d="M 83.64595745247003 113.17365903436017 l -0.7388765465390991 0.5951866435654943 a21.948781161124263,21.948781161124263 0 0,0 -0.23384186439264668,-0.29545155664909567 l 0.7489848415733074 -0.582415143001718" fill="#ff0d01" stroke="none" /><path d="M 83.20337586046588 112.60449989151573 l -0.5009094300100277 0.3758917746667946 a21.626262631277903,21.626262631277903 0 0,0 -0.22027685241809625,-0.29884785569957356 l 0.5072883020119544 -0.36723760969834135" fill="#ff0801" stroke="none" /><path d="M 82.98947788004972 112.3143062007846 l -0.31359087663057533 0.22701561124172362 a21.387137347272756,21.387137347272756 0 0,0 -0.21273571797672705,-0.2992394289581154 l 0.31744169313726306 -0.22159895557410425" fill="#ff0500" stroke="none" /><path d="M 82.576782715395 111.72311816256416 l -0.7792404444690028 0.5243077474348469 a21.939209393222008,21.939209393222008 0 0,0 -0.20756117789685932,-0.31427407803875523 l 0.7881260612865888 -0.5108537910570307" fill="#ff0d01" stroke="none" /><path d="M 82.18462484594161 111.11811171558189 l -0.40254004192592596 0.251214757894556 a21.474496933538823,21.474496933538823 0 0,0 -0.19248515571886587,-0.314410036045724 l 0.4067931621001965 -0.24426760572427497" fill="#ff0601" stroke="none" /><line stroke="#e1ed5e" stroke-width="0.3" x1="26.387840678322732" x2="22.057713659400548" y1="142.50000000000003" y2="145.00000000000006" /><path d="M 25.521815274538298 143.00000000000003 a86.0,86.0 0 0,1 -11.493303480769221,-40.785679425670985" fill="none" id="id21" stroke="none" /><text fill="#e1ed5e" style="font-size:6.75px; font-family:Arial;" text-anchor="middle"><textPath startOffset="21.40746469413373" xlink:href="#id21">September</textPath></text><path d="M 81.63589988554817 110.18625677009913 l -0.730571047745803 0.4052354449583243 a21.835433912200703,21.835433912200703 0 0,0 -0.1790034043405946,-0.32934610241307916 l 0.7374198017017272 -0.39263450907065817" fill="#ff0b01" stroke="none" /><path d="M 81.4637452351635 109.86951160357371 l -0.5525236865274047 0.294187742055435 a21.625962340520186,21.625962340520186 0 0,0 -0.17166063918173027,-0.3291819099346579 l 0.5574923946840843 -0.2846595890162743" fill="#ff0801" stroke="none" /><path d="M 81.1358732173502 109.22738970284198 l -0.5622574689195432 0.27502830312961934 a21.62591854811802,21.62591854811802 0 0,0 -0.16025911865507758,-0.3348799211050639 l 0.5668958455345326 -0.26533587995945074" fill="#ff0801" stroke="none" /><path d="M 80.5471966667186 107.91128576633889 l -0.621244370580372 0.2526546771786854 a21.670655614960516,21.670655614960516 0 0,0 -0.13718693675264984,-0.3458006977565909 l 0.6254899822991462 -0.2419529622085292" fill="#ff0901" stroke="none" /><path d="M 80.41425534168474 107.57618678355246 l -0.5969464333265867 0.2309117042806731 a21.640050981903112,21.640050981903112 0 0,0 -0.13104526121854107,-0.34761312449579806 l 0.6008223783595636 -0.2206302995907301" fill="#ff0801" stroke="none" /><path d="M 80.28708602549918 107.23885506374661 l -1.263900453021406 0.46412175319490334 a22.34642242885969,22.34642242885969 0 0,0 -0.1291408583853631,-0.36122996497824805 l 1.2716814814507122 -0.4423568318357338" fill="#ff1202" stroke="none" /><path d="M 79.94057633289273 106.21446072829308 l -0.8177476366365513 0.25334030816973996 a21.856091413908704,21.856091413908704 0 0,0 -0.10795210627560398,-0.3593374522717301 l 0.821976062915785 -0.23926525230728637" fill="#ff0b01" stroke="none" /><path d="M 79.83685265289637 105.86919833188381 l -0.6049580919924992 0.1760944838253151 a21.630066314208996,21.630066314208996 0 0,0 -0.10071526193953782,-0.35740293411825036 l 0.607891846006612 -0.16568362580406906" fill="#ff0801" stroke="none" /><path d="M 79.73907114497094 105.5222062557868 l -0.6057008206166384 0.16508645209097464 a21.627795365353755,21.627795365353755 0 0,0 -0.09455519626391076,-0.3590414815141839 l 0.6084454976852819 -0.15466446620398805" fill="#ff0801" stroke="none" /><path d="M 79.56144815229197 104.8234425847677 l -0.554506819133638 0.13086209947174923 a21.569739152194984,21.569739152194984 0 0,0 -0.08195385254188138,-0.36110379580013774 l 0.5566715332331857 -0.12132396973258522" fill="#ff0701" stroke="none" /><path d="M 79.2786578344484 103.40968896794605 l -0.5700867120339317 0.09380755152174702 a21.577753161791577,21.577753161791577 0 0,0 -0.05700483563928461,-0.36601193731410386 l 0.5716130398114838 -0.08400743227619317" fill="#ff0701" stroke="none" /><path d="M 79.22317932658666 103.0534771498775 l -0.54567254918496 0.08019507346394912 a21.55153402500834,21.55153402500834 0 0,0 -0.05065173241814633,-0.36649070364543557 l 0.5469687981583188 -0.07081606161842793" fill="#ff0701" stroke="none" /><path d="M 79.17382384314188 102.69636545807758 l -0.7063503936198552 0.09145120008162887 a21.71224588490443,21.71224588490443 0 0,0 -0.04468371284584872,-0.37004524240005715 l 0.7078161927253652 -0.07931228075817248" fill="#ff0901" stroke="none" /><path d="M 79.13060592940153 102.33845913500099 l -0.31101909421496093 0.03485033823053635 a21.31296553011646,21.31296553011646 0 0,0 -0.03762003053914938,-0.36393966932569183 l 0.31157151723577636 -0.029506146621913112" fill="#ff0400" stroke="none" /><path d="M 79.0935383218832 101.97986365728391 l -0.06292342059395144 0.005958913351480928 a21.06320494844214,21.06320494844214 0 0,0 -0.030999398063398378,-0.36025999487110577 l 0.0630164413550906 -0.004877871104713134" fill="#ff0000" stroke="none" /><path d="M 79.06263194458094 101.62068470465958 l -0.9987011291270393 0.07730578362181081 a22.001688638999667,22.001688638999667 0 0,0 -0.02591593450516286,-0.3768119999392813 l 0.9998810247972683 -0.060150359528186224" fill="#ff0d01" stroke="none" /><path d="M 79.03789590574601 101.26102812881392 l -0.6251762118134083 0.03760904845321029 a21.62630642368007,21.62630642368007 0 0,0 -0.01911189872136259,-0.37076572940965824 l 0.6257296999913436 -0.026871525666821282" fill="#ff0801" stroke="none" /><path d="M 79.00696218219943 100.54070618675478 l -1.1384125921450452 0.029321470146184397 a22.138790138070195,22.138790138070195 0 0,0 -0.006524162718677398,-0.3799997705705396 l 1.1387481864623887 -0.009774783606592462" fill="#ff0f01" stroke="none" /><line stroke="#e1ed5e" stroke-width="0.3" x1="15.003131293944662" x2="10.003315487706104" y1="100.72959589197737" y2="100.7725132973878" /><path d="M 14.003168132696942 100.73817937305945 a86.0,86.0 0 0,1 10.791469493833604,-42.45332614584628" fill="none" id="id22" stroke="none" /><text fill="#e1ed5e" style="font-size:6.75px; font-family:Arial;" text-anchor="middle"><textPath startOffset="22.145653131862435" xlink:href="#id22">October</textPath></text><path d="M 79.00077361379809 100.18025310272382 l -0.35192780298647475 0.003020876924531475 a21.35194076804525,21.35194076804525 0 0,0 0.0,-0.3665479592966979 l 0.35192780298647475 0.003020876924531345" fill="#ff0400" stroke="none" /><path d="M 79.00077361379809 99.81974689727619 l -0.5318266196546011 -0.004565091901044934 a21.53184621220547,21.53184621220547 0 0,0 0.006345300147201778,-0.3695819224795019 l 0.5316698879087334 0.013693930349599178" fill="#ff0701" stroke="none" /><path d="M 79.01933749520258 99.09900007780938 l -1.07977000081913 -0.046369969799540334 a22.080765205198684,22.080765205198684 0 0,0 0.01951351932338829,-0.3785570617951229 l 1.0788148920391714 0.0648988249713752" fill="#ff0f01" stroke="none" /><path d="M 79.03789590574601 98.7389718711861 l -10.245291240064285 -0.6163312796997921 a31.26381297764502,31.26381297764502 0 0,0 0.036825851997295767,-0.5354398058771136 l 10.233201426901925 0.7921145097312307" fill="#ff8c0c" stroke="none" /><path d="M 79.06263194458094 98.37931529534042 l -1.6748788345592251 -0.12964621446895036 a22.67988905924784,22.67988905924784 0 0,0 0.033378724211354356,-0.38791137133030473 l 1.6724064876501277 0.15837863317493572" fill="#ff1702" stroke="none" /><path d="M 79.0935383218832 98.0201363427161 l -0.2237041889432413 -0.021185019277293174 a21.22470507157724,21.22470507157724 0 0,0 0.03746423987074602,-0.3624325359307869 l 0.22330755659083154 0.02502207749099283" fill="#ff0200" stroke="none" /><path d="M 79.13060592940154 97.66154086499901 l -0.7184723860545256 -0.08050632944739755 a21.72296876737794,21.72296876737794 0 0,0 0.044705780493926615,-0.3702279941828225 l 0.7169845193009307 0.0928280005536563" fill="#ff0901" stroke="none" /><path d="M 79.22317932658666 96.9465228501225 l -0.6242429591141114 -0.09174221800287115 a21.630948418309792,21.630948418309792 0 0,0 0.057145368661044256,-0.36691426012538847 l 0.6225760983147997 0.10244466005970958" fill="#ff0801" stroke="none" /><path d="M 79.2786578344484 96.59031103205396 l -0.14641841152486496 -0.024093093897676356 a21.148387426714756,21.148387426714756 0 0,0 0.062020347591388816,-0.35771688364112475 l 0.1459832464412418 0.02660301045939379" fill="#ff0100" stroke="none" /><path d="M 79.34024301695615 96.23510406497455 l -1.5075375170354648 -0.2747235543207711 a22.532364968461525,22.532364968461525 0 0,0 0.07261184195558949,-0.3799358399554965 l 1.502599382797716 0.3005619593095822" fill="#ff1502" stroke="none" /><path d="M 79.48165901384962 95.52812308129327 l -0.6115318276305458 -0.1332805155583223 a21.625887267830755,21.625887267830755 0 0,0 0.0821671863405404,-0.36204378387975433 l 0.6091537797323437 0.14375863337708486" fill="#ff0801" stroke="none" /><path d="M 79.56144815229197 95.17655741523228 l -0.487688351656172 -0.11509312308432178 a21.50108517771175,21.50108517771175 0 0,0 0.08786006198491444,-0.35849903521811927 l 0.4856407631549594 0.12344798291055872" fill="#ff0601" stroke="none" /><path d="M 79.83685265289637 94.1308016681162 l -0.458465405372967 -0.13345259775765983 a21.47749358505855,21.47749358505855 0 0,0 0.10608212722574809,-0.3531129001924847 l 0.45610695814358926 0.141303101540868" fill="#ff0601" stroke="none" /><path d="M 79.94057633289273 93.78553927170692 l -0.30891573002652695 -0.09570288281760395 a21.323400633947156,21.323400633947156 0 0,0 0.11132367090943862,-0.3487198135572411 l 0.30722734333983115 0.10099173006623671" fill="#ff0400" stroke="none" /><path d="M 80.05021161711548 93.44210830539832 l -2.537457513321225 -0.8341126849390613 a23.671036241440124,23.671036241440124 0 0,0 0.1302071320178679,-0.384934249519678 l 2.522764959730992 0.8775486089329009" fill="#ff2503" stroke="none" /><path d="M 80.28708602549916 92.7611449362534 l -0.44136299512253374 -0.16207460532348933 a21.47018025389663,21.47018025389663 0 0,0 0.13001657815565876,-0.3448844204566029 l 0.438515733152439 0.1696273059742371" fill="#ff0600" stroke="none" /><path d="M 80.5471966667186 92.08871423366112 l -0.5937290650187116 -0.24146444194539024 a21.640951854176265,21.640951854176265 0 0,0 0.14290670103831535,-0.3429240591341269 l 0.5894965194439177 0.25162101052078095" fill="#ff0801" stroke="none" /><path d="M 80.9802524753101 91.09779779509293 l -0.6803203436445797 -0.31842427221360586 a21.75115230620124,21.75115230620124 0 0,0 0.16118716486276957,-0.3368191807454662 l 0.6747539208219052 0.3300559550241593" fill="#ff0a01" stroke="none" /><path d="M 81.29705330413844 90.45014215332179 l -0.4836723047636441 -0.24696652511393197 a21.543075835332623,21.543075835332623 0 0,0 0.1710027100576621,-0.32792024408804876 l 0.47936152573104207 0.25523301230646733" fill="#ff0701" stroke="none" /><path d="M 81.46374523516351 90.13048839642627 l -0.5176461706703712 -0.27561742934545824 a21.586449081650485,21.586449081650485 0 0,0 0.17696226641417023,-0.32559063852662035 l 0.5128385546408504 0.2844629013466982" fill="#ff0801" stroke="none" /><line stroke="#e1ed5e" stroke-width="0.3" x1="26.387840678322718" x2="22.05771365940052" y1="57.49999999999999" y2="54.99999999999999" /><path d="M 25.521815274538284 56.99999999999999 a86.0,86.0 0 0,1 29.574782752854787,-30.34633250058573" fill="none" id="id23" stroke="none" /><text fill="#e1ed5e" style="font-size:6.75px; font-family:Arial;" text-anchor="middle"><textPath startOffset="21.40746469413373" xlink:href="#id23">November</textPath></text><path d="M 81.99639281039701 89.18935116829357 l -0.40045361199073204 -0.24046088803361038 a21.467102273630022,21.467102273630022 0 0,0 0.19241887420045906,-0.31430177016665073 l 0.39626677333488 0.24729977432480416" fill="#ff0600" stroke="none" /><path d="M 82.18462484594161 88.88188828441811 l -2.266401381532475 -1.4144020843977005 a23.671536726036322,23.671536726036322 0 0,0 0.21809636040552532,-0.34288370340008806 l 2.2417873295010597 1.4530994624764606" fill="#ff2503" stroke="none" /><path d="M 82.78059297857968 87.97951657250589 l -0.46700073394746394 -0.3260027814000795 a21.56953270229905,21.56953270229905 0 0,0 0.21454998634639416,-0.30179142462710484 l 0.4613356490710975 0.3339714327367046" fill="#ff0701" stroke="none" /><path d="M 83.64595745247003 86.82634096563983 l -0.4474145035202334 -0.3604054532249766 a21.574518780088656,21.574518780088656 0 0,0 0.2348059471707227,-0.2864250766353206 l 0.44116173711088075 0.36803281155879003" fill="#ff0701" stroke="none" /><path d="M 83.8745106332314 86.54754324733833 l -0.5299090630619054 -0.44206898727515953 a21.69009318546529,21.69009318546529 0 0,0 0.24097222181934955,-0.2838646713871605 l 0.5222422777354413 0.4511004411118767" fill="#ff0901" stroke="none" /><path d="M 84.58840730492382 85.73525988315684 l -0.39410650749713355 -0.36477909967082234 a21.537013715661196,21.537013715661196 0 0,0 0.25346415707464615,-0.26917015128416555 l 0.3877865166862158 0.3714907108994991" fill="#ff0701" stroke="none" /><path d="M 85.08716467003674 85.21462403516908 l -0.44575727460334447 -0.4419474062606085 a21.62770778054942,21.62770778054942 0 0,0 0.26366037813754406,-0.2614068841731569 l 0.4381049763358239 0.4495343006624388" fill="#ff0801" stroke="none" /><path d="M 85.86807049272753 84.46653392183569 l -0.3766525540496481 -0.4140071367164193 a21.559704436041248,21.559704436041248 0 0,0 0.27589745682453065,-0.24670920716063724 l 0.36949007040172555 0.42041187376045747" fill="#ff0701" stroke="none" /><path d="M 86.13680546590413 84.22622945171909 l -0.42696244895570407 -0.48580489049586906 a21.646763731549594,21.646763731549594 0 0,0 0.28122292108057434,-0.24291366126141697 l 0.41856004811228115 0.4930626842219967" fill="#ff0801" stroke="none" /><path d="M 86.96720088162412 83.53348406188908 l -0.5826298878976591 -0.7361338303419007 a21.9388027494876,21.9388027494876 0 0,0 0.2973126232911011,-0.23119209415048578 l 0.5699073199713134 0.7460269761131914" fill="#ff0d01" stroke="none" /><path d="M 87.54013794807813 83.09580414077388 l -0.4192390010926193 -0.5687782221636095 a21.70659040896741,21.70659040896741 0 0,0 0.30184459997394203,-0.21851221278934402 l 0.4094133907447094 0.575891206326033" fill="#ff0901" stroke="none" /><path d="M 87.83215693770416 82.88440491214696 l -0.30544062270070255 -0.42964048720566994 a21.527147913058677,21.527147913058677 0 0,0 0.30302526648231315,-0.2115351701328336 l 0.298020265044624 0.43482047314363026" fill="#ff0701" stroke="none" /><path d="M 88.72937992617638 82.28071324371311 l -0.2695449489505174 -0.4237694299762333 a21.50223003622555,21.50223003622555 0 0,0 0.3131501550520644,-0.19542885723781808 l 0.26223066510875437 0.42833408405558737" fill="#ff0601" stroke="none" /><path d="M 89.03521579738668 82.08984904055464 l -0.24667563294283493 -0.40292610801860834 a21.472438690636967,21.472438690636967 0 0,0 0.31602035410022206,-0.18976114263490335 l 0.23972252228517862 0.4071012511894351" fill="#ff0601" stroke="none" /><line stroke="#e1ed5e" stroke-width="0.3" x1="56.869717070023135" x2="54.33264160355391" y1="26.7553504044142" y2="22.446841604673864" /><path d="M 56.362301976729285 25.89364864446614 a86.0,86.0 0 0,1 42.16139366436587,-11.88097634709845" fill="none" id="id24" stroke="none" /><text fill="#e1ed5e" style="font-size:6.75px; font-family:Arial;" text-anchor="middle"><textPath startOffset="22.145653131862474" xlink:href="#id24">December</textPath></text><path d="M 89.97174638481275 81.54914285379989 l -0.26943891068141007 -0.49573724811681863 a21.56422756557937,21.56422756557937 0 0,0 0.32676087572814655,-0.173981761445717 l 0.2608892191667017 0.5002894772851111" fill="#ff0701" stroke="none" /><path d="M 90.93487009805054 81.0573650232925 l -0.2793739836458727 -0.5837841764467547 a21.647189143456362,21.647189143456362 0 0,0 0.33657388420458817,-0.15753357241943966 l 0.269311385569762 0.5884939804367373" fill="#ff0801" stroke="none" /><path d="M 91.26138138417902 80.90454125486306 l -0.2654168487615227 -0.5799837146587448 a21.63783008150749,21.63783008150749 0 0,0 0.3390818986243633,-0.1516670203070482 l 0.25542154728154065 0.5844544858756386" fill="#ff0801" stroke="none" /><path d="M 91.92203290615298 80.6158196554323 l -0.18571341196427185 -0.44564458212047936 a21.482792465720777,21.482792465720777 0 0,0 0.3416229859570982,-0.13893509433844142 l 0.17803596481673276 0.4487669330382121" fill="#ff0601" stroke="none" /><path d="M 92.592206182469 80.34994680014964 l -0.2651051604051687 -0.7032229343624858 a21.751533925705843,21.751533925705843 0 0,0 0.3505216689820072,-0.1287164120812118 l 0.2529943397690345 0.7076701954524196" fill="#ff0a01" stroke="none" /><path d="M 93.27111125876988 80.10723608172694 l -0.1595630734460683 -0.4717198741432043 a21.497975917157884,21.497975917157884 0 0,0 0.35059847324869503,-0.11524868192738166 l 0.1514418625496122 0.4743894774726145" fill="#ff0601" stroke="none" /><path d="M 95.00130118170881 79.60360301121753 l -0.13417835870544534 -0.5474934919953994 a21.56369580069591,21.56369580069591 0 0,0 0.36028607157133374,-0.08502653188272244 l 0.12476013339420565 0.549716167524354" fill="#ff0701" stroke="none" /><path d="M 95.35216902796891 79.52079915486377 l -0.08650851920229047 -0.38117249749829746 a21.390865957514418,21.390865957514418 0 0,0 0.35879366339520224,-0.07819740899121692 l 0.07995243918796986 0.38260136462322847" fill="#ff0500" stroke="none" /><path d="M 96.05791012581881 79.37332000966035 l -0.1969526074708783 -1.0305392665378041 a22.04919088323615,22.04919088323615 0 0,0 0.37238486474223625,-0.0678609271485492 l 0.17923300917760351 1.0337683676177145" fill="#ff0e01" stroke="none" /><path d="M 96.41257539226777 79.30868818359171 l -0.07672666436835243 -0.4425390107590476 a21.449141132684026,21.449141132684026 0 0,0 0.3633305733850192,-0.05978590758700706 l 0.06911858793026039 0.443790916841723" fill="#ff0600" stroke="none" /><path d="M 97.12497278360702 79.19773525538626 l -0.08609716179757525 -0.622956173514078 a21.62887766329303,21.62887766329303 0 0,0 0.3682287358208608,-0.04767458204813197 l 0.07539060408592041 0.6243423517626047" fill="#ff0801" stroke="none" /><path d="M 98.5590905019552 79.04949213459386 l -0.07387010648193143 -1.074055135987427 a22.076592414877897,22.076592414877897 0 0,0 0.37830411743633235,-0.022757836292974634 l 0.05542163691311527 1.0751649501050957" fill="#ff0f01" stroke="none" /><path d="M 98.9189461498227 79.02784411241856 l -0.01592170799655173 -0.3088768816146143 a21.30928696833442,21.30928696833442 0 0,0 0.3654788679027955,-0.01569523514652834 l 0.010617079492936127 0.3091046851869712" fill="#ff0400" stroke="none" /><path d="M 99.63950707515114 79.00309439819443 l -0.020451167598235252 -1.1911779841085317 a22.191353532785712,22.191353532785712 0 0,0 0.3809440924470871,-0.003269946871615185 l 2.917974581157827e-16 1.1913535327857119" fill="#ff1001" stroke="none" /></svg>